%TF.GenerationSoftware,KiCad,Pcbnew,9.0.1*%
%TF.CreationDate,2025-05-14T19:05:47-04:00*%
%TF.ProjectId,EX-CSB1,45582d43-5342-4312-9e6b-696361645f70,rev?*%
%TF.SameCoordinates,Original*%
%TF.FileFunction,Copper,L2,Inr*%
%TF.FilePolarity,Positive*%
%FSLAX46Y46*%
G04 Gerber Fmt 4.6, Leading zero omitted, Abs format (unit mm)*
G04 Created by KiCad (PCBNEW 9.0.1) date 2025-05-14 19:05:47*
%MOMM*%
%LPD*%
G01*
G04 APERTURE LIST*
G04 Aperture macros list*
%AMRoundRect*
0 Rectangle with rounded corners*
0 $1 Rounding radius*
0 $2 $3 $4 $5 $6 $7 $8 $9 X,Y pos of 4 corners*
0 Add a 4 corners polygon primitive as box body*
4,1,4,$2,$3,$4,$5,$6,$7,$8,$9,$2,$3,0*
0 Add four circle primitives for the rounded corners*
1,1,$1+$1,$2,$3*
1,1,$1+$1,$4,$5*
1,1,$1+$1,$6,$7*
1,1,$1+$1,$8,$9*
0 Add four rect primitives between the rounded corners*
20,1,$1+$1,$2,$3,$4,$5,0*
20,1,$1+$1,$4,$5,$6,$7,0*
20,1,$1+$1,$6,$7,$8,$9,0*
20,1,$1+$1,$8,$9,$2,$3,0*%
G04 Aperture macros list end*
%TA.AperFunction,ComponentPad*%
%ADD10C,0.600000*%
%TD*%
%TA.AperFunction,ComponentPad*%
%ADD11RoundRect,0.720000X-1.080000X0.180000X-1.080000X-0.180000X1.080000X-0.180000X1.080000X0.180000X0*%
%TD*%
%TA.AperFunction,ComponentPad*%
%ADD12R,1.700000X1.700000*%
%TD*%
%TA.AperFunction,ComponentPad*%
%ADD13C,1.700000*%
%TD*%
%TA.AperFunction,ComponentPad*%
%ADD14C,3.500000*%
%TD*%
%TA.AperFunction,ComponentPad*%
%ADD15O,1.700000X1.700000*%
%TD*%
%TA.AperFunction,HeatsinkPad*%
%ADD16O,2.100000X1.000000*%
%TD*%
%TA.AperFunction,HeatsinkPad*%
%ADD17O,1.800000X1.000000*%
%TD*%
%TA.AperFunction,ComponentPad*%
%ADD18C,0.550000*%
%TD*%
%TA.AperFunction,ComponentPad*%
%ADD19C,0.500000*%
%TD*%
%TA.AperFunction,ComponentPad*%
%ADD20R,3.500000X3.500000*%
%TD*%
%TA.AperFunction,ComponentPad*%
%ADD21RoundRect,0.350000X-1.400000X-1.400000X1.400000X-1.400000X1.400000X1.400000X-1.400000X1.400000X0*%
%TD*%
%TA.AperFunction,ComponentPad*%
%ADD22RoundRect,0.875000X-1.125000X-0.875000X1.125000X-0.875000X1.125000X0.875000X-1.125000X0.875000X0*%
%TD*%
%TA.AperFunction,ViaPad*%
%ADD23C,0.600000*%
%TD*%
G04 APERTURE END LIST*
D10*
%TO.N,GND*%
%TO.C,J110*%
X6200000Y35750000D03*
X8800000Y35750000D03*
D11*
X7500000Y36250000D03*
D10*
X6200000Y36750000D03*
X8800000Y36750000D03*
D11*
%TO.N,/Booster-C*%
X7500000Y39750000D03*
D10*
X6200000Y39250000D03*
X8800000Y39250000D03*
X6200000Y40250000D03*
X8800000Y40250000D03*
%TO.N,/Booster-D*%
X8800000Y42750000D03*
D11*
X7500000Y43250000D03*
D10*
X8800000Y43750000D03*
X6200000Y43750000D03*
X6200000Y42750000D03*
%TD*%
D12*
%TO.N,GND*%
%TO.C,J111*%
X33800000Y46750000D03*
D13*
%TO.N,+3V3*%
X36340000Y46750000D03*
%TO.N,/scl*%
X38880000Y46750000D03*
%TO.N,/sda*%
X41420000Y46750000D03*
%TD*%
D14*
%TO.N,N/C*%
%TO.C,H103*%
X56000000Y46500000D03*
%TD*%
D10*
%TO.N,/out1b*%
%TO.C,J103*%
X8800000Y20000000D03*
X6200000Y20000000D03*
D11*
X7500000Y19500000D03*
D10*
X8800000Y19000000D03*
X6200000Y19000000D03*
%TO.N,/out2b*%
X8800000Y16500000D03*
X6200000Y16500000D03*
D11*
X7500000Y16000000D03*
D10*
X8800000Y15500000D03*
X6200000Y15500000D03*
%TD*%
D12*
%TO.N,unconnected-(J108-Pin_1-Pad1)*%
%TO.C,J108*%
X27825000Y2370000D03*
D15*
%TO.N,/io_ref*%
X30365000Y2370000D03*
%TO.N,/reset_n*%
X32905000Y2370000D03*
%TO.N,+3V3*%
X35445000Y2370000D03*
%TO.N,+5V*%
X37985000Y2370000D03*
%TO.N,GND*%
X40525000Y2370000D03*
X43065000Y2370000D03*
%TO.N,/vin_pin*%
X45605000Y2370000D03*
%TD*%
D14*
%TO.N,N/C*%
%TO.C,H104*%
X56000000Y28000000D03*
%TD*%
D16*
%TO.N,GND*%
%TO.C,J114*%
X59685000Y37180000D03*
D17*
X63865000Y37180000D03*
D16*
X59685000Y45820000D03*
D17*
X63865000Y45820000D03*
%TD*%
D12*
%TO.N,/scl*%
%TO.C,J107*%
X18685000Y50630000D03*
D15*
%TO.N,/sda*%
X21225000Y50630000D03*
%TO.N,/aref*%
X23765000Y50630000D03*
%TO.N,GND*%
X26305000Y50630000D03*
%TO.N,/d13*%
X28845000Y50630000D03*
%TO.N,/d12*%
X31385000Y50630000D03*
%TO.N,/d11*%
X33925000Y50630000D03*
%TO.N,/d10*%
X36465000Y50630000D03*
%TO.N,/brake_c*%
X39005000Y50630000D03*
%TO.N,/brake_d*%
X41545000Y50630000D03*
%TD*%
D18*
%TO.N,/out2b*%
%TO.C,U101*%
X16300000Y23750000D03*
%TO.N,VM*%
X17100000Y23750000D03*
D19*
%TO.N,GND*%
X20400000Y26950000D03*
X19800000Y26950000D03*
X19200000Y26950000D03*
X18600000Y26950000D03*
X18000000Y26950000D03*
X17400000Y26950000D03*
X16800000Y26950000D03*
X16200000Y26950000D03*
X15600000Y26950000D03*
X20000000Y26250000D03*
X16000000Y26200000D03*
X20000000Y25500000D03*
X18000000Y25500000D03*
X16000000Y25450000D03*
X15570000Y25000000D03*
X20000000Y24750000D03*
X16010000Y24520000D03*
X15470000Y24340000D03*
X20400000Y24050000D03*
X19700000Y24050000D03*
X19100000Y24050000D03*
X18500000Y24050000D03*
X17900000Y24050000D03*
%TD*%
D10*
%TO.N,/out1a*%
%TO.C,J101*%
X8800000Y30000000D03*
X6200000Y30000000D03*
D11*
X7500000Y29500000D03*
D10*
X8800000Y29000000D03*
X6200000Y29000000D03*
%TO.N,/out2a*%
X8800000Y26500000D03*
X6200000Y26500000D03*
D11*
X7500000Y26000000D03*
D10*
X8800000Y25500000D03*
X6200000Y25500000D03*
%TD*%
D14*
%TO.N,N/C*%
%TO.C,H101*%
X3000000Y50000000D03*
%TD*%
%TO.N,N/C*%
%TO.C,H102*%
X17000000Y7000000D03*
%TD*%
D12*
%TO.N,/d7*%
%TO.C,J113*%
X45605000Y50630000D03*
D15*
%TO.N,/d6*%
X48145000Y50630000D03*
%TO.N,/d5*%
X50685000Y50630000D03*
%TO.N,/d4*%
X53225000Y50630000D03*
%TO.N,/d3*%
X55765000Y50630000D03*
%TO.N,/d2*%
X58305000Y50630000D03*
%TO.N,/USB_RX*%
X60845000Y50630000D03*
%TO.N,/USB_TX*%
X63385000Y50630000D03*
%TD*%
D12*
%TO.N,/Power/v_conn*%
%TO.C,J204*%
X22765000Y2500000D03*
D15*
X20225000Y2500000D03*
X17685000Y2500000D03*
%TO.N,GND*%
X15145000Y2500000D03*
%TD*%
D12*
%TO.N,/a0*%
%TO.C,J112*%
X50685000Y2370000D03*
D15*
%TO.N,/a1*%
X53225000Y2370000D03*
%TO.N,/a2*%
X55765000Y2370000D03*
%TO.N,/a3*%
X58305000Y2370000D03*
%TO.N,/a4*%
X60845000Y2370000D03*
%TO.N,/a5*%
X63385000Y2370000D03*
%TD*%
D10*
%TO.N,/Power/v_conn*%
%TO.C,J201*%
X10900000Y8700000D03*
X10900000Y7300000D03*
X10900000Y5900000D03*
D20*
X12300000Y7300000D03*
D10*
X13700000Y8700000D03*
X13700000Y7300000D03*
X13700000Y5900000D03*
%TO.N,GND*%
X4900000Y8700000D03*
X4900000Y7300000D03*
X4900000Y5900000D03*
D21*
X6300000Y7300000D03*
D10*
X7700000Y8700000D03*
X7700000Y7300000D03*
X7700000Y5900000D03*
D22*
X9400000Y2600000D03*
%TD*%
D18*
%TO.N,/out2a*%
%TO.C,U102*%
X16300000Y38050000D03*
%TO.N,VM*%
X17100000Y38050000D03*
D19*
%TO.N,GND*%
X20400000Y41250000D03*
X19800000Y41250000D03*
X19200000Y41250000D03*
X18600000Y41250000D03*
X18000000Y41250000D03*
X17400000Y41250000D03*
X16800000Y41250000D03*
X16200000Y41250000D03*
X15600000Y41250000D03*
X20000000Y40550000D03*
X16000000Y40500000D03*
X20000000Y39800000D03*
X18000000Y39800000D03*
X16000000Y39750000D03*
X15570000Y39300000D03*
X20000000Y39050000D03*
X16010000Y38820000D03*
X15470000Y38640000D03*
X20400000Y38350000D03*
X19700000Y38350000D03*
X19100000Y38350000D03*
X18500000Y38350000D03*
X17900000Y38350000D03*
%TD*%
D23*
%TO.N,GND*%
X13700000Y40500000D03*
X31200000Y5400000D03*
X27100000Y41400000D03*
X56900000Y34800000D03*
X36000000Y10000000D03*
X40020000Y44140000D03*
X45600000Y21400000D03*
X24200000Y17000000D03*
X5300000Y10000000D03*
X24700000Y18700000D03*
X60900000Y42400000D03*
X57000000Y18900000D03*
X40200000Y11300000D03*
X17700000Y16700000D03*
X32400000Y28900000D03*
X39500000Y10600000D03*
X3300000Y9000000D03*
X28700000Y18700000D03*
X40400000Y8500000D03*
X42800000Y24700000D03*
X50900000Y18400000D03*
X41100000Y8500000D03*
X56300000Y17200000D03*
X48500000Y4400000D03*
X24700000Y19900000D03*
X47600000Y31100000D03*
X56300000Y15800000D03*
X46300000Y21400000D03*
X57700000Y15800000D03*
X40600000Y21900000D03*
X65100000Y27000000D03*
X8900000Y6600000D03*
X22300000Y33500000D03*
X29700000Y29100000D03*
X32600000Y5400000D03*
X65100000Y7400000D03*
X14500000Y38100000D03*
X56200000Y18900000D03*
X65100000Y31300000D03*
X33600000Y19200000D03*
X55600000Y14000000D03*
X5600000Y4200000D03*
X18000000Y13831371D03*
X42900000Y27300000D03*
X14900000Y23700000D03*
X45450000Y47480000D03*
X57700000Y17200000D03*
X35300000Y10000000D03*
X36700000Y10000000D03*
X15400000Y34800000D03*
X15800000Y19400000D03*
X55300000Y40000000D03*
X22800000Y21700000D03*
X53200000Y36500000D03*
X31300000Y41100000D03*
X25500000Y32700000D03*
X3500000Y36350000D03*
X8700000Y5100000D03*
X45400000Y25300000D03*
X6900000Y10000000D03*
X3400000Y5900000D03*
X24800000Y26600000D03*
X3450000Y39800000D03*
X30500000Y31900000D03*
X22300000Y27200000D03*
X57100000Y8700000D03*
X58000000Y22100000D03*
X26600000Y23100000D03*
X40200000Y12000000D03*
X31900000Y5400000D03*
X29100000Y38200000D03*
X56700000Y14000000D03*
X16000000Y15500000D03*
X56400000Y25500000D03*
X3300000Y7300000D03*
X61000000Y29700000D03*
X60600000Y11500000D03*
X49500000Y40500000D03*
X57700000Y14000000D03*
X28100000Y21200000D03*
X60500000Y21000000D03*
X48500000Y13500000D03*
X40200000Y10600000D03*
X58500000Y14000000D03*
X52700000Y10600000D03*
X54200000Y32800000D03*
X7200000Y4500000D03*
X34600000Y10000000D03*
X55700000Y42300000D03*
X22300000Y32500000D03*
X31400000Y19200000D03*
X44200000Y39100000D03*
X13900000Y24900000D03*
X28700000Y7300000D03*
X8800000Y7900000D03*
X40300000Y6500000D03*
X38700000Y27300000D03*
X4100000Y4400000D03*
X10350000Y50000000D03*
X58000000Y18900000D03*
X48500000Y35800000D03*
X4000000Y10100000D03*
X3000000Y29300000D03*
X8500000Y9700000D03*
X3800000Y18900000D03*
%TO.N,+3V3*%
X49820000Y47430000D03*
X64500000Y22000000D03*
%TD*%
%TA.AperFunction,Conductor*%
%TO.N,GND*%
G36*
X64903487Y52399108D02*
G01*
X65004153Y52387765D01*
X65017792Y52384652D01*
X65110082Y52352359D01*
X65122686Y52346289D01*
X65205470Y52294272D01*
X65216412Y52285546D01*
X65285545Y52216413D01*
X65294271Y52205471D01*
X65346286Y52122690D01*
X65352359Y52110080D01*
X65384650Y52017795D01*
X65387764Y52004151D01*
X65399107Y51903488D01*
X65399500Y51896490D01*
X65399500Y1003511D01*
X65399107Y996513D01*
X65387764Y895850D01*
X65384650Y882206D01*
X65352359Y789921D01*
X65346286Y777311D01*
X65294271Y694530D01*
X65285545Y683588D01*
X65216412Y614455D01*
X65205470Y605729D01*
X65122689Y553714D01*
X65110079Y547641D01*
X65017794Y515350D01*
X65004150Y512236D01*
X64903488Y500893D01*
X64896490Y500500D01*
X1003510Y500500D01*
X996512Y500893D01*
X895849Y512236D01*
X882205Y515350D01*
X789920Y547641D01*
X777310Y553714D01*
X694529Y605729D01*
X683587Y614455D01*
X614454Y683588D01*
X605728Y694530D01*
X553713Y777311D01*
X547641Y789918D01*
X515348Y882208D01*
X512235Y895850D01*
X500893Y996513D01*
X500500Y1003511D01*
X500500Y2590544D01*
X16534500Y2590544D01*
X16534500Y2409457D01*
X16534501Y2409441D01*
X16562828Y2230597D01*
X16562831Y2230584D01*
X16618787Y2058367D01*
X16618789Y2058360D01*
X16685025Y1928367D01*
X16701004Y1897006D01*
X16807447Y1750499D01*
X16807450Y1750496D01*
X16807453Y1750492D01*
X16935491Y1622454D01*
X16935494Y1622452D01*
X16935499Y1622447D01*
X17082006Y1516004D01*
X17243361Y1433789D01*
X17415591Y1377829D01*
X17555922Y1355603D01*
X17594440Y1349502D01*
X17594446Y1349502D01*
X17594454Y1349500D01*
X17594456Y1349500D01*
X17775544Y1349500D01*
X17775546Y1349500D01*
X17954409Y1377829D01*
X18126639Y1433789D01*
X18287994Y1516004D01*
X18434501Y1622447D01*
X18562553Y1750499D01*
X18668996Y1897006D01*
X18751211Y2058361D01*
X18807171Y2230591D01*
X18835500Y2409454D01*
X18835500Y2590544D01*
X19074500Y2590544D01*
X19074500Y2409457D01*
X19074501Y2409441D01*
X19102828Y2230597D01*
X19102831Y2230584D01*
X19158787Y2058367D01*
X19158789Y2058360D01*
X19225025Y1928367D01*
X19241004Y1897006D01*
X19347447Y1750499D01*
X19347450Y1750496D01*
X19347453Y1750492D01*
X19475491Y1622454D01*
X19475494Y1622452D01*
X19475499Y1622447D01*
X19622006Y1516004D01*
X19783361Y1433789D01*
X19955591Y1377829D01*
X20095922Y1355603D01*
X20134440Y1349502D01*
X20134446Y1349502D01*
X20134454Y1349500D01*
X20134456Y1349500D01*
X20315544Y1349500D01*
X20315546Y1349500D01*
X20494409Y1377829D01*
X20666639Y1433789D01*
X20827994Y1516004D01*
X20974501Y1622447D01*
X21102553Y1750499D01*
X21208996Y1897006D01*
X21291211Y2058361D01*
X21347171Y2230591D01*
X21375500Y2409454D01*
X21375500Y2590546D01*
X21347171Y2769409D01*
X21291211Y2941639D01*
X21208996Y3102994D01*
X21102553Y3249501D01*
X21102548Y3249506D01*
X21102546Y3249509D01*
X20974508Y3377547D01*
X20974504Y3377550D01*
X20974501Y3377553D01*
X20950674Y3394864D01*
X21614500Y3394864D01*
X21614500Y1605137D01*
X21617415Y1580011D01*
X21617415Y1580009D01*
X21662794Y1477235D01*
X21742235Y1397794D01*
X21845009Y1352415D01*
X21870135Y1349500D01*
X23659864Y1349501D01*
X23684991Y1352415D01*
X23787765Y1397794D01*
X23867206Y1477235D01*
X23912585Y1580009D01*
X23915500Y1605135D01*
X23915499Y3264864D01*
X26674500Y3264864D01*
X26674500Y1475137D01*
X26677415Y1450011D01*
X26677415Y1450009D01*
X26722794Y1347235D01*
X26802235Y1267794D01*
X26905009Y1222415D01*
X26930135Y1219500D01*
X28719864Y1219501D01*
X28744991Y1222415D01*
X28847765Y1267794D01*
X28927206Y1347235D01*
X28972585Y1450009D01*
X28975500Y1475135D01*
X28975499Y2460544D01*
X29214500Y2460544D01*
X29214500Y2279457D01*
X29214501Y2279441D01*
X29242828Y2100597D01*
X29242831Y2100584D01*
X29298787Y1928367D01*
X29298789Y1928360D01*
X29314765Y1897006D01*
X29381004Y1767006D01*
X29487447Y1620499D01*
X29487450Y1620496D01*
X29487453Y1620492D01*
X29615491Y1492454D01*
X29615494Y1492452D01*
X29615499Y1492447D01*
X29762006Y1386004D01*
X29923361Y1303789D01*
X30095591Y1247829D01*
X30235922Y1225603D01*
X30274440Y1219502D01*
X30274446Y1219502D01*
X30274454Y1219500D01*
X30274456Y1219500D01*
X30455544Y1219500D01*
X30455546Y1219500D01*
X30634409Y1247829D01*
X30806639Y1303789D01*
X30967994Y1386004D01*
X31114501Y1492447D01*
X31242553Y1620499D01*
X31348996Y1767006D01*
X31431211Y1928361D01*
X31487171Y2100591D01*
X31515500Y2279454D01*
X31515500Y2460544D01*
X31754500Y2460544D01*
X31754500Y2279457D01*
X31754501Y2279441D01*
X31782828Y2100597D01*
X31782831Y2100584D01*
X31838787Y1928367D01*
X31838789Y1928360D01*
X31854765Y1897006D01*
X31921004Y1767006D01*
X32027447Y1620499D01*
X32027450Y1620496D01*
X32027453Y1620492D01*
X32155491Y1492454D01*
X32155494Y1492452D01*
X32155499Y1492447D01*
X32302006Y1386004D01*
X32463361Y1303789D01*
X32635591Y1247829D01*
X32775922Y1225603D01*
X32814440Y1219502D01*
X32814446Y1219502D01*
X32814454Y1219500D01*
X32814456Y1219500D01*
X32995544Y1219500D01*
X32995546Y1219500D01*
X33174409Y1247829D01*
X33346639Y1303789D01*
X33507994Y1386004D01*
X33654501Y1492447D01*
X33782553Y1620499D01*
X33888996Y1767006D01*
X33971211Y1928361D01*
X34027171Y2100591D01*
X34055500Y2279454D01*
X34055500Y2460544D01*
X34294500Y2460544D01*
X34294500Y2279457D01*
X34294501Y2279441D01*
X34322828Y2100597D01*
X34322831Y2100584D01*
X34378787Y1928367D01*
X34378789Y1928360D01*
X34394765Y1897006D01*
X34461004Y1767006D01*
X34567447Y1620499D01*
X34567450Y1620496D01*
X34567453Y1620492D01*
X34695491Y1492454D01*
X34695494Y1492452D01*
X34695499Y1492447D01*
X34842006Y1386004D01*
X35003361Y1303789D01*
X35175591Y1247829D01*
X35315922Y1225603D01*
X35354440Y1219502D01*
X35354446Y1219502D01*
X35354454Y1219500D01*
X35354456Y1219500D01*
X35535544Y1219500D01*
X35535546Y1219500D01*
X35714409Y1247829D01*
X35886639Y1303789D01*
X36047994Y1386004D01*
X36194501Y1492447D01*
X36322553Y1620499D01*
X36428996Y1767006D01*
X36511211Y1928361D01*
X36567171Y2100591D01*
X36595500Y2279454D01*
X36595500Y2460544D01*
X36834500Y2460544D01*
X36834500Y2279457D01*
X36834501Y2279441D01*
X36862828Y2100597D01*
X36862831Y2100584D01*
X36918787Y1928367D01*
X36918789Y1928360D01*
X36934765Y1897006D01*
X37001004Y1767006D01*
X37107447Y1620499D01*
X37107450Y1620496D01*
X37107453Y1620492D01*
X37235491Y1492454D01*
X37235494Y1492452D01*
X37235499Y1492447D01*
X37382006Y1386004D01*
X37543361Y1303789D01*
X37715591Y1247829D01*
X37855922Y1225603D01*
X37894440Y1219502D01*
X37894446Y1219502D01*
X37894454Y1219500D01*
X37894456Y1219500D01*
X38075544Y1219500D01*
X38075546Y1219500D01*
X38254409Y1247829D01*
X38426639Y1303789D01*
X38587994Y1386004D01*
X38734501Y1492447D01*
X38862553Y1620499D01*
X38968996Y1767006D01*
X39051211Y1928361D01*
X39107171Y2100591D01*
X39135500Y2279454D01*
X39135500Y2460544D01*
X44454500Y2460544D01*
X44454500Y2279457D01*
X44454501Y2279441D01*
X44482828Y2100597D01*
X44482831Y2100584D01*
X44538787Y1928367D01*
X44538789Y1928360D01*
X44554765Y1897006D01*
X44621004Y1767006D01*
X44727447Y1620499D01*
X44727450Y1620496D01*
X44727453Y1620492D01*
X44855491Y1492454D01*
X44855494Y1492452D01*
X44855499Y1492447D01*
X45002006Y1386004D01*
X45163361Y1303789D01*
X45335591Y1247829D01*
X45475922Y1225603D01*
X45514440Y1219502D01*
X45514446Y1219502D01*
X45514454Y1219500D01*
X45514456Y1219500D01*
X45695544Y1219500D01*
X45695546Y1219500D01*
X45874409Y1247829D01*
X46046639Y1303789D01*
X46207994Y1386004D01*
X46354501Y1492447D01*
X46482553Y1620499D01*
X46588996Y1767006D01*
X46671211Y1928361D01*
X46727171Y2100591D01*
X46755500Y2279454D01*
X46755500Y2460546D01*
X46727171Y2639409D01*
X46671211Y2811639D01*
X46588996Y2972994D01*
X46482553Y3119501D01*
X46482548Y3119506D01*
X46482546Y3119509D01*
X46354508Y3247547D01*
X46354504Y3247550D01*
X46354501Y3247553D01*
X46330674Y3264864D01*
X49534500Y3264864D01*
X49534500Y1475137D01*
X49537415Y1450011D01*
X49537415Y1450009D01*
X49582794Y1347235D01*
X49662235Y1267794D01*
X49765009Y1222415D01*
X49790135Y1219500D01*
X51579864Y1219501D01*
X51604991Y1222415D01*
X51707765Y1267794D01*
X51787206Y1347235D01*
X51832585Y1450009D01*
X51835500Y1475135D01*
X51835499Y2460544D01*
X52074500Y2460544D01*
X52074500Y2279457D01*
X52074501Y2279441D01*
X52102828Y2100597D01*
X52102831Y2100584D01*
X52158787Y1928367D01*
X52158789Y1928360D01*
X52174765Y1897006D01*
X52241004Y1767006D01*
X52347447Y1620499D01*
X52347450Y1620496D01*
X52347453Y1620492D01*
X52475491Y1492454D01*
X52475494Y1492452D01*
X52475499Y1492447D01*
X52622006Y1386004D01*
X52783361Y1303789D01*
X52955591Y1247829D01*
X53095922Y1225603D01*
X53134440Y1219502D01*
X53134446Y1219502D01*
X53134454Y1219500D01*
X53134456Y1219500D01*
X53315544Y1219500D01*
X53315546Y1219500D01*
X53494409Y1247829D01*
X53666639Y1303789D01*
X53827994Y1386004D01*
X53974501Y1492447D01*
X54102553Y1620499D01*
X54208996Y1767006D01*
X54291211Y1928361D01*
X54347171Y2100591D01*
X54375500Y2279454D01*
X54375500Y2460544D01*
X54614500Y2460544D01*
X54614500Y2279457D01*
X54614501Y2279441D01*
X54642828Y2100597D01*
X54642831Y2100584D01*
X54698787Y1928367D01*
X54698789Y1928360D01*
X54714765Y1897006D01*
X54781004Y1767006D01*
X54887447Y1620499D01*
X54887450Y1620496D01*
X54887453Y1620492D01*
X55015491Y1492454D01*
X55015494Y1492452D01*
X55015499Y1492447D01*
X55162006Y1386004D01*
X55323361Y1303789D01*
X55495591Y1247829D01*
X55635922Y1225603D01*
X55674440Y1219502D01*
X55674446Y1219502D01*
X55674454Y1219500D01*
X55674456Y1219500D01*
X55855544Y1219500D01*
X55855546Y1219500D01*
X56034409Y1247829D01*
X56206639Y1303789D01*
X56367994Y1386004D01*
X56514501Y1492447D01*
X56642553Y1620499D01*
X56748996Y1767006D01*
X56831211Y1928361D01*
X56887171Y2100591D01*
X56915500Y2279454D01*
X56915500Y2460544D01*
X57154500Y2460544D01*
X57154500Y2279457D01*
X57154501Y2279441D01*
X57182828Y2100597D01*
X57182831Y2100584D01*
X57238787Y1928367D01*
X57238789Y1928360D01*
X57254765Y1897006D01*
X57321004Y1767006D01*
X57427447Y1620499D01*
X57427450Y1620496D01*
X57427453Y1620492D01*
X57555491Y1492454D01*
X57555494Y1492452D01*
X57555499Y1492447D01*
X57702006Y1386004D01*
X57863361Y1303789D01*
X58035591Y1247829D01*
X58175922Y1225603D01*
X58214440Y1219502D01*
X58214446Y1219502D01*
X58214454Y1219500D01*
X58214456Y1219500D01*
X58395544Y1219500D01*
X58395546Y1219500D01*
X58574409Y1247829D01*
X58746639Y1303789D01*
X58907994Y1386004D01*
X59054501Y1492447D01*
X59182553Y1620499D01*
X59288996Y1767006D01*
X59371211Y1928361D01*
X59427171Y2100591D01*
X59455500Y2279454D01*
X59455500Y2460544D01*
X59694500Y2460544D01*
X59694500Y2279457D01*
X59694501Y2279441D01*
X59722828Y2100597D01*
X59722831Y2100584D01*
X59778787Y1928367D01*
X59778789Y1928360D01*
X59794765Y1897006D01*
X59861004Y1767006D01*
X59967447Y1620499D01*
X59967450Y1620496D01*
X59967453Y1620492D01*
X60095491Y1492454D01*
X60095494Y1492452D01*
X60095499Y1492447D01*
X60242006Y1386004D01*
X60403361Y1303789D01*
X60575591Y1247829D01*
X60715922Y1225603D01*
X60754440Y1219502D01*
X60754446Y1219502D01*
X60754454Y1219500D01*
X60754456Y1219500D01*
X60935544Y1219500D01*
X60935546Y1219500D01*
X61114409Y1247829D01*
X61286639Y1303789D01*
X61447994Y1386004D01*
X61594501Y1492447D01*
X61722553Y1620499D01*
X61828996Y1767006D01*
X61911211Y1928361D01*
X61967171Y2100591D01*
X61995500Y2279454D01*
X61995500Y2460544D01*
X62234500Y2460544D01*
X62234500Y2279457D01*
X62234501Y2279441D01*
X62262828Y2100597D01*
X62262831Y2100584D01*
X62318787Y1928367D01*
X62318789Y1928360D01*
X62334765Y1897006D01*
X62401004Y1767006D01*
X62507447Y1620499D01*
X62507450Y1620496D01*
X62507453Y1620492D01*
X62635491Y1492454D01*
X62635494Y1492452D01*
X62635499Y1492447D01*
X62782006Y1386004D01*
X62943361Y1303789D01*
X63115591Y1247829D01*
X63255922Y1225603D01*
X63294440Y1219502D01*
X63294446Y1219502D01*
X63294454Y1219500D01*
X63294456Y1219500D01*
X63475544Y1219500D01*
X63475546Y1219500D01*
X63654409Y1247829D01*
X63826639Y1303789D01*
X63987994Y1386004D01*
X64134501Y1492447D01*
X64262553Y1620499D01*
X64368996Y1767006D01*
X64451211Y1928361D01*
X64507171Y2100591D01*
X64535500Y2279454D01*
X64535500Y2460546D01*
X64507171Y2639409D01*
X64451211Y2811639D01*
X64368996Y2972994D01*
X64262553Y3119501D01*
X64262548Y3119506D01*
X64262546Y3119509D01*
X64134508Y3247547D01*
X64134504Y3247550D01*
X64134501Y3247553D01*
X63987994Y3353996D01*
X63941761Y3377553D01*
X63826640Y3436211D01*
X63826633Y3436213D01*
X63654416Y3492169D01*
X63654413Y3492170D01*
X63654409Y3492171D01*
X63654403Y3492172D01*
X63475559Y3520499D01*
X63475547Y3520500D01*
X63475546Y3520500D01*
X63294454Y3520500D01*
X63294452Y3520500D01*
X63294440Y3520499D01*
X63115596Y3492172D01*
X63115593Y3492172D01*
X63115591Y3492171D01*
X63115589Y3492171D01*
X63115583Y3492169D01*
X62943366Y3436213D01*
X62943359Y3436211D01*
X62782005Y3353996D01*
X62635491Y3247547D01*
X62507453Y3119509D01*
X62401004Y2972995D01*
X62318789Y2811641D01*
X62318787Y2811634D01*
X62262831Y2639417D01*
X62262828Y2639404D01*
X62234501Y2460560D01*
X62234500Y2460544D01*
X61995500Y2460544D01*
X61995500Y2460546D01*
X61967171Y2639409D01*
X61911211Y2811639D01*
X61828996Y2972994D01*
X61722553Y3119501D01*
X61722548Y3119506D01*
X61722546Y3119509D01*
X61594508Y3247547D01*
X61594504Y3247550D01*
X61594501Y3247553D01*
X61447994Y3353996D01*
X61401761Y3377553D01*
X61286640Y3436211D01*
X61286633Y3436213D01*
X61114416Y3492169D01*
X61114413Y3492170D01*
X61114409Y3492171D01*
X61114403Y3492172D01*
X60935559Y3520499D01*
X60935547Y3520500D01*
X60935546Y3520500D01*
X60754454Y3520500D01*
X60754452Y3520500D01*
X60754440Y3520499D01*
X60575596Y3492172D01*
X60575593Y3492172D01*
X60575591Y3492171D01*
X60575589Y3492171D01*
X60575583Y3492169D01*
X60403366Y3436213D01*
X60403359Y3436211D01*
X60242005Y3353996D01*
X60095491Y3247547D01*
X59967453Y3119509D01*
X59861004Y2972995D01*
X59778789Y2811641D01*
X59778787Y2811634D01*
X59722831Y2639417D01*
X59722828Y2639404D01*
X59694501Y2460560D01*
X59694500Y2460544D01*
X59455500Y2460544D01*
X59455500Y2460546D01*
X59427171Y2639409D01*
X59371211Y2811639D01*
X59288996Y2972994D01*
X59182553Y3119501D01*
X59182548Y3119506D01*
X59182546Y3119509D01*
X59054508Y3247547D01*
X59054504Y3247550D01*
X59054501Y3247553D01*
X58907994Y3353996D01*
X58861761Y3377553D01*
X58746640Y3436211D01*
X58746633Y3436213D01*
X58574416Y3492169D01*
X58574413Y3492170D01*
X58574409Y3492171D01*
X58574403Y3492172D01*
X58395559Y3520499D01*
X58395547Y3520500D01*
X58395546Y3520500D01*
X58214454Y3520500D01*
X58214452Y3520500D01*
X58214440Y3520499D01*
X58035596Y3492172D01*
X58035593Y3492172D01*
X58035591Y3492171D01*
X58035589Y3492171D01*
X58035583Y3492169D01*
X57863366Y3436213D01*
X57863359Y3436211D01*
X57702005Y3353996D01*
X57555491Y3247547D01*
X57427453Y3119509D01*
X57321004Y2972995D01*
X57238789Y2811641D01*
X57238787Y2811634D01*
X57182831Y2639417D01*
X57182828Y2639404D01*
X57154501Y2460560D01*
X57154500Y2460544D01*
X56915500Y2460544D01*
X56915500Y2460546D01*
X56887171Y2639409D01*
X56831211Y2811639D01*
X56748996Y2972994D01*
X56642553Y3119501D01*
X56642548Y3119506D01*
X56642546Y3119509D01*
X56514508Y3247547D01*
X56514504Y3247550D01*
X56514501Y3247553D01*
X56367994Y3353996D01*
X56321761Y3377553D01*
X56206640Y3436211D01*
X56206633Y3436213D01*
X56034416Y3492169D01*
X56034413Y3492170D01*
X56034409Y3492171D01*
X56034403Y3492172D01*
X55855559Y3520499D01*
X55855547Y3520500D01*
X55855546Y3520500D01*
X55674454Y3520500D01*
X55674452Y3520500D01*
X55674440Y3520499D01*
X55495596Y3492172D01*
X55495593Y3492172D01*
X55495591Y3492171D01*
X55495589Y3492171D01*
X55495583Y3492169D01*
X55323366Y3436213D01*
X55323359Y3436211D01*
X55162005Y3353996D01*
X55015491Y3247547D01*
X54887453Y3119509D01*
X54781004Y2972995D01*
X54698789Y2811641D01*
X54698787Y2811634D01*
X54642831Y2639417D01*
X54642828Y2639404D01*
X54614501Y2460560D01*
X54614500Y2460544D01*
X54375500Y2460544D01*
X54375500Y2460546D01*
X54347171Y2639409D01*
X54291211Y2811639D01*
X54208996Y2972994D01*
X54102553Y3119501D01*
X54102548Y3119506D01*
X54102546Y3119509D01*
X53974508Y3247547D01*
X53974504Y3247550D01*
X53974501Y3247553D01*
X53827994Y3353996D01*
X53781761Y3377553D01*
X53666640Y3436211D01*
X53666633Y3436213D01*
X53494416Y3492169D01*
X53494413Y3492170D01*
X53494409Y3492171D01*
X53494403Y3492172D01*
X53315559Y3520499D01*
X53315547Y3520500D01*
X53315546Y3520500D01*
X53134454Y3520500D01*
X53134452Y3520500D01*
X53134440Y3520499D01*
X52955596Y3492172D01*
X52955593Y3492172D01*
X52955591Y3492171D01*
X52955589Y3492171D01*
X52955583Y3492169D01*
X52783366Y3436213D01*
X52783359Y3436211D01*
X52622005Y3353996D01*
X52475491Y3247547D01*
X52347453Y3119509D01*
X52241004Y2972995D01*
X52158789Y2811641D01*
X52158787Y2811634D01*
X52102831Y2639417D01*
X52102828Y2639404D01*
X52074501Y2460560D01*
X52074500Y2460544D01*
X51835499Y2460544D01*
X51835499Y3264864D01*
X51832585Y3289991D01*
X51787206Y3392765D01*
X51707765Y3472206D01*
X51604991Y3517585D01*
X51579865Y3520500D01*
X51579863Y3520500D01*
X49790136Y3520500D01*
X49765007Y3517585D01*
X49662233Y3472205D01*
X49582795Y3392767D01*
X49537415Y3289990D01*
X49534500Y3264864D01*
X46330674Y3264864D01*
X46207994Y3353996D01*
X46161761Y3377553D01*
X46046640Y3436211D01*
X46046633Y3436213D01*
X45874416Y3492169D01*
X45874413Y3492170D01*
X45874409Y3492171D01*
X45874403Y3492172D01*
X45695559Y3520499D01*
X45695547Y3520500D01*
X45695546Y3520500D01*
X45514454Y3520500D01*
X45514452Y3520500D01*
X45514440Y3520499D01*
X45335596Y3492172D01*
X45335593Y3492172D01*
X45335591Y3492171D01*
X45335589Y3492171D01*
X45335583Y3492169D01*
X45163366Y3436213D01*
X45163359Y3436211D01*
X45002005Y3353996D01*
X44855491Y3247547D01*
X44727453Y3119509D01*
X44621004Y2972995D01*
X44538789Y2811641D01*
X44538787Y2811634D01*
X44482831Y2639417D01*
X44482828Y2639404D01*
X44454501Y2460560D01*
X44454500Y2460544D01*
X39135500Y2460544D01*
X39135500Y2460546D01*
X39107171Y2639409D01*
X39051211Y2811639D01*
X38968996Y2972994D01*
X38862553Y3119501D01*
X38862548Y3119506D01*
X38862546Y3119509D01*
X38734508Y3247547D01*
X38734504Y3247550D01*
X38734501Y3247553D01*
X38587994Y3353996D01*
X38541761Y3377553D01*
X38426640Y3436211D01*
X38426633Y3436213D01*
X38254416Y3492169D01*
X38254413Y3492170D01*
X38254409Y3492171D01*
X38254403Y3492172D01*
X38075559Y3520499D01*
X38075547Y3520500D01*
X38075546Y3520500D01*
X37894454Y3520500D01*
X37894452Y3520500D01*
X37894440Y3520499D01*
X37715596Y3492172D01*
X37715593Y3492172D01*
X37715591Y3492171D01*
X37715589Y3492171D01*
X37715583Y3492169D01*
X37543366Y3436213D01*
X37543359Y3436211D01*
X37382005Y3353996D01*
X37235491Y3247547D01*
X37107453Y3119509D01*
X37001004Y2972995D01*
X36918789Y2811641D01*
X36918787Y2811634D01*
X36862831Y2639417D01*
X36862828Y2639404D01*
X36834501Y2460560D01*
X36834500Y2460544D01*
X36595500Y2460544D01*
X36595500Y2460546D01*
X36567171Y2639409D01*
X36511211Y2811639D01*
X36428996Y2972994D01*
X36322553Y3119501D01*
X36322548Y3119506D01*
X36322546Y3119509D01*
X36194508Y3247547D01*
X36194504Y3247550D01*
X36194501Y3247553D01*
X36047994Y3353996D01*
X36001761Y3377553D01*
X35886640Y3436211D01*
X35886633Y3436213D01*
X35714416Y3492169D01*
X35714413Y3492170D01*
X35714409Y3492171D01*
X35714403Y3492172D01*
X35535559Y3520499D01*
X35535547Y3520500D01*
X35535546Y3520500D01*
X35354454Y3520500D01*
X35354452Y3520500D01*
X35354440Y3520499D01*
X35175596Y3492172D01*
X35175593Y3492172D01*
X35175591Y3492171D01*
X35175589Y3492171D01*
X35175583Y3492169D01*
X35003366Y3436213D01*
X35003359Y3436211D01*
X34842005Y3353996D01*
X34695491Y3247547D01*
X34567453Y3119509D01*
X34461004Y2972995D01*
X34378789Y2811641D01*
X34378787Y2811634D01*
X34322831Y2639417D01*
X34322828Y2639404D01*
X34294501Y2460560D01*
X34294500Y2460544D01*
X34055500Y2460544D01*
X34055500Y2460546D01*
X34027171Y2639409D01*
X33971211Y2811639D01*
X33888996Y2972994D01*
X33782553Y3119501D01*
X33782548Y3119506D01*
X33782546Y3119509D01*
X33654508Y3247547D01*
X33654504Y3247550D01*
X33654501Y3247553D01*
X33507994Y3353996D01*
X33461761Y3377553D01*
X33346640Y3436211D01*
X33346633Y3436213D01*
X33174416Y3492169D01*
X33174413Y3492170D01*
X33174409Y3492171D01*
X33174403Y3492172D01*
X32995559Y3520499D01*
X32995547Y3520500D01*
X32995546Y3520500D01*
X32814454Y3520500D01*
X32814452Y3520500D01*
X32814440Y3520499D01*
X32635596Y3492172D01*
X32635593Y3492172D01*
X32635591Y3492171D01*
X32635589Y3492171D01*
X32635583Y3492169D01*
X32463366Y3436213D01*
X32463359Y3436211D01*
X32302005Y3353996D01*
X32155491Y3247547D01*
X32027453Y3119509D01*
X31921004Y2972995D01*
X31838789Y2811641D01*
X31838787Y2811634D01*
X31782831Y2639417D01*
X31782828Y2639404D01*
X31754501Y2460560D01*
X31754500Y2460544D01*
X31515500Y2460544D01*
X31515500Y2460546D01*
X31487171Y2639409D01*
X31431211Y2811639D01*
X31348996Y2972994D01*
X31242553Y3119501D01*
X31242548Y3119506D01*
X31242546Y3119509D01*
X31114508Y3247547D01*
X31114504Y3247550D01*
X31114501Y3247553D01*
X30967994Y3353996D01*
X30921761Y3377553D01*
X30806640Y3436211D01*
X30806633Y3436213D01*
X30634416Y3492169D01*
X30634413Y3492170D01*
X30634409Y3492171D01*
X30634403Y3492172D01*
X30455559Y3520499D01*
X30455547Y3520500D01*
X30455546Y3520500D01*
X30274454Y3520500D01*
X30274452Y3520500D01*
X30274440Y3520499D01*
X30095596Y3492172D01*
X30095593Y3492172D01*
X30095591Y3492171D01*
X30095589Y3492171D01*
X30095583Y3492169D01*
X29923366Y3436213D01*
X29923359Y3436211D01*
X29762005Y3353996D01*
X29615491Y3247547D01*
X29487453Y3119509D01*
X29381004Y2972995D01*
X29298789Y2811641D01*
X29298787Y2811634D01*
X29242831Y2639417D01*
X29242828Y2639404D01*
X29214501Y2460560D01*
X29214500Y2460544D01*
X28975499Y2460544D01*
X28975499Y3264864D01*
X28972585Y3289991D01*
X28927206Y3392765D01*
X28847765Y3472206D01*
X28744991Y3517585D01*
X28719865Y3520500D01*
X28719863Y3520500D01*
X26930136Y3520500D01*
X26905007Y3517585D01*
X26802233Y3472205D01*
X26722795Y3392767D01*
X26677415Y3289990D01*
X26674500Y3264864D01*
X23915499Y3264864D01*
X23915499Y3394864D01*
X23912585Y3419991D01*
X23867206Y3522765D01*
X23787765Y3602206D01*
X23684991Y3647585D01*
X23659865Y3650500D01*
X23659863Y3650500D01*
X21870136Y3650500D01*
X21845007Y3647585D01*
X21742233Y3602205D01*
X21662795Y3522767D01*
X21662794Y3522766D01*
X21662794Y3522765D01*
X21649286Y3492171D01*
X21617415Y3419990D01*
X21614500Y3394864D01*
X20950674Y3394864D01*
X20827994Y3483996D01*
X20811948Y3492172D01*
X20666640Y3566211D01*
X20666633Y3566213D01*
X20494416Y3622169D01*
X20494413Y3622170D01*
X20494409Y3622171D01*
X20494403Y3622172D01*
X20315559Y3650499D01*
X20315547Y3650500D01*
X20315546Y3650500D01*
X20134454Y3650500D01*
X20134452Y3650500D01*
X20134440Y3650499D01*
X19955596Y3622172D01*
X19955593Y3622172D01*
X19955591Y3622171D01*
X19955589Y3622171D01*
X19955583Y3622169D01*
X19783366Y3566213D01*
X19783359Y3566211D01*
X19622005Y3483996D01*
X19475491Y3377547D01*
X19347453Y3249509D01*
X19347447Y3249502D01*
X19347447Y3249501D01*
X19325599Y3219430D01*
X19241004Y3102995D01*
X19158789Y2941641D01*
X19158787Y2941634D01*
X19102831Y2769417D01*
X19102828Y2769404D01*
X19074501Y2590560D01*
X19074500Y2590544D01*
X18835500Y2590544D01*
X18835500Y2590546D01*
X18807171Y2769409D01*
X18751211Y2941639D01*
X18668996Y3102994D01*
X18562553Y3249501D01*
X18562548Y3249506D01*
X18562546Y3249509D01*
X18434508Y3377547D01*
X18434504Y3377550D01*
X18434501Y3377553D01*
X18287994Y3483996D01*
X18271948Y3492172D01*
X18126640Y3566211D01*
X18126633Y3566213D01*
X17954416Y3622169D01*
X17954413Y3622170D01*
X17954409Y3622171D01*
X17954403Y3622172D01*
X17775559Y3650499D01*
X17775547Y3650500D01*
X17775546Y3650500D01*
X17594454Y3650500D01*
X17594452Y3650500D01*
X17594440Y3650499D01*
X17415596Y3622172D01*
X17415593Y3622172D01*
X17415591Y3622171D01*
X17415589Y3622171D01*
X17415583Y3622169D01*
X17243366Y3566213D01*
X17243359Y3566211D01*
X17082005Y3483996D01*
X16935491Y3377547D01*
X16807453Y3249509D01*
X16807447Y3249502D01*
X16807447Y3249501D01*
X16785599Y3219430D01*
X16701004Y3102995D01*
X16618789Y2941641D01*
X16618787Y2941634D01*
X16562831Y2769417D01*
X16562828Y2769404D01*
X16534501Y2590560D01*
X16534500Y2590544D01*
X500500Y2590544D01*
X500500Y9094864D01*
X10249500Y9094864D01*
X10249500Y5505137D01*
X10252415Y5480011D01*
X10252415Y5480009D01*
X10297794Y5377235D01*
X10377235Y5297794D01*
X10480009Y5252415D01*
X10505135Y5249500D01*
X14094864Y5249501D01*
X14119991Y5252415D01*
X14222765Y5297794D01*
X14302206Y5377235D01*
X14347585Y5480009D01*
X14350500Y5505135D01*
X14350499Y7134402D01*
X14949500Y7134402D01*
X14949500Y6865599D01*
X14984584Y6599106D01*
X14984584Y6599105D01*
X15054147Y6339491D01*
X15054151Y6339480D01*
X15054153Y6339474D01*
X15108904Y6207292D01*
X15157013Y6091147D01*
X15157015Y6091144D01*
X15157016Y6091141D01*
X15291413Y5858359D01*
X15455044Y5645110D01*
X15645110Y5455044D01*
X15858359Y5291413D01*
X16091141Y5157016D01*
X16339474Y5054153D01*
X16339484Y5054151D01*
X16339490Y5054148D01*
X16599104Y4984585D01*
X16599106Y4984585D01*
X16599109Y4984584D01*
X16865603Y4949500D01*
X16865609Y4949500D01*
X17134391Y4949500D01*
X17134397Y4949500D01*
X17400891Y4984584D01*
X17400895Y4984585D01*
X17660509Y5054148D01*
X17660512Y5054150D01*
X17660526Y5054153D01*
X17908859Y5157016D01*
X18141641Y5291413D01*
X18354890Y5455044D01*
X18544956Y5645110D01*
X18708587Y5858359D01*
X18842984Y6091141D01*
X18945847Y6339474D01*
X19015416Y6599109D01*
X19050500Y6865603D01*
X19050500Y7134397D01*
X19015416Y7400891D01*
X19015415Y7400896D01*
X18945852Y7660510D01*
X18945849Y7660516D01*
X18945847Y7660526D01*
X18842984Y7908859D01*
X18756122Y8059308D01*
X39249500Y8059308D01*
X39249500Y7940693D01*
X39249501Y7940685D01*
X39280200Y7826115D01*
X39280203Y7826109D01*
X39339508Y7723391D01*
X39339515Y7723382D01*
X39423381Y7639516D01*
X39423390Y7639509D01*
X39526108Y7580204D01*
X39526114Y7580201D01*
X39640691Y7549500D01*
X39640692Y7549500D01*
X39759308Y7549500D01*
X39759309Y7549500D01*
X39873886Y7580201D01*
X39976613Y7639511D01*
X40060489Y7723387D01*
X40119799Y7826114D01*
X40150500Y7940691D01*
X40150500Y8059309D01*
X40119799Y8173886D01*
X40116151Y8180204D01*
X40060491Y8276610D01*
X40060484Y8276619D01*
X39977795Y8359308D01*
X55449500Y8359308D01*
X55449500Y8240693D01*
X55449501Y8240685D01*
X55480200Y8126115D01*
X55480203Y8126109D01*
X55539508Y8023391D01*
X55539515Y8023382D01*
X55623381Y7939516D01*
X55623390Y7939509D01*
X55726108Y7880204D01*
X55726114Y7880201D01*
X55840691Y7849500D01*
X55840692Y7849500D01*
X55959308Y7849500D01*
X55959309Y7849500D01*
X56073886Y7880201D01*
X56176613Y7939511D01*
X56260489Y8023387D01*
X56319799Y8126114D01*
X56350500Y8240691D01*
X56350500Y8359308D01*
X57949500Y8359308D01*
X57949500Y8240693D01*
X57949501Y8240685D01*
X57980200Y8126115D01*
X57980203Y8126109D01*
X58039508Y8023391D01*
X58039515Y8023382D01*
X58123381Y7939516D01*
X58123390Y7939509D01*
X58226108Y7880204D01*
X58226114Y7880201D01*
X58340691Y7849500D01*
X58340692Y7849500D01*
X58459308Y7849500D01*
X58459309Y7849500D01*
X58573886Y7880201D01*
X58676613Y7939511D01*
X58760489Y8023387D01*
X58819799Y8126114D01*
X58850500Y8240691D01*
X58850500Y8359309D01*
X58819799Y8473886D01*
X58795948Y8515196D01*
X58760491Y8576610D01*
X58760484Y8576619D01*
X58677795Y8659308D01*
X61049500Y8659308D01*
X61049500Y8540693D01*
X61049501Y8540685D01*
X61080200Y8426115D01*
X61080203Y8426109D01*
X61139508Y8323391D01*
X61139515Y8323382D01*
X61223381Y8239516D01*
X61223390Y8239509D01*
X61326108Y8180204D01*
X61326114Y8180201D01*
X61440691Y8149500D01*
X61440692Y8149500D01*
X61559308Y8149500D01*
X61559309Y8149500D01*
X61673886Y8180201D01*
X61776613Y8239511D01*
X61860489Y8323387D01*
X61919799Y8426114D01*
X61939630Y8500122D01*
X61968750Y8538073D01*
X62016176Y8544316D01*
X62054127Y8515196D01*
X62060370Y8500122D01*
X62080200Y8426115D01*
X62080203Y8426109D01*
X62139508Y8323391D01*
X62139515Y8323382D01*
X62223381Y8239516D01*
X62223390Y8239509D01*
X62326108Y8180204D01*
X62326114Y8180201D01*
X62440691Y8149500D01*
X62440692Y8149500D01*
X62559308Y8149500D01*
X62559309Y8149500D01*
X62673886Y8180201D01*
X62776613Y8239511D01*
X62860489Y8323387D01*
X62919799Y8426114D01*
X62950500Y8540691D01*
X62950500Y8659309D01*
X62919799Y8773886D01*
X62919796Y8773892D01*
X62860491Y8876610D01*
X62860484Y8876619D01*
X62776618Y8960485D01*
X62776609Y8960492D01*
X62673891Y9019797D01*
X62673885Y9019800D01*
X62559315Y9050499D01*
X62559310Y9050500D01*
X62559309Y9050500D01*
X62440691Y9050500D01*
X62440690Y9050500D01*
X62440684Y9050499D01*
X62326114Y9019800D01*
X62326108Y9019797D01*
X62223390Y8960492D01*
X62223381Y8960485D01*
X62139515Y8876619D01*
X62139508Y8876610D01*
X62080203Y8773892D01*
X62080201Y8773887D01*
X62060370Y8699878D01*
X62031250Y8661928D01*
X61983823Y8655685D01*
X61945873Y8684805D01*
X61939630Y8699878D01*
X61931615Y8729785D01*
X61919799Y8773886D01*
X61860489Y8876613D01*
X61860487Y8876615D01*
X61860484Y8876619D01*
X61776618Y8960485D01*
X61776609Y8960492D01*
X61673891Y9019797D01*
X61673885Y9019800D01*
X61559315Y9050499D01*
X61559310Y9050500D01*
X61559309Y9050500D01*
X61440691Y9050500D01*
X61440690Y9050500D01*
X61440684Y9050499D01*
X61326114Y9019800D01*
X61326108Y9019797D01*
X61223390Y8960492D01*
X61223381Y8960485D01*
X61139515Y8876619D01*
X61139508Y8876610D01*
X61080203Y8773892D01*
X61080200Y8773886D01*
X61049501Y8659316D01*
X61049500Y8659308D01*
X58677795Y8659308D01*
X58676618Y8660485D01*
X58676609Y8660492D01*
X58573891Y8719797D01*
X58573885Y8719800D01*
X58459315Y8750499D01*
X58459310Y8750500D01*
X58459309Y8750500D01*
X58340691Y8750500D01*
X58340690Y8750500D01*
X58340684Y8750499D01*
X58226114Y8719800D01*
X58226108Y8719797D01*
X58123390Y8660492D01*
X58123381Y8660485D01*
X58039515Y8576619D01*
X58039508Y8576610D01*
X57980203Y8473892D01*
X57980200Y8473886D01*
X57949501Y8359316D01*
X57949500Y8359308D01*
X56350500Y8359308D01*
X56350500Y8359309D01*
X56319799Y8473886D01*
X56295948Y8515196D01*
X56260491Y8576610D01*
X56260484Y8576619D01*
X56176618Y8660485D01*
X56176609Y8660492D01*
X56073891Y8719797D01*
X56073885Y8719800D01*
X55959315Y8750499D01*
X55959310Y8750500D01*
X55959309Y8750500D01*
X55840691Y8750500D01*
X55840690Y8750500D01*
X55840684Y8750499D01*
X55726114Y8719800D01*
X55726108Y8719797D01*
X55623390Y8660492D01*
X55623381Y8660485D01*
X55539515Y8576619D01*
X55539508Y8576610D01*
X55480203Y8473892D01*
X55480200Y8473886D01*
X55449501Y8359316D01*
X55449500Y8359308D01*
X39977795Y8359308D01*
X39976618Y8360485D01*
X39976609Y8360492D01*
X39873891Y8419797D01*
X39873885Y8419800D01*
X39759315Y8450499D01*
X39759310Y8450500D01*
X39759309Y8450500D01*
X39640691Y8450500D01*
X39640690Y8450500D01*
X39640684Y8450499D01*
X39526114Y8419800D01*
X39526108Y8419797D01*
X39423390Y8360492D01*
X39423381Y8360485D01*
X39339515Y8276619D01*
X39339508Y8276610D01*
X39280203Y8173892D01*
X39280200Y8173886D01*
X39249501Y8059316D01*
X39249500Y8059308D01*
X18756122Y8059308D01*
X18756121Y8059309D01*
X18717554Y8126109D01*
X18708587Y8141641D01*
X18544956Y8354890D01*
X18354890Y8544956D01*
X18354886Y8544959D01*
X18354884Y8544961D01*
X18233889Y8637803D01*
X18141641Y8708587D01*
X18122221Y8719799D01*
X17908864Y8842981D01*
X17908859Y8842984D01*
X17908856Y8842985D01*
X17908853Y8842987D01*
X17792708Y8891096D01*
X17660526Y8945847D01*
X17660520Y8945849D01*
X17660509Y8945853D01*
X17400895Y9015416D01*
X17134401Y9050500D01*
X17134397Y9050500D01*
X16865603Y9050500D01*
X16865598Y9050500D01*
X16599105Y9015416D01*
X16599104Y9015416D01*
X16339490Y8945853D01*
X16339475Y8945848D01*
X16339474Y8945847D01*
X16339472Y8945846D01*
X16091146Y8842987D01*
X16091135Y8842981D01*
X15858361Y8708589D01*
X15645115Y8544961D01*
X15645105Y8544952D01*
X15455048Y8354895D01*
X15455039Y8354885D01*
X15291411Y8141639D01*
X15157019Y7908865D01*
X15157013Y7908854D01*
X15054154Y7660528D01*
X15054147Y7660510D01*
X14984584Y7400896D01*
X14984584Y7400895D01*
X14949500Y7134402D01*
X14350499Y7134402D01*
X14350499Y7400891D01*
X14350499Y9094864D01*
X14350499Y9094865D01*
X14347585Y9119991D01*
X14302206Y9222765D01*
X14222765Y9302206D01*
X14119991Y9347585D01*
X14094865Y9350500D01*
X14094863Y9350500D01*
X10505136Y9350500D01*
X10480007Y9347585D01*
X10377233Y9302205D01*
X10297795Y9222767D01*
X10297794Y9222766D01*
X10297794Y9222765D01*
X10255117Y9126109D01*
X10252415Y9119990D01*
X10249500Y9094864D01*
X500500Y9094864D01*
X500500Y9359308D01*
X45049500Y9359308D01*
X45049500Y9240693D01*
X45049501Y9240685D01*
X45080200Y9126115D01*
X45080203Y9126109D01*
X45139508Y9023391D01*
X45139515Y9023382D01*
X45223381Y8939516D01*
X45223390Y8939509D01*
X45326108Y8880204D01*
X45326114Y8880201D01*
X45440691Y8849500D01*
X45440692Y8849500D01*
X45559308Y8849500D01*
X45559309Y8849500D01*
X45673886Y8880201D01*
X45776613Y8939511D01*
X45860489Y9023387D01*
X45919799Y9126114D01*
X45950500Y9240691D01*
X45950500Y9359309D01*
X45919799Y9473886D01*
X45916151Y9480204D01*
X45860491Y9576610D01*
X45860484Y9576619D01*
X45776618Y9660485D01*
X45776609Y9660492D01*
X45673891Y9719797D01*
X45673885Y9719800D01*
X45559315Y9750499D01*
X45559310Y9750500D01*
X45559309Y9750500D01*
X45440691Y9750500D01*
X45440690Y9750500D01*
X45440684Y9750499D01*
X45326114Y9719800D01*
X45326108Y9719797D01*
X45223390Y9660492D01*
X45223381Y9660485D01*
X45139515Y9576619D01*
X45139508Y9576610D01*
X45080203Y9473892D01*
X45080200Y9473886D01*
X45049501Y9359316D01*
X45049500Y9359308D01*
X500500Y9359308D01*
X500500Y10659308D01*
X45049500Y10659308D01*
X45049500Y10540693D01*
X45049501Y10540685D01*
X45080200Y10426115D01*
X45080203Y10426109D01*
X45139508Y10323391D01*
X45139515Y10323382D01*
X45223381Y10239516D01*
X45223390Y10239509D01*
X45326108Y10180204D01*
X45326114Y10180201D01*
X45440691Y10149500D01*
X45440692Y10149500D01*
X45559308Y10149500D01*
X45559309Y10149500D01*
X45595913Y10159308D01*
X49749500Y10159308D01*
X49749500Y10040693D01*
X49749501Y10040685D01*
X49780200Y9926115D01*
X49780203Y9926109D01*
X49839508Y9823391D01*
X49839515Y9823382D01*
X49923381Y9739516D01*
X49923390Y9739509D01*
X50026108Y9680204D01*
X50026114Y9680201D01*
X50140691Y9649500D01*
X50140692Y9649500D01*
X50259308Y9649500D01*
X50259309Y9649500D01*
X50373886Y9680201D01*
X50476613Y9739511D01*
X50560489Y9823387D01*
X50619799Y9926114D01*
X50650500Y10040691D01*
X50650500Y10059308D01*
X51249500Y10059308D01*
X51249500Y9940693D01*
X51249501Y9940685D01*
X51280200Y9826115D01*
X51280203Y9826109D01*
X51339508Y9723391D01*
X51339515Y9723382D01*
X51423381Y9639516D01*
X51423390Y9639509D01*
X51526108Y9580204D01*
X51526114Y9580201D01*
X51640691Y9549500D01*
X51640692Y9549500D01*
X51759308Y9549500D01*
X51759309Y9549500D01*
X51873886Y9580201D01*
X51976613Y9639511D01*
X52060489Y9723387D01*
X52119799Y9826114D01*
X52150500Y9940691D01*
X52150500Y9959308D01*
X53449500Y9959308D01*
X53449500Y9840693D01*
X53449501Y9840685D01*
X53480200Y9726115D01*
X53480203Y9726109D01*
X53539508Y9623391D01*
X53539515Y9623382D01*
X53623381Y9539516D01*
X53623390Y9539509D01*
X53726108Y9480204D01*
X53726114Y9480201D01*
X53840691Y9449500D01*
X53840692Y9449500D01*
X53959308Y9449500D01*
X53959309Y9449500D01*
X54073886Y9480201D01*
X54176613Y9539511D01*
X54260489Y9623387D01*
X54319799Y9726114D01*
X54350500Y9840691D01*
X54350500Y9959309D01*
X54319799Y10073886D01*
X54262063Y10173886D01*
X54260491Y10176610D01*
X54260484Y10176619D01*
X54176618Y10260485D01*
X54176609Y10260492D01*
X54073891Y10319797D01*
X54073885Y10319800D01*
X53959315Y10350499D01*
X53959310Y10350500D01*
X53959309Y10350500D01*
X53840691Y10350500D01*
X53840690Y10350500D01*
X53840684Y10350499D01*
X53726114Y10319800D01*
X53726108Y10319797D01*
X53623390Y10260492D01*
X53623381Y10260485D01*
X53539515Y10176619D01*
X53539508Y10176610D01*
X53480203Y10073892D01*
X53480200Y10073886D01*
X53449501Y9959316D01*
X53449500Y9959308D01*
X52150500Y9959308D01*
X52150500Y10059309D01*
X52119799Y10173886D01*
X52118226Y10176610D01*
X52060491Y10276610D01*
X52060484Y10276619D01*
X51976618Y10360485D01*
X51976609Y10360492D01*
X51873891Y10419797D01*
X51873885Y10419800D01*
X51759315Y10450499D01*
X51759310Y10450500D01*
X51759309Y10450500D01*
X51640691Y10450500D01*
X51640690Y10450500D01*
X51640684Y10450499D01*
X51526114Y10419800D01*
X51526108Y10419797D01*
X51423390Y10360492D01*
X51423381Y10360485D01*
X51339515Y10276619D01*
X51339508Y10276610D01*
X51280203Y10173892D01*
X51280200Y10173886D01*
X51249501Y10059316D01*
X51249500Y10059308D01*
X50650500Y10059308D01*
X50650500Y10159309D01*
X50619799Y10273886D01*
X50618226Y10276610D01*
X50560491Y10376610D01*
X50560484Y10376619D01*
X50476618Y10460485D01*
X50476609Y10460492D01*
X50373891Y10519797D01*
X50373885Y10519800D01*
X50259315Y10550499D01*
X50259310Y10550500D01*
X50259309Y10550500D01*
X50140691Y10550500D01*
X50140690Y10550500D01*
X50140684Y10550499D01*
X50026114Y10519800D01*
X50026108Y10519797D01*
X49923390Y10460492D01*
X49923381Y10460485D01*
X49839515Y10376619D01*
X49839508Y10376610D01*
X49780203Y10273892D01*
X49780200Y10273886D01*
X49749501Y10159316D01*
X49749500Y10159308D01*
X45595913Y10159308D01*
X45673886Y10180201D01*
X45683445Y10185721D01*
X45738544Y10217531D01*
X45764369Y10232443D01*
X45776613Y10239511D01*
X45860489Y10323387D01*
X45919799Y10426114D01*
X45950500Y10540691D01*
X45950500Y10659309D01*
X45919799Y10773886D01*
X45916151Y10780204D01*
X45860491Y10876610D01*
X45860484Y10876619D01*
X45776618Y10960485D01*
X45776609Y10960492D01*
X45673891Y11019797D01*
X45673885Y11019800D01*
X45559315Y11050499D01*
X45559310Y11050500D01*
X45559309Y11050500D01*
X45440691Y11050500D01*
X45440690Y11050500D01*
X45440684Y11050499D01*
X45326114Y11019800D01*
X45326108Y11019797D01*
X45223390Y10960492D01*
X45223381Y10960485D01*
X45139515Y10876619D01*
X45139508Y10876610D01*
X45080203Y10773892D01*
X45080200Y10773886D01*
X45049501Y10659316D01*
X45049500Y10659308D01*
X500500Y10659308D01*
X500500Y11259308D01*
X61049500Y11259308D01*
X61049500Y11140693D01*
X61049501Y11140685D01*
X61080200Y11026115D01*
X61080203Y11026109D01*
X61139508Y10923391D01*
X61139515Y10923382D01*
X61223381Y10839516D01*
X61223390Y10839509D01*
X61326108Y10780204D01*
X61326114Y10780201D01*
X61440691Y10749500D01*
X61440692Y10749500D01*
X61559308Y10749500D01*
X61559309Y10749500D01*
X61673886Y10780201D01*
X61776613Y10839511D01*
X61860489Y10923387D01*
X61919799Y11026114D01*
X61939630Y11100122D01*
X61968750Y11138073D01*
X62016176Y11144316D01*
X62054127Y11115196D01*
X62060370Y11100122D01*
X62080200Y11026115D01*
X62080203Y11026109D01*
X62139508Y10923391D01*
X62139515Y10923382D01*
X62223381Y10839516D01*
X62223390Y10839509D01*
X62326108Y10780204D01*
X62326114Y10780201D01*
X62440691Y10749500D01*
X62440692Y10749500D01*
X62559308Y10749500D01*
X62559309Y10749500D01*
X62673886Y10780201D01*
X62776613Y10839511D01*
X62860489Y10923387D01*
X62919799Y11026114D01*
X62950500Y11140691D01*
X62950500Y11259309D01*
X62919799Y11373886D01*
X62919796Y11373892D01*
X62860491Y11476610D01*
X62860484Y11476619D01*
X62776618Y11560485D01*
X62776609Y11560492D01*
X62673891Y11619797D01*
X62673885Y11619800D01*
X62559315Y11650499D01*
X62559310Y11650500D01*
X62559309Y11650500D01*
X62440691Y11650500D01*
X62440690Y11650500D01*
X62440684Y11650499D01*
X62326114Y11619800D01*
X62326108Y11619797D01*
X62223390Y11560492D01*
X62223381Y11560485D01*
X62139515Y11476619D01*
X62139508Y11476610D01*
X62080203Y11373892D01*
X62080201Y11373887D01*
X62060370Y11299878D01*
X62031250Y11261928D01*
X61983823Y11255685D01*
X61945873Y11284805D01*
X61939630Y11299878D01*
X61931615Y11329785D01*
X61919799Y11373886D01*
X61860489Y11476613D01*
X61860487Y11476615D01*
X61860484Y11476619D01*
X61776618Y11560485D01*
X61776609Y11560492D01*
X61673891Y11619797D01*
X61673885Y11619800D01*
X61559315Y11650499D01*
X61559310Y11650500D01*
X61559309Y11650500D01*
X61440691Y11650500D01*
X61440690Y11650500D01*
X61440684Y11650499D01*
X61326114Y11619800D01*
X61326108Y11619797D01*
X61223390Y11560492D01*
X61223381Y11560485D01*
X61139515Y11476619D01*
X61139508Y11476610D01*
X61080203Y11373892D01*
X61080200Y11373886D01*
X61049501Y11259316D01*
X61049500Y11259308D01*
X500500Y11259308D01*
X500500Y12959308D01*
X36149500Y12959308D01*
X36149500Y12840693D01*
X36149501Y12840685D01*
X36180200Y12726115D01*
X36180203Y12726109D01*
X36239508Y12623391D01*
X36239515Y12623382D01*
X36323381Y12539516D01*
X36323390Y12539509D01*
X36426108Y12480204D01*
X36426114Y12480201D01*
X36540691Y12449500D01*
X36540692Y12449500D01*
X36659308Y12449500D01*
X36659309Y12449500D01*
X36773886Y12480201D01*
X36876613Y12539511D01*
X36960489Y12623387D01*
X37019799Y12726114D01*
X37050500Y12840691D01*
X37050500Y12959309D01*
X37019799Y13073886D01*
X36960489Y13176613D01*
X36960487Y13176615D01*
X36960484Y13176619D01*
X36876618Y13260485D01*
X36876609Y13260492D01*
X36773891Y13319797D01*
X36773885Y13319800D01*
X36659315Y13350499D01*
X36659310Y13350500D01*
X36659309Y13350500D01*
X36540691Y13350500D01*
X36540690Y13350500D01*
X36540684Y13350499D01*
X36426114Y13319800D01*
X36426108Y13319797D01*
X36323390Y13260492D01*
X36323381Y13260485D01*
X36239515Y13176619D01*
X36239508Y13176610D01*
X36180203Y13073892D01*
X36180200Y13073886D01*
X36149501Y12959316D01*
X36149500Y12959308D01*
X500500Y12959308D01*
X500500Y14459308D01*
X48049500Y14459308D01*
X48049500Y14340693D01*
X48049501Y14340685D01*
X48080200Y14226115D01*
X48080203Y14226109D01*
X48139508Y14123391D01*
X48139515Y14123382D01*
X48223381Y14039516D01*
X48223390Y14039509D01*
X48326108Y13980204D01*
X48326114Y13980201D01*
X48440691Y13949500D01*
X48440692Y13949500D01*
X48559308Y13949500D01*
X48559309Y13949500D01*
X48673886Y13980201D01*
X48776613Y14039511D01*
X48860489Y14123387D01*
X48919799Y14226114D01*
X48950500Y14340691D01*
X48950500Y14459309D01*
X48923705Y14559308D01*
X52749500Y14559308D01*
X52749500Y14440693D01*
X52749501Y14440685D01*
X52780200Y14326115D01*
X52780203Y14326109D01*
X52839508Y14223391D01*
X52839515Y14223382D01*
X52923381Y14139516D01*
X52923390Y14139509D01*
X53026108Y14080204D01*
X53026114Y14080201D01*
X53140691Y14049500D01*
X53140692Y14049500D01*
X53259308Y14049500D01*
X53259309Y14049500D01*
X53373886Y14080201D01*
X53476613Y14139511D01*
X53560489Y14223387D01*
X53619799Y14326114D01*
X53650500Y14440691D01*
X53650500Y14559309D01*
X53619799Y14673886D01*
X53618226Y14676610D01*
X53560491Y14776610D01*
X53560484Y14776619D01*
X53476618Y14860485D01*
X53476609Y14860492D01*
X53373891Y14919797D01*
X53373885Y14919800D01*
X53259315Y14950499D01*
X53259310Y14950500D01*
X53259309Y14950500D01*
X53140691Y14950500D01*
X53140690Y14950500D01*
X53140684Y14950499D01*
X53026114Y14919800D01*
X53026108Y14919797D01*
X52923390Y14860492D01*
X52923381Y14860485D01*
X52839515Y14776619D01*
X52839508Y14776610D01*
X52780203Y14673892D01*
X52780200Y14673886D01*
X52749501Y14559316D01*
X52749500Y14559308D01*
X48923705Y14559308D01*
X48919799Y14573886D01*
X48916151Y14580204D01*
X48860491Y14676610D01*
X48860484Y14676619D01*
X48776618Y14760485D01*
X48776609Y14760492D01*
X48673891Y14819797D01*
X48673885Y14819800D01*
X48559315Y14850499D01*
X48559310Y14850500D01*
X48559309Y14850500D01*
X48440691Y14850500D01*
X48440690Y14850500D01*
X48440684Y14850499D01*
X48326114Y14819800D01*
X48326108Y14819797D01*
X48223390Y14760492D01*
X48223381Y14760485D01*
X48139515Y14676619D01*
X48139508Y14676610D01*
X48080203Y14573892D01*
X48080200Y14573886D01*
X48049501Y14459316D01*
X48049500Y14459308D01*
X500500Y14459308D01*
X500500Y16230132D01*
X5399500Y16230132D01*
X5399500Y15769870D01*
X5414265Y15619949D01*
X5472619Y15427581D01*
X5567375Y15250303D01*
X5567379Y15250297D01*
X5694906Y15094906D01*
X5850297Y14967379D01*
X5850299Y14967378D01*
X5850302Y14967376D01*
X5939317Y14919797D01*
X6027582Y14872619D01*
X6219947Y14814266D01*
X6369865Y14799500D01*
X8630134Y14799501D01*
X8780053Y14814266D01*
X8972418Y14872619D01*
X9149703Y14967379D01*
X9305094Y15094906D01*
X9432621Y15250297D01*
X9527381Y15427582D01*
X9585734Y15619947D01*
X9599460Y15759308D01*
X19449500Y15759308D01*
X19449500Y15640693D01*
X19449501Y15640685D01*
X19480200Y15526115D01*
X19480203Y15526109D01*
X19539508Y15423391D01*
X19539515Y15423382D01*
X19568703Y15394194D01*
X19587009Y15350000D01*
X19568703Y15305806D01*
X19539515Y15276619D01*
X19539508Y15276610D01*
X19480203Y15173892D01*
X19480200Y15173886D01*
X19449501Y15059316D01*
X19449500Y15059308D01*
X19449500Y14940693D01*
X19449501Y14940685D01*
X19480200Y14826115D01*
X19480203Y14826109D01*
X19539508Y14723391D01*
X19539515Y14723382D01*
X19623381Y14639516D01*
X19623390Y14639509D01*
X19726108Y14580204D01*
X19726114Y14580201D01*
X19840691Y14549500D01*
X19840692Y14549500D01*
X19959308Y14549500D01*
X19959309Y14549500D01*
X20073886Y14580201D01*
X20176613Y14639511D01*
X20205805Y14668705D01*
X20249997Y14687010D01*
X20294190Y14668707D01*
X20294194Y14668703D01*
X20323381Y14639515D01*
X20323389Y14639509D01*
X20426107Y14580204D01*
X20426113Y14580201D01*
X20540690Y14549500D01*
X20540691Y14549500D01*
X20659307Y14549500D01*
X20659308Y14549500D01*
X20773885Y14580201D01*
X20876612Y14639511D01*
X20905804Y14668703D01*
X20949998Y14687010D01*
X20994192Y14668705D01*
X20994194Y14668703D01*
X21023381Y14639515D01*
X21023389Y14639509D01*
X21126107Y14580204D01*
X21126113Y14580201D01*
X21240690Y14549500D01*
X21240691Y14549500D01*
X21359307Y14549500D01*
X21359308Y14549500D01*
X21473885Y14580201D01*
X21576612Y14639511D01*
X21660488Y14723387D01*
X21719798Y14826114D01*
X21750499Y14940691D01*
X21750499Y15059309D01*
X21719798Y15173886D01*
X21675678Y15250303D01*
X21660490Y15276610D01*
X21660484Y15276618D01*
X21631296Y15305805D01*
X21612989Y15349999D01*
X21631293Y15394192D01*
X21660489Y15423387D01*
X21719799Y15526114D01*
X21750500Y15640691D01*
X21750500Y15759309D01*
X21719799Y15873886D01*
X21660489Y15976613D01*
X21660487Y15976615D01*
X21660484Y15976619D01*
X21576618Y16060485D01*
X21576609Y16060492D01*
X21473891Y16119797D01*
X21473885Y16119800D01*
X21359315Y16150499D01*
X21359310Y16150500D01*
X21359309Y16150500D01*
X21240691Y16150500D01*
X21240690Y16150500D01*
X21240684Y16150499D01*
X21126114Y16119800D01*
X21126108Y16119797D01*
X21023390Y16060492D01*
X21023381Y16060485D01*
X20994194Y16031297D01*
X20950000Y16012991D01*
X20905806Y16031297D01*
X20876618Y16060485D01*
X20876609Y16060492D01*
X20773891Y16119797D01*
X20773885Y16119800D01*
X20659315Y16150499D01*
X20659310Y16150500D01*
X20659309Y16150500D01*
X20540691Y16150500D01*
X20540690Y16150500D01*
X20540684Y16150499D01*
X20426114Y16119800D01*
X20426108Y16119797D01*
X20323390Y16060492D01*
X20323381Y16060485D01*
X20294194Y16031297D01*
X20250000Y16012991D01*
X20205806Y16031297D01*
X20176618Y16060485D01*
X20176609Y16060492D01*
X20073891Y16119797D01*
X20073885Y16119800D01*
X19959315Y16150499D01*
X19959310Y16150500D01*
X19959309Y16150500D01*
X19840691Y16150500D01*
X19840690Y16150500D01*
X19840684Y16150499D01*
X19726114Y16119800D01*
X19726108Y16119797D01*
X19623390Y16060492D01*
X19623381Y16060485D01*
X19539515Y15976619D01*
X19539508Y15976610D01*
X19480203Y15873892D01*
X19480200Y15873886D01*
X19449501Y15759316D01*
X19449500Y15759308D01*
X9599460Y15759308D01*
X9600500Y15769865D01*
X9600499Y16230134D01*
X9585734Y16380053D01*
X9527381Y16572418D01*
X9432621Y16749703D01*
X9305094Y16905094D01*
X9149703Y17032621D01*
X9149697Y17032625D01*
X8972419Y17127381D01*
X8780051Y17185735D01*
X8687121Y17194888D01*
X8630135Y17200500D01*
X8630130Y17200500D01*
X6369869Y17200500D01*
X6219948Y17185735D01*
X6027580Y17127381D01*
X5850302Y17032625D01*
X5850296Y17032621D01*
X5694906Y16905094D01*
X5567379Y16749704D01*
X5567375Y16749698D01*
X5472619Y16572420D01*
X5414265Y16380052D01*
X5399500Y16230132D01*
X500500Y16230132D01*
X500500Y19730132D01*
X5399500Y19730132D01*
X5399500Y19269870D01*
X5414265Y19119949D01*
X5472619Y18927581D01*
X5567375Y18750303D01*
X5567379Y18750297D01*
X5694906Y18594906D01*
X5850297Y18467379D01*
X5850299Y18467378D01*
X5850302Y18467376D01*
X6027580Y18372620D01*
X6027582Y18372619D01*
X6219947Y18314266D01*
X6369865Y18299500D01*
X8630134Y18299501D01*
X8780053Y18314266D01*
X8972418Y18372619D01*
X9149703Y18467379D01*
X9305094Y18594906D01*
X9432621Y18750297D01*
X9527381Y18927582D01*
X9567339Y19059308D01*
X49015186Y19059308D01*
X49015186Y18940693D01*
X49015187Y18940685D01*
X49045886Y18826115D01*
X49045889Y18826109D01*
X49105194Y18723391D01*
X49105201Y18723382D01*
X49189067Y18639516D01*
X49189076Y18639509D01*
X49291794Y18580204D01*
X49291800Y18580201D01*
X49406377Y18549500D01*
X49406378Y18549500D01*
X49524994Y18549500D01*
X49524995Y18549500D01*
X49639572Y18580201D01*
X49742299Y18639511D01*
X49826175Y18723387D01*
X49885485Y18826114D01*
X49916186Y18940691D01*
X49916186Y19059309D01*
X49885485Y19173886D01*
X49830070Y19269866D01*
X49826177Y19276610D01*
X49826170Y19276619D01*
X49742304Y19360485D01*
X49742295Y19360492D01*
X49639577Y19419797D01*
X49639571Y19419800D01*
X49525001Y19450499D01*
X49524996Y19450500D01*
X49524995Y19450500D01*
X49406377Y19450500D01*
X49406376Y19450500D01*
X49406370Y19450499D01*
X49291800Y19419800D01*
X49291794Y19419797D01*
X49189076Y19360492D01*
X49189067Y19360485D01*
X49105201Y19276619D01*
X49105194Y19276610D01*
X49045889Y19173892D01*
X49045886Y19173886D01*
X49015187Y19059316D01*
X49015186Y19059308D01*
X9567339Y19059308D01*
X9585734Y19119947D01*
X9600500Y19269865D01*
X9600499Y19730134D01*
X9585734Y19880053D01*
X9527381Y20072418D01*
X9432621Y20249703D01*
X9305094Y20405094D01*
X9149703Y20532621D01*
X9149697Y20532625D01*
X8972419Y20627381D01*
X8780051Y20685735D01*
X8687121Y20694888D01*
X8630135Y20700500D01*
X8630130Y20700500D01*
X6369869Y20700500D01*
X6219948Y20685735D01*
X6027580Y20627381D01*
X5850302Y20532625D01*
X5850296Y20532621D01*
X5694906Y20405094D01*
X5567379Y20249704D01*
X5567375Y20249698D01*
X5472619Y20072420D01*
X5414265Y19880052D01*
X5399500Y19730132D01*
X500500Y19730132D01*
X500500Y21559308D01*
X14349500Y21559308D01*
X14349500Y21440693D01*
X14349501Y21440685D01*
X14380200Y21326115D01*
X14380203Y21326109D01*
X14439508Y21223391D01*
X14439515Y21223382D01*
X14523381Y21139516D01*
X14523390Y21139509D01*
X14626108Y21080204D01*
X14626114Y21080201D01*
X14740691Y21049500D01*
X14740692Y21049500D01*
X14859308Y21049500D01*
X14859309Y21049500D01*
X14973886Y21080201D01*
X15076613Y21139511D01*
X15160489Y21223387D01*
X15219799Y21326114D01*
X15250500Y21440691D01*
X15250500Y21559309D01*
X15223705Y21659308D01*
X49249500Y21659308D01*
X49249500Y21540693D01*
X49249501Y21540685D01*
X49280200Y21426115D01*
X49280203Y21426109D01*
X49339508Y21323391D01*
X49339515Y21323382D01*
X49423381Y21239516D01*
X49423390Y21239509D01*
X49526108Y21180204D01*
X49526114Y21180201D01*
X49640691Y21149500D01*
X49640692Y21149500D01*
X49759308Y21149500D01*
X49759309Y21149500D01*
X49873886Y21180201D01*
X49976613Y21239511D01*
X50060489Y21323387D01*
X50119799Y21426114D01*
X50150500Y21540691D01*
X50150500Y21659309D01*
X50119799Y21773886D01*
X50118226Y21776610D01*
X50060491Y21876610D01*
X50060484Y21876619D01*
X49976618Y21960485D01*
X49976612Y21960490D01*
X49892108Y22009279D01*
X49892107Y22009281D01*
X49873891Y22019797D01*
X49873885Y22019800D01*
X49759315Y22050499D01*
X49759310Y22050500D01*
X49759309Y22050500D01*
X49640691Y22050500D01*
X49640690Y22050500D01*
X49640684Y22050499D01*
X49526114Y22019800D01*
X49526108Y22019797D01*
X49423390Y21960492D01*
X49423381Y21960485D01*
X49339515Y21876619D01*
X49339508Y21876610D01*
X49280203Y21773892D01*
X49280200Y21773886D01*
X49249501Y21659316D01*
X49249500Y21659308D01*
X15223705Y21659308D01*
X15219799Y21673886D01*
X15191222Y21723382D01*
X15160491Y21776610D01*
X15160484Y21776619D01*
X15076618Y21860485D01*
X15076609Y21860492D01*
X14973891Y21919797D01*
X14973885Y21919800D01*
X14859315Y21950499D01*
X14859310Y21950500D01*
X14859309Y21950500D01*
X14740691Y21950500D01*
X14740690Y21950500D01*
X14740684Y21950499D01*
X14626114Y21919800D01*
X14626108Y21919797D01*
X14523390Y21860492D01*
X14523381Y21860485D01*
X14439515Y21776619D01*
X14439508Y21776610D01*
X14380203Y21673892D01*
X14380200Y21673886D01*
X14349501Y21559316D01*
X14349500Y21559308D01*
X500500Y21559308D01*
X500500Y22059308D01*
X59649500Y22059308D01*
X59649500Y21940693D01*
X59649501Y21940685D01*
X59680200Y21826115D01*
X59680203Y21826109D01*
X59739508Y21723391D01*
X59739515Y21723382D01*
X59823381Y21639516D01*
X59823390Y21639509D01*
X59926108Y21580204D01*
X59926114Y21580201D01*
X60040691Y21549500D01*
X60040692Y21549500D01*
X60159308Y21549500D01*
X60159309Y21549500D01*
X60273886Y21580201D01*
X60376613Y21639511D01*
X60460489Y21723387D01*
X60519799Y21826114D01*
X60550500Y21940691D01*
X60550500Y22059309D01*
X60519799Y22173886D01*
X60493290Y22219800D01*
X60460491Y22276610D01*
X60460484Y22276619D01*
X60377795Y22359308D01*
X60749500Y22359308D01*
X60749500Y22240693D01*
X60749501Y22240685D01*
X60780200Y22126115D01*
X60780203Y22126109D01*
X60839508Y22023391D01*
X60839515Y22023382D01*
X60923381Y21939516D01*
X60923390Y21939509D01*
X61026108Y21880204D01*
X61026114Y21880201D01*
X61140691Y21849500D01*
X61140692Y21849500D01*
X61259308Y21849500D01*
X61259309Y21849500D01*
X61295913Y21859308D01*
X62749500Y21859308D01*
X62749500Y21740693D01*
X62749501Y21740685D01*
X62780200Y21626115D01*
X62780203Y21626109D01*
X62839508Y21523391D01*
X62839515Y21523382D01*
X62923381Y21439516D01*
X62923390Y21439509D01*
X63026108Y21380204D01*
X63026114Y21380201D01*
X63140691Y21349500D01*
X63140692Y21349500D01*
X63259308Y21349500D01*
X63259309Y21349500D01*
X63373886Y21380201D01*
X63476613Y21439511D01*
X63560489Y21523387D01*
X63619799Y21626114D01*
X63650500Y21740691D01*
X63650500Y21859309D01*
X63619799Y21973886D01*
X63599364Y22009281D01*
X63574756Y22051903D01*
X63560491Y22076610D01*
X63560484Y22076619D01*
X63558047Y22079056D01*
X63899500Y22079056D01*
X63899500Y21920945D01*
X63899501Y21920937D01*
X63940421Y21768220D01*
X63940422Y21768217D01*
X63940423Y21768216D01*
X64019480Y21631284D01*
X64131284Y21519480D01*
X64267748Y21440693D01*
X64268216Y21440423D01*
X64268219Y21440422D01*
X64361681Y21415379D01*
X64420943Y21399500D01*
X64420944Y21399500D01*
X64579056Y21399500D01*
X64579057Y21399500D01*
X64731784Y21440423D01*
X64868716Y21519480D01*
X64980520Y21631284D01*
X65059577Y21768216D01*
X65100500Y21920943D01*
X65100500Y22079057D01*
X65084621Y22138319D01*
X65059578Y22231781D01*
X65059577Y22231784D01*
X65054438Y22240685D01*
X64980520Y22368716D01*
X64868716Y22480520D01*
X64772464Y22536091D01*
X64731783Y22559578D01*
X64731780Y22559579D01*
X64579063Y22600499D01*
X64579058Y22600500D01*
X64579057Y22600500D01*
X64420943Y22600500D01*
X64420942Y22600500D01*
X64420936Y22600499D01*
X64268219Y22559579D01*
X64268216Y22559578D01*
X64171964Y22504007D01*
X64131284Y22480520D01*
X64131283Y22480519D01*
X64131279Y22480516D01*
X64019484Y22368721D01*
X64019481Y22368717D01*
X64019480Y22368716D01*
X64008387Y22349502D01*
X63940422Y22231784D01*
X63940421Y22231781D01*
X63899501Y22079064D01*
X63899500Y22079056D01*
X63558047Y22079056D01*
X63476618Y22160485D01*
X63476609Y22160492D01*
X63373891Y22219797D01*
X63373885Y22219800D01*
X63259315Y22250499D01*
X63259310Y22250500D01*
X63259309Y22250500D01*
X63140691Y22250500D01*
X63140690Y22250500D01*
X63140684Y22250499D01*
X63026114Y22219800D01*
X63026108Y22219797D01*
X62923390Y22160492D01*
X62923381Y22160485D01*
X62839515Y22076619D01*
X62839508Y22076610D01*
X62780203Y21973892D01*
X62780200Y21973886D01*
X62749501Y21859316D01*
X62749500Y21859308D01*
X61295913Y21859308D01*
X61373886Y21880201D01*
X61383445Y21885721D01*
X61438544Y21917531D01*
X61464369Y21932443D01*
X61476613Y21939511D01*
X61560489Y22023387D01*
X61619799Y22126114D01*
X61650500Y22240691D01*
X61650500Y22359309D01*
X61619799Y22473886D01*
X61615971Y22480516D01*
X61560491Y22576610D01*
X61560484Y22576619D01*
X61476618Y22660485D01*
X61476609Y22660492D01*
X61373891Y22719797D01*
X61373885Y22719800D01*
X61259315Y22750499D01*
X61259310Y22750500D01*
X61259309Y22750500D01*
X61140691Y22750500D01*
X61140690Y22750500D01*
X61140684Y22750499D01*
X61026114Y22719800D01*
X61026108Y22719797D01*
X60923390Y22660492D01*
X60923381Y22660485D01*
X60839515Y22576619D01*
X60839508Y22576610D01*
X60780203Y22473892D01*
X60780200Y22473886D01*
X60749501Y22359316D01*
X60749500Y22359308D01*
X60377795Y22359308D01*
X60376618Y22360485D01*
X60376609Y22360492D01*
X60273891Y22419797D01*
X60273885Y22419800D01*
X60159315Y22450499D01*
X60159310Y22450500D01*
X60159309Y22450500D01*
X60040691Y22450500D01*
X60040690Y22450500D01*
X60040684Y22450499D01*
X59926114Y22419800D01*
X59926108Y22419797D01*
X59823390Y22360492D01*
X59823381Y22360485D01*
X59739515Y22276619D01*
X59739508Y22276610D01*
X59680203Y22173892D01*
X59680200Y22173886D01*
X59649501Y22059316D01*
X59649500Y22059308D01*
X500500Y22059308D01*
X500500Y22859308D01*
X39649500Y22859308D01*
X39649500Y22740693D01*
X39649501Y22740685D01*
X39680200Y22626115D01*
X39680203Y22626109D01*
X39739508Y22523391D01*
X39739515Y22523382D01*
X39823381Y22439516D01*
X39823390Y22439509D01*
X39926108Y22380204D01*
X39926114Y22380201D01*
X40040691Y22349500D01*
X40040692Y22349500D01*
X40159308Y22349500D01*
X40159309Y22349500D01*
X40273886Y22380201D01*
X40376613Y22439511D01*
X40460489Y22523387D01*
X40519799Y22626114D01*
X40550500Y22740691D01*
X40550500Y22859309D01*
X40519799Y22973886D01*
X40460489Y23076613D01*
X40460487Y23076615D01*
X40460484Y23076619D01*
X40376618Y23160485D01*
X40376609Y23160492D01*
X40273891Y23219797D01*
X40273885Y23219800D01*
X40159315Y23250499D01*
X40159310Y23250500D01*
X40159309Y23250500D01*
X40040691Y23250500D01*
X40040690Y23250500D01*
X40040684Y23250499D01*
X39926114Y23219800D01*
X39926108Y23219797D01*
X39823390Y23160492D01*
X39823381Y23160485D01*
X39739515Y23076619D01*
X39739508Y23076610D01*
X39680203Y22973892D01*
X39680200Y22973886D01*
X39649501Y22859316D01*
X39649500Y22859308D01*
X500500Y22859308D01*
X500500Y23825765D01*
X15724500Y23825765D01*
X15724500Y23674236D01*
X15724501Y23674228D01*
X15763717Y23527869D01*
X15763718Y23527866D01*
X15839486Y23396634D01*
X15839489Y23396630D01*
X15946629Y23289490D01*
X15946632Y23289488D01*
X15946635Y23289485D01*
X16067334Y23219799D01*
X16077865Y23213719D01*
X16077868Y23213718D01*
X16167435Y23189719D01*
X16224234Y23174500D01*
X16224235Y23174500D01*
X16375765Y23174500D01*
X16375766Y23174500D01*
X16522135Y23213719D01*
X16653365Y23289485D01*
X16655802Y23291922D01*
X16699994Y23310232D01*
X16744190Y23291930D01*
X16746635Y23289485D01*
X16867334Y23219799D01*
X16877865Y23213719D01*
X16877868Y23213718D01*
X16967435Y23189719D01*
X17024234Y23174500D01*
X17024235Y23174500D01*
X17175765Y23174500D01*
X17175766Y23174500D01*
X17322135Y23213719D01*
X17453365Y23289485D01*
X17560515Y23396635D01*
X17636281Y23527865D01*
X17675500Y23674234D01*
X17675500Y23825766D01*
X17636281Y23972135D01*
X17560515Y24103365D01*
X17560513Y24103367D01*
X17560510Y24103371D01*
X17453370Y24210511D01*
X17453366Y24210514D01*
X17453365Y24210515D01*
X17387750Y24248398D01*
X17322134Y24286282D01*
X17322131Y24286283D01*
X17175772Y24325499D01*
X17175767Y24325500D01*
X17175766Y24325500D01*
X17024234Y24325500D01*
X17024233Y24325500D01*
X17024227Y24325499D01*
X16877868Y24286283D01*
X16877865Y24286282D01*
X16746633Y24210514D01*
X16746629Y24210511D01*
X16744194Y24208075D01*
X16700000Y24189769D01*
X16655806Y24208075D01*
X16653370Y24210511D01*
X16653366Y24210514D01*
X16653365Y24210515D01*
X16587750Y24248398D01*
X16522134Y24286282D01*
X16522131Y24286283D01*
X16375772Y24325499D01*
X16375767Y24325500D01*
X16375766Y24325500D01*
X16224234Y24325500D01*
X16224233Y24325500D01*
X16224227Y24325499D01*
X16077868Y24286283D01*
X16077865Y24286282D01*
X15946633Y24210514D01*
X15946629Y24210511D01*
X15839489Y24103371D01*
X15839486Y24103367D01*
X15763718Y23972135D01*
X15763717Y23972132D01*
X15724501Y23825773D01*
X15724500Y23825765D01*
X500500Y23825765D01*
X500500Y26230132D01*
X5399500Y26230132D01*
X5399500Y25769870D01*
X5414265Y25619949D01*
X5472619Y25427581D01*
X5567375Y25250303D01*
X5567379Y25250297D01*
X5694906Y25094906D01*
X5850297Y24967379D01*
X5850299Y24967378D01*
X5850302Y24967376D01*
X6027580Y24872620D01*
X6027582Y24872619D01*
X6219947Y24814266D01*
X6369865Y24799500D01*
X8630134Y24799501D01*
X8780053Y24814266D01*
X8972418Y24872619D01*
X9149703Y24967379D01*
X9305094Y25094906D01*
X9432621Y25250297D01*
X9527381Y25427582D01*
X9585734Y25619947D01*
X9594536Y25709308D01*
X27399500Y25709308D01*
X27399500Y25590693D01*
X27399501Y25590685D01*
X27430200Y25476115D01*
X27430203Y25476109D01*
X27489508Y25373391D01*
X27489515Y25373382D01*
X27573381Y25289516D01*
X27573390Y25289509D01*
X27676108Y25230204D01*
X27676114Y25230201D01*
X27790691Y25199500D01*
X27790692Y25199500D01*
X27909308Y25199500D01*
X27909309Y25199500D01*
X28023886Y25230201D01*
X28126613Y25289511D01*
X28210489Y25373387D01*
X28260096Y25459308D01*
X31649500Y25459308D01*
X31649500Y25340693D01*
X31649501Y25340685D01*
X31680200Y25226115D01*
X31680203Y25226109D01*
X31739508Y25123391D01*
X31739515Y25123382D01*
X31823381Y25039516D01*
X31823390Y25039509D01*
X31926108Y24980204D01*
X31926114Y24980201D01*
X32040691Y24949500D01*
X32040692Y24949500D01*
X32159308Y24949500D01*
X32159309Y24949500D01*
X32273886Y24980201D01*
X32376613Y25039511D01*
X32460489Y25123387D01*
X32519799Y25226114D01*
X32550500Y25340691D01*
X32550500Y25459308D01*
X46449500Y25459308D01*
X46449500Y25340693D01*
X46449501Y25340685D01*
X46480200Y25226115D01*
X46480203Y25226109D01*
X46539508Y25123391D01*
X46539515Y25123382D01*
X46623381Y25039516D01*
X46623390Y25039509D01*
X46726108Y24980204D01*
X46726114Y24980201D01*
X46840691Y24949500D01*
X46840692Y24949500D01*
X46959308Y24949500D01*
X46959309Y24949500D01*
X47073886Y24980201D01*
X47176613Y25039511D01*
X47260489Y25123387D01*
X47319799Y25226114D01*
X47350500Y25340691D01*
X47350500Y25459309D01*
X47319799Y25573886D01*
X47310095Y25590693D01*
X47260491Y25676610D01*
X47260484Y25676619D01*
X47176618Y25760485D01*
X47176609Y25760492D01*
X47073891Y25819797D01*
X47073885Y25819800D01*
X46959315Y25850499D01*
X46959310Y25850500D01*
X46959309Y25850500D01*
X46840691Y25850500D01*
X46840690Y25850500D01*
X46840684Y25850499D01*
X46726114Y25819800D01*
X46726108Y25819797D01*
X46623390Y25760492D01*
X46623381Y25760485D01*
X46539515Y25676619D01*
X46539508Y25676610D01*
X46480203Y25573892D01*
X46480200Y25573886D01*
X46449501Y25459316D01*
X46449500Y25459308D01*
X32550500Y25459308D01*
X32550500Y25459309D01*
X32519799Y25573886D01*
X32510095Y25590693D01*
X32460491Y25676610D01*
X32460484Y25676619D01*
X32376618Y25760485D01*
X32376609Y25760492D01*
X32273891Y25819797D01*
X32273885Y25819800D01*
X32159315Y25850499D01*
X32159310Y25850500D01*
X32159309Y25850500D01*
X32040691Y25850500D01*
X32040690Y25850500D01*
X32040684Y25850499D01*
X31926114Y25819800D01*
X31926108Y25819797D01*
X31823390Y25760492D01*
X31823381Y25760485D01*
X31739515Y25676619D01*
X31739508Y25676610D01*
X31680203Y25573892D01*
X31680200Y25573886D01*
X31649501Y25459316D01*
X31649500Y25459308D01*
X28260096Y25459308D01*
X28269799Y25476114D01*
X28300500Y25590691D01*
X28300500Y25709309D01*
X28269799Y25823886D01*
X28255009Y25849502D01*
X28210491Y25926610D01*
X28210484Y25926619D01*
X28126618Y26010485D01*
X28126609Y26010492D01*
X28023891Y26069797D01*
X28023886Y26069799D01*
X27998393Y26076630D01*
X27960443Y26105750D01*
X27954200Y26153177D01*
X27983320Y26191127D01*
X28014570Y26199500D01*
X28109308Y26199500D01*
X28109309Y26199500D01*
X28223886Y26230201D01*
X28326613Y26289511D01*
X28396410Y26359308D01*
X43349500Y26359308D01*
X43349500Y26240693D01*
X43349501Y26240685D01*
X43380200Y26126115D01*
X43380203Y26126109D01*
X43439508Y26023391D01*
X43439515Y26023382D01*
X43523381Y25939516D01*
X43523390Y25939509D01*
X43626108Y25880204D01*
X43626114Y25880201D01*
X43740691Y25849500D01*
X43740692Y25849500D01*
X43859308Y25849500D01*
X43859309Y25849500D01*
X43973886Y25880201D01*
X44076613Y25939511D01*
X44160489Y26023387D01*
X44219799Y26126114D01*
X44250500Y26240691D01*
X44250500Y26359309D01*
X44241028Y26394657D01*
X44226942Y26447228D01*
X44226942Y26447229D01*
X44223705Y26459308D01*
X44749500Y26459308D01*
X44749500Y26340693D01*
X44749501Y26340685D01*
X44780200Y26226115D01*
X44780203Y26226109D01*
X44839508Y26123391D01*
X44839515Y26123382D01*
X44923381Y26039516D01*
X44923390Y26039509D01*
X45026108Y25980204D01*
X45026114Y25980201D01*
X45140691Y25949500D01*
X45140692Y25949500D01*
X45259308Y25949500D01*
X45259309Y25949500D01*
X45373886Y25980201D01*
X45476613Y26039511D01*
X45560489Y26123387D01*
X45619799Y26226114D01*
X45650500Y26340691D01*
X45650500Y26459309D01*
X45619799Y26573886D01*
X45618226Y26576610D01*
X45560491Y26676610D01*
X45560484Y26676619D01*
X45476618Y26760485D01*
X45476614Y26760488D01*
X45476613Y26760489D01*
X45464498Y26767484D01*
X45435380Y26805435D01*
X45441625Y26852861D01*
X45470382Y26878076D01*
X45470339Y26878152D01*
X45470722Y26878374D01*
X45471843Y26879356D01*
X45473876Y26880199D01*
X45473886Y26880201D01*
X45473894Y26880207D01*
X45473897Y26880207D01*
X45548677Y26923382D01*
X45576613Y26939511D01*
X45660489Y27023387D01*
X45719799Y27126114D01*
X45750500Y27240691D01*
X45750500Y27359309D01*
X45719799Y27473886D01*
X45718226Y27476610D01*
X45660491Y27576610D01*
X45660484Y27576619D01*
X45576618Y27660485D01*
X45576612Y27660490D01*
X45492108Y27709279D01*
X45492107Y27709281D01*
X45473891Y27719797D01*
X45473885Y27719800D01*
X45359315Y27750499D01*
X45359310Y27750500D01*
X45359309Y27750500D01*
X45240691Y27750500D01*
X45240690Y27750500D01*
X45240684Y27750499D01*
X45126114Y27719800D01*
X45126108Y27719797D01*
X45023390Y27660492D01*
X45023381Y27660485D01*
X44939515Y27576619D01*
X44939508Y27576610D01*
X44880203Y27473892D01*
X44880200Y27473886D01*
X44849501Y27359316D01*
X44849500Y27359308D01*
X44849500Y27240693D01*
X44849501Y27240685D01*
X44880200Y27126115D01*
X44880203Y27126109D01*
X44939508Y27023391D01*
X44939515Y27023382D01*
X45023381Y26939516D01*
X45023387Y26939511D01*
X45035499Y26932518D01*
X45064619Y26894567D01*
X45058374Y26847141D01*
X45029618Y26821922D01*
X45029661Y26821848D01*
X45029289Y26821634D01*
X45028168Y26820650D01*
X45026108Y26819797D01*
X44923390Y26760492D01*
X44923381Y26760485D01*
X44839515Y26676619D01*
X44839508Y26676610D01*
X44780203Y26573892D01*
X44780200Y26573886D01*
X44749501Y26459316D01*
X44749500Y26459308D01*
X44223705Y26459308D01*
X44219799Y26473886D01*
X44219796Y26473892D01*
X44160491Y26576610D01*
X44160484Y26576619D01*
X44076618Y26660485D01*
X44076609Y26660492D01*
X43973891Y26719797D01*
X43973885Y26719800D01*
X43859315Y26750499D01*
X43859310Y26750500D01*
X43859309Y26750500D01*
X43740691Y26750500D01*
X43740690Y26750500D01*
X43740684Y26750499D01*
X43626114Y26719800D01*
X43626108Y26719797D01*
X43523390Y26660492D01*
X43523381Y26660485D01*
X43439515Y26576619D01*
X43439508Y26576610D01*
X43380203Y26473892D01*
X43380200Y26473886D01*
X43349501Y26359316D01*
X43349500Y26359308D01*
X28396410Y26359308D01*
X28410489Y26373387D01*
X28422769Y26394656D01*
X28422770Y26394657D01*
X28469796Y26476109D01*
X28469799Y26476114D01*
X28500500Y26590691D01*
X28500500Y26709309D01*
X28469799Y26823886D01*
X28454433Y26850500D01*
X28410491Y26926610D01*
X28410484Y26926619D01*
X28326618Y27010485D01*
X28326609Y27010492D01*
X28223891Y27069797D01*
X28223885Y27069800D01*
X28109315Y27100499D01*
X28109310Y27100500D01*
X28109309Y27100500D01*
X27990691Y27100500D01*
X27990690Y27100500D01*
X27990684Y27100499D01*
X27876114Y27069800D01*
X27876108Y27069797D01*
X27773390Y27010492D01*
X27773381Y27010485D01*
X27689515Y26926619D01*
X27689508Y26926610D01*
X27630203Y26823892D01*
X27630200Y26823886D01*
X27599501Y26709316D01*
X27599500Y26709308D01*
X27599500Y26590693D01*
X27599501Y26590685D01*
X27630200Y26476115D01*
X27630203Y26476109D01*
X27689508Y26373391D01*
X27689515Y26373382D01*
X27773381Y26289516D01*
X27773390Y26289509D01*
X27876108Y26230204D01*
X27876110Y26230203D01*
X27876114Y26230201D01*
X27897762Y26224401D01*
X27901607Y26223370D01*
X27939557Y26194250D01*
X27945800Y26146823D01*
X27916680Y26108873D01*
X27885430Y26100500D01*
X27790691Y26100500D01*
X27790690Y26100500D01*
X27790684Y26100499D01*
X27676114Y26069800D01*
X27676108Y26069797D01*
X27573390Y26010492D01*
X27573381Y26010485D01*
X27489515Y25926619D01*
X27489508Y25926610D01*
X27430203Y25823892D01*
X27430200Y25823886D01*
X27399501Y25709316D01*
X27399500Y25709308D01*
X9594536Y25709308D01*
X9600500Y25769865D01*
X9600499Y26230134D01*
X9585734Y26380053D01*
X9527381Y26572418D01*
X9488527Y26645110D01*
X9432624Y26749698D01*
X9432620Y26749704D01*
X9423769Y26760489D01*
X9305094Y26905094D01*
X9149703Y27032621D01*
X9149697Y27032625D01*
X8972419Y27127381D01*
X8780051Y27185735D01*
X8687121Y27194888D01*
X8630135Y27200500D01*
X8630130Y27200500D01*
X6369869Y27200500D01*
X6219948Y27185735D01*
X6027580Y27127381D01*
X5850302Y27032625D01*
X5850296Y27032621D01*
X5694906Y26905094D01*
X5567379Y26749704D01*
X5567375Y26749698D01*
X5472619Y26572420D01*
X5414265Y26380052D01*
X5399500Y26230132D01*
X500500Y26230132D01*
X500500Y27259308D01*
X29149500Y27259308D01*
X29149500Y27140693D01*
X29149501Y27140685D01*
X29180200Y27026115D01*
X29180203Y27026109D01*
X29239508Y26923391D01*
X29239515Y26923382D01*
X29323381Y26839516D01*
X29323390Y26839509D01*
X29426108Y26780204D01*
X29426114Y26780201D01*
X29540691Y26749500D01*
X29540692Y26749500D01*
X29659308Y26749500D01*
X29659309Y26749500D01*
X29773886Y26780201D01*
X29876613Y26839511D01*
X29960489Y26923387D01*
X30019799Y27026114D01*
X30050500Y27140691D01*
X30050500Y27259309D01*
X30019799Y27373886D01*
X29991222Y27423382D01*
X29960491Y27476610D01*
X29960484Y27476619D01*
X29877795Y27559308D01*
X40349500Y27559308D01*
X40349500Y27440693D01*
X40349501Y27440685D01*
X40380200Y27326115D01*
X40380203Y27326109D01*
X40439508Y27223391D01*
X40439515Y27223382D01*
X40523381Y27139516D01*
X40523390Y27139509D01*
X40626108Y27080204D01*
X40626114Y27080201D01*
X40740691Y27049500D01*
X40740692Y27049500D01*
X40859308Y27049500D01*
X40859309Y27049500D01*
X40973886Y27080201D01*
X41076613Y27139511D01*
X41160489Y27223387D01*
X41219799Y27326114D01*
X41250500Y27440691D01*
X41250500Y27559309D01*
X41219799Y27673886D01*
X41193290Y27719800D01*
X41170480Y27759308D01*
X51049500Y27759308D01*
X51049500Y27640693D01*
X51049501Y27640685D01*
X51080200Y27526115D01*
X51080203Y27526109D01*
X51139508Y27423391D01*
X51139515Y27423382D01*
X51223381Y27339516D01*
X51223390Y27339509D01*
X51326108Y27280204D01*
X51326114Y27280201D01*
X51440691Y27249500D01*
X51440692Y27249500D01*
X51559308Y27249500D01*
X51559309Y27249500D01*
X51673886Y27280201D01*
X51776613Y27339511D01*
X51860489Y27423387D01*
X51919799Y27526114D01*
X51950500Y27640691D01*
X51950500Y27759309D01*
X51919799Y27873886D01*
X51893290Y27919800D01*
X51860491Y27976610D01*
X51860484Y27976619D01*
X51776618Y28060485D01*
X51776609Y28060492D01*
X51738807Y28082317D01*
X51738806Y28082317D01*
X51673888Y28119799D01*
X51673885Y28119800D01*
X51619390Y28134402D01*
X53949500Y28134402D01*
X53949500Y27865599D01*
X53984584Y27599106D01*
X53984584Y27599105D01*
X54054147Y27339491D01*
X54054151Y27339480D01*
X54054153Y27339474D01*
X54095070Y27240691D01*
X54157013Y27091147D01*
X54157015Y27091144D01*
X54157016Y27091141D01*
X54291413Y26858359D01*
X54361144Y26767483D01*
X54405782Y26709309D01*
X54455044Y26645110D01*
X54645110Y26455044D01*
X54858359Y26291413D01*
X55091141Y26157016D01*
X55339474Y26054153D01*
X55339484Y26054151D01*
X55339490Y26054148D01*
X55599104Y25984585D01*
X55599106Y25984585D01*
X55599109Y25984584D01*
X55865603Y25949500D01*
X55865609Y25949500D01*
X56134391Y25949500D01*
X56134397Y25949500D01*
X56400891Y25984584D01*
X56400895Y25984585D01*
X56660509Y26054148D01*
X56660512Y26054150D01*
X56660526Y26054153D01*
X56908859Y26157016D01*
X57141641Y26291413D01*
X57354890Y26455044D01*
X57544956Y26645110D01*
X57708587Y26858359D01*
X57842984Y27091141D01*
X57945847Y27339474D01*
X57945857Y27339509D01*
X58015415Y27599105D01*
X58015415Y27599106D01*
X58015416Y27599109D01*
X58050500Y27865603D01*
X58050500Y28134397D01*
X58015416Y28400891D01*
X58015415Y28400896D01*
X57945852Y28660510D01*
X57945849Y28660516D01*
X57945847Y28660526D01*
X57842984Y28908859D01*
X57708587Y29141641D01*
X57544956Y29354890D01*
X57354890Y29544956D01*
X57354886Y29544959D01*
X57354884Y29544961D01*
X57141638Y29708589D01*
X56912841Y29840685D01*
X56908859Y29842984D01*
X56908856Y29842985D01*
X56908853Y29842987D01*
X56792708Y29891096D01*
X56660526Y29945847D01*
X56660520Y29945849D01*
X56660509Y29945853D01*
X56400895Y30015416D01*
X56134401Y30050500D01*
X56134397Y30050500D01*
X55865603Y30050500D01*
X55865598Y30050500D01*
X55599105Y30015416D01*
X55599104Y30015416D01*
X55339490Y29945853D01*
X55339475Y29945848D01*
X55339474Y29945847D01*
X55339472Y29945846D01*
X55091146Y29842987D01*
X55091135Y29842981D01*
X54858361Y29708589D01*
X54645115Y29544961D01*
X54645105Y29544952D01*
X54455048Y29354895D01*
X54455039Y29354885D01*
X54291411Y29141639D01*
X54157019Y28908865D01*
X54157013Y28908854D01*
X54054154Y28660528D01*
X54054147Y28660510D01*
X53984584Y28400896D01*
X53984584Y28400895D01*
X53949500Y28134402D01*
X51619390Y28134402D01*
X51559315Y28150499D01*
X51559310Y28150500D01*
X51559309Y28150500D01*
X51440691Y28150500D01*
X51440690Y28150500D01*
X51440684Y28150499D01*
X51326114Y28119800D01*
X51326108Y28119797D01*
X51223390Y28060492D01*
X51223381Y28060485D01*
X51139515Y27976619D01*
X51139508Y27976610D01*
X51080203Y27873892D01*
X51080200Y27873886D01*
X51049501Y27759316D01*
X51049500Y27759308D01*
X41170480Y27759308D01*
X41160491Y27776610D01*
X41160484Y27776619D01*
X41076618Y27860485D01*
X41076609Y27860492D01*
X40973891Y27919797D01*
X40973885Y27919800D01*
X40859315Y27950499D01*
X40859310Y27950500D01*
X40859309Y27950500D01*
X40740691Y27950500D01*
X40740690Y27950500D01*
X40740684Y27950499D01*
X40626114Y27919800D01*
X40626108Y27919797D01*
X40523390Y27860492D01*
X40523381Y27860485D01*
X40439515Y27776619D01*
X40439508Y27776610D01*
X40380203Y27673892D01*
X40380200Y27673886D01*
X40349501Y27559316D01*
X40349500Y27559308D01*
X29877795Y27559308D01*
X29876618Y27560485D01*
X29876609Y27560492D01*
X29773891Y27619797D01*
X29773885Y27619800D01*
X29659315Y27650499D01*
X29659310Y27650500D01*
X29659309Y27650500D01*
X29540691Y27650500D01*
X29540690Y27650500D01*
X29540684Y27650499D01*
X29426114Y27619800D01*
X29426108Y27619797D01*
X29323390Y27560492D01*
X29323381Y27560485D01*
X29239515Y27476619D01*
X29239508Y27476610D01*
X29180203Y27373892D01*
X29180200Y27373886D01*
X29149501Y27259316D01*
X29149500Y27259308D01*
X500500Y27259308D01*
X500500Y29730132D01*
X5399500Y29730132D01*
X5399500Y29269870D01*
X5414265Y29119949D01*
X5472619Y28927581D01*
X5567375Y28750303D01*
X5567379Y28750297D01*
X5694906Y28594906D01*
X5850297Y28467379D01*
X5850299Y28467378D01*
X5850302Y28467376D01*
X5974679Y28400896D01*
X6027582Y28372619D01*
X6219947Y28314266D01*
X6369865Y28299500D01*
X8630134Y28299501D01*
X8780053Y28314266D01*
X8972418Y28372619D01*
X9149703Y28467379D01*
X9305094Y28594906D01*
X9432621Y28750297D01*
X9490888Y28859308D01*
X28249500Y28859308D01*
X28249500Y28740693D01*
X28249501Y28740685D01*
X28280200Y28626115D01*
X28280203Y28626109D01*
X28339508Y28523391D01*
X28339515Y28523382D01*
X28423381Y28439516D01*
X28423390Y28439509D01*
X28526108Y28380204D01*
X28526114Y28380201D01*
X28640691Y28349500D01*
X28640692Y28349500D01*
X28759308Y28349500D01*
X28759309Y28349500D01*
X28873886Y28380201D01*
X28976613Y28439511D01*
X29060489Y28523387D01*
X29119799Y28626114D01*
X29150500Y28740691D01*
X29150500Y28859309D01*
X29119799Y28973886D01*
X29060489Y29076613D01*
X29060487Y29076615D01*
X29060484Y29076619D01*
X28976618Y29160485D01*
X28976609Y29160492D01*
X28873891Y29219797D01*
X28873885Y29219800D01*
X28759315Y29250499D01*
X28759310Y29250500D01*
X28759309Y29250500D01*
X28640691Y29250500D01*
X28640690Y29250500D01*
X28640684Y29250499D01*
X28526114Y29219800D01*
X28526108Y29219797D01*
X28423390Y29160492D01*
X28423381Y29160485D01*
X28339515Y29076619D01*
X28339508Y29076610D01*
X28280203Y28973892D01*
X28280200Y28973886D01*
X28249501Y28859316D01*
X28249500Y28859308D01*
X9490888Y28859308D01*
X9490889Y28859309D01*
X9508826Y28892867D01*
X9527380Y28927581D01*
X9527381Y28927582D01*
X9585734Y29119947D01*
X9600500Y29269865D01*
X9600499Y29730134D01*
X9585734Y29880053D01*
X9527381Y30072418D01*
X9432621Y30249703D01*
X9424738Y30259308D01*
X15549500Y30259308D01*
X15549500Y30140693D01*
X15549501Y30140685D01*
X15580200Y30026115D01*
X15580203Y30026109D01*
X15639508Y29923391D01*
X15639515Y29923382D01*
X15723381Y29839516D01*
X15723390Y29839509D01*
X15826108Y29780204D01*
X15826114Y29780201D01*
X15940691Y29749500D01*
X15940692Y29749500D01*
X16059308Y29749500D01*
X16059309Y29749500D01*
X16173886Y29780201D01*
X16276613Y29839511D01*
X16360489Y29923387D01*
X16419799Y30026114D01*
X16450500Y30140691D01*
X16450500Y30259309D01*
X16426065Y30350500D01*
X16423705Y30359308D01*
X26749500Y30359308D01*
X26749500Y30240693D01*
X26749501Y30240685D01*
X26780200Y30126115D01*
X26780203Y30126109D01*
X26839508Y30023391D01*
X26839515Y30023382D01*
X26923381Y29939516D01*
X26923390Y29939509D01*
X27026108Y29880204D01*
X27026114Y29880201D01*
X27140691Y29849500D01*
X27140692Y29849500D01*
X27259308Y29849500D01*
X27259309Y29849500D01*
X27373886Y29880201D01*
X27476613Y29939511D01*
X27496410Y29959308D01*
X51449500Y29959308D01*
X51449500Y29840693D01*
X51449501Y29840685D01*
X51480200Y29726115D01*
X51480203Y29726109D01*
X51539508Y29623391D01*
X51539515Y29623382D01*
X51623381Y29539516D01*
X51623390Y29539509D01*
X51726108Y29480204D01*
X51726114Y29480201D01*
X51840691Y29449500D01*
X51840692Y29449500D01*
X51959308Y29449500D01*
X51959309Y29449500D01*
X52073886Y29480201D01*
X52176613Y29539511D01*
X52260489Y29623387D01*
X52319799Y29726114D01*
X52350500Y29840691D01*
X52350500Y29959309D01*
X52319799Y30073886D01*
X52289644Y30126115D01*
X52260491Y30176610D01*
X52260484Y30176619D01*
X52176618Y30260485D01*
X52176609Y30260492D01*
X52073891Y30319797D01*
X52073885Y30319800D01*
X51959315Y30350499D01*
X51959310Y30350500D01*
X51959309Y30350500D01*
X51840691Y30350500D01*
X51840690Y30350500D01*
X51840684Y30350499D01*
X51726114Y30319800D01*
X51726108Y30319797D01*
X51623390Y30260492D01*
X51623381Y30260485D01*
X51539515Y30176619D01*
X51539508Y30176610D01*
X51480203Y30073892D01*
X51480200Y30073886D01*
X51449501Y29959316D01*
X51449500Y29959308D01*
X27496410Y29959308D01*
X27496418Y29959316D01*
X27544702Y30007599D01*
X27560484Y30023382D01*
X27560489Y30023387D01*
X27619799Y30126114D01*
X27650500Y30240691D01*
X27650500Y30359309D01*
X27619799Y30473886D01*
X27618226Y30476610D01*
X27560491Y30576610D01*
X27560484Y30576619D01*
X27476618Y30660485D01*
X27476609Y30660492D01*
X27373891Y30719797D01*
X27373885Y30719800D01*
X27259315Y30750499D01*
X27259310Y30750500D01*
X27259309Y30750500D01*
X27140691Y30750500D01*
X27140690Y30750500D01*
X27140684Y30750499D01*
X27026114Y30719800D01*
X27026108Y30719797D01*
X26923390Y30660492D01*
X26923381Y30660485D01*
X26839515Y30576619D01*
X26839508Y30576610D01*
X26780203Y30473892D01*
X26780200Y30473886D01*
X26749501Y30359316D01*
X26749500Y30359308D01*
X16423705Y30359308D01*
X16419799Y30373886D01*
X16419796Y30373892D01*
X16360491Y30476610D01*
X16360484Y30476619D01*
X16276618Y30560485D01*
X16276609Y30560492D01*
X16173891Y30619797D01*
X16173885Y30619800D01*
X16059315Y30650499D01*
X16059310Y30650500D01*
X16059309Y30650500D01*
X15940691Y30650500D01*
X15940690Y30650500D01*
X15940684Y30650499D01*
X15826114Y30619800D01*
X15826108Y30619797D01*
X15723390Y30560492D01*
X15723381Y30560485D01*
X15639515Y30476619D01*
X15639508Y30476610D01*
X15580203Y30373892D01*
X15580200Y30373886D01*
X15549501Y30259316D01*
X15549500Y30259308D01*
X9424738Y30259308D01*
X9305094Y30405094D01*
X9149703Y30532621D01*
X9149697Y30532625D01*
X8972419Y30627381D01*
X8780051Y30685735D01*
X8687121Y30694888D01*
X8630135Y30700500D01*
X8630130Y30700500D01*
X6369869Y30700500D01*
X6219948Y30685735D01*
X6027580Y30627381D01*
X5850302Y30532625D01*
X5850296Y30532621D01*
X5694906Y30405094D01*
X5567379Y30249704D01*
X5567375Y30249698D01*
X5472619Y30072420D01*
X5414265Y29880052D01*
X5399500Y29730132D01*
X500500Y29730132D01*
X500500Y30859308D01*
X59549500Y30859308D01*
X59549500Y30740693D01*
X59549501Y30740685D01*
X59580200Y30626115D01*
X59580203Y30626109D01*
X59639508Y30523391D01*
X59639515Y30523382D01*
X59723381Y30439516D01*
X59723390Y30439509D01*
X59826108Y30380204D01*
X59826114Y30380201D01*
X59940691Y30349500D01*
X59940692Y30349500D01*
X60059308Y30349500D01*
X60059309Y30349500D01*
X60173886Y30380201D01*
X60276613Y30439511D01*
X60360489Y30523387D01*
X60419799Y30626114D01*
X60450500Y30740691D01*
X60450500Y30859309D01*
X60419799Y30973886D01*
X60360489Y31076613D01*
X60360487Y31076615D01*
X60360484Y31076619D01*
X60276618Y31160485D01*
X60276609Y31160492D01*
X60173891Y31219797D01*
X60173885Y31219800D01*
X60059315Y31250499D01*
X60059310Y31250500D01*
X60059309Y31250500D01*
X59940691Y31250500D01*
X59940690Y31250500D01*
X59940684Y31250499D01*
X59826114Y31219800D01*
X59826108Y31219797D01*
X59723390Y31160492D01*
X59723381Y31160485D01*
X59639515Y31076619D01*
X59639508Y31076610D01*
X59580203Y30973892D01*
X59580200Y30973886D01*
X59549501Y30859316D01*
X59549500Y30859308D01*
X500500Y30859308D01*
X500500Y31759308D01*
X48849500Y31759308D01*
X48849500Y31640693D01*
X48849501Y31640685D01*
X48880200Y31526115D01*
X48880203Y31526109D01*
X48939508Y31423391D01*
X48939515Y31423382D01*
X49023381Y31339516D01*
X49023390Y31339509D01*
X49126108Y31280204D01*
X49126114Y31280201D01*
X49240691Y31249500D01*
X49240692Y31249500D01*
X49359308Y31249500D01*
X49359309Y31249500D01*
X49473886Y31280201D01*
X49576613Y31339511D01*
X49660489Y31423387D01*
X49719799Y31526114D01*
X49750500Y31640691D01*
X49750500Y31759309D01*
X49719799Y31873886D01*
X49660489Y31976613D01*
X49660487Y31976615D01*
X49660484Y31976619D01*
X49576618Y32060485D01*
X49576609Y32060492D01*
X49473891Y32119797D01*
X49473885Y32119800D01*
X49359315Y32150499D01*
X49359310Y32150500D01*
X49359309Y32150500D01*
X49240691Y32150500D01*
X49240690Y32150500D01*
X49240684Y32150499D01*
X49126114Y32119800D01*
X49126108Y32119797D01*
X49023390Y32060492D01*
X49023381Y32060485D01*
X48939515Y31976619D01*
X48939508Y31976610D01*
X48880203Y31873892D01*
X48880200Y31873886D01*
X48849501Y31759316D01*
X48849500Y31759308D01*
X500500Y31759308D01*
X500500Y33259308D01*
X15149500Y33259308D01*
X15149500Y33140693D01*
X15149501Y33140685D01*
X15180200Y33026115D01*
X15180203Y33026109D01*
X15239508Y32923391D01*
X15239515Y32923382D01*
X15323381Y32839516D01*
X15323390Y32839509D01*
X15426108Y32780204D01*
X15426114Y32780201D01*
X15540691Y32749500D01*
X15540692Y32749500D01*
X15659308Y32749500D01*
X15659309Y32749500D01*
X15773886Y32780201D01*
X15876613Y32839511D01*
X15905805Y32868703D01*
X15949999Y32887010D01*
X15994193Y32868705D01*
X15994195Y32868703D01*
X16023382Y32839515D01*
X16023390Y32839509D01*
X16126108Y32780204D01*
X16126114Y32780201D01*
X16240691Y32749500D01*
X16240692Y32749500D01*
X16359308Y32749500D01*
X16359309Y32749500D01*
X16473886Y32780201D01*
X16576613Y32839511D01*
X16605805Y32868703D01*
X16649999Y32887010D01*
X16694193Y32868705D01*
X16694195Y32868703D01*
X16723382Y32839515D01*
X16723390Y32839509D01*
X16826108Y32780204D01*
X16826114Y32780201D01*
X16940691Y32749500D01*
X16940692Y32749500D01*
X17059308Y32749500D01*
X17059309Y32749500D01*
X17173886Y32780201D01*
X17276613Y32839511D01*
X17305805Y32868703D01*
X17349999Y32887010D01*
X17394193Y32868705D01*
X17394195Y32868703D01*
X17423382Y32839515D01*
X17423390Y32839509D01*
X17526108Y32780204D01*
X17526114Y32780201D01*
X17640691Y32749500D01*
X17640692Y32749500D01*
X17759308Y32749500D01*
X17759309Y32749500D01*
X17873886Y32780201D01*
X17976613Y32839511D01*
X18005805Y32868703D01*
X18049999Y32887010D01*
X18094193Y32868705D01*
X18094195Y32868703D01*
X18123382Y32839515D01*
X18123390Y32839509D01*
X18226108Y32780204D01*
X18226114Y32780201D01*
X18340691Y32749500D01*
X18340692Y32749500D01*
X18459308Y32749500D01*
X18459309Y32749500D01*
X18573886Y32780201D01*
X18676613Y32839511D01*
X18705805Y32868703D01*
X18749999Y32887010D01*
X18794193Y32868705D01*
X18794195Y32868703D01*
X18823382Y32839515D01*
X18823390Y32839509D01*
X18926108Y32780204D01*
X18926114Y32780201D01*
X19040691Y32749500D01*
X19040692Y32749500D01*
X19159308Y32749500D01*
X19159309Y32749500D01*
X19195913Y32759308D01*
X35349500Y32759308D01*
X35349500Y32640693D01*
X35349501Y32640685D01*
X35380200Y32526115D01*
X35380203Y32526109D01*
X35439508Y32423391D01*
X35439515Y32423382D01*
X35523381Y32339516D01*
X35523390Y32339509D01*
X35626108Y32280204D01*
X35626114Y32280201D01*
X35740691Y32249500D01*
X35740692Y32249500D01*
X35859308Y32249500D01*
X35859309Y32249500D01*
X35973886Y32280201D01*
X36076613Y32339511D01*
X36160489Y32423387D01*
X36219799Y32526114D01*
X36250500Y32640691D01*
X36250500Y32759309D01*
X36219799Y32873886D01*
X36197275Y32912898D01*
X36160491Y32976610D01*
X36160484Y32976619D01*
X36076618Y33060485D01*
X36076609Y33060492D01*
X35973891Y33119797D01*
X35973885Y33119800D01*
X35859315Y33150499D01*
X35859310Y33150500D01*
X35859309Y33150500D01*
X35740691Y33150500D01*
X35740690Y33150500D01*
X35740684Y33150499D01*
X35626114Y33119800D01*
X35626108Y33119797D01*
X35523390Y33060492D01*
X35523381Y33060485D01*
X35439515Y32976619D01*
X35439508Y32976610D01*
X35380203Y32873892D01*
X35380200Y32873886D01*
X35349501Y32759316D01*
X35349500Y32759308D01*
X19195913Y32759308D01*
X19273886Y32780201D01*
X19283445Y32785721D01*
X19338544Y32817531D01*
X19364369Y32832443D01*
X19376613Y32839511D01*
X19460489Y32923387D01*
X19519799Y33026114D01*
X19550500Y33140691D01*
X19550500Y33259309D01*
X19519799Y33373886D01*
X19460489Y33476613D01*
X19460487Y33476615D01*
X19460484Y33476619D01*
X19376618Y33560485D01*
X19376609Y33560492D01*
X19273891Y33619797D01*
X19273885Y33619800D01*
X19159315Y33650499D01*
X19159310Y33650500D01*
X19159309Y33650500D01*
X19040691Y33650500D01*
X19040690Y33650500D01*
X19040684Y33650499D01*
X18926114Y33619800D01*
X18926108Y33619797D01*
X18823390Y33560492D01*
X18823381Y33560485D01*
X18794194Y33531297D01*
X18750000Y33512991D01*
X18705806Y33531297D01*
X18676618Y33560485D01*
X18676609Y33560492D01*
X18573891Y33619797D01*
X18573885Y33619800D01*
X18459315Y33650499D01*
X18459310Y33650500D01*
X18459309Y33650500D01*
X18340691Y33650500D01*
X18340690Y33650500D01*
X18340684Y33650499D01*
X18226114Y33619800D01*
X18226108Y33619797D01*
X18123390Y33560492D01*
X18123381Y33560485D01*
X18094194Y33531297D01*
X18050000Y33512991D01*
X18005806Y33531297D01*
X17976618Y33560485D01*
X17976609Y33560492D01*
X17873891Y33619797D01*
X17873885Y33619800D01*
X17759315Y33650499D01*
X17759310Y33650500D01*
X17759309Y33650500D01*
X17640691Y33650500D01*
X17640690Y33650500D01*
X17640684Y33650499D01*
X17526114Y33619800D01*
X17526108Y33619797D01*
X17423390Y33560492D01*
X17423381Y33560485D01*
X17394194Y33531297D01*
X17350000Y33512991D01*
X17305806Y33531297D01*
X17276618Y33560485D01*
X17276609Y33560492D01*
X17173891Y33619797D01*
X17173885Y33619800D01*
X17059315Y33650499D01*
X17059310Y33650500D01*
X17059309Y33650500D01*
X16940691Y33650500D01*
X16940690Y33650500D01*
X16940684Y33650499D01*
X16826114Y33619800D01*
X16826108Y33619797D01*
X16723390Y33560492D01*
X16723381Y33560485D01*
X16694194Y33531297D01*
X16650000Y33512991D01*
X16605806Y33531297D01*
X16576618Y33560485D01*
X16576609Y33560492D01*
X16473891Y33619797D01*
X16473885Y33619800D01*
X16359315Y33650499D01*
X16359310Y33650500D01*
X16359309Y33650500D01*
X16240691Y33650500D01*
X16240690Y33650500D01*
X16240684Y33650499D01*
X16126114Y33619800D01*
X16126108Y33619797D01*
X16023390Y33560492D01*
X16023381Y33560485D01*
X15994194Y33531297D01*
X15950000Y33512991D01*
X15905806Y33531297D01*
X15876618Y33560485D01*
X15876609Y33560492D01*
X15773891Y33619797D01*
X15773885Y33619800D01*
X15659315Y33650499D01*
X15659310Y33650500D01*
X15659309Y33650500D01*
X15540691Y33650500D01*
X15540690Y33650500D01*
X15540684Y33650499D01*
X15426114Y33619800D01*
X15426108Y33619797D01*
X15323390Y33560492D01*
X15323381Y33560485D01*
X15239515Y33476619D01*
X15239508Y33476610D01*
X15180203Y33373892D01*
X15180200Y33373886D01*
X15149501Y33259316D01*
X15149500Y33259308D01*
X500500Y33259308D01*
X500500Y34259308D01*
X47949500Y34259308D01*
X47949500Y34140693D01*
X47949501Y34140685D01*
X47980200Y34026115D01*
X47980203Y34026109D01*
X48039508Y33923391D01*
X48039515Y33923382D01*
X48123381Y33839516D01*
X48123390Y33839509D01*
X48226108Y33780204D01*
X48226114Y33780201D01*
X48340691Y33749500D01*
X48340692Y33749500D01*
X48459308Y33749500D01*
X48459309Y33749500D01*
X48573886Y33780201D01*
X48676613Y33839511D01*
X48760489Y33923387D01*
X48819799Y34026114D01*
X48850500Y34140691D01*
X48850500Y34259309D01*
X48819799Y34373886D01*
X48760489Y34476613D01*
X48760487Y34476615D01*
X48760484Y34476619D01*
X48676618Y34560485D01*
X48676609Y34560492D01*
X48573891Y34619797D01*
X48573885Y34619800D01*
X48459315Y34650499D01*
X48459310Y34650500D01*
X48459309Y34650500D01*
X48340691Y34650500D01*
X48340690Y34650500D01*
X48340684Y34650499D01*
X48226114Y34619800D01*
X48226108Y34619797D01*
X48123390Y34560492D01*
X48123381Y34560485D01*
X48039515Y34476619D01*
X48039508Y34476610D01*
X47980203Y34373892D01*
X47980200Y34373886D01*
X47949501Y34259316D01*
X47949500Y34259308D01*
X500500Y34259308D01*
X500500Y35859308D01*
X12149500Y35859308D01*
X12149500Y35740693D01*
X12149501Y35740685D01*
X12180200Y35626115D01*
X12180203Y35626109D01*
X12239508Y35523391D01*
X12239515Y35523382D01*
X12323381Y35439516D01*
X12323390Y35439509D01*
X12426108Y35380204D01*
X12426114Y35380201D01*
X12540691Y35349500D01*
X12540692Y35349500D01*
X12659308Y35349500D01*
X12659309Y35349500D01*
X12773886Y35380201D01*
X12876613Y35439511D01*
X12905805Y35468703D01*
X12949999Y35487010D01*
X12994193Y35468705D01*
X12994195Y35468703D01*
X13023382Y35439515D01*
X13023390Y35439509D01*
X13126108Y35380204D01*
X13126114Y35380201D01*
X13240691Y35349500D01*
X13240692Y35349500D01*
X13359308Y35349500D01*
X13359309Y35349500D01*
X13473886Y35380201D01*
X13576613Y35439511D01*
X13605805Y35468703D01*
X13649999Y35487010D01*
X13694193Y35468705D01*
X13694195Y35468703D01*
X13723382Y35439515D01*
X13723390Y35439509D01*
X13826108Y35380204D01*
X13826114Y35380201D01*
X13940691Y35349500D01*
X13940692Y35349500D01*
X14059308Y35349500D01*
X14059309Y35349500D01*
X14173886Y35380201D01*
X14276613Y35439511D01*
X14360489Y35523387D01*
X14381228Y35559308D01*
X45649500Y35559308D01*
X45649500Y35440693D01*
X45649501Y35440685D01*
X45680200Y35326115D01*
X45680203Y35326109D01*
X45739508Y35223391D01*
X45739515Y35223382D01*
X45823381Y35139516D01*
X45823390Y35139509D01*
X45926108Y35080204D01*
X45926114Y35080201D01*
X46040691Y35049500D01*
X46040692Y35049500D01*
X46159308Y35049500D01*
X46159309Y35049500D01*
X46195913Y35059308D01*
X52649500Y35059308D01*
X52649500Y34940693D01*
X52649501Y34940685D01*
X52680200Y34826115D01*
X52680203Y34826109D01*
X52739508Y34723391D01*
X52739515Y34723382D01*
X52823381Y34639516D01*
X52823390Y34639509D01*
X52926108Y34580204D01*
X52926114Y34580201D01*
X53040691Y34549500D01*
X53040692Y34549500D01*
X53159308Y34549500D01*
X53159309Y34549500D01*
X53273886Y34580201D01*
X53376613Y34639511D01*
X53460489Y34723387D01*
X53519799Y34826114D01*
X53550500Y34940691D01*
X53550500Y35059309D01*
X53519799Y35173886D01*
X53491222Y35223382D01*
X53460491Y35276610D01*
X53460484Y35276619D01*
X53376618Y35360485D01*
X53376609Y35360492D01*
X53273891Y35419797D01*
X53273885Y35419800D01*
X53159315Y35450499D01*
X53159310Y35450500D01*
X53159309Y35450500D01*
X53040691Y35450500D01*
X53040690Y35450500D01*
X53040684Y35450499D01*
X52926114Y35419800D01*
X52926108Y35419797D01*
X52823390Y35360492D01*
X52823381Y35360485D01*
X52739515Y35276619D01*
X52739508Y35276610D01*
X52680203Y35173892D01*
X52680200Y35173886D01*
X52649501Y35059316D01*
X52649500Y35059308D01*
X46195913Y35059308D01*
X46273886Y35080201D01*
X46283445Y35085721D01*
X46338544Y35117531D01*
X46364369Y35132443D01*
X46376613Y35139511D01*
X46460489Y35223387D01*
X46519799Y35326114D01*
X46550500Y35440691D01*
X46550500Y35559309D01*
X46519799Y35673886D01*
X46516151Y35680204D01*
X46460491Y35776610D01*
X46460484Y35776619D01*
X46376618Y35860485D01*
X46376609Y35860492D01*
X46273891Y35919797D01*
X46273885Y35919800D01*
X46159315Y35950499D01*
X46159310Y35950500D01*
X46159309Y35950500D01*
X46040691Y35950500D01*
X46040690Y35950500D01*
X46040684Y35950499D01*
X45926114Y35919800D01*
X45926108Y35919797D01*
X45823390Y35860492D01*
X45823381Y35860485D01*
X45739515Y35776619D01*
X45739508Y35776610D01*
X45680203Y35673892D01*
X45680200Y35673886D01*
X45649501Y35559316D01*
X45649500Y35559308D01*
X14381228Y35559308D01*
X14401637Y35594656D01*
X14401638Y35594657D01*
X14419796Y35626109D01*
X14419799Y35626114D01*
X14450500Y35740691D01*
X14450500Y35859309D01*
X14419799Y35973886D01*
X14381232Y36040685D01*
X14360491Y36076610D01*
X14360484Y36076619D01*
X14276618Y36160485D01*
X14276609Y36160492D01*
X14173891Y36219797D01*
X14173885Y36219800D01*
X14059315Y36250499D01*
X14059310Y36250500D01*
X14059309Y36250500D01*
X13940691Y36250500D01*
X13940690Y36250500D01*
X13940684Y36250499D01*
X13826114Y36219800D01*
X13826108Y36219797D01*
X13723390Y36160492D01*
X13723381Y36160485D01*
X13694194Y36131297D01*
X13650000Y36112991D01*
X13605806Y36131297D01*
X13576618Y36160485D01*
X13576609Y36160492D01*
X13473891Y36219797D01*
X13473885Y36219800D01*
X13359315Y36250499D01*
X13359310Y36250500D01*
X13359309Y36250500D01*
X13240691Y36250500D01*
X13240690Y36250500D01*
X13240684Y36250499D01*
X13126114Y36219800D01*
X13126108Y36219797D01*
X13023390Y36160492D01*
X13023381Y36160485D01*
X12994194Y36131297D01*
X12950000Y36112991D01*
X12905806Y36131297D01*
X12876618Y36160485D01*
X12876609Y36160492D01*
X12773891Y36219797D01*
X12773885Y36219800D01*
X12659315Y36250499D01*
X12659310Y36250500D01*
X12659309Y36250500D01*
X12540691Y36250500D01*
X12540690Y36250500D01*
X12540684Y36250499D01*
X12426114Y36219800D01*
X12426108Y36219797D01*
X12323390Y36160492D01*
X12323381Y36160485D01*
X12239515Y36076619D01*
X12239508Y36076610D01*
X12180203Y35973892D01*
X12180200Y35973886D01*
X12149501Y35859316D01*
X12149500Y35859308D01*
X500500Y35859308D01*
X500500Y36559308D01*
X29449500Y36559308D01*
X29449500Y36440693D01*
X29449501Y36440685D01*
X29480200Y36326115D01*
X29480203Y36326109D01*
X29539508Y36223391D01*
X29539515Y36223382D01*
X29623381Y36139516D01*
X29623390Y36139509D01*
X29726108Y36080204D01*
X29726114Y36080201D01*
X29840691Y36049500D01*
X29840692Y36049500D01*
X29959308Y36049500D01*
X29959309Y36049500D01*
X30073886Y36080201D01*
X30176613Y36139511D01*
X30260489Y36223387D01*
X30319799Y36326114D01*
X30350500Y36440691D01*
X30350500Y36559309D01*
X30319799Y36673886D01*
X30319796Y36673892D01*
X30260491Y36776610D01*
X30260484Y36776619D01*
X30176618Y36860485D01*
X30176609Y36860492D01*
X30073891Y36919797D01*
X30073885Y36919800D01*
X29959315Y36950499D01*
X29959310Y36950500D01*
X29959309Y36950500D01*
X29840691Y36950500D01*
X29840690Y36950500D01*
X29840684Y36950499D01*
X29726114Y36919800D01*
X29726108Y36919797D01*
X29623390Y36860492D01*
X29623381Y36860485D01*
X29539515Y36776619D01*
X29539508Y36776610D01*
X29480203Y36673892D01*
X29480200Y36673886D01*
X29449501Y36559316D01*
X29449500Y36559308D01*
X500500Y36559308D01*
X500500Y37059308D01*
X30949500Y37059308D01*
X30949500Y36940693D01*
X30949501Y36940685D01*
X30980200Y36826115D01*
X30980203Y36826109D01*
X31039508Y36723391D01*
X31039515Y36723382D01*
X31123381Y36639516D01*
X31123387Y36639511D01*
X31184674Y36604126D01*
X31213794Y36566175D01*
X31207549Y36518749D01*
X31184674Y36495874D01*
X31123387Y36460490D01*
X31123381Y36460485D01*
X31039515Y36376619D01*
X31039508Y36376610D01*
X30980203Y36273892D01*
X30980200Y36273886D01*
X30949501Y36159316D01*
X30949500Y36159308D01*
X30949500Y36040693D01*
X30949501Y36040685D01*
X30980200Y35926115D01*
X30980203Y35926109D01*
X31039508Y35823391D01*
X31039515Y35823382D01*
X31123381Y35739516D01*
X31123390Y35739509D01*
X31226108Y35680204D01*
X31226114Y35680201D01*
X31340691Y35649500D01*
X31340692Y35649500D01*
X31459308Y35649500D01*
X31459309Y35649500D01*
X31573886Y35680201D01*
X31676613Y35739511D01*
X31760489Y35823387D01*
X31819799Y35926114D01*
X31850500Y36040691D01*
X31850500Y36159309D01*
X31819799Y36273886D01*
X31791222Y36323382D01*
X31760491Y36376610D01*
X31760484Y36376619D01*
X31676618Y36460485D01*
X31676609Y36460492D01*
X31615326Y36495874D01*
X31586206Y36533824D01*
X31592450Y36581250D01*
X31615326Y36604126D01*
X31656041Y36627635D01*
X31676613Y36639511D01*
X31760489Y36723387D01*
X31819799Y36826114D01*
X31850500Y36940691D01*
X31850500Y37059308D01*
X48149500Y37059308D01*
X48149500Y36940693D01*
X48149501Y36940685D01*
X48180200Y36826115D01*
X48180203Y36826109D01*
X48239508Y36723391D01*
X48239515Y36723382D01*
X48323381Y36639516D01*
X48323390Y36639509D01*
X48426108Y36580204D01*
X48426114Y36580201D01*
X48540691Y36549500D01*
X48540692Y36549500D01*
X48659308Y36549500D01*
X48659309Y36549500D01*
X48695913Y36559308D01*
X54449500Y36559308D01*
X54449500Y36440693D01*
X54449501Y36440685D01*
X54480200Y36326115D01*
X54480203Y36326109D01*
X54539508Y36223391D01*
X54539515Y36223382D01*
X54623381Y36139516D01*
X54623390Y36139509D01*
X54726108Y36080204D01*
X54726114Y36080201D01*
X54840691Y36049500D01*
X54840692Y36049500D01*
X54959308Y36049500D01*
X54959309Y36049500D01*
X55073886Y36080201D01*
X55176613Y36139511D01*
X55260489Y36223387D01*
X55319799Y36326114D01*
X55346594Y36426114D01*
X55350499Y36440686D01*
X55350931Y36443967D01*
X55374845Y36485396D01*
X55421050Y36497780D01*
X55462479Y36473866D01*
X55473267Y36451991D01*
X55480201Y36426114D01*
X55480203Y36426109D01*
X55539508Y36323391D01*
X55539515Y36323382D01*
X55623381Y36239516D01*
X55623390Y36239509D01*
X55726108Y36180204D01*
X55726114Y36180201D01*
X55840691Y36149500D01*
X55840692Y36149500D01*
X55959308Y36149500D01*
X55959309Y36149500D01*
X56073886Y36180201D01*
X56176613Y36239511D01*
X56260489Y36323387D01*
X56319799Y36426114D01*
X56350500Y36540691D01*
X56350500Y36659309D01*
X56319799Y36773886D01*
X56318226Y36776610D01*
X56260491Y36876610D01*
X56260484Y36876619D01*
X56176618Y36960485D01*
X56176609Y36960492D01*
X56073891Y37019797D01*
X56073885Y37019800D01*
X55959315Y37050499D01*
X55959310Y37050500D01*
X55959309Y37050500D01*
X55840691Y37050500D01*
X55840690Y37050500D01*
X55840684Y37050499D01*
X55726114Y37019800D01*
X55726108Y37019797D01*
X55623390Y36960492D01*
X55623381Y36960485D01*
X55539515Y36876619D01*
X55539508Y36876610D01*
X55480203Y36773892D01*
X55480200Y36773886D01*
X55449499Y36659312D01*
X55449067Y36656025D01*
X55425146Y36614600D01*
X55378940Y36602222D01*
X55337515Y36626143D01*
X55326733Y36648008D01*
X55319799Y36673886D01*
X55319797Y36673889D01*
X55319797Y36673891D01*
X55319796Y36673892D01*
X55260491Y36776610D01*
X55260484Y36776619D01*
X55176618Y36860485D01*
X55176609Y36860492D01*
X55073891Y36919797D01*
X55073885Y36919800D01*
X54959315Y36950499D01*
X54959310Y36950500D01*
X54959309Y36950500D01*
X54840691Y36950500D01*
X54840690Y36950500D01*
X54840684Y36950499D01*
X54726114Y36919800D01*
X54726108Y36919797D01*
X54623390Y36860492D01*
X54623381Y36860485D01*
X54539515Y36776619D01*
X54539508Y36776610D01*
X54480203Y36673892D01*
X54480200Y36673886D01*
X54449501Y36559316D01*
X54449500Y36559308D01*
X48695913Y36559308D01*
X48773886Y36580201D01*
X48783445Y36585721D01*
X48838544Y36617531D01*
X48864369Y36632443D01*
X48876613Y36639511D01*
X48960489Y36723387D01*
X49019799Y36826114D01*
X49050500Y36940691D01*
X49050500Y37059309D01*
X49019799Y37173886D01*
X48960489Y37276613D01*
X48960487Y37276615D01*
X48960484Y37276619D01*
X48876618Y37360485D01*
X48876609Y37360492D01*
X48773891Y37419797D01*
X48773885Y37419800D01*
X48659315Y37450499D01*
X48659310Y37450500D01*
X48659309Y37450500D01*
X48540691Y37450500D01*
X48540690Y37450500D01*
X48540684Y37450499D01*
X48426114Y37419800D01*
X48426108Y37419797D01*
X48323390Y37360492D01*
X48323381Y37360485D01*
X48239515Y37276619D01*
X48239508Y37276610D01*
X48180203Y37173892D01*
X48180200Y37173886D01*
X48149501Y37059316D01*
X48149500Y37059308D01*
X31850500Y37059308D01*
X31850500Y37059309D01*
X31819799Y37173886D01*
X31760489Y37276613D01*
X31760487Y37276615D01*
X31760484Y37276619D01*
X31676618Y37360485D01*
X31676609Y37360492D01*
X31573891Y37419797D01*
X31573885Y37419800D01*
X31459315Y37450499D01*
X31459310Y37450500D01*
X31459309Y37450500D01*
X31340691Y37450500D01*
X31340690Y37450500D01*
X31340684Y37450499D01*
X31226114Y37419800D01*
X31226108Y37419797D01*
X31123390Y37360492D01*
X31123381Y37360485D01*
X31039515Y37276619D01*
X31039508Y37276610D01*
X30980203Y37173892D01*
X30980200Y37173886D01*
X30949501Y37059316D01*
X30949500Y37059308D01*
X500500Y37059308D01*
X500500Y38125765D01*
X15724500Y38125765D01*
X15724500Y37974236D01*
X15724501Y37974228D01*
X15763717Y37827869D01*
X15763718Y37827866D01*
X15782892Y37794657D01*
X15824037Y37723391D01*
X15839486Y37696634D01*
X15839489Y37696630D01*
X15946629Y37589490D01*
X15946632Y37589488D01*
X15946635Y37589485D01*
X16056405Y37526109D01*
X16077865Y37513719D01*
X16077868Y37513718D01*
X16167435Y37489719D01*
X16224234Y37474500D01*
X16224235Y37474500D01*
X16375765Y37474500D01*
X16375766Y37474500D01*
X16522135Y37513719D01*
X16653365Y37589485D01*
X16655802Y37591922D01*
X16699994Y37610232D01*
X16744190Y37591930D01*
X16746635Y37589485D01*
X16856405Y37526109D01*
X16877865Y37513719D01*
X16877868Y37513718D01*
X16967435Y37489719D01*
X17024234Y37474500D01*
X17024235Y37474500D01*
X17175765Y37474500D01*
X17175766Y37474500D01*
X17322135Y37513719D01*
X17453365Y37589485D01*
X17560515Y37696635D01*
X17636281Y37827865D01*
X17675500Y37974234D01*
X17675500Y38059308D01*
X26649500Y38059308D01*
X26649500Y37940693D01*
X26649501Y37940685D01*
X26680200Y37826115D01*
X26680203Y37826109D01*
X26739508Y37723391D01*
X26739515Y37723382D01*
X26823381Y37639516D01*
X26823390Y37639509D01*
X26926108Y37580204D01*
X26926114Y37580201D01*
X27040691Y37549500D01*
X27040692Y37549500D01*
X27159308Y37549500D01*
X27159309Y37549500D01*
X27273886Y37580201D01*
X27376613Y37639511D01*
X27460489Y37723387D01*
X27481228Y37759308D01*
X41149500Y37759308D01*
X41149500Y37640693D01*
X41149501Y37640685D01*
X41180200Y37526115D01*
X41180203Y37526109D01*
X41239508Y37423391D01*
X41239515Y37423382D01*
X41323381Y37339516D01*
X41323390Y37339509D01*
X41426108Y37280204D01*
X41426114Y37280201D01*
X41540691Y37249500D01*
X41540692Y37249500D01*
X41659308Y37249500D01*
X41659309Y37249500D01*
X41773886Y37280201D01*
X41876613Y37339511D01*
X41960489Y37423387D01*
X42019799Y37526114D01*
X42050500Y37640691D01*
X42050500Y37759308D01*
X43549500Y37759308D01*
X43549500Y37640693D01*
X43549501Y37640685D01*
X43580200Y37526115D01*
X43580203Y37526109D01*
X43639508Y37423391D01*
X43639515Y37423382D01*
X43723381Y37339516D01*
X43723390Y37339509D01*
X43826108Y37280204D01*
X43826114Y37280201D01*
X43940691Y37249500D01*
X43940692Y37249500D01*
X44059308Y37249500D01*
X44059309Y37249500D01*
X44173886Y37280201D01*
X44276613Y37339511D01*
X44360489Y37423387D01*
X44419799Y37526114D01*
X44450500Y37640691D01*
X44450500Y37759309D01*
X44419799Y37873886D01*
X44381232Y37940685D01*
X44360491Y37976610D01*
X44360484Y37976619D01*
X44276618Y38060485D01*
X44276609Y38060492D01*
X44173891Y38119797D01*
X44173885Y38119800D01*
X44059315Y38150499D01*
X44059310Y38150500D01*
X44059309Y38150500D01*
X43940691Y38150500D01*
X43940690Y38150500D01*
X43940684Y38150499D01*
X43826114Y38119800D01*
X43826108Y38119797D01*
X43723390Y38060492D01*
X43723381Y38060485D01*
X43639515Y37976619D01*
X43639508Y37976610D01*
X43580203Y37873892D01*
X43580200Y37873886D01*
X43549501Y37759316D01*
X43549500Y37759308D01*
X42050500Y37759308D01*
X42050500Y37759309D01*
X42019799Y37873886D01*
X41981232Y37940685D01*
X41960491Y37976610D01*
X41960484Y37976619D01*
X41876618Y38060485D01*
X41876609Y38060492D01*
X41773891Y38119797D01*
X41773885Y38119800D01*
X41659315Y38150499D01*
X41659310Y38150500D01*
X41659309Y38150500D01*
X41540691Y38150500D01*
X41540690Y38150500D01*
X41540684Y38150499D01*
X41426114Y38119800D01*
X41426108Y38119797D01*
X41323390Y38060492D01*
X41323381Y38060485D01*
X41239515Y37976619D01*
X41239508Y37976610D01*
X41180203Y37873892D01*
X41180200Y37873886D01*
X41149501Y37759316D01*
X41149500Y37759308D01*
X27481228Y37759308D01*
X27501637Y37794656D01*
X27501638Y37794657D01*
X27519796Y37826109D01*
X27519799Y37826114D01*
X27550500Y37940691D01*
X27550500Y38059309D01*
X27519799Y38173886D01*
X27516151Y38180204D01*
X27460491Y38276610D01*
X27460484Y38276619D01*
X27376618Y38360485D01*
X27376609Y38360492D01*
X27273891Y38419797D01*
X27273885Y38419800D01*
X27159315Y38450499D01*
X27159310Y38450500D01*
X27159309Y38450500D01*
X27040691Y38450500D01*
X27040690Y38450500D01*
X27040684Y38450499D01*
X26926114Y38419800D01*
X26926108Y38419797D01*
X26823390Y38360492D01*
X26823381Y38360485D01*
X26739515Y38276619D01*
X26739508Y38276610D01*
X26680203Y38173892D01*
X26680200Y38173886D01*
X26649501Y38059316D01*
X26649500Y38059308D01*
X17675500Y38059308D01*
X17675500Y38125766D01*
X17645023Y38239509D01*
X17636282Y38272132D01*
X17636281Y38272135D01*
X17633692Y38276619D01*
X17560515Y38403365D01*
X17560513Y38403367D01*
X17560510Y38403371D01*
X17453370Y38510511D01*
X17453366Y38510514D01*
X17453365Y38510515D01*
X17332661Y38580204D01*
X17322134Y38586282D01*
X17322131Y38586283D01*
X17175772Y38625499D01*
X17175767Y38625500D01*
X17175766Y38625500D01*
X17024234Y38625500D01*
X17024233Y38625500D01*
X17024227Y38625499D01*
X16877868Y38586283D01*
X16877865Y38586282D01*
X16746633Y38510514D01*
X16746629Y38510511D01*
X16744194Y38508075D01*
X16700000Y38489769D01*
X16655806Y38508075D01*
X16653370Y38510511D01*
X16653366Y38510514D01*
X16653365Y38510515D01*
X16532661Y38580204D01*
X16522134Y38586282D01*
X16522131Y38586283D01*
X16375772Y38625499D01*
X16375767Y38625500D01*
X16375766Y38625500D01*
X16224234Y38625500D01*
X16224233Y38625500D01*
X16224227Y38625499D01*
X16077868Y38586283D01*
X16077865Y38586282D01*
X15946633Y38510514D01*
X15946629Y38510511D01*
X15839489Y38403371D01*
X15839486Y38403367D01*
X15763718Y38272135D01*
X15763717Y38272132D01*
X15724501Y38125773D01*
X15724500Y38125765D01*
X500500Y38125765D01*
X500500Y39980132D01*
X5399500Y39980132D01*
X5399500Y39519870D01*
X5414265Y39369949D01*
X5472619Y39177581D01*
X5567375Y39000303D01*
X5567379Y39000297D01*
X5694906Y38844906D01*
X5850297Y38717379D01*
X5850299Y38717378D01*
X5850302Y38717376D01*
X5995979Y38639511D01*
X6027582Y38622619D01*
X6219947Y38564266D01*
X6369865Y38549500D01*
X8630134Y38549501D01*
X8780053Y38564266D01*
X8972418Y38622619D01*
X9149703Y38717379D01*
X9305094Y38844906D01*
X9432621Y39000297D01*
X9453584Y39039516D01*
X9464163Y39059308D01*
X25049500Y39059308D01*
X25049500Y38940693D01*
X25049501Y38940685D01*
X25080200Y38826115D01*
X25080203Y38826109D01*
X25139508Y38723391D01*
X25139515Y38723382D01*
X25223381Y38639516D01*
X25223390Y38639509D01*
X25326108Y38580204D01*
X25326114Y38580201D01*
X25440691Y38549500D01*
X25440692Y38549500D01*
X25559308Y38549500D01*
X25559309Y38549500D01*
X25673886Y38580201D01*
X25776613Y38639511D01*
X25796410Y38659308D01*
X57049500Y38659308D01*
X57049500Y38540693D01*
X57049501Y38540685D01*
X57080200Y38426115D01*
X57080203Y38426109D01*
X57139508Y38323391D01*
X57139515Y38323382D01*
X57223381Y38239516D01*
X57223390Y38239509D01*
X57326108Y38180204D01*
X57326114Y38180201D01*
X57440691Y38149500D01*
X57440692Y38149500D01*
X57559308Y38149500D01*
X57559309Y38149500D01*
X57673886Y38180201D01*
X57776613Y38239511D01*
X57860489Y38323387D01*
X57919799Y38426114D01*
X57950500Y38540691D01*
X57950500Y38659309D01*
X57950498Y38659316D01*
X57948764Y38665790D01*
X57948764Y38665791D01*
X57945526Y38677873D01*
X59669500Y38677873D01*
X59669500Y38542128D01*
X59704630Y38411028D01*
X59704630Y38411026D01*
X59772499Y38293475D01*
X59772502Y38293471D01*
X59868470Y38197503D01*
X59868474Y38197500D01*
X59868476Y38197498D01*
X59986025Y38129631D01*
X60000453Y38125765D01*
X60117127Y38094501D01*
X60117133Y38094500D01*
X60252867Y38094500D01*
X60252872Y38094501D01*
X60291821Y38104939D01*
X60383975Y38129631D01*
X60501524Y38197498D01*
X60597502Y38293476D01*
X60665369Y38411025D01*
X60700500Y38542133D01*
X60700500Y38677867D01*
X60700499Y38677873D01*
X60674771Y38773887D01*
X60665369Y38808975D01*
X60597502Y38926524D01*
X60597500Y38926526D01*
X60597497Y38926530D01*
X60501529Y39022498D01*
X60501525Y39022501D01*
X60501524Y39022502D01*
X60383975Y39090369D01*
X60383974Y39090370D01*
X60383973Y39090370D01*
X60252872Y39125500D01*
X60252867Y39125500D01*
X60117133Y39125500D01*
X60117127Y39125500D01*
X59986027Y39090370D01*
X59986025Y39090370D01*
X59868474Y39022501D01*
X59868470Y39022498D01*
X59772502Y38926530D01*
X59772499Y38926526D01*
X59704630Y38808975D01*
X59704630Y38808973D01*
X59669500Y38677873D01*
X57945526Y38677873D01*
X57933140Y38724094D01*
X57919799Y38773886D01*
X57899541Y38808973D01*
X57860491Y38876610D01*
X57860484Y38876619D01*
X57776618Y38960485D01*
X57776609Y38960492D01*
X57673891Y39019797D01*
X57673885Y39019800D01*
X57559315Y39050499D01*
X57559310Y39050500D01*
X57559309Y39050500D01*
X57440691Y39050500D01*
X57440690Y39050500D01*
X57440684Y39050499D01*
X57326114Y39019800D01*
X57326108Y39019797D01*
X57223390Y38960492D01*
X57223381Y38960485D01*
X57139515Y38876619D01*
X57139508Y38876610D01*
X57080203Y38773892D01*
X57080200Y38773886D01*
X57049501Y38659316D01*
X57049500Y38659308D01*
X25796410Y38659308D01*
X25802893Y38665791D01*
X25844702Y38707599D01*
X25860484Y38723382D01*
X25860489Y38723387D01*
X25919799Y38826114D01*
X25950500Y38940691D01*
X25950500Y39059309D01*
X25919799Y39173886D01*
X25917665Y39177582D01*
X25860491Y39276610D01*
X25860484Y39276619D01*
X25776618Y39360485D01*
X25776612Y39360490D01*
X25692108Y39409279D01*
X25692107Y39409281D01*
X25673891Y39419797D01*
X25673885Y39419800D01*
X25559315Y39450499D01*
X25559310Y39450500D01*
X25559309Y39450500D01*
X25440691Y39450500D01*
X25440690Y39450500D01*
X25440684Y39450499D01*
X25326114Y39419800D01*
X25326108Y39419797D01*
X25223390Y39360492D01*
X25223381Y39360485D01*
X25139515Y39276619D01*
X25139508Y39276610D01*
X25080203Y39173892D01*
X25080200Y39173886D01*
X25049501Y39059316D01*
X25049500Y39059308D01*
X9464163Y39059308D01*
X9482101Y39092867D01*
X9525405Y39173886D01*
X9527381Y39177582D01*
X9585734Y39369947D01*
X9594536Y39459308D01*
X38949500Y39459308D01*
X38949500Y39340693D01*
X38949501Y39340685D01*
X38980200Y39226115D01*
X38980203Y39226109D01*
X39039508Y39123391D01*
X39039515Y39123382D01*
X39123381Y39039516D01*
X39123390Y39039509D01*
X39226108Y38980204D01*
X39226114Y38980201D01*
X39340691Y38949500D01*
X39340692Y38949500D01*
X39459308Y38949500D01*
X39459309Y38949500D01*
X39573886Y38980201D01*
X39676613Y39039511D01*
X39760489Y39123387D01*
X39819799Y39226114D01*
X39850500Y39340691D01*
X39850500Y39459309D01*
X39819799Y39573886D01*
X39816151Y39580204D01*
X39760491Y39676610D01*
X39760484Y39676619D01*
X39677795Y39759308D01*
X42649500Y39759308D01*
X42649500Y39640693D01*
X42649501Y39640685D01*
X42680200Y39526115D01*
X42680203Y39526109D01*
X42739508Y39423391D01*
X42739515Y39423382D01*
X42823381Y39339516D01*
X42823390Y39339509D01*
X42926108Y39280204D01*
X42926114Y39280201D01*
X43040691Y39249500D01*
X43040692Y39249500D01*
X43159308Y39249500D01*
X43159309Y39249500D01*
X43273886Y39280201D01*
X43376613Y39339511D01*
X43460489Y39423387D01*
X43519799Y39526114D01*
X43550500Y39640691D01*
X43550500Y39759309D01*
X43526065Y39850500D01*
X43523705Y39859308D01*
X48249500Y39859308D01*
X48249500Y39740693D01*
X48249501Y39740685D01*
X48280200Y39626115D01*
X48280203Y39626109D01*
X48339508Y39523391D01*
X48339515Y39523382D01*
X48423381Y39439516D01*
X48423390Y39439509D01*
X48526108Y39380204D01*
X48526114Y39380201D01*
X48640691Y39349500D01*
X48640692Y39349500D01*
X48759308Y39349500D01*
X48759309Y39349500D01*
X48873886Y39380201D01*
X48976613Y39439511D01*
X49060489Y39523387D01*
X49119799Y39626114D01*
X49150500Y39740691D01*
X49150500Y39859309D01*
X49119799Y39973886D01*
X49118226Y39976610D01*
X49060491Y40076610D01*
X49060484Y40076619D01*
X48976618Y40160485D01*
X48976609Y40160492D01*
X48873891Y40219797D01*
X48873885Y40219800D01*
X48759315Y40250499D01*
X48759310Y40250500D01*
X48759309Y40250500D01*
X48640691Y40250500D01*
X48640690Y40250500D01*
X48640684Y40250499D01*
X48526114Y40219800D01*
X48526108Y40219797D01*
X48423390Y40160492D01*
X48423381Y40160485D01*
X48339515Y40076619D01*
X48339508Y40076610D01*
X48280203Y39973892D01*
X48280200Y39973886D01*
X48249501Y39859316D01*
X48249500Y39859308D01*
X43523705Y39859308D01*
X43519799Y39873886D01*
X43519796Y39873892D01*
X43460491Y39976610D01*
X43460484Y39976619D01*
X43376618Y40060485D01*
X43376609Y40060492D01*
X43273891Y40119797D01*
X43273885Y40119800D01*
X43159315Y40150499D01*
X43159310Y40150500D01*
X43159309Y40150500D01*
X43040691Y40150500D01*
X43040690Y40150500D01*
X43040684Y40150499D01*
X42926114Y40119800D01*
X42926108Y40119797D01*
X42823390Y40060492D01*
X42823381Y40060485D01*
X42739515Y39976619D01*
X42739508Y39976610D01*
X42680203Y39873892D01*
X42680200Y39873886D01*
X42649501Y39759316D01*
X42649500Y39759308D01*
X39677795Y39759308D01*
X39676618Y39760485D01*
X39676609Y39760492D01*
X39573891Y39819797D01*
X39573885Y39819800D01*
X39459315Y39850499D01*
X39459310Y39850500D01*
X39459309Y39850500D01*
X39340691Y39850500D01*
X39340690Y39850500D01*
X39340684Y39850499D01*
X39226114Y39819800D01*
X39226108Y39819797D01*
X39123390Y39760492D01*
X39123381Y39760485D01*
X39039515Y39676619D01*
X39039508Y39676610D01*
X38980203Y39573892D01*
X38980200Y39573886D01*
X38949501Y39459316D01*
X38949500Y39459308D01*
X9594536Y39459308D01*
X9600500Y39519865D01*
X9600499Y39980134D01*
X9592701Y40059308D01*
X25549500Y40059308D01*
X25549500Y39940693D01*
X25549501Y39940685D01*
X25580200Y39826115D01*
X25580203Y39826109D01*
X25639508Y39723391D01*
X25639515Y39723382D01*
X25723381Y39639516D01*
X25723390Y39639509D01*
X25826108Y39580204D01*
X25826114Y39580201D01*
X25940691Y39549500D01*
X25940692Y39549500D01*
X26059308Y39549500D01*
X26059309Y39549500D01*
X26173886Y39580201D01*
X26276613Y39639511D01*
X26360489Y39723387D01*
X26419799Y39826114D01*
X26450500Y39940691D01*
X26450500Y40059309D01*
X26419799Y40173886D01*
X26419796Y40173892D01*
X26386160Y40232151D01*
X26386158Y40232154D01*
X26370480Y40259308D01*
X36649500Y40259308D01*
X36649500Y40140693D01*
X36649501Y40140685D01*
X36680200Y40026115D01*
X36680203Y40026109D01*
X36739508Y39923391D01*
X36739515Y39923382D01*
X36823381Y39839516D01*
X36823390Y39839509D01*
X36926108Y39780204D01*
X36926114Y39780201D01*
X37040691Y39749500D01*
X37040692Y39749500D01*
X37159308Y39749500D01*
X37159309Y39749500D01*
X37273886Y39780201D01*
X37376613Y39839511D01*
X37460489Y39923387D01*
X37519799Y40026114D01*
X37550500Y40140691D01*
X37550500Y40259309D01*
X37519799Y40373886D01*
X37516151Y40380204D01*
X37460491Y40476610D01*
X37460484Y40476619D01*
X37376618Y40560485D01*
X37376609Y40560492D01*
X37273891Y40619797D01*
X37273885Y40619800D01*
X37159315Y40650499D01*
X37159310Y40650500D01*
X37159309Y40650500D01*
X37040691Y40650500D01*
X37040690Y40650500D01*
X37040684Y40650499D01*
X36926114Y40619800D01*
X36926108Y40619797D01*
X36823390Y40560492D01*
X36823381Y40560485D01*
X36739515Y40476619D01*
X36739508Y40476610D01*
X36680203Y40373892D01*
X36680200Y40373886D01*
X36649501Y40259316D01*
X36649500Y40259308D01*
X26370480Y40259308D01*
X26360489Y40276613D01*
X26360484Y40276619D01*
X26276618Y40360485D01*
X26276609Y40360492D01*
X26173891Y40419797D01*
X26173885Y40419800D01*
X26059315Y40450499D01*
X26059310Y40450500D01*
X26059309Y40450500D01*
X25940691Y40450500D01*
X25940690Y40450500D01*
X25940684Y40450499D01*
X25826114Y40419800D01*
X25826108Y40419797D01*
X25723390Y40360492D01*
X25723381Y40360485D01*
X25639515Y40276619D01*
X25639508Y40276610D01*
X25580203Y40173892D01*
X25580200Y40173886D01*
X25549501Y40059316D01*
X25549500Y40059308D01*
X9592701Y40059308D01*
X9585734Y40130053D01*
X9527381Y40322418D01*
X9527380Y40322420D01*
X9432624Y40499698D01*
X9432620Y40499704D01*
X9413184Y40523387D01*
X9305094Y40655094D01*
X9149703Y40782621D01*
X9149697Y40782625D01*
X8972419Y40877381D01*
X8885718Y40903682D01*
X8793648Y40931610D01*
X8780051Y40935735D01*
X8687121Y40944888D01*
X8630135Y40950500D01*
X8630130Y40950500D01*
X6369869Y40950500D01*
X6219948Y40935735D01*
X6027580Y40877381D01*
X5850302Y40782625D01*
X5850296Y40782621D01*
X5694906Y40655094D01*
X5567379Y40499704D01*
X5567375Y40499698D01*
X5472619Y40322420D01*
X5414265Y40130052D01*
X5399500Y39980132D01*
X500500Y39980132D01*
X500500Y40984308D01*
X42874500Y40984308D01*
X42874500Y40865693D01*
X42874501Y40865685D01*
X42905200Y40751115D01*
X42905203Y40751109D01*
X42964508Y40648391D01*
X42964515Y40648382D01*
X43048381Y40564516D01*
X43048390Y40564509D01*
X43151108Y40505204D01*
X43151114Y40505201D01*
X43265691Y40474500D01*
X43265692Y40474500D01*
X43384308Y40474500D01*
X43384309Y40474500D01*
X43498886Y40505201D01*
X43601613Y40564511D01*
X43685489Y40648387D01*
X43744799Y40751114D01*
X43773790Y40859308D01*
X44249500Y40859308D01*
X44249500Y40740693D01*
X44249501Y40740685D01*
X44280200Y40626115D01*
X44280203Y40626109D01*
X44339508Y40523391D01*
X44339515Y40523382D01*
X44423381Y40439516D01*
X44423390Y40439509D01*
X44526108Y40380204D01*
X44526114Y40380201D01*
X44640691Y40349500D01*
X44640692Y40349500D01*
X44759308Y40349500D01*
X44759309Y40349500D01*
X44795913Y40359308D01*
X52949500Y40359308D01*
X52949500Y40240693D01*
X52949501Y40240685D01*
X52980200Y40126115D01*
X52980203Y40126109D01*
X53039508Y40023391D01*
X53039515Y40023382D01*
X53123381Y39939516D01*
X53123390Y39939509D01*
X53226108Y39880204D01*
X53226114Y39880201D01*
X53340691Y39849500D01*
X53340692Y39849500D01*
X53459308Y39849500D01*
X53459309Y39849500D01*
X53573886Y39880201D01*
X53676613Y39939511D01*
X53760489Y40023387D01*
X53819799Y40126114D01*
X53850500Y40240691D01*
X53850500Y40359309D01*
X53819799Y40473886D01*
X53819443Y40474502D01*
X53760491Y40576610D01*
X53760484Y40576619D01*
X53676618Y40660485D01*
X53676609Y40660492D01*
X53573891Y40719797D01*
X53573885Y40719800D01*
X53459315Y40750499D01*
X53459310Y40750500D01*
X53459309Y40750500D01*
X53340691Y40750500D01*
X53340690Y40750500D01*
X53340684Y40750499D01*
X53226114Y40719800D01*
X53226108Y40719797D01*
X53123390Y40660492D01*
X53123381Y40660485D01*
X53039515Y40576619D01*
X53039508Y40576610D01*
X52980203Y40473892D01*
X52980200Y40473886D01*
X52949501Y40359316D01*
X52949500Y40359308D01*
X44795913Y40359308D01*
X44873886Y40380201D01*
X44883445Y40385721D01*
X44938544Y40417531D01*
X44964369Y40432443D01*
X44976613Y40439511D01*
X45060489Y40523387D01*
X45119799Y40626114D01*
X45150500Y40740691D01*
X45150500Y40859309D01*
X45119799Y40973886D01*
X45113781Y40984309D01*
X45060491Y41076610D01*
X45060484Y41076619D01*
X44977795Y41159308D01*
X60249500Y41159308D01*
X60249500Y41040693D01*
X60249501Y41040685D01*
X60280200Y40926115D01*
X60280203Y40926109D01*
X60339508Y40823391D01*
X60339515Y40823382D01*
X60423381Y40739516D01*
X60423390Y40739509D01*
X60526108Y40680204D01*
X60526114Y40680201D01*
X60640691Y40649500D01*
X60640692Y40649500D01*
X60759308Y40649500D01*
X60759309Y40649500D01*
X60873886Y40680201D01*
X60976613Y40739511D01*
X61060489Y40823387D01*
X61119799Y40926114D01*
X61150500Y41040691D01*
X61150500Y41159309D01*
X61119799Y41273886D01*
X61113102Y41285485D01*
X61060491Y41376610D01*
X61060484Y41376619D01*
X60976618Y41460485D01*
X60976609Y41460492D01*
X60873891Y41519797D01*
X60873885Y41519800D01*
X60759315Y41550499D01*
X60759310Y41550500D01*
X60759309Y41550500D01*
X60640691Y41550500D01*
X60640690Y41550500D01*
X60640684Y41550499D01*
X60526114Y41519800D01*
X60526108Y41519797D01*
X60423390Y41460492D01*
X60423381Y41460485D01*
X60339515Y41376619D01*
X60339508Y41376610D01*
X60280203Y41273892D01*
X60280200Y41273886D01*
X60249501Y41159316D01*
X60249500Y41159308D01*
X44977795Y41159308D01*
X44976618Y41160485D01*
X44976609Y41160492D01*
X44873891Y41219797D01*
X44873885Y41219800D01*
X44759315Y41250499D01*
X44759310Y41250500D01*
X44759309Y41250500D01*
X44640691Y41250500D01*
X44640690Y41250500D01*
X44640684Y41250499D01*
X44526114Y41219800D01*
X44526108Y41219797D01*
X44423390Y41160492D01*
X44423381Y41160485D01*
X44339515Y41076619D01*
X44339508Y41076610D01*
X44280203Y40973892D01*
X44280200Y40973886D01*
X44249501Y40859316D01*
X44249500Y40859308D01*
X43773790Y40859308D01*
X43775500Y40865691D01*
X43775500Y40984309D01*
X43744799Y41098886D01*
X43709913Y41159309D01*
X43685491Y41201610D01*
X43685484Y41201619D01*
X43601618Y41285485D01*
X43601609Y41285492D01*
X43498891Y41344797D01*
X43498885Y41344800D01*
X43384315Y41375499D01*
X43384310Y41375500D01*
X43384309Y41375500D01*
X43265691Y41375500D01*
X43265690Y41375500D01*
X43265684Y41375499D01*
X43151114Y41344800D01*
X43151108Y41344797D01*
X43048390Y41285492D01*
X43048381Y41285485D01*
X42964515Y41201619D01*
X42964508Y41201610D01*
X42905203Y41098892D01*
X42905200Y41098886D01*
X42874501Y40984316D01*
X42874500Y40984308D01*
X500500Y40984308D01*
X500500Y43480132D01*
X5399500Y43480132D01*
X5399500Y43019870D01*
X5414265Y42869949D01*
X5472619Y42677581D01*
X5567375Y42500303D01*
X5567379Y42500297D01*
X5694906Y42344906D01*
X5850297Y42217379D01*
X5850299Y42217378D01*
X5850302Y42217376D01*
X6027580Y42122620D01*
X6027582Y42122619D01*
X6219947Y42064266D01*
X6369865Y42049500D01*
X8630134Y42049501D01*
X8780053Y42064266D01*
X8972418Y42122619D01*
X9149703Y42217379D01*
X9305094Y42344906D01*
X9316913Y42359308D01*
X26049500Y42359308D01*
X26049500Y42240693D01*
X26049501Y42240685D01*
X26080200Y42126115D01*
X26080203Y42126109D01*
X26139508Y42023391D01*
X26139515Y42023382D01*
X26223381Y41939516D01*
X26223390Y41939509D01*
X26326108Y41880204D01*
X26326114Y41880201D01*
X26440691Y41849500D01*
X26440692Y41849500D01*
X26559308Y41849500D01*
X26559309Y41849500D01*
X26673886Y41880201D01*
X26776613Y41939511D01*
X26860489Y42023387D01*
X26919799Y42126114D01*
X26924972Y42145424D01*
X26928693Y42159308D01*
X29549500Y42159308D01*
X29549500Y42040693D01*
X29549501Y42040685D01*
X29580200Y41926115D01*
X29580203Y41926109D01*
X29639508Y41823391D01*
X29639515Y41823382D01*
X29723381Y41739516D01*
X29723390Y41739509D01*
X29826108Y41680204D01*
X29826114Y41680201D01*
X29940691Y41649500D01*
X29940692Y41649500D01*
X30059308Y41649500D01*
X30059309Y41649500D01*
X30173886Y41680201D01*
X30276613Y41739511D01*
X30360489Y41823387D01*
X30419799Y41926114D01*
X30424972Y41945424D01*
X30428693Y41959308D01*
X31249500Y41959308D01*
X31249500Y41840693D01*
X31249501Y41840685D01*
X31280200Y41726115D01*
X31280203Y41726109D01*
X31339508Y41623391D01*
X31339515Y41623382D01*
X31423381Y41539516D01*
X31423390Y41539509D01*
X31526108Y41480204D01*
X31526114Y41480201D01*
X31640691Y41449500D01*
X31640692Y41449500D01*
X31759308Y41449500D01*
X31759309Y41449500D01*
X31873886Y41480201D01*
X31976613Y41539511D01*
X32060489Y41623387D01*
X32119799Y41726114D01*
X32150500Y41840691D01*
X32150500Y41959309D01*
X32119799Y42073886D01*
X32091662Y42122620D01*
X32060491Y42176610D01*
X32060484Y42176619D01*
X31976618Y42260485D01*
X31976612Y42260490D01*
X31892108Y42309279D01*
X31892107Y42309281D01*
X31873891Y42319797D01*
X31873885Y42319800D01*
X31759315Y42350499D01*
X31759310Y42350500D01*
X31759309Y42350500D01*
X31640691Y42350500D01*
X31640690Y42350500D01*
X31640684Y42350499D01*
X31526114Y42319800D01*
X31526108Y42319797D01*
X31423390Y42260492D01*
X31423381Y42260485D01*
X31339515Y42176619D01*
X31339508Y42176610D01*
X31280203Y42073892D01*
X31280200Y42073886D01*
X31249501Y41959316D01*
X31249500Y41959308D01*
X30428693Y41959308D01*
X30434126Y41979581D01*
X30450498Y42040685D01*
X30450500Y42040693D01*
X30450500Y42159308D01*
X30450498Y42159316D01*
X30419799Y42273886D01*
X30419796Y42273892D01*
X30370480Y42359308D01*
X52949500Y42359308D01*
X52949500Y42240693D01*
X52949501Y42240685D01*
X52980200Y42126115D01*
X52980203Y42126109D01*
X53039508Y42023391D01*
X53039515Y42023382D01*
X53123381Y41939516D01*
X53123390Y41939509D01*
X53226108Y41880204D01*
X53226114Y41880201D01*
X53340691Y41849500D01*
X53340692Y41849500D01*
X53459308Y41849500D01*
X53459309Y41849500D01*
X53573886Y41880201D01*
X53676613Y41939511D01*
X53760489Y42023387D01*
X53819799Y42126114D01*
X53824972Y42145424D01*
X53828693Y42159308D01*
X57549500Y42159308D01*
X57549500Y42040693D01*
X57549501Y42040685D01*
X57580200Y41926115D01*
X57580203Y41926109D01*
X57639508Y41823391D01*
X57639515Y41823382D01*
X57723381Y41739516D01*
X57723390Y41739509D01*
X57826108Y41680204D01*
X57826114Y41680201D01*
X57940691Y41649500D01*
X57940692Y41649500D01*
X58059308Y41649500D01*
X58059309Y41649500D01*
X58173886Y41680201D01*
X58276613Y41739511D01*
X58360489Y41823387D01*
X58419799Y41926114D01*
X58450500Y42040691D01*
X58450500Y42159309D01*
X58419799Y42273886D01*
X58393290Y42319800D01*
X58360491Y42376610D01*
X58360484Y42376619D01*
X58276618Y42460485D01*
X58276609Y42460492D01*
X58173891Y42519797D01*
X58173885Y42519800D01*
X58059315Y42550499D01*
X58059310Y42550500D01*
X58059309Y42550500D01*
X57940691Y42550500D01*
X57940690Y42550500D01*
X57940684Y42550499D01*
X57826114Y42519800D01*
X57826108Y42519797D01*
X57723390Y42460492D01*
X57723381Y42460485D01*
X57639515Y42376619D01*
X57639508Y42376610D01*
X57580203Y42273892D01*
X57580200Y42273886D01*
X57549501Y42159316D01*
X57549500Y42159308D01*
X53828693Y42159308D01*
X53834126Y42179581D01*
X53844253Y42217376D01*
X53850500Y42240691D01*
X53850500Y42359309D01*
X53819799Y42473886D01*
X53804550Y42500297D01*
X53760491Y42576610D01*
X53760484Y42576619D01*
X53676618Y42660485D01*
X53676609Y42660492D01*
X53573891Y42719797D01*
X53573885Y42719800D01*
X53459315Y42750499D01*
X53459310Y42750500D01*
X53459309Y42750500D01*
X53340691Y42750500D01*
X53340690Y42750500D01*
X53340684Y42750499D01*
X53226114Y42719800D01*
X53226108Y42719797D01*
X53123390Y42660492D01*
X53123381Y42660485D01*
X53039515Y42576619D01*
X53039508Y42576610D01*
X52980203Y42473892D01*
X52980200Y42473886D01*
X52949501Y42359316D01*
X52949500Y42359308D01*
X30370480Y42359308D01*
X30360491Y42376610D01*
X30360484Y42376619D01*
X30276618Y42460485D01*
X30276609Y42460492D01*
X30173891Y42519797D01*
X30173885Y42519800D01*
X30059315Y42550499D01*
X30059310Y42550500D01*
X30059309Y42550500D01*
X29940691Y42550500D01*
X29940690Y42550500D01*
X29940684Y42550499D01*
X29826114Y42519800D01*
X29826108Y42519797D01*
X29723390Y42460492D01*
X29723381Y42460485D01*
X29639515Y42376619D01*
X29639508Y42376610D01*
X29580203Y42273892D01*
X29580200Y42273886D01*
X29549501Y42159316D01*
X29549500Y42159308D01*
X26928693Y42159308D01*
X26934126Y42179581D01*
X26944253Y42217376D01*
X26950500Y42240691D01*
X26950500Y42359309D01*
X26919799Y42473886D01*
X26904550Y42500297D01*
X26860491Y42576610D01*
X26860484Y42576619D01*
X26776618Y42660485D01*
X26776609Y42660492D01*
X26673891Y42719797D01*
X26673885Y42719800D01*
X26559315Y42750499D01*
X26559310Y42750500D01*
X26559309Y42750500D01*
X26440691Y42750500D01*
X26440690Y42750500D01*
X26440684Y42750499D01*
X26326114Y42719800D01*
X26326108Y42719797D01*
X26223390Y42660492D01*
X26223381Y42660485D01*
X26139515Y42576619D01*
X26139508Y42576610D01*
X26080203Y42473892D01*
X26080200Y42473886D01*
X26049501Y42359316D01*
X26049500Y42359308D01*
X9316913Y42359308D01*
X9432621Y42500297D01*
X9527381Y42677582D01*
X9585734Y42869947D01*
X9600500Y43019865D01*
X9600499Y43480134D01*
X9585734Y43630053D01*
X9527381Y43822418D01*
X9525408Y43826109D01*
X9432624Y43999698D01*
X9432622Y43999700D01*
X9432621Y43999703D01*
X9430734Y44002002D01*
X9412890Y44023746D01*
X9412882Y44023755D01*
X9383704Y44059308D01*
X57549500Y44059308D01*
X57549500Y43940693D01*
X57549501Y43940685D01*
X57580200Y43826115D01*
X57580203Y43826109D01*
X57639508Y43723391D01*
X57639515Y43723382D01*
X57723381Y43639516D01*
X57723390Y43639509D01*
X57826108Y43580204D01*
X57826114Y43580201D01*
X57940691Y43549500D01*
X57940692Y43549500D01*
X58059308Y43549500D01*
X58059309Y43549500D01*
X58173886Y43580201D01*
X58276613Y43639511D01*
X58360489Y43723387D01*
X58419799Y43826114D01*
X58450500Y43940691D01*
X58450500Y44059309D01*
X58419799Y44173886D01*
X58416151Y44180204D01*
X58360491Y44276610D01*
X58360484Y44276619D01*
X58276618Y44360485D01*
X58276612Y44360490D01*
X58194606Y44407837D01*
X58194605Y44407837D01*
X58173885Y44419800D01*
X58059315Y44450499D01*
X58059310Y44450500D01*
X58059309Y44450500D01*
X57940691Y44450500D01*
X57940690Y44450500D01*
X57940684Y44450499D01*
X57826114Y44419800D01*
X57826108Y44419797D01*
X57723390Y44360492D01*
X57723381Y44360485D01*
X57639515Y44276619D01*
X57639508Y44276610D01*
X57580203Y44173892D01*
X57580200Y44173886D01*
X57549501Y44059316D01*
X57549500Y44059308D01*
X9383704Y44059308D01*
X9383703Y44059309D01*
X9305094Y44155094D01*
X9149703Y44282621D01*
X9149697Y44282625D01*
X8972419Y44377381D01*
X8780051Y44435735D01*
X8687121Y44444888D01*
X8630135Y44450500D01*
X8630130Y44450500D01*
X6369869Y44450500D01*
X6219948Y44435735D01*
X6027580Y44377381D01*
X5850302Y44282625D01*
X5850296Y44282621D01*
X5694906Y44155094D01*
X5567379Y43999704D01*
X5567375Y43999698D01*
X5472619Y43822420D01*
X5414265Y43630052D01*
X5399500Y43480132D01*
X500500Y43480132D01*
X500500Y44659308D01*
X13349500Y44659308D01*
X13349500Y44540693D01*
X13349501Y44540685D01*
X13380200Y44426115D01*
X13380203Y44426109D01*
X13439508Y44323391D01*
X13439515Y44323382D01*
X13523381Y44239516D01*
X13523390Y44239509D01*
X13626108Y44180204D01*
X13626114Y44180201D01*
X13740691Y44149500D01*
X13740692Y44149500D01*
X13859308Y44149500D01*
X13859309Y44149500D01*
X13973886Y44180201D01*
X14076613Y44239511D01*
X14160489Y44323387D01*
X14219799Y44426114D01*
X14250500Y44540691D01*
X14250500Y44659309D01*
X14223705Y44759308D01*
X16349500Y44759308D01*
X16349500Y44640693D01*
X16349501Y44640685D01*
X16380200Y44526115D01*
X16380203Y44526109D01*
X16439508Y44423391D01*
X16439515Y44423382D01*
X16523381Y44339516D01*
X16523390Y44339509D01*
X16626108Y44280204D01*
X16626114Y44280201D01*
X16740691Y44249500D01*
X16740692Y44249500D01*
X16859308Y44249500D01*
X16859309Y44249500D01*
X16973886Y44280201D01*
X17076613Y44339511D01*
X17160489Y44423387D01*
X17219799Y44526114D01*
X17250500Y44640691D01*
X17250500Y44759309D01*
X17219799Y44873886D01*
X17218226Y44876610D01*
X17160491Y44976610D01*
X17160484Y44976619D01*
X17076618Y45060485D01*
X17076609Y45060492D01*
X16973891Y45119797D01*
X16973885Y45119800D01*
X16859315Y45150499D01*
X16859310Y45150500D01*
X16859309Y45150500D01*
X16740691Y45150500D01*
X16740690Y45150500D01*
X16740684Y45150499D01*
X16626114Y45119800D01*
X16626108Y45119797D01*
X16523390Y45060492D01*
X16523381Y45060485D01*
X16439515Y44976619D01*
X16439508Y44976610D01*
X16380203Y44873892D01*
X16380200Y44873886D01*
X16349501Y44759316D01*
X16349500Y44759308D01*
X14223705Y44759308D01*
X14219799Y44773886D01*
X14209680Y44791412D01*
X14160491Y44876610D01*
X14160484Y44876619D01*
X14076618Y44960485D01*
X14076609Y44960492D01*
X13973891Y45019797D01*
X13973885Y45019800D01*
X13859315Y45050499D01*
X13859310Y45050500D01*
X13859309Y45050500D01*
X13740691Y45050500D01*
X13740690Y45050500D01*
X13740684Y45050499D01*
X13626114Y45019800D01*
X13626108Y45019797D01*
X13523390Y44960492D01*
X13523381Y44960485D01*
X13439515Y44876619D01*
X13439508Y44876610D01*
X13380203Y44773892D01*
X13380200Y44773886D01*
X13349501Y44659316D01*
X13349500Y44659308D01*
X500500Y44659308D01*
X500500Y45759308D01*
X13699500Y45759308D01*
X13699500Y45640693D01*
X13699501Y45640685D01*
X13730200Y45526115D01*
X13730203Y45526109D01*
X13789508Y45423391D01*
X13789515Y45423382D01*
X13873381Y45339516D01*
X13873390Y45339509D01*
X13976108Y45280204D01*
X13976114Y45280201D01*
X14090691Y45249500D01*
X14090692Y45249500D01*
X14209308Y45249500D01*
X14209309Y45249500D01*
X14323886Y45280201D01*
X14426613Y45339511D01*
X14510489Y45423387D01*
X14569799Y45526114D01*
X14600500Y45640691D01*
X14600500Y45759309D01*
X14569799Y45873886D01*
X14510489Y45976613D01*
X14510487Y45976615D01*
X14510484Y45976619D01*
X14426618Y46060485D01*
X14426609Y46060492D01*
X14323891Y46119797D01*
X14323885Y46119800D01*
X14209315Y46150499D01*
X14209310Y46150500D01*
X14209309Y46150500D01*
X14090691Y46150500D01*
X14090690Y46150500D01*
X14090684Y46150499D01*
X13976114Y46119800D01*
X13976108Y46119797D01*
X13873390Y46060492D01*
X13873381Y46060485D01*
X13789515Y45976619D01*
X13789508Y45976610D01*
X13730203Y45873892D01*
X13730200Y45873886D01*
X13699501Y45759316D01*
X13699500Y45759308D01*
X500500Y45759308D01*
X500500Y47249308D01*
X27169500Y47249308D01*
X27169500Y47130693D01*
X27169501Y47130685D01*
X27200200Y47016115D01*
X27200203Y47016109D01*
X27259508Y46913391D01*
X27259515Y46913382D01*
X27343381Y46829516D01*
X27343390Y46829509D01*
X27446108Y46770204D01*
X27446114Y46770201D01*
X27560691Y46739500D01*
X27560692Y46739500D01*
X27679308Y46739500D01*
X27679309Y46739500D01*
X27793886Y46770201D01*
X27896613Y46829511D01*
X27907646Y46840544D01*
X35189500Y46840544D01*
X35189500Y46659457D01*
X35189501Y46659441D01*
X35217828Y46480597D01*
X35217831Y46480584D01*
X35273787Y46308367D01*
X35273789Y46308360D01*
X35354224Y46150500D01*
X35356004Y46147006D01*
X35462447Y46000499D01*
X35462450Y46000496D01*
X35462453Y46000492D01*
X35590491Y45872454D01*
X35590494Y45872452D01*
X35590499Y45872447D01*
X35737006Y45766004D01*
X35898361Y45683789D01*
X36070591Y45627829D01*
X36210922Y45605603D01*
X36249440Y45599502D01*
X36249446Y45599502D01*
X36249454Y45599500D01*
X36249456Y45599500D01*
X36430544Y45599500D01*
X36430546Y45599500D01*
X36609409Y45627829D01*
X36781639Y45683789D01*
X36942994Y45766004D01*
X37089501Y45872447D01*
X37217553Y46000499D01*
X37323996Y46147006D01*
X37406211Y46308361D01*
X37462171Y46480591D01*
X37490500Y46659454D01*
X37490500Y46840544D01*
X37729500Y46840544D01*
X37729500Y46659457D01*
X37729501Y46659441D01*
X37757828Y46480597D01*
X37757831Y46480584D01*
X37813787Y46308367D01*
X37813789Y46308360D01*
X37894224Y46150500D01*
X37896004Y46147006D01*
X38002447Y46000499D01*
X38002450Y46000496D01*
X38002453Y46000492D01*
X38130491Y45872454D01*
X38130494Y45872452D01*
X38130499Y45872447D01*
X38277006Y45766004D01*
X38438361Y45683789D01*
X38610591Y45627829D01*
X38750922Y45605603D01*
X38789440Y45599502D01*
X38789446Y45599502D01*
X38789454Y45599500D01*
X38789456Y45599500D01*
X38970544Y45599500D01*
X38970546Y45599500D01*
X39149409Y45627829D01*
X39321639Y45683789D01*
X39482994Y45766004D01*
X39629501Y45872447D01*
X39757553Y46000499D01*
X39863996Y46147006D01*
X39946211Y46308361D01*
X40002171Y46480591D01*
X40030500Y46659454D01*
X40030500Y46840544D01*
X40269500Y46840544D01*
X40269500Y46659457D01*
X40269501Y46659441D01*
X40297828Y46480597D01*
X40297831Y46480584D01*
X40353787Y46308367D01*
X40353789Y46308360D01*
X40434224Y46150500D01*
X40436004Y46147006D01*
X40542447Y46000499D01*
X40542450Y46000496D01*
X40542453Y46000492D01*
X40670491Y45872454D01*
X40670494Y45872452D01*
X40670499Y45872447D01*
X40817006Y45766004D01*
X40978361Y45683789D01*
X41150591Y45627829D01*
X41290922Y45605603D01*
X41329440Y45599502D01*
X41329446Y45599502D01*
X41329454Y45599500D01*
X41329456Y45599500D01*
X41510544Y45599500D01*
X41510546Y45599500D01*
X41689409Y45627829D01*
X41861639Y45683789D01*
X42022994Y45766004D01*
X42169501Y45872447D01*
X42297553Y46000499D01*
X42403996Y46147006D01*
X42486211Y46308361D01*
X42542171Y46480591D01*
X42555277Y46563342D01*
X42566533Y46634402D01*
X53949500Y46634402D01*
X53949500Y46365599D01*
X53984584Y46099106D01*
X53984584Y46099105D01*
X54054147Y45839491D01*
X54054151Y45839480D01*
X54054153Y45839474D01*
X54087359Y45759308D01*
X54157013Y45591147D01*
X54157015Y45591144D01*
X54157016Y45591141D01*
X54291413Y45358359D01*
X54362197Y45266111D01*
X54374941Y45249502D01*
X54455044Y45145110D01*
X54645110Y44955044D01*
X54858359Y44791413D01*
X55091141Y44657016D01*
X55339474Y44554153D01*
X55339484Y44554151D01*
X55339490Y44554148D01*
X55599104Y44484585D01*
X55599106Y44484585D01*
X55599109Y44484584D01*
X55865603Y44449500D01*
X55865609Y44449500D01*
X56134391Y44449500D01*
X56134397Y44449500D01*
X56197997Y44457873D01*
X59669500Y44457873D01*
X59669500Y44322128D01*
X59704630Y44191028D01*
X59704630Y44191026D01*
X59772499Y44073475D01*
X59772502Y44073471D01*
X59868470Y43977503D01*
X59868474Y43977500D01*
X59868476Y43977498D01*
X59986025Y43909631D01*
X60026142Y43898882D01*
X60117127Y43874501D01*
X60117133Y43874500D01*
X60252867Y43874500D01*
X60252872Y43874501D01*
X60291821Y43884939D01*
X60383975Y43909631D01*
X60501524Y43977498D01*
X60597502Y44073476D01*
X60665369Y44191025D01*
X60700500Y44322133D01*
X60700500Y44457867D01*
X60700499Y44457873D01*
X60681830Y44527540D01*
X60665369Y44588975D01*
X60597502Y44706524D01*
X60597500Y44706526D01*
X60597497Y44706530D01*
X60501529Y44802498D01*
X60501525Y44802501D01*
X60501524Y44802502D01*
X60383975Y44870369D01*
X60383974Y44870370D01*
X60383973Y44870370D01*
X60252872Y44905500D01*
X60252867Y44905500D01*
X60117133Y44905500D01*
X60117127Y44905500D01*
X59986027Y44870370D01*
X59986025Y44870370D01*
X59868474Y44802501D01*
X59868470Y44802498D01*
X59772502Y44706530D01*
X59772499Y44706526D01*
X59704630Y44588975D01*
X59704630Y44588973D01*
X59669500Y44457873D01*
X56197997Y44457873D01*
X56400891Y44484584D01*
X56400895Y44484585D01*
X56660509Y44554148D01*
X56660512Y44554150D01*
X56660526Y44554153D01*
X56908859Y44657016D01*
X57141641Y44791413D01*
X57354890Y44955044D01*
X57544956Y45145110D01*
X57708587Y45358359D01*
X57842984Y45591141D01*
X57945847Y45839474D01*
X57955070Y45873892D01*
X58015415Y46099105D01*
X58015415Y46099106D01*
X58015416Y46099109D01*
X58050500Y46365603D01*
X58050500Y46634397D01*
X58015416Y46900891D01*
X58002396Y46949482D01*
X57945852Y47160510D01*
X57945849Y47160516D01*
X57945847Y47160526D01*
X57842984Y47408859D01*
X57708587Y47641641D01*
X57544956Y47854890D01*
X57354890Y48044956D01*
X57354886Y48044959D01*
X57354884Y48044961D01*
X57213574Y48153391D01*
X57141641Y48208587D01*
X56908859Y48342984D01*
X56908856Y48342985D01*
X56908853Y48342987D01*
X56792708Y48391096D01*
X56660526Y48445847D01*
X56660520Y48445849D01*
X56660509Y48445853D01*
X56400895Y48515416D01*
X56134401Y48550500D01*
X56134397Y48550500D01*
X55865603Y48550500D01*
X55865598Y48550500D01*
X55599105Y48515416D01*
X55599104Y48515416D01*
X55339490Y48445853D01*
X55339475Y48445848D01*
X55339474Y48445847D01*
X55339472Y48445846D01*
X55091146Y48342987D01*
X55091135Y48342981D01*
X54858361Y48208589D01*
X54645115Y48044961D01*
X54645105Y48044952D01*
X54455048Y47854895D01*
X54455039Y47854885D01*
X54291411Y47641639D01*
X54157019Y47408865D01*
X54157013Y47408854D01*
X54054154Y47160528D01*
X54054147Y47160510D01*
X53984584Y46900896D01*
X53984584Y46900895D01*
X53949500Y46634402D01*
X42566533Y46634402D01*
X42568403Y46646208D01*
X42568404Y46646220D01*
X42568523Y46646978D01*
X42570500Y46659454D01*
X42570500Y46840546D01*
X42542171Y47019409D01*
X42486211Y47191639D01*
X42403996Y47352994D01*
X42297553Y47499501D01*
X42297551Y47499504D01*
X42287999Y47509056D01*
X49219500Y47509056D01*
X49219500Y47350945D01*
X49219501Y47350937D01*
X49260421Y47198220D01*
X49260422Y47198217D01*
X49260423Y47198216D01*
X49339480Y47061284D01*
X49451284Y46949480D01*
X49588216Y46870423D01*
X49588219Y46870422D01*
X49681681Y46845379D01*
X49740943Y46829500D01*
X49740944Y46829500D01*
X49899056Y46829500D01*
X49899057Y46829500D01*
X50051784Y46870423D01*
X50188716Y46949480D01*
X50300520Y47061284D01*
X50379577Y47198216D01*
X50420500Y47350943D01*
X50420500Y47509057D01*
X50379577Y47661784D01*
X50300520Y47798716D01*
X50188716Y47910520D01*
X50069235Y47979502D01*
X50051783Y47989578D01*
X50051780Y47989579D01*
X49899063Y48030499D01*
X49899058Y48030500D01*
X49899057Y48030500D01*
X49740943Y48030500D01*
X49740942Y48030500D01*
X49740936Y48030499D01*
X49588219Y47989579D01*
X49588216Y47989578D01*
X49491964Y47934007D01*
X49451284Y47910520D01*
X49451283Y47910519D01*
X49451279Y47910516D01*
X49339484Y47798721D01*
X49339481Y47798717D01*
X49260422Y47661784D01*
X49260421Y47661781D01*
X49219501Y47509064D01*
X49219500Y47509056D01*
X42287999Y47509056D01*
X42169508Y47627547D01*
X42169504Y47627550D01*
X42169501Y47627553D01*
X42022994Y47733996D01*
X41895973Y47798717D01*
X41861640Y47816211D01*
X41861633Y47816213D01*
X41689416Y47872169D01*
X41689413Y47872170D01*
X41689409Y47872171D01*
X41689403Y47872172D01*
X41510559Y47900499D01*
X41510547Y47900500D01*
X41510546Y47900500D01*
X41329454Y47900500D01*
X41329452Y47900500D01*
X41329440Y47900499D01*
X41150596Y47872172D01*
X41150593Y47872172D01*
X41150591Y47872171D01*
X41150589Y47872171D01*
X41150583Y47872169D01*
X40978366Y47816213D01*
X40978359Y47816211D01*
X40817005Y47733996D01*
X40670491Y47627547D01*
X40542453Y47499509D01*
X40436004Y47352995D01*
X40353789Y47191641D01*
X40353787Y47191634D01*
X40297831Y47019417D01*
X40297828Y47019404D01*
X40269501Y46840560D01*
X40269500Y46840544D01*
X40030500Y46840544D01*
X40030500Y46840546D01*
X40002171Y47019409D01*
X39946211Y47191639D01*
X39863996Y47352994D01*
X39757553Y47499501D01*
X39757548Y47499506D01*
X39757546Y47499509D01*
X39629508Y47627547D01*
X39629504Y47627550D01*
X39629501Y47627553D01*
X39482994Y47733996D01*
X39355973Y47798717D01*
X39321640Y47816211D01*
X39321633Y47816213D01*
X39149416Y47872169D01*
X39149413Y47872170D01*
X39149409Y47872171D01*
X39149403Y47872172D01*
X38970559Y47900499D01*
X38970547Y47900500D01*
X38970546Y47900500D01*
X38789454Y47900500D01*
X38789452Y47900500D01*
X38789440Y47900499D01*
X38610596Y47872172D01*
X38610593Y47872172D01*
X38610591Y47872171D01*
X38610589Y47872171D01*
X38610583Y47872169D01*
X38438366Y47816213D01*
X38438359Y47816211D01*
X38277005Y47733996D01*
X38130491Y47627547D01*
X38002453Y47499509D01*
X37896004Y47352995D01*
X37813789Y47191641D01*
X37813787Y47191634D01*
X37757831Y47019417D01*
X37757828Y47019404D01*
X37729501Y46840560D01*
X37729500Y46840544D01*
X37490500Y46840544D01*
X37490500Y46840546D01*
X37462171Y47019409D01*
X37406211Y47191639D01*
X37323996Y47352994D01*
X37217553Y47499501D01*
X37217548Y47499506D01*
X37217546Y47499509D01*
X37089508Y47627547D01*
X37089504Y47627550D01*
X37089501Y47627553D01*
X36942994Y47733996D01*
X36815973Y47798717D01*
X36781640Y47816211D01*
X36781633Y47816213D01*
X36609416Y47872169D01*
X36609413Y47872170D01*
X36609409Y47872171D01*
X36609403Y47872172D01*
X36430559Y47900499D01*
X36430547Y47900500D01*
X36430546Y47900500D01*
X36249454Y47900500D01*
X36249452Y47900500D01*
X36249440Y47900499D01*
X36070596Y47872172D01*
X36070593Y47872172D01*
X36070591Y47872171D01*
X36070589Y47872171D01*
X36070583Y47872169D01*
X35898366Y47816213D01*
X35898359Y47816211D01*
X35737005Y47733996D01*
X35590491Y47627547D01*
X35462453Y47499509D01*
X35356004Y47352995D01*
X35273789Y47191641D01*
X35273787Y47191634D01*
X35217831Y47019417D01*
X35217828Y47019404D01*
X35189501Y46840560D01*
X35189500Y46840544D01*
X27907646Y46840544D01*
X27907662Y46840560D01*
X27954299Y46887196D01*
X27980484Y46913382D01*
X27980489Y46913387D01*
X28039799Y47016114D01*
X28070500Y47130691D01*
X28070500Y47249309D01*
X28039799Y47363886D01*
X28013836Y47408854D01*
X27980491Y47466610D01*
X27980484Y47466619D01*
X27896618Y47550485D01*
X27896609Y47550492D01*
X27793891Y47609797D01*
X27793885Y47609800D01*
X27679315Y47640499D01*
X27679310Y47640500D01*
X27679309Y47640500D01*
X27560691Y47640500D01*
X27560690Y47640500D01*
X27560684Y47640499D01*
X27446114Y47609800D01*
X27446108Y47609797D01*
X27343390Y47550492D01*
X27343381Y47550485D01*
X27259515Y47466619D01*
X27259508Y47466610D01*
X27200203Y47363892D01*
X27200200Y47363886D01*
X27169501Y47249316D01*
X27169500Y47249308D01*
X500500Y47249308D01*
X500500Y50134402D01*
X949500Y50134402D01*
X949500Y49865599D01*
X984584Y49599106D01*
X984584Y49599105D01*
X1054147Y49339491D01*
X1054151Y49339480D01*
X1054153Y49339474D01*
X1080191Y49276613D01*
X1157013Y49091147D01*
X1157019Y49091136D01*
X1243878Y48940691D01*
X1291413Y48858359D01*
X1316159Y48826109D01*
X1407853Y48706610D01*
X1455044Y48645110D01*
X1645110Y48455044D01*
X1858359Y48291413D01*
X2091141Y48157016D01*
X2339474Y48054153D01*
X2339484Y48054151D01*
X2339490Y48054148D01*
X2599104Y47984585D01*
X2599106Y47984585D01*
X2599109Y47984584D01*
X2865603Y47949500D01*
X2865609Y47949500D01*
X3134391Y47949500D01*
X3134397Y47949500D01*
X3400891Y47984584D01*
X3400895Y47984585D01*
X3660509Y48054148D01*
X3660512Y48054150D01*
X3660526Y48054153D01*
X3908859Y48157016D01*
X4141641Y48291413D01*
X4354890Y48455044D01*
X4389154Y48489308D01*
X29509500Y48489308D01*
X29509500Y48370693D01*
X29509501Y48370685D01*
X29540200Y48256115D01*
X29540203Y48256109D01*
X29599508Y48153391D01*
X29599515Y48153382D01*
X29683381Y48069516D01*
X29683390Y48069509D01*
X29786108Y48010204D01*
X29786114Y48010201D01*
X29900691Y47979500D01*
X29900692Y47979500D01*
X30019308Y47979500D01*
X30019309Y47979500D01*
X30133886Y48010201D01*
X30236613Y48069511D01*
X30320489Y48153387D01*
X30379799Y48256114D01*
X30410500Y48370691D01*
X30410500Y48489309D01*
X30379799Y48603886D01*
X30356000Y48645106D01*
X30320491Y48706610D01*
X30320484Y48706619D01*
X30236618Y48790485D01*
X30236609Y48790492D01*
X30133891Y48849797D01*
X30133885Y48849800D01*
X30019315Y48880499D01*
X30019310Y48880500D01*
X30019309Y48880500D01*
X29900691Y48880500D01*
X29900690Y48880500D01*
X29900684Y48880499D01*
X29786114Y48849800D01*
X29786108Y48849797D01*
X29683390Y48790492D01*
X29683381Y48790485D01*
X29599515Y48706619D01*
X29599508Y48706610D01*
X29540203Y48603892D01*
X29540200Y48603886D01*
X29509501Y48489316D01*
X29509500Y48489308D01*
X4389154Y48489308D01*
X4544956Y48645110D01*
X4708587Y48858359D01*
X4824605Y49059308D01*
X10949500Y49059308D01*
X10949500Y48940693D01*
X10949501Y48940685D01*
X10980200Y48826115D01*
X10980203Y48826109D01*
X11039508Y48723391D01*
X11039515Y48723382D01*
X11123381Y48639516D01*
X11123390Y48639509D01*
X11226108Y48580204D01*
X11226112Y48580202D01*
X11226114Y48580201D01*
X11340691Y48549500D01*
X11340692Y48549500D01*
X11459308Y48549500D01*
X11459309Y48549500D01*
X11573886Y48580201D01*
X11676613Y48639511D01*
X11760489Y48723387D01*
X11819799Y48826114D01*
X11839630Y48900122D01*
X11868750Y48938073D01*
X11916176Y48944316D01*
X11954127Y48915196D01*
X11960370Y48900122D01*
X11980200Y48826115D01*
X11980203Y48826109D01*
X12039508Y48723391D01*
X12039515Y48723382D01*
X12123381Y48639516D01*
X12123390Y48639509D01*
X12226108Y48580204D01*
X12226112Y48580202D01*
X12226114Y48580201D01*
X12340691Y48549500D01*
X12340692Y48549500D01*
X12459308Y48549500D01*
X12459309Y48549500D01*
X12470743Y48552564D01*
X12475264Y48553775D01*
X12475265Y48553775D01*
X12504587Y48561633D01*
X12573886Y48580201D01*
X12676613Y48639511D01*
X12760489Y48723387D01*
X12819799Y48826114D01*
X12850500Y48940691D01*
X12850500Y49059309D01*
X12819799Y49173886D01*
X12819796Y49173892D01*
X12760491Y49276610D01*
X12760484Y49276619D01*
X12676618Y49360485D01*
X12676609Y49360492D01*
X12573891Y49419797D01*
X12573885Y49419800D01*
X12459315Y49450499D01*
X12459310Y49450500D01*
X12459309Y49450500D01*
X12340691Y49450500D01*
X12340690Y49450500D01*
X12340684Y49450499D01*
X12226114Y49419800D01*
X12226108Y49419797D01*
X12123390Y49360492D01*
X12123381Y49360485D01*
X12039515Y49276619D01*
X12039508Y49276610D01*
X11980203Y49173892D01*
X11980201Y49173887D01*
X11960370Y49099878D01*
X11931250Y49061928D01*
X11883823Y49055685D01*
X11845873Y49084805D01*
X11839630Y49099878D01*
X11831615Y49129785D01*
X11819799Y49173886D01*
X11760489Y49276613D01*
X11760487Y49276615D01*
X11760484Y49276619D01*
X11676618Y49360485D01*
X11676609Y49360492D01*
X11573891Y49419797D01*
X11573885Y49419800D01*
X11459315Y49450499D01*
X11459310Y49450500D01*
X11459309Y49450500D01*
X11340691Y49450500D01*
X11340690Y49450500D01*
X11340684Y49450499D01*
X11226114Y49419800D01*
X11226108Y49419797D01*
X11123390Y49360492D01*
X11123381Y49360485D01*
X11039515Y49276619D01*
X11039508Y49276610D01*
X10980203Y49173892D01*
X10980200Y49173886D01*
X10949501Y49059316D01*
X10949500Y49059308D01*
X4824605Y49059308D01*
X4842984Y49091141D01*
X4945847Y49339474D01*
X4967370Y49419797D01*
X5015415Y49599105D01*
X5015415Y49599106D01*
X5015416Y49599109D01*
X5050500Y49865603D01*
X5050500Y50134397D01*
X5015416Y50400891D01*
X4978292Y50539441D01*
X4945852Y50660510D01*
X4945849Y50660516D01*
X4945847Y50660526D01*
X4842984Y50908859D01*
X4708587Y51141641D01*
X4544956Y51354890D01*
X4374982Y51524864D01*
X17534500Y51524864D01*
X17534500Y49735137D01*
X17537415Y49710011D01*
X17537415Y49710009D01*
X17582794Y49607235D01*
X17662235Y49527794D01*
X17765009Y49482415D01*
X17790135Y49479500D01*
X19579864Y49479501D01*
X19604991Y49482415D01*
X19707765Y49527794D01*
X19787206Y49607235D01*
X19832585Y49710009D01*
X19835500Y49735135D01*
X19835499Y50720544D01*
X20074500Y50720544D01*
X20074500Y50539457D01*
X20074501Y50539441D01*
X20102828Y50360597D01*
X20102831Y50360584D01*
X20158787Y50188367D01*
X20158789Y50188360D01*
X20186285Y50134397D01*
X20241004Y50027006D01*
X20347447Y49880499D01*
X20347450Y49880496D01*
X20347453Y49880492D01*
X20475491Y49752454D01*
X20475494Y49752452D01*
X20475499Y49752447D01*
X20622006Y49646004D01*
X20783361Y49563789D01*
X20955591Y49507829D01*
X21095922Y49485603D01*
X21134440Y49479502D01*
X21134446Y49479502D01*
X21134454Y49479500D01*
X21134456Y49479500D01*
X21315544Y49479500D01*
X21315546Y49479500D01*
X21494409Y49507829D01*
X21666639Y49563789D01*
X21827994Y49646004D01*
X21974501Y49752447D01*
X22102553Y49880499D01*
X22208996Y50027006D01*
X22291211Y50188361D01*
X22347171Y50360591D01*
X22375500Y50539454D01*
X22375500Y50720544D01*
X22614500Y50720544D01*
X22614500Y50539457D01*
X22614501Y50539441D01*
X22642828Y50360597D01*
X22642831Y50360584D01*
X22698787Y50188367D01*
X22698789Y50188360D01*
X22726285Y50134397D01*
X22781004Y50027006D01*
X22887447Y49880499D01*
X22887450Y49880496D01*
X22887453Y49880492D01*
X23015491Y49752454D01*
X23015494Y49752452D01*
X23015499Y49752447D01*
X23162006Y49646004D01*
X23323361Y49563789D01*
X23495591Y49507829D01*
X23635922Y49485603D01*
X23674440Y49479502D01*
X23674446Y49479502D01*
X23674454Y49479500D01*
X23674456Y49479500D01*
X23855544Y49479500D01*
X23855546Y49479500D01*
X24034409Y49507829D01*
X24206639Y49563789D01*
X24367994Y49646004D01*
X24514501Y49752447D01*
X24642553Y49880499D01*
X24748996Y50027006D01*
X24831211Y50188361D01*
X24887171Y50360591D01*
X24915500Y50539454D01*
X24915500Y50720544D01*
X27694500Y50720544D01*
X27694500Y50539457D01*
X27694501Y50539441D01*
X27722828Y50360597D01*
X27722831Y50360584D01*
X27778787Y50188367D01*
X27778789Y50188360D01*
X27806285Y50134397D01*
X27861004Y50027006D01*
X27967447Y49880499D01*
X27967450Y49880496D01*
X27967453Y49880492D01*
X28095491Y49752454D01*
X28095494Y49752452D01*
X28095499Y49752447D01*
X28242006Y49646004D01*
X28403361Y49563789D01*
X28575591Y49507829D01*
X28715922Y49485603D01*
X28754440Y49479502D01*
X28754446Y49479502D01*
X28754454Y49479500D01*
X28754456Y49479500D01*
X28935544Y49479500D01*
X28935546Y49479500D01*
X29114409Y49507829D01*
X29286639Y49563789D01*
X29447994Y49646004D01*
X29594501Y49752447D01*
X29722553Y49880499D01*
X29828996Y50027006D01*
X29911211Y50188361D01*
X29967171Y50360591D01*
X29995500Y50539454D01*
X29995500Y50720544D01*
X30234500Y50720544D01*
X30234500Y50539457D01*
X30234501Y50539441D01*
X30262828Y50360597D01*
X30262831Y50360584D01*
X30318787Y50188367D01*
X30318789Y50188360D01*
X30346285Y50134397D01*
X30401004Y50027006D01*
X30507447Y49880499D01*
X30507450Y49880496D01*
X30507453Y49880492D01*
X30635491Y49752454D01*
X30635494Y49752452D01*
X30635499Y49752447D01*
X30782006Y49646004D01*
X30943361Y49563789D01*
X31115591Y49507829D01*
X31255922Y49485603D01*
X31294440Y49479502D01*
X31294446Y49479502D01*
X31294454Y49479500D01*
X31294456Y49479500D01*
X31475544Y49479500D01*
X31475546Y49479500D01*
X31654409Y49507829D01*
X31826639Y49563789D01*
X31987994Y49646004D01*
X32134501Y49752447D01*
X32262553Y49880499D01*
X32368996Y50027006D01*
X32451211Y50188361D01*
X32507171Y50360591D01*
X32535500Y50539454D01*
X32535500Y50720544D01*
X32774500Y50720544D01*
X32774500Y50539457D01*
X32774501Y50539441D01*
X32802828Y50360597D01*
X32802831Y50360584D01*
X32858787Y50188367D01*
X32858789Y50188360D01*
X32886285Y50134397D01*
X32941004Y50027006D01*
X33047447Y49880499D01*
X33047450Y49880496D01*
X33047453Y49880492D01*
X33175491Y49752454D01*
X33175494Y49752452D01*
X33175499Y49752447D01*
X33322006Y49646004D01*
X33483361Y49563789D01*
X33655591Y49507829D01*
X33795922Y49485603D01*
X33834440Y49479502D01*
X33834446Y49479502D01*
X33834454Y49479500D01*
X33834456Y49479500D01*
X34015544Y49479500D01*
X34015546Y49479500D01*
X34194409Y49507829D01*
X34366639Y49563789D01*
X34527994Y49646004D01*
X34674501Y49752447D01*
X34802553Y49880499D01*
X34908996Y50027006D01*
X34991211Y50188361D01*
X35047171Y50360591D01*
X35075500Y50539454D01*
X35075500Y50720544D01*
X35314500Y50720544D01*
X35314500Y50539457D01*
X35314501Y50539441D01*
X35342828Y50360597D01*
X35342831Y50360584D01*
X35398787Y50188367D01*
X35398789Y50188360D01*
X35426285Y50134397D01*
X35481004Y50027006D01*
X35587447Y49880499D01*
X35587450Y49880496D01*
X35587453Y49880492D01*
X35715491Y49752454D01*
X35715494Y49752452D01*
X35715499Y49752447D01*
X35862006Y49646004D01*
X36023361Y49563789D01*
X36195591Y49507829D01*
X36335922Y49485603D01*
X36374440Y49479502D01*
X36374446Y49479502D01*
X36374454Y49479500D01*
X36374456Y49479500D01*
X36555544Y49479500D01*
X36555546Y49479500D01*
X36734409Y49507829D01*
X36906639Y49563789D01*
X37067994Y49646004D01*
X37214501Y49752447D01*
X37342553Y49880499D01*
X37448996Y50027006D01*
X37531211Y50188361D01*
X37587171Y50360591D01*
X37615500Y50539454D01*
X37615500Y50720544D01*
X37854500Y50720544D01*
X37854500Y50539457D01*
X37854501Y50539441D01*
X37882828Y50360597D01*
X37882831Y50360584D01*
X37938787Y50188367D01*
X37938789Y50188360D01*
X37966285Y50134397D01*
X38021004Y50027006D01*
X38127447Y49880499D01*
X38127450Y49880496D01*
X38127453Y49880492D01*
X38255491Y49752454D01*
X38255494Y49752452D01*
X38255499Y49752447D01*
X38402006Y49646004D01*
X38563361Y49563789D01*
X38735591Y49507829D01*
X38875922Y49485603D01*
X38914440Y49479502D01*
X38914446Y49479502D01*
X38914454Y49479500D01*
X38914456Y49479500D01*
X39095544Y49479500D01*
X39095546Y49479500D01*
X39274409Y49507829D01*
X39446639Y49563789D01*
X39607994Y49646004D01*
X39754501Y49752447D01*
X39882553Y49880499D01*
X39988996Y50027006D01*
X40071211Y50188361D01*
X40127171Y50360591D01*
X40155500Y50539454D01*
X40155500Y50720544D01*
X40394500Y50720544D01*
X40394500Y50539457D01*
X40394501Y50539441D01*
X40422828Y50360597D01*
X40422831Y50360584D01*
X40478787Y50188367D01*
X40478789Y50188360D01*
X40506285Y50134397D01*
X40561004Y50027006D01*
X40667447Y49880499D01*
X40667450Y49880496D01*
X40667453Y49880492D01*
X40795491Y49752454D01*
X40795494Y49752452D01*
X40795499Y49752447D01*
X40942006Y49646004D01*
X41103361Y49563789D01*
X41275591Y49507829D01*
X41415922Y49485603D01*
X41454440Y49479502D01*
X41454446Y49479502D01*
X41454454Y49479500D01*
X41454456Y49479500D01*
X41635544Y49479500D01*
X41635546Y49479500D01*
X41814409Y49507829D01*
X41986639Y49563789D01*
X42147994Y49646004D01*
X42294501Y49752447D01*
X42422553Y49880499D01*
X42528996Y50027006D01*
X42611211Y50188361D01*
X42667171Y50360591D01*
X42695500Y50539454D01*
X42695500Y50720546D01*
X42667171Y50899409D01*
X42611211Y51071639D01*
X42528996Y51232994D01*
X42422553Y51379501D01*
X42422548Y51379506D01*
X42422546Y51379509D01*
X42294508Y51507547D01*
X42294504Y51507550D01*
X42294501Y51507553D01*
X42270674Y51524864D01*
X44454500Y51524864D01*
X44454500Y49735137D01*
X44457415Y49710011D01*
X44457415Y49710009D01*
X44502794Y49607235D01*
X44582235Y49527794D01*
X44685009Y49482415D01*
X44710135Y49479500D01*
X46499864Y49479501D01*
X46524991Y49482415D01*
X46627765Y49527794D01*
X46707206Y49607235D01*
X46752585Y49710009D01*
X46755500Y49735135D01*
X46755499Y50720544D01*
X46994500Y50720544D01*
X46994500Y50539457D01*
X46994501Y50539441D01*
X47022828Y50360597D01*
X47022831Y50360584D01*
X47078787Y50188367D01*
X47078789Y50188360D01*
X47106285Y50134397D01*
X47161004Y50027006D01*
X47267447Y49880499D01*
X47267450Y49880496D01*
X47267453Y49880492D01*
X47395491Y49752454D01*
X47395494Y49752452D01*
X47395499Y49752447D01*
X47542006Y49646004D01*
X47703361Y49563789D01*
X47875591Y49507829D01*
X48015922Y49485603D01*
X48054440Y49479502D01*
X48054446Y49479502D01*
X48054454Y49479500D01*
X48054456Y49479500D01*
X48235544Y49479500D01*
X48235546Y49479500D01*
X48414409Y49507829D01*
X48586639Y49563789D01*
X48747994Y49646004D01*
X48894501Y49752447D01*
X49022553Y49880499D01*
X49128996Y50027006D01*
X49211211Y50188361D01*
X49267171Y50360591D01*
X49295500Y50539454D01*
X49295500Y50720544D01*
X49534500Y50720544D01*
X49534500Y50539457D01*
X49534501Y50539441D01*
X49562828Y50360597D01*
X49562831Y50360584D01*
X49618787Y50188367D01*
X49618789Y50188360D01*
X49646285Y50134397D01*
X49701004Y50027006D01*
X49807447Y49880499D01*
X49807450Y49880496D01*
X49807453Y49880492D01*
X49935491Y49752454D01*
X49935494Y49752452D01*
X49935499Y49752447D01*
X50082006Y49646004D01*
X50243361Y49563789D01*
X50415591Y49507829D01*
X50555922Y49485603D01*
X50594440Y49479502D01*
X50594446Y49479502D01*
X50594454Y49479500D01*
X50594456Y49479500D01*
X50775544Y49479500D01*
X50775546Y49479500D01*
X50954409Y49507829D01*
X51126639Y49563789D01*
X51287994Y49646004D01*
X51434501Y49752447D01*
X51562553Y49880499D01*
X51668996Y50027006D01*
X51751211Y50188361D01*
X51807171Y50360591D01*
X51835500Y50539454D01*
X51835500Y50720544D01*
X52074500Y50720544D01*
X52074500Y50539457D01*
X52074501Y50539441D01*
X52102828Y50360597D01*
X52102831Y50360584D01*
X52158787Y50188367D01*
X52158789Y50188360D01*
X52186285Y50134397D01*
X52241004Y50027006D01*
X52347447Y49880499D01*
X52347450Y49880496D01*
X52347453Y49880492D01*
X52475491Y49752454D01*
X52475494Y49752452D01*
X52475499Y49752447D01*
X52622006Y49646004D01*
X52783361Y49563789D01*
X52955591Y49507829D01*
X53095922Y49485603D01*
X53134440Y49479502D01*
X53134446Y49479502D01*
X53134454Y49479500D01*
X53134456Y49479500D01*
X53315544Y49479500D01*
X53315546Y49479500D01*
X53494409Y49507829D01*
X53666639Y49563789D01*
X53827994Y49646004D01*
X53974501Y49752447D01*
X54102553Y49880499D01*
X54208996Y50027006D01*
X54291211Y50188361D01*
X54347171Y50360591D01*
X54375500Y50539454D01*
X54375500Y50720544D01*
X54614500Y50720544D01*
X54614500Y50539457D01*
X54614501Y50539441D01*
X54642828Y50360597D01*
X54642831Y50360584D01*
X54698787Y50188367D01*
X54698789Y50188360D01*
X54726285Y50134397D01*
X54781004Y50027006D01*
X54887447Y49880499D01*
X54887450Y49880496D01*
X54887453Y49880492D01*
X55015491Y49752454D01*
X55015494Y49752452D01*
X55015499Y49752447D01*
X55162006Y49646004D01*
X55323361Y49563789D01*
X55495591Y49507829D01*
X55635922Y49485603D01*
X55674440Y49479502D01*
X55674446Y49479502D01*
X55674454Y49479500D01*
X55674456Y49479500D01*
X55855544Y49479500D01*
X55855546Y49479500D01*
X56034409Y49507829D01*
X56206639Y49563789D01*
X56367994Y49646004D01*
X56514501Y49752447D01*
X56642553Y49880499D01*
X56748996Y50027006D01*
X56831211Y50188361D01*
X56887171Y50360591D01*
X56915500Y50539454D01*
X56915500Y50720544D01*
X57154500Y50720544D01*
X57154500Y50539457D01*
X57154501Y50539441D01*
X57182828Y50360597D01*
X57182831Y50360584D01*
X57238787Y50188367D01*
X57238789Y50188360D01*
X57266285Y50134397D01*
X57321004Y50027006D01*
X57427447Y49880499D01*
X57427450Y49880496D01*
X57427453Y49880492D01*
X57555491Y49752454D01*
X57555494Y49752452D01*
X57555499Y49752447D01*
X57702006Y49646004D01*
X57863361Y49563789D01*
X58035591Y49507829D01*
X58175922Y49485603D01*
X58214440Y49479502D01*
X58214446Y49479502D01*
X58214454Y49479500D01*
X58214456Y49479500D01*
X58395544Y49479500D01*
X58395546Y49479500D01*
X58574409Y49507829D01*
X58746639Y49563789D01*
X58907994Y49646004D01*
X59054501Y49752447D01*
X59182553Y49880499D01*
X59288996Y50027006D01*
X59371211Y50188361D01*
X59427171Y50360591D01*
X59455500Y50539454D01*
X59455500Y50720544D01*
X59694500Y50720544D01*
X59694500Y50539457D01*
X59694501Y50539441D01*
X59722828Y50360597D01*
X59722831Y50360584D01*
X59778787Y50188367D01*
X59778789Y50188360D01*
X59806285Y50134397D01*
X59861004Y50027006D01*
X59967447Y49880499D01*
X59967450Y49880496D01*
X59967453Y49880492D01*
X60095491Y49752454D01*
X60095494Y49752452D01*
X60095499Y49752447D01*
X60242006Y49646004D01*
X60403361Y49563789D01*
X60575591Y49507829D01*
X60715922Y49485603D01*
X60754440Y49479502D01*
X60754446Y49479502D01*
X60754454Y49479500D01*
X60754456Y49479500D01*
X60935544Y49479500D01*
X60935546Y49479500D01*
X61114409Y49507829D01*
X61286639Y49563789D01*
X61447994Y49646004D01*
X61594501Y49752447D01*
X61722553Y49880499D01*
X61828996Y50027006D01*
X61911211Y50188361D01*
X61967171Y50360591D01*
X61995500Y50539454D01*
X61995500Y50720544D01*
X62234500Y50720544D01*
X62234500Y50539457D01*
X62234501Y50539441D01*
X62262828Y50360597D01*
X62262831Y50360584D01*
X62318787Y50188367D01*
X62318789Y50188360D01*
X62346285Y50134397D01*
X62401004Y50027006D01*
X62507447Y49880499D01*
X62507450Y49880496D01*
X62507453Y49880492D01*
X62635491Y49752454D01*
X62635494Y49752452D01*
X62635499Y49752447D01*
X62782006Y49646004D01*
X62943361Y49563789D01*
X63115591Y49507829D01*
X63255922Y49485603D01*
X63294440Y49479502D01*
X63294446Y49479502D01*
X63294454Y49479500D01*
X63294456Y49479500D01*
X63475544Y49479500D01*
X63475546Y49479500D01*
X63654409Y49507829D01*
X63826639Y49563789D01*
X63987994Y49646004D01*
X64134501Y49752447D01*
X64262553Y49880499D01*
X64368996Y50027006D01*
X64451211Y50188361D01*
X64507171Y50360591D01*
X64535500Y50539454D01*
X64535500Y50720546D01*
X64507171Y50899409D01*
X64451211Y51071639D01*
X64368996Y51232994D01*
X64262553Y51379501D01*
X64262548Y51379506D01*
X64262546Y51379509D01*
X64134508Y51507547D01*
X64134504Y51507550D01*
X64134501Y51507553D01*
X63987994Y51613996D01*
X63826640Y51696211D01*
X63826633Y51696213D01*
X63654416Y51752169D01*
X63654413Y51752170D01*
X63654409Y51752171D01*
X63654403Y51752172D01*
X63475559Y51780499D01*
X63475547Y51780500D01*
X63475546Y51780500D01*
X63294454Y51780500D01*
X63294452Y51780500D01*
X63294440Y51780499D01*
X63115596Y51752172D01*
X63115593Y51752172D01*
X63115591Y51752171D01*
X63115589Y51752171D01*
X63115583Y51752169D01*
X62943366Y51696213D01*
X62943359Y51696211D01*
X62782005Y51613996D01*
X62635491Y51507547D01*
X62507453Y51379509D01*
X62401004Y51232995D01*
X62318789Y51071641D01*
X62318787Y51071634D01*
X62262831Y50899417D01*
X62262828Y50899404D01*
X62234501Y50720560D01*
X62234500Y50720544D01*
X61995500Y50720544D01*
X61995500Y50720546D01*
X61967171Y50899409D01*
X61911211Y51071639D01*
X61828996Y51232994D01*
X61722553Y51379501D01*
X61722548Y51379506D01*
X61722546Y51379509D01*
X61594508Y51507547D01*
X61594504Y51507550D01*
X61594501Y51507553D01*
X61447994Y51613996D01*
X61286640Y51696211D01*
X61286633Y51696213D01*
X61114416Y51752169D01*
X61114413Y51752170D01*
X61114409Y51752171D01*
X61114403Y51752172D01*
X60935559Y51780499D01*
X60935547Y51780500D01*
X60935546Y51780500D01*
X60754454Y51780500D01*
X60754452Y51780500D01*
X60754440Y51780499D01*
X60575596Y51752172D01*
X60575593Y51752172D01*
X60575591Y51752171D01*
X60575589Y51752171D01*
X60575583Y51752169D01*
X60403366Y51696213D01*
X60403359Y51696211D01*
X60242005Y51613996D01*
X60095491Y51507547D01*
X59967453Y51379509D01*
X59861004Y51232995D01*
X59778789Y51071641D01*
X59778787Y51071634D01*
X59722831Y50899417D01*
X59722828Y50899404D01*
X59694501Y50720560D01*
X59694500Y50720544D01*
X59455500Y50720544D01*
X59455500Y50720546D01*
X59427171Y50899409D01*
X59371211Y51071639D01*
X59288996Y51232994D01*
X59182553Y51379501D01*
X59182548Y51379506D01*
X59182546Y51379509D01*
X59054508Y51507547D01*
X59054504Y51507550D01*
X59054501Y51507553D01*
X58907994Y51613996D01*
X58746640Y51696211D01*
X58746633Y51696213D01*
X58574416Y51752169D01*
X58574413Y51752170D01*
X58574409Y51752171D01*
X58574403Y51752172D01*
X58395559Y51780499D01*
X58395547Y51780500D01*
X58395546Y51780500D01*
X58214454Y51780500D01*
X58214452Y51780500D01*
X58214440Y51780499D01*
X58035596Y51752172D01*
X58035593Y51752172D01*
X58035591Y51752171D01*
X58035589Y51752171D01*
X58035583Y51752169D01*
X57863366Y51696213D01*
X57863359Y51696211D01*
X57702005Y51613996D01*
X57555491Y51507547D01*
X57427453Y51379509D01*
X57321004Y51232995D01*
X57238789Y51071641D01*
X57238787Y51071634D01*
X57182831Y50899417D01*
X57182828Y50899404D01*
X57154501Y50720560D01*
X57154500Y50720544D01*
X56915500Y50720544D01*
X56915500Y50720546D01*
X56887171Y50899409D01*
X56831211Y51071639D01*
X56748996Y51232994D01*
X56642553Y51379501D01*
X56642548Y51379506D01*
X56642546Y51379509D01*
X56514508Y51507547D01*
X56514504Y51507550D01*
X56514501Y51507553D01*
X56367994Y51613996D01*
X56206640Y51696211D01*
X56206633Y51696213D01*
X56034416Y51752169D01*
X56034413Y51752170D01*
X56034409Y51752171D01*
X56034403Y51752172D01*
X55855559Y51780499D01*
X55855547Y51780500D01*
X55855546Y51780500D01*
X55674454Y51780500D01*
X55674452Y51780500D01*
X55674440Y51780499D01*
X55495596Y51752172D01*
X55495593Y51752172D01*
X55495591Y51752171D01*
X55495589Y51752171D01*
X55495583Y51752169D01*
X55323366Y51696213D01*
X55323359Y51696211D01*
X55162005Y51613996D01*
X55015491Y51507547D01*
X54887453Y51379509D01*
X54781004Y51232995D01*
X54698789Y51071641D01*
X54698787Y51071634D01*
X54642831Y50899417D01*
X54642828Y50899404D01*
X54614501Y50720560D01*
X54614500Y50720544D01*
X54375500Y50720544D01*
X54375500Y50720546D01*
X54347171Y50899409D01*
X54291211Y51071639D01*
X54208996Y51232994D01*
X54102553Y51379501D01*
X54102548Y51379506D01*
X54102546Y51379509D01*
X53974508Y51507547D01*
X53974504Y51507550D01*
X53974501Y51507553D01*
X53827994Y51613996D01*
X53666640Y51696211D01*
X53666633Y51696213D01*
X53494416Y51752169D01*
X53494413Y51752170D01*
X53494409Y51752171D01*
X53494403Y51752172D01*
X53315559Y51780499D01*
X53315547Y51780500D01*
X53315546Y51780500D01*
X53134454Y51780500D01*
X53134452Y51780500D01*
X53134440Y51780499D01*
X52955596Y51752172D01*
X52955593Y51752172D01*
X52955591Y51752171D01*
X52955589Y51752171D01*
X52955583Y51752169D01*
X52783366Y51696213D01*
X52783359Y51696211D01*
X52622005Y51613996D01*
X52475491Y51507547D01*
X52347453Y51379509D01*
X52241004Y51232995D01*
X52158789Y51071641D01*
X52158787Y51071634D01*
X52102831Y50899417D01*
X52102828Y50899404D01*
X52074501Y50720560D01*
X52074500Y50720544D01*
X51835500Y50720544D01*
X51835500Y50720546D01*
X51807171Y50899409D01*
X51751211Y51071639D01*
X51668996Y51232994D01*
X51562553Y51379501D01*
X51562548Y51379506D01*
X51562546Y51379509D01*
X51434508Y51507547D01*
X51434504Y51507550D01*
X51434501Y51507553D01*
X51287994Y51613996D01*
X51126640Y51696211D01*
X51126633Y51696213D01*
X50954416Y51752169D01*
X50954413Y51752170D01*
X50954409Y51752171D01*
X50954403Y51752172D01*
X50775559Y51780499D01*
X50775547Y51780500D01*
X50775546Y51780500D01*
X50594454Y51780500D01*
X50594452Y51780500D01*
X50594440Y51780499D01*
X50415596Y51752172D01*
X50415593Y51752172D01*
X50415591Y51752171D01*
X50415589Y51752171D01*
X50415583Y51752169D01*
X50243366Y51696213D01*
X50243359Y51696211D01*
X50082005Y51613996D01*
X49935491Y51507547D01*
X49807453Y51379509D01*
X49701004Y51232995D01*
X49618789Y51071641D01*
X49618787Y51071634D01*
X49562831Y50899417D01*
X49562828Y50899404D01*
X49534501Y50720560D01*
X49534500Y50720544D01*
X49295500Y50720544D01*
X49295500Y50720546D01*
X49267171Y50899409D01*
X49211211Y51071639D01*
X49128996Y51232994D01*
X49022553Y51379501D01*
X49022548Y51379506D01*
X49022546Y51379509D01*
X48894508Y51507547D01*
X48894504Y51507550D01*
X48894501Y51507553D01*
X48747994Y51613996D01*
X48586640Y51696211D01*
X48586633Y51696213D01*
X48414416Y51752169D01*
X48414413Y51752170D01*
X48414409Y51752171D01*
X48414403Y51752172D01*
X48235559Y51780499D01*
X48235547Y51780500D01*
X48235546Y51780500D01*
X48054454Y51780500D01*
X48054452Y51780500D01*
X48054440Y51780499D01*
X47875596Y51752172D01*
X47875593Y51752172D01*
X47875591Y51752171D01*
X47875589Y51752171D01*
X47875583Y51752169D01*
X47703366Y51696213D01*
X47703359Y51696211D01*
X47542005Y51613996D01*
X47395491Y51507547D01*
X47267453Y51379509D01*
X47161004Y51232995D01*
X47078789Y51071641D01*
X47078787Y51071634D01*
X47022831Y50899417D01*
X47022828Y50899404D01*
X46994501Y50720560D01*
X46994500Y50720544D01*
X46755499Y50720544D01*
X46755499Y51524864D01*
X46752585Y51549991D01*
X46707206Y51652765D01*
X46627765Y51732206D01*
X46524991Y51777585D01*
X46499865Y51780500D01*
X46499863Y51780500D01*
X44710136Y51780500D01*
X44685007Y51777585D01*
X44582233Y51732205D01*
X44502795Y51652767D01*
X44502794Y51652766D01*
X44502794Y51652765D01*
X44457415Y51549991D01*
X44456831Y51544952D01*
X44454500Y51524864D01*
X42270674Y51524864D01*
X42147994Y51613996D01*
X41986640Y51696211D01*
X41986633Y51696213D01*
X41814416Y51752169D01*
X41814413Y51752170D01*
X41814409Y51752171D01*
X41814403Y51752172D01*
X41635559Y51780499D01*
X41635547Y51780500D01*
X41635546Y51780500D01*
X41454454Y51780500D01*
X41454452Y51780500D01*
X41454440Y51780499D01*
X41275596Y51752172D01*
X41275593Y51752172D01*
X41275591Y51752171D01*
X41275589Y51752171D01*
X41275583Y51752169D01*
X41103366Y51696213D01*
X41103359Y51696211D01*
X40942005Y51613996D01*
X40795491Y51507547D01*
X40667453Y51379509D01*
X40561004Y51232995D01*
X40478789Y51071641D01*
X40478787Y51071634D01*
X40422831Y50899417D01*
X40422828Y50899404D01*
X40394501Y50720560D01*
X40394500Y50720544D01*
X40155500Y50720544D01*
X40155500Y50720546D01*
X40127171Y50899409D01*
X40071211Y51071639D01*
X39988996Y51232994D01*
X39882553Y51379501D01*
X39882548Y51379506D01*
X39882546Y51379509D01*
X39754508Y51507547D01*
X39754504Y51507550D01*
X39754501Y51507553D01*
X39607994Y51613996D01*
X39446640Y51696211D01*
X39446633Y51696213D01*
X39274416Y51752169D01*
X39274413Y51752170D01*
X39274409Y51752171D01*
X39274403Y51752172D01*
X39095559Y51780499D01*
X39095547Y51780500D01*
X39095546Y51780500D01*
X38914454Y51780500D01*
X38914452Y51780500D01*
X38914440Y51780499D01*
X38735596Y51752172D01*
X38735593Y51752172D01*
X38735591Y51752171D01*
X38735589Y51752171D01*
X38735583Y51752169D01*
X38563366Y51696213D01*
X38563359Y51696211D01*
X38402005Y51613996D01*
X38255491Y51507547D01*
X38127453Y51379509D01*
X38021004Y51232995D01*
X37938789Y51071641D01*
X37938787Y51071634D01*
X37882831Y50899417D01*
X37882828Y50899404D01*
X37854501Y50720560D01*
X37854500Y50720544D01*
X37615500Y50720544D01*
X37615500Y50720546D01*
X37587171Y50899409D01*
X37531211Y51071639D01*
X37448996Y51232994D01*
X37342553Y51379501D01*
X37342548Y51379506D01*
X37342546Y51379509D01*
X37214508Y51507547D01*
X37214504Y51507550D01*
X37214501Y51507553D01*
X37067994Y51613996D01*
X36906640Y51696211D01*
X36906633Y51696213D01*
X36734416Y51752169D01*
X36734413Y51752170D01*
X36734409Y51752171D01*
X36734403Y51752172D01*
X36555559Y51780499D01*
X36555547Y51780500D01*
X36555546Y51780500D01*
X36374454Y51780500D01*
X36374452Y51780500D01*
X36374440Y51780499D01*
X36195596Y51752172D01*
X36195593Y51752172D01*
X36195591Y51752171D01*
X36195589Y51752171D01*
X36195583Y51752169D01*
X36023366Y51696213D01*
X36023359Y51696211D01*
X35862005Y51613996D01*
X35715491Y51507547D01*
X35587453Y51379509D01*
X35481004Y51232995D01*
X35398789Y51071641D01*
X35398787Y51071634D01*
X35342831Y50899417D01*
X35342828Y50899404D01*
X35314501Y50720560D01*
X35314500Y50720544D01*
X35075500Y50720544D01*
X35075500Y50720546D01*
X35047171Y50899409D01*
X34991211Y51071639D01*
X34908996Y51232994D01*
X34802553Y51379501D01*
X34802548Y51379506D01*
X34802546Y51379509D01*
X34674508Y51507547D01*
X34674504Y51507550D01*
X34674501Y51507553D01*
X34527994Y51613996D01*
X34366640Y51696211D01*
X34366633Y51696213D01*
X34194416Y51752169D01*
X34194413Y51752170D01*
X34194409Y51752171D01*
X34194403Y51752172D01*
X34015559Y51780499D01*
X34015547Y51780500D01*
X34015546Y51780500D01*
X33834454Y51780500D01*
X33834452Y51780500D01*
X33834440Y51780499D01*
X33655596Y51752172D01*
X33655593Y51752172D01*
X33655591Y51752171D01*
X33655589Y51752171D01*
X33655583Y51752169D01*
X33483366Y51696213D01*
X33483359Y51696211D01*
X33322005Y51613996D01*
X33175491Y51507547D01*
X33047453Y51379509D01*
X32941004Y51232995D01*
X32858789Y51071641D01*
X32858787Y51071634D01*
X32802831Y50899417D01*
X32802828Y50899404D01*
X32774501Y50720560D01*
X32774500Y50720544D01*
X32535500Y50720544D01*
X32535500Y50720546D01*
X32507171Y50899409D01*
X32451211Y51071639D01*
X32368996Y51232994D01*
X32262553Y51379501D01*
X32262548Y51379506D01*
X32262546Y51379509D01*
X32134508Y51507547D01*
X32134504Y51507550D01*
X32134501Y51507553D01*
X31987994Y51613996D01*
X31826640Y51696211D01*
X31826633Y51696213D01*
X31654416Y51752169D01*
X31654413Y51752170D01*
X31654409Y51752171D01*
X31654403Y51752172D01*
X31475559Y51780499D01*
X31475547Y51780500D01*
X31475546Y51780500D01*
X31294454Y51780500D01*
X31294452Y51780500D01*
X31294440Y51780499D01*
X31115596Y51752172D01*
X31115593Y51752172D01*
X31115591Y51752171D01*
X31115589Y51752171D01*
X31115583Y51752169D01*
X30943366Y51696213D01*
X30943359Y51696211D01*
X30782005Y51613996D01*
X30635491Y51507547D01*
X30507453Y51379509D01*
X30401004Y51232995D01*
X30318789Y51071641D01*
X30318787Y51071634D01*
X30262831Y50899417D01*
X30262828Y50899404D01*
X30234501Y50720560D01*
X30234500Y50720544D01*
X29995500Y50720544D01*
X29995500Y50720546D01*
X29967171Y50899409D01*
X29911211Y51071639D01*
X29828996Y51232994D01*
X29722553Y51379501D01*
X29722548Y51379506D01*
X29722546Y51379509D01*
X29594508Y51507547D01*
X29594504Y51507550D01*
X29594501Y51507553D01*
X29447994Y51613996D01*
X29286640Y51696211D01*
X29286633Y51696213D01*
X29114416Y51752169D01*
X29114413Y51752170D01*
X29114409Y51752171D01*
X29114403Y51752172D01*
X28935559Y51780499D01*
X28935547Y51780500D01*
X28935546Y51780500D01*
X28754454Y51780500D01*
X28754452Y51780500D01*
X28754440Y51780499D01*
X28575596Y51752172D01*
X28575593Y51752172D01*
X28575591Y51752171D01*
X28575589Y51752171D01*
X28575583Y51752169D01*
X28403366Y51696213D01*
X28403359Y51696211D01*
X28242005Y51613996D01*
X28095491Y51507547D01*
X27967453Y51379509D01*
X27861004Y51232995D01*
X27778789Y51071641D01*
X27778787Y51071634D01*
X27722831Y50899417D01*
X27722828Y50899404D01*
X27694501Y50720560D01*
X27694500Y50720544D01*
X24915500Y50720544D01*
X24915500Y50720546D01*
X24887171Y50899409D01*
X24831211Y51071639D01*
X24748996Y51232994D01*
X24642553Y51379501D01*
X24642548Y51379506D01*
X24642546Y51379509D01*
X24514508Y51507547D01*
X24514504Y51507550D01*
X24514501Y51507553D01*
X24367994Y51613996D01*
X24206640Y51696211D01*
X24206633Y51696213D01*
X24034416Y51752169D01*
X24034413Y51752170D01*
X24034409Y51752171D01*
X24034403Y51752172D01*
X23855559Y51780499D01*
X23855547Y51780500D01*
X23855546Y51780500D01*
X23674454Y51780500D01*
X23674452Y51780500D01*
X23674440Y51780499D01*
X23495596Y51752172D01*
X23495593Y51752172D01*
X23495591Y51752171D01*
X23495589Y51752171D01*
X23495583Y51752169D01*
X23323366Y51696213D01*
X23323359Y51696211D01*
X23162005Y51613996D01*
X23015491Y51507547D01*
X22887453Y51379509D01*
X22781004Y51232995D01*
X22698789Y51071641D01*
X22698787Y51071634D01*
X22642831Y50899417D01*
X22642828Y50899404D01*
X22614501Y50720560D01*
X22614500Y50720544D01*
X22375500Y50720544D01*
X22375500Y50720546D01*
X22347171Y50899409D01*
X22291211Y51071639D01*
X22208996Y51232994D01*
X22102553Y51379501D01*
X22102548Y51379506D01*
X22102546Y51379509D01*
X21974508Y51507547D01*
X21974504Y51507550D01*
X21974501Y51507553D01*
X21827994Y51613996D01*
X21666640Y51696211D01*
X21666633Y51696213D01*
X21494416Y51752169D01*
X21494413Y51752170D01*
X21494409Y51752171D01*
X21494403Y51752172D01*
X21315559Y51780499D01*
X21315547Y51780500D01*
X21315546Y51780500D01*
X21134454Y51780500D01*
X21134452Y51780500D01*
X21134440Y51780499D01*
X20955596Y51752172D01*
X20955593Y51752172D01*
X20955591Y51752171D01*
X20955589Y51752171D01*
X20955583Y51752169D01*
X20783366Y51696213D01*
X20783359Y51696211D01*
X20622005Y51613996D01*
X20475491Y51507547D01*
X20347453Y51379509D01*
X20241004Y51232995D01*
X20158789Y51071641D01*
X20158787Y51071634D01*
X20102831Y50899417D01*
X20102828Y50899404D01*
X20074501Y50720560D01*
X20074500Y50720544D01*
X19835499Y50720544D01*
X19835499Y51524864D01*
X19832585Y51549991D01*
X19787206Y51652765D01*
X19707765Y51732206D01*
X19604991Y51777585D01*
X19579865Y51780500D01*
X19579863Y51780500D01*
X17790136Y51780500D01*
X17765007Y51777585D01*
X17662233Y51732205D01*
X17582795Y51652767D01*
X17582794Y51652766D01*
X17582794Y51652765D01*
X17537415Y51549991D01*
X17536831Y51544952D01*
X17534500Y51524864D01*
X4374982Y51524864D01*
X4354890Y51544956D01*
X4354886Y51544959D01*
X4354884Y51544961D01*
X4214387Y51652767D01*
X4141641Y51708587D01*
X4066151Y51752171D01*
X3908864Y51842981D01*
X3908859Y51842984D01*
X3908856Y51842985D01*
X3908853Y51842987D01*
X3771210Y51900000D01*
X3660526Y51945847D01*
X3660520Y51945849D01*
X3660509Y51945853D01*
X3400895Y52015416D01*
X3134401Y52050500D01*
X3134397Y52050500D01*
X2865603Y52050500D01*
X2865598Y52050500D01*
X2599105Y52015416D01*
X2599104Y52015416D01*
X2339490Y51945853D01*
X2339475Y51945848D01*
X2339474Y51945847D01*
X2339472Y51945846D01*
X2091146Y51842987D01*
X2091135Y51842981D01*
X1858361Y51708589D01*
X1645115Y51544961D01*
X1645105Y51544952D01*
X1455048Y51354895D01*
X1455039Y51354885D01*
X1291411Y51141639D01*
X1157019Y50908865D01*
X1157013Y50908854D01*
X1054154Y50660528D01*
X1054147Y50660510D01*
X984584Y50400896D01*
X984584Y50400895D01*
X949500Y50134402D01*
X500500Y50134402D01*
X500500Y51896490D01*
X500893Y51903488D01*
X505666Y51945847D01*
X512235Y52004156D01*
X515349Y52017795D01*
X526793Y52050500D01*
X547643Y52110087D01*
X553709Y52122683D01*
X605731Y52205476D01*
X614450Y52216409D01*
X683591Y52285550D01*
X694524Y52294269D01*
X777317Y52346291D01*
X789913Y52352357D01*
X882209Y52384652D01*
X895844Y52387765D01*
X996512Y52399108D01*
X1003510Y52399500D01*
X1065892Y52399500D01*
X64834108Y52399500D01*
X64896490Y52399500D01*
X64903487Y52399108D01*
G37*
%TD.AperFunction*%
%TD*%
M02*
