%TF.GenerationSoftware,KiCad,Pcbnew,9.0.1*%
%TF.CreationDate,2025-05-14T19:05:48-04:00*%
%TF.ProjectId,EX-CSB1,45582d43-5342-4312-9e6b-696361645f70,rev?*%
%TF.SameCoordinates,Original*%
%TF.FileFunction,Soldermask,Bot*%
%TF.FilePolarity,Negative*%
%FSLAX46Y46*%
G04 Gerber Fmt 4.6, Leading zero omitted, Abs format (unit mm)*
G04 Created by KiCad (PCBNEW 9.0.1) date 2025-05-14 19:05:48*
%MOMM*%
%LPD*%
G01*
G04 APERTURE LIST*
G04 Aperture macros list*
%AMRoundRect*
0 Rectangle with rounded corners*
0 $1 Rounding radius*
0 $2 $3 $4 $5 $6 $7 $8 $9 X,Y pos of 4 corners*
0 Add a 4 corners polygon primitive as box body*
4,1,4,$2,$3,$4,$5,$6,$7,$8,$9,$2,$3,0*
0 Add four circle primitives for the rounded corners*
1,1,$1+$1,$2,$3*
1,1,$1+$1,$4,$5*
1,1,$1+$1,$6,$7*
1,1,$1+$1,$8,$9*
0 Add four rect primitives between the rounded corners*
20,1,$1+$1,$2,$3,$4,$5,0*
20,1,$1+$1,$4,$5,$6,$7,0*
20,1,$1+$1,$6,$7,$8,$9,0*
20,1,$1+$1,$8,$9,$2,$3,0*%
%AMFreePoly0*
4,1,23,0.500000,-0.750000,0.000000,-0.750000,0.000000,-0.745722,-0.065263,-0.745722,-0.191342,-0.711940,-0.304381,-0.646677,-0.396677,-0.554381,-0.461940,-0.441342,-0.495722,-0.315263,-0.495722,-0.250000,-0.500000,-0.250000,-0.500000,0.250000,-0.495722,0.250000,-0.495722,0.315263,-0.461940,0.441342,-0.396677,0.554381,-0.304381,0.646677,-0.191342,0.711940,-0.065263,0.745722,0.000000,0.745722,
0.000000,0.750000,0.500000,0.750000,0.500000,-0.750000,0.500000,-0.750000,$1*%
%AMFreePoly1*
4,1,23,0.000000,0.745722,0.065263,0.745722,0.191342,0.711940,0.304381,0.646677,0.396677,0.554381,0.461940,0.441342,0.495722,0.315263,0.495722,0.250000,0.500000,0.250000,0.500000,-0.250000,0.495722,-0.250000,0.495722,-0.315263,0.461940,-0.441342,0.396677,-0.554381,0.304381,-0.646677,0.191342,-0.711940,0.065263,-0.745722,0.000000,-0.745722,0.000000,-0.750000,-0.500000,-0.750000,
-0.500000,0.750000,0.000000,0.750000,0.000000,0.745722,0.000000,0.745722,$1*%
G04 Aperture macros list end*
%ADD10C,0.150000*%
%ADD11C,0.600000*%
%ADD12RoundRect,0.720000X-1.080000X0.180000X-1.080000X-0.180000X1.080000X-0.180000X1.080000X0.180000X0*%
%ADD13R,1.700000X1.700000*%
%ADD14C,1.700000*%
%ADD15C,3.500000*%
%ADD16O,1.700000X1.700000*%
%ADD17C,0.650000*%
%ADD18O,2.100000X1.000000*%
%ADD19O,1.800000X1.000000*%
%ADD20R,3.500000X3.500000*%
%ADD21RoundRect,0.350000X-1.400000X-1.400000X1.400000X-1.400000X1.400000X1.400000X-1.400000X1.400000X0*%
%ADD22RoundRect,0.875000X-1.125000X-0.875000X1.125000X-0.875000X1.125000X0.875000X-1.125000X0.875000X0*%
%ADD23FreePoly0,270.000000*%
%ADD24FreePoly1,270.000000*%
%ADD25FreePoly0,0.000000*%
%ADD26FreePoly1,0.000000*%
G04 APERTURE END LIST*
D10*
%TO.C,U101*%
X18030000Y25500000D02*
G75*
G02*
X17970000Y25500000I-30000J0D01*
G01*
X17970000Y25500000D02*
G75*
G02*
X18030000Y25500000I30000J0D01*
G01*
%TO.C,U102*%
X18030000Y39800000D02*
G75*
G02*
X17970000Y39800000I-30000J0D01*
G01*
X17970000Y39800000D02*
G75*
G02*
X18030000Y39800000I30000J0D01*
G01*
%TO.C,JP104*%
G36*
X26350000Y6550000D02*
G01*
X27850000Y6550000D01*
X27850000Y6250000D01*
X26350000Y6250000D01*
X26350000Y6550000D01*
G37*
%TO.C,JP103*%
G36*
X45150000Y6020000D02*
G01*
X45450000Y6020000D01*
X45450000Y7520000D01*
X45150000Y7520000D01*
X45150000Y6020000D01*
G37*
%TD*%
D11*
%TO.C,J110*%
X6200000Y35750000D03*
X8800000Y35750000D03*
D12*
X7500000Y36250000D03*
D11*
X6200000Y36750000D03*
X8800000Y36750000D03*
D12*
X7500000Y39750000D03*
D11*
X6200000Y39250000D03*
X8800000Y39250000D03*
X6200000Y40250000D03*
X8800000Y40250000D03*
X8800000Y42750000D03*
D12*
X7500000Y43250000D03*
D11*
X8800000Y43750000D03*
X6200000Y43750000D03*
X6200000Y42750000D03*
%TD*%
D13*
%TO.C,J111*%
X33800000Y46750000D03*
D14*
X36340000Y46750000D03*
X38880000Y46750000D03*
X41420000Y46750000D03*
%TD*%
D15*
%TO.C,H103*%
X56000000Y46500000D03*
%TD*%
D11*
%TO.C,J103*%
X8800000Y20000000D03*
X6200000Y20000000D03*
D12*
X7500000Y19500000D03*
D11*
X8800000Y19000000D03*
X6200000Y19000000D03*
X8800000Y16500000D03*
X6200000Y16500000D03*
D12*
X7500000Y16000000D03*
D11*
X8800000Y15500000D03*
X6200000Y15500000D03*
%TD*%
D13*
%TO.C,J108*%
X27825000Y2370000D03*
D16*
X30365000Y2370000D03*
X32905000Y2370000D03*
X35445000Y2370000D03*
X37985000Y2370000D03*
X40525000Y2370000D03*
X43065000Y2370000D03*
X45605000Y2370000D03*
%TD*%
D15*
%TO.C,H104*%
X56000000Y28000000D03*
%TD*%
D17*
%TO.C,J114*%
X60185000Y38610000D03*
X60185000Y44390000D03*
D18*
X59685000Y37180000D03*
D19*
X63865000Y37180000D03*
D18*
X59685000Y45820000D03*
D19*
X63865000Y45820000D03*
%TD*%
D13*
%TO.C,J107*%
X18685000Y50630000D03*
D16*
X21225000Y50630000D03*
X23765000Y50630000D03*
X26305000Y50630000D03*
X28845000Y50630000D03*
X31385000Y50630000D03*
X33925000Y50630000D03*
X36465000Y50630000D03*
X39005000Y50630000D03*
X41545000Y50630000D03*
%TD*%
D11*
%TO.C,J101*%
X8800000Y30000000D03*
X6200000Y30000000D03*
D12*
X7500000Y29500000D03*
D11*
X8800000Y29000000D03*
X6200000Y29000000D03*
X8800000Y26500000D03*
X6200000Y26500000D03*
D12*
X7500000Y26000000D03*
D11*
X8800000Y25500000D03*
X6200000Y25500000D03*
%TD*%
D15*
%TO.C,H101*%
X3000000Y50000000D03*
%TD*%
%TO.C,H102*%
X17000000Y7000000D03*
%TD*%
D13*
%TO.C,J113*%
X45605000Y50630000D03*
D16*
X48145000Y50630000D03*
X50685000Y50630000D03*
X53225000Y50630000D03*
X55765000Y50630000D03*
X58305000Y50630000D03*
X60845000Y50630000D03*
X63385000Y50630000D03*
%TD*%
D13*
%TO.C,J204*%
X22765000Y2500000D03*
D16*
X20225000Y2500000D03*
X17685000Y2500000D03*
X15145000Y2500000D03*
%TD*%
D13*
%TO.C,J112*%
X50685000Y2370000D03*
D16*
X53225000Y2370000D03*
X55765000Y2370000D03*
X58305000Y2370000D03*
X60845000Y2370000D03*
X63385000Y2370000D03*
%TD*%
D11*
%TO.C,J201*%
X10900000Y8700000D03*
X10900000Y7300000D03*
X10900000Y5900000D03*
D20*
X12300000Y7300000D03*
D11*
X13700000Y8700000D03*
X13700000Y7300000D03*
X13700000Y5900000D03*
X4900000Y8700000D03*
X4900000Y7300000D03*
X4900000Y5900000D03*
D21*
X6300000Y7300000D03*
D11*
X7700000Y8700000D03*
X7700000Y7300000D03*
X7700000Y5900000D03*
D22*
X9400000Y2600000D03*
%TD*%
D23*
%TO.C,JP104*%
X27100000Y7050000D03*
D24*
X27100000Y5750000D03*
%TD*%
D25*
%TO.C,JP103*%
X44650000Y6770000D03*
D26*
X45950000Y6770000D03*
%TD*%
M02*
