%TF.GenerationSoftware,KiCad,Pcbnew,9.0.1*%
%TF.CreationDate,2025-05-14T19:05:47-04:00*%
%TF.ProjectId,EX-CSB1,45582d43-5342-4312-9e6b-696361645f70,rev?*%
%TF.SameCoordinates,Original*%
%TF.FileFunction,Copper,L4,Bot*%
%TF.FilePolarity,Positive*%
%FSLAX46Y46*%
G04 Gerber Fmt 4.6, Leading zero omitted, Abs format (unit mm)*
G04 Created by KiCad (PCBNEW 9.0.1) date 2025-05-14 19:05:47*
%MOMM*%
%LPD*%
G01*
G04 APERTURE LIST*
G04 Aperture macros list*
%AMRoundRect*
0 Rectangle with rounded corners*
0 $1 Rounding radius*
0 $2 $3 $4 $5 $6 $7 $8 $9 X,Y pos of 4 corners*
0 Add a 4 corners polygon primitive as box body*
4,1,4,$2,$3,$4,$5,$6,$7,$8,$9,$2,$3,0*
0 Add four circle primitives for the rounded corners*
1,1,$1+$1,$2,$3*
1,1,$1+$1,$4,$5*
1,1,$1+$1,$6,$7*
1,1,$1+$1,$8,$9*
0 Add four rect primitives between the rounded corners*
20,1,$1+$1,$2,$3,$4,$5,0*
20,1,$1+$1,$4,$5,$6,$7,0*
20,1,$1+$1,$6,$7,$8,$9,0*
20,1,$1+$1,$8,$9,$2,$3,0*%
%AMFreePoly0*
4,1,23,0.500000,-0.750000,0.000000,-0.750000,0.000000,-0.745722,-0.065263,-0.745722,-0.191342,-0.711940,-0.304381,-0.646677,-0.396677,-0.554381,-0.461940,-0.441342,-0.495722,-0.315263,-0.495722,-0.250000,-0.500000,-0.250000,-0.500000,0.250000,-0.495722,0.250000,-0.495722,0.315263,-0.461940,0.441342,-0.396677,0.554381,-0.304381,0.646677,-0.191342,0.711940,-0.065263,0.745722,0.000000,0.745722,
0.000000,0.750000,0.500000,0.750000,0.500000,-0.750000,0.500000,-0.750000,$1*%
%AMFreePoly1*
4,1,23,0.000000,0.745722,0.065263,0.745722,0.191342,0.711940,0.304381,0.646677,0.396677,0.554381,0.461940,0.441342,0.495722,0.315263,0.495722,0.250000,0.500000,0.250000,0.500000,-0.250000,0.495722,-0.250000,0.495722,-0.315263,0.461940,-0.441342,0.396677,-0.554381,0.304381,-0.646677,0.191342,-0.711940,0.065263,-0.745722,0.000000,-0.745722,0.000000,-0.750000,-0.500000,-0.750000,
-0.500000,0.750000,0.000000,0.750000,0.000000,0.745722,0.000000,0.745722,$1*%
G04 Aperture macros list end*
%TA.AperFunction,EtchedComponent*%
%ADD10C,0.000000*%
%TD*%
%TA.AperFunction,ComponentPad*%
%ADD11C,0.600000*%
%TD*%
%TA.AperFunction,ComponentPad*%
%ADD12RoundRect,0.720000X-1.080000X0.180000X-1.080000X-0.180000X1.080000X-0.180000X1.080000X0.180000X0*%
%TD*%
%TA.AperFunction,ComponentPad*%
%ADD13R,1.700000X1.700000*%
%TD*%
%TA.AperFunction,ComponentPad*%
%ADD14C,1.700000*%
%TD*%
%TA.AperFunction,ComponentPad*%
%ADD15C,3.500000*%
%TD*%
%TA.AperFunction,ComponentPad*%
%ADD16O,1.700000X1.700000*%
%TD*%
%TA.AperFunction,HeatsinkPad*%
%ADD17O,2.100000X1.000000*%
%TD*%
%TA.AperFunction,HeatsinkPad*%
%ADD18O,1.800000X1.000000*%
%TD*%
%TA.AperFunction,ComponentPad*%
%ADD19C,0.550000*%
%TD*%
%TA.AperFunction,ComponentPad*%
%ADD20C,0.500000*%
%TD*%
%TA.AperFunction,ComponentPad*%
%ADD21R,3.500000X3.500000*%
%TD*%
%TA.AperFunction,ComponentPad*%
%ADD22RoundRect,0.350000X-1.400000X-1.400000X1.400000X-1.400000X1.400000X1.400000X-1.400000X1.400000X0*%
%TD*%
%TA.AperFunction,ComponentPad*%
%ADD23RoundRect,0.875000X-1.125000X-0.875000X1.125000X-0.875000X1.125000X0.875000X-1.125000X0.875000X0*%
%TD*%
%TA.AperFunction,SMDPad,CuDef*%
%ADD24FreePoly0,270.000000*%
%TD*%
%TA.AperFunction,SMDPad,CuDef*%
%ADD25FreePoly1,270.000000*%
%TD*%
%TA.AperFunction,SMDPad,CuDef*%
%ADD26FreePoly0,0.000000*%
%TD*%
%TA.AperFunction,SMDPad,CuDef*%
%ADD27FreePoly1,0.000000*%
%TD*%
%TA.AperFunction,ViaPad*%
%ADD28C,0.600000*%
%TD*%
%TA.AperFunction,Conductor*%
%ADD29C,0.600000*%
%TD*%
%TA.AperFunction,Conductor*%
%ADD30C,0.200000*%
%TD*%
%TA.AperFunction,Conductor*%
%ADD31C,0.300000*%
%TD*%
%TA.AperFunction,Conductor*%
%ADD32C,0.400000*%
%TD*%
%TA.AperFunction,Conductor*%
%ADD33C,0.500000*%
%TD*%
G04 APERTURE END LIST*
D10*
%TA.AperFunction,EtchedComponent*%
%TO.C,JP103*%
G36*
X45550000Y6470000D02*
G01*
X45050000Y6470000D01*
X45050000Y7070000D01*
X45550000Y7070000D01*
X45550000Y6470000D01*
G37*
%TD.AperFunction*%
%TD*%
D11*
%TO.P,J110,3,Pin_3*%
%TO.N,GND*%
X6200000Y35750000D03*
X8800000Y35750000D03*
D12*
X7500000Y36250000D03*
D11*
X6200000Y36750000D03*
X8800000Y36750000D03*
D12*
%TO.P,J110,2,Pin_2*%
%TO.N,/Booster-C*%
X7500000Y39750000D03*
D11*
X6200000Y39250000D03*
X8800000Y39250000D03*
X6200000Y40250000D03*
X8800000Y40250000D03*
%TO.P,J110,1,Pin_1*%
%TO.N,/Booster-D*%
X8800000Y42750000D03*
D12*
X7500000Y43250000D03*
D11*
X8800000Y43750000D03*
X6200000Y43750000D03*
X6200000Y42750000D03*
%TD*%
D13*
%TO.P,J111,1,Pin_1*%
%TO.N,GND*%
X33800000Y46750000D03*
D14*
%TO.P,J111,2,Pin_2*%
%TO.N,+3V3*%
X36340000Y46750000D03*
%TO.P,J111,3,Pin_3*%
%TO.N,/scl*%
X38880000Y46750000D03*
%TO.P,J111,4,Pin_4*%
%TO.N,/sda*%
X41420000Y46750000D03*
%TD*%
D15*
%TO.P,H103,1*%
%TO.N,N/C*%
X56000000Y46500000D03*
%TD*%
D11*
%TO.P,J103,1,Pin_1*%
%TO.N,/out1b*%
X8800000Y20000000D03*
X6200000Y20000000D03*
D12*
X7500000Y19500000D03*
D11*
X8800000Y19000000D03*
X6200000Y19000000D03*
%TO.P,J103,2,Pin_2*%
%TO.N,/out2b*%
X8800000Y16500000D03*
X6200000Y16500000D03*
D12*
X7500000Y16000000D03*
D11*
X8800000Y15500000D03*
X6200000Y15500000D03*
%TD*%
D13*
%TO.P,J108,1,Pin_1*%
%TO.N,unconnected-(J108-Pin_1-Pad1)*%
X27825000Y2370000D03*
D16*
%TO.P,J108,2,Pin_2*%
%TO.N,/io_ref*%
X30365000Y2370000D03*
%TO.P,J108,3,Pin_3*%
%TO.N,/reset_n*%
X32905000Y2370000D03*
%TO.P,J108,4,Pin_4*%
%TO.N,+3V3*%
X35445000Y2370000D03*
%TO.P,J108,5,Pin_5*%
%TO.N,+5V*%
X37985000Y2370000D03*
%TO.P,J108,6,Pin_6*%
%TO.N,GND*%
X40525000Y2370000D03*
%TO.P,J108,7,Pin_7*%
X43065000Y2370000D03*
%TO.P,J108,8,Pin_8*%
%TO.N,/vin_pin*%
X45605000Y2370000D03*
%TD*%
D15*
%TO.P,H104,1*%
%TO.N,N/C*%
X56000000Y28000000D03*
%TD*%
D17*
%TO.P,J114,S1,SHIELD*%
%TO.N,GND*%
X59685000Y37180000D03*
D18*
X63865000Y37180000D03*
D17*
X59685000Y45820000D03*
D18*
X63865000Y45820000D03*
%TD*%
D13*
%TO.P,J107,1,Pin_1*%
%TO.N,/scl*%
X18685000Y50630000D03*
D16*
%TO.P,J107,2,Pin_2*%
%TO.N,/sda*%
X21225000Y50630000D03*
%TO.P,J107,3,Pin_3*%
%TO.N,/aref*%
X23765000Y50630000D03*
%TO.P,J107,4,Pin_4*%
%TO.N,GND*%
X26305000Y50630000D03*
%TO.P,J107,5,Pin_5*%
%TO.N,/d13*%
X28845000Y50630000D03*
%TO.P,J107,6,Pin_6*%
%TO.N,/d12*%
X31385000Y50630000D03*
%TO.P,J107,7,Pin_7*%
%TO.N,/d11*%
X33925000Y50630000D03*
%TO.P,J107,8,Pin_8*%
%TO.N,/d10*%
X36465000Y50630000D03*
%TO.P,J107,9,Pin_9*%
%TO.N,/brake_c*%
X39005000Y50630000D03*
%TO.P,J107,10,Pin_10*%
%TO.N,/brake_d*%
X41545000Y50630000D03*
%TD*%
D19*
%TO.P,U101,10,OUT2*%
%TO.N,/out2b*%
X16300000Y23750000D03*
%TO.P,U101,11,VM*%
%TO.N,VM*%
X17100000Y23750000D03*
D20*
%TO.P,U101,17,GND*%
%TO.N,GND*%
X20400000Y26950000D03*
X19800000Y26950000D03*
X19200000Y26950000D03*
X18600000Y26950000D03*
X18000000Y26950000D03*
X17400000Y26950000D03*
X16800000Y26950000D03*
X16200000Y26950000D03*
X15600000Y26950000D03*
X20000000Y26250000D03*
X16000000Y26200000D03*
X20000000Y25500000D03*
X18000000Y25500000D03*
X16000000Y25450000D03*
X15570000Y25000000D03*
X20000000Y24750000D03*
X16010000Y24520000D03*
X15470000Y24340000D03*
X20400000Y24050000D03*
X19700000Y24050000D03*
X19100000Y24050000D03*
X18500000Y24050000D03*
X17900000Y24050000D03*
%TD*%
D11*
%TO.P,J101,1,Pin_1*%
%TO.N,/out1a*%
X8800000Y30000000D03*
X6200000Y30000000D03*
D12*
X7500000Y29500000D03*
D11*
X8800000Y29000000D03*
X6200000Y29000000D03*
%TO.P,J101,2,Pin_2*%
%TO.N,/out2a*%
X8800000Y26500000D03*
X6200000Y26500000D03*
D12*
X7500000Y26000000D03*
D11*
X8800000Y25500000D03*
X6200000Y25500000D03*
%TD*%
D15*
%TO.P,H101,1*%
%TO.N,N/C*%
X3000000Y50000000D03*
%TD*%
%TO.P,H102,1*%
%TO.N,N/C*%
X17000000Y7000000D03*
%TD*%
D13*
%TO.P,J113,1,Pin_1*%
%TO.N,/d7*%
X45605000Y50630000D03*
D16*
%TO.P,J113,2,Pin_2*%
%TO.N,/d6*%
X48145000Y50630000D03*
%TO.P,J113,3,Pin_3*%
%TO.N,/d5*%
X50685000Y50630000D03*
%TO.P,J113,4,Pin_4*%
%TO.N,/d4*%
X53225000Y50630000D03*
%TO.P,J113,5,Pin_5*%
%TO.N,/d3*%
X55765000Y50630000D03*
%TO.P,J113,6,Pin_6*%
%TO.N,/d2*%
X58305000Y50630000D03*
%TO.P,J113,7,Pin_7*%
%TO.N,/USB_RX*%
X60845000Y50630000D03*
%TO.P,J113,8,Pin_8*%
%TO.N,/USB_TX*%
X63385000Y50630000D03*
%TD*%
D13*
%TO.P,J204,1,Pin_1*%
%TO.N,/Power/v_conn*%
X22765000Y2500000D03*
D16*
%TO.P,J204,2,Pin_2*%
X20225000Y2500000D03*
%TO.P,J204,3,Pin_3*%
X17685000Y2500000D03*
%TO.P,J204,4,Pin_4*%
%TO.N,GND*%
X15145000Y2500000D03*
%TD*%
D13*
%TO.P,J112,1,Pin_1*%
%TO.N,/a0*%
X50685000Y2370000D03*
D16*
%TO.P,J112,2,Pin_2*%
%TO.N,/a1*%
X53225000Y2370000D03*
%TO.P,J112,3,Pin_3*%
%TO.N,/a2*%
X55765000Y2370000D03*
%TO.P,J112,4,Pin_4*%
%TO.N,/a3*%
X58305000Y2370000D03*
%TO.P,J112,5,Pin_5*%
%TO.N,/a4*%
X60845000Y2370000D03*
%TO.P,J112,6,Pin_6*%
%TO.N,/a5*%
X63385000Y2370000D03*
%TD*%
D11*
%TO.P,J201,1*%
%TO.N,/Power/v_conn*%
X10900000Y8700000D03*
X10900000Y7300000D03*
X10900000Y5900000D03*
D21*
X12300000Y7300000D03*
D11*
X13700000Y8700000D03*
X13700000Y7300000D03*
X13700000Y5900000D03*
%TO.P,J201,2*%
%TO.N,GND*%
X4900000Y8700000D03*
X4900000Y7300000D03*
X4900000Y5900000D03*
D22*
X6300000Y7300000D03*
D11*
X7700000Y8700000D03*
X7700000Y7300000D03*
X7700000Y5900000D03*
D23*
%TO.P,J201,MP,MountPin*%
X9400000Y2600000D03*
%TD*%
D19*
%TO.P,U102,10,OUT2*%
%TO.N,/out2a*%
X16300000Y38050000D03*
%TO.P,U102,11,VM*%
%TO.N,VM*%
X17100000Y38050000D03*
D20*
%TO.P,U102,17,GND*%
%TO.N,GND*%
X20400000Y41250000D03*
X19800000Y41250000D03*
X19200000Y41250000D03*
X18600000Y41250000D03*
X18000000Y41250000D03*
X17400000Y41250000D03*
X16800000Y41250000D03*
X16200000Y41250000D03*
X15600000Y41250000D03*
X20000000Y40550000D03*
X16000000Y40500000D03*
X20000000Y39800000D03*
X18000000Y39800000D03*
X16000000Y39750000D03*
X15570000Y39300000D03*
X20000000Y39050000D03*
X16010000Y38820000D03*
X15470000Y38640000D03*
X20400000Y38350000D03*
X19700000Y38350000D03*
X19100000Y38350000D03*
X18500000Y38350000D03*
X17900000Y38350000D03*
%TD*%
D24*
%TO.P,JP104,1,A*%
%TO.N,+3V3*%
X27100000Y7050000D03*
D25*
%TO.P,JP104,2,B*%
%TO.N,/io_ref*%
X27100000Y5750000D03*
%TD*%
D26*
%TO.P,JP103,1,A*%
%TO.N,VM*%
X44650000Y6770000D03*
D27*
%TO.P,JP103,2,B*%
%TO.N,/vin_pin*%
X45950000Y6770000D03*
%TD*%
D28*
%TO.N,GND*%
X13700000Y40500000D03*
X31200000Y5400000D03*
X27100000Y41400000D03*
X56900000Y34800000D03*
X36000000Y10000000D03*
X40020000Y44140000D03*
X45600000Y21400000D03*
X24200000Y17000000D03*
X5300000Y10000000D03*
X24700000Y18700000D03*
X60900000Y42400000D03*
X57000000Y18900000D03*
X40200000Y11300000D03*
X17700000Y16700000D03*
X32400000Y28900000D03*
X39500000Y10600000D03*
X3300000Y9000000D03*
X28700000Y18700000D03*
X40400000Y8500000D03*
X42800000Y24700000D03*
X50900000Y18400000D03*
X41100000Y8500000D03*
X56300000Y17200000D03*
X48500000Y4400000D03*
X24700000Y19900000D03*
X47600000Y31100000D03*
X56300000Y15800000D03*
X46300000Y21400000D03*
X57700000Y15800000D03*
X40600000Y21900000D03*
X65100000Y27000000D03*
X8900000Y6600000D03*
X22300000Y33500000D03*
X29700000Y29100000D03*
X32600000Y5400000D03*
X65100000Y7400000D03*
X14500000Y38100000D03*
X56200000Y18900000D03*
X65100000Y31300000D03*
X33600000Y19200000D03*
X55600000Y14000000D03*
X5600000Y4200000D03*
X18000000Y13831371D03*
X42900000Y27300000D03*
X14900000Y23700000D03*
X45450000Y47480000D03*
X57700000Y17200000D03*
X35300000Y10000000D03*
X36700000Y10000000D03*
X15400000Y34800000D03*
X15800000Y19400000D03*
X55300000Y40000000D03*
X22800000Y21700000D03*
X53200000Y36500000D03*
X31300000Y41100000D03*
X25500000Y32700000D03*
X3500000Y36350000D03*
X8700000Y5100000D03*
X45400000Y25300000D03*
X6900000Y10000000D03*
X3400000Y5900000D03*
X24800000Y26600000D03*
X3450000Y39800000D03*
X30500000Y31900000D03*
X22300000Y27200000D03*
X57100000Y8700000D03*
X58000000Y22100000D03*
X26600000Y23100000D03*
X40200000Y12000000D03*
X31900000Y5400000D03*
X29100000Y38200000D03*
X56700000Y14000000D03*
X16000000Y15500000D03*
X56400000Y25500000D03*
X3300000Y7300000D03*
X61000000Y29700000D03*
X60600000Y11500000D03*
X49500000Y40500000D03*
X57700000Y14000000D03*
X28100000Y21200000D03*
X60500000Y21000000D03*
X48500000Y13500000D03*
X40200000Y10600000D03*
X58500000Y14000000D03*
X52700000Y10600000D03*
X54200000Y32800000D03*
X7200000Y4500000D03*
X34600000Y10000000D03*
X55700000Y42300000D03*
X22300000Y32500000D03*
X31400000Y19200000D03*
X44200000Y39100000D03*
X13900000Y24900000D03*
X28700000Y7300000D03*
X8800000Y7900000D03*
X40300000Y6500000D03*
X38700000Y27300000D03*
X4100000Y4400000D03*
X10350000Y50000000D03*
X58000000Y18900000D03*
X48500000Y35800000D03*
X4000000Y10100000D03*
X3000000Y29300000D03*
X8500000Y9700000D03*
X3800000Y18900000D03*
%TO.N,VM*%
X17700000Y33200000D03*
X19900000Y15700000D03*
X15600000Y33200000D03*
X19100000Y33200000D03*
X18400000Y33200000D03*
X20600000Y15700000D03*
X20599999Y15000000D03*
X16300000Y33200000D03*
X21300000Y15700000D03*
X21299999Y15000000D03*
X19900000Y15000000D03*
X17000000Y33200000D03*
%TO.N,/out2a*%
X12600000Y35800000D03*
X14000000Y35800000D03*
X13300000Y35800000D03*
%TO.N,/out2b*%
X14800000Y21500000D03*
%TO.N,/a0*%
X61200000Y22300000D03*
%TO.N,/a1*%
X60100000Y22000000D03*
%TO.N,/sda*%
X29960000Y48430000D03*
X43100000Y39700000D03*
X12400000Y49000000D03*
X58400000Y8300000D03*
%TO.N,/scl*%
X61500000Y8600000D03*
X11400000Y49000000D03*
X44000000Y37700000D03*
X27620000Y47190000D03*
%TO.N,/d3*%
X53100000Y35000000D03*
X51500000Y27700000D03*
%TO.N,/d7*%
X51900000Y29900000D03*
X44700000Y40800000D03*
%TO.N,/d11*%
X51700000Y10000000D03*
X37100000Y40200000D03*
%TO.N,/Power/bst*%
X39700000Y8000000D03*
X36600000Y12900000D03*
%TO.N,/d12*%
X41600000Y37700000D03*
X53900000Y9900000D03*
%TO.N,/d13*%
X50200000Y10100000D03*
X31700000Y41900000D03*
%TO.N,/sen_b*%
X16000000Y30200000D03*
X48500000Y14400000D03*
X28700000Y28800000D03*
%TO.N,/fault_n_a*%
X26500000Y42300000D03*
X55900000Y8300000D03*
%TO.N,/fault_n_b*%
X62500000Y8600000D03*
X27200000Y30300000D03*
%TO.N,/en{slash}in1a*%
X45200000Y26400000D03*
X25500000Y39000000D03*
%TO.N,/en{slash}in1b*%
X27850000Y25650000D03*
X45500000Y9300000D03*
%TO.N,/ph{slash}in2b*%
X45500000Y10600000D03*
X28050000Y26650000D03*
%TO.N,/nSleepa*%
X45300000Y27300000D03*
X27100000Y38000000D03*
%TO.N,/nSleepb*%
X49700000Y21600000D03*
X40100000Y22800000D03*
%TO.N,+3V3*%
X49820000Y47430000D03*
X35800000Y32700000D03*
X31400000Y36100000D03*
X14150000Y45700000D03*
X46100000Y35500000D03*
X53400000Y40300000D03*
X30000000Y42100000D03*
X43800000Y26300000D03*
X31400000Y37000000D03*
X29900000Y36500000D03*
X64500000Y22000000D03*
X16800000Y44700000D03*
X40800000Y27500000D03*
%TO.N,/reset_n*%
X63200000Y21800000D03*
X60000000Y30800000D03*
%TO.N,VBUS*%
X57500000Y38600000D03*
X58000000Y44000000D03*
X48400000Y34200000D03*
X53400000Y42300000D03*
%TO.N,/usb_d-*%
X60700000Y41100000D03*
X58000000Y42100000D03*
%TO.N,/USB_RX*%
X55900000Y36600000D03*
X62500000Y11200000D03*
%TO.N,/USB_TX*%
X61500000Y11200000D03*
X54900000Y36500000D03*
%TO.N,/DTR*%
X48600000Y37000000D03*
X48700000Y39800000D03*
%TO.N,/brake_d*%
X46900000Y25400000D03*
X43325000Y40925000D03*
%TO.N,/brake_c*%
X39400000Y39400000D03*
X49465686Y19000000D03*
%TO.N,/IO0_boot_option*%
X53200000Y14500000D03*
X49300000Y31700000D03*
X26000000Y40000000D03*
%TO.N,/opto_anode*%
X32100000Y25400000D03*
X13800000Y44600000D03*
%TO.N,/Booster-C*%
X29600000Y27200000D03*
%TD*%
D29*
%TO.N,VM*%
X17100000Y38050000D02*
X17100000Y37000000D01*
X16300000Y36200000D02*
X17100000Y37000000D01*
X43630000Y5750000D02*
X44650000Y6770000D01*
X28537925Y15000000D02*
X37787925Y5750000D01*
X17100000Y23750000D02*
X17100000Y21400000D01*
X21299999Y15000000D02*
X28537925Y15000000D01*
X37787925Y5750000D02*
X43630000Y5750000D01*
X16300000Y33200000D02*
X16300000Y36200000D01*
%TO.N,/out2a*%
X14000000Y35700000D02*
X13900000Y35600000D01*
X15550000Y37250000D02*
X16300000Y38000000D01*
X15550000Y37250000D02*
X14200000Y35900000D01*
X14200000Y35900000D02*
X14000000Y35900000D01*
X14000000Y35900000D02*
X14000000Y35700000D01*
X16300000Y38000000D02*
X16300000Y38050000D01*
%TO.N,/out2b*%
X14800000Y21500000D02*
X14800000Y22250000D01*
X14800000Y22250000D02*
X16300000Y23750000D01*
D30*
%TO.N,/a0*%
X63500000Y10800000D02*
X63500000Y19200000D01*
X50685000Y2385000D02*
X53500000Y5200000D01*
X63250000Y6650000D02*
X63250000Y10550000D01*
X53500000Y5200000D02*
X61800000Y5200000D01*
X61800000Y5200000D02*
X63250000Y6650000D01*
X63250000Y10550000D02*
X63500000Y10800000D01*
X63500000Y19200000D02*
X61200000Y21500000D01*
X61200000Y21500000D02*
X61200000Y22300000D01*
%TO.N,/a1*%
X53225000Y2825000D02*
X54600000Y4200000D01*
X60100000Y22700000D02*
X60100000Y22000000D01*
X54600000Y4200000D02*
X62200000Y4200000D01*
X61500000Y23100000D02*
X60500000Y23100000D01*
X61500000Y23100000D02*
X62100000Y22500000D01*
X63750000Y10050000D02*
X64300000Y10600000D01*
X62200000Y4200000D02*
X63750000Y5750000D01*
X63750000Y5750000D02*
X63750000Y10050000D01*
X64300000Y10600000D02*
X64300000Y19500000D01*
X64300000Y19500000D02*
X62100000Y21700000D01*
X60500000Y23100000D02*
X60100000Y22700000D01*
X62100000Y21700000D02*
X62100000Y22500000D01*
%TO.N,/sda*%
X41420000Y46750000D02*
X39310000Y48860000D01*
X55450000Y21550000D02*
X50100000Y26900000D01*
X54200000Y14100000D02*
X54200000Y17200000D01*
X19595000Y49000000D02*
X12400000Y49000000D01*
X21225000Y50630000D02*
X19595000Y49000000D01*
X58400000Y9900000D02*
X54200000Y14100000D01*
X39310000Y48860000D02*
X30390000Y48860000D01*
X46000000Y32300000D02*
X43100000Y35200000D01*
X30390000Y48860000D02*
X29960000Y48430000D01*
X43100000Y35200000D02*
X43100000Y39700000D01*
X50100000Y31900000D02*
X49700000Y32300000D01*
X49700000Y32300000D02*
X46000000Y32300000D01*
X58400000Y8300000D02*
X58400000Y9900000D01*
X55450000Y18450000D02*
X55450000Y21550000D01*
X54200000Y17200000D02*
X55450000Y18450000D01*
X50100000Y26900000D02*
X50100000Y31900000D01*
%TO.N,/scl*%
X31905000Y48220000D02*
X30875000Y47190000D01*
X50700000Y32100000D02*
X49900000Y32900000D01*
X59300000Y11400000D02*
X59300000Y18900000D01*
X50700000Y27500000D02*
X50700000Y32100000D01*
X59300000Y18900000D02*
X50700000Y27500000D01*
X61500000Y8600000D02*
X61500000Y9200000D01*
X49900000Y32900000D02*
X46300000Y32900000D01*
X37410000Y48220000D02*
X31905000Y48220000D01*
X18685000Y50630000D02*
X13030000Y50630000D01*
X38880000Y46750000D02*
X37410000Y48220000D01*
X61500000Y9200000D02*
X59300000Y11400000D01*
X13030000Y50630000D02*
X11400000Y49000000D01*
X46300000Y32900000D02*
X44000000Y35200000D01*
X30875000Y47190000D02*
X27620000Y47190000D01*
X44000000Y35200000D02*
X44000000Y37700000D01*
%TO.N,/d3*%
X53100000Y29300000D02*
X51500000Y27700000D01*
X53100000Y35000000D02*
X53100000Y29300000D01*
%TO.N,/d7*%
X45200000Y40300000D02*
X44700000Y40800000D01*
X45200000Y35000000D02*
X45200000Y40300000D01*
X51900000Y29900000D02*
X51900000Y32300000D01*
X51900000Y32300000D02*
X50700000Y33500000D01*
X50700000Y33500000D02*
X46700000Y33500000D01*
X46700000Y33500000D02*
X45200000Y35000000D01*
%TO.N,/d11*%
X40200000Y36400000D02*
X40200000Y39700000D01*
X39700000Y40200000D02*
X37100000Y40200000D01*
X48150000Y26350000D02*
X48150000Y28450000D01*
X52600000Y18700000D02*
X52600000Y21900000D01*
X48150000Y28450000D02*
X40200000Y36400000D01*
X40200000Y39700000D02*
X39700000Y40200000D01*
X51700000Y17800000D02*
X52600000Y18700000D01*
X51700000Y10000000D02*
X51700000Y17800000D01*
X52600000Y21900000D02*
X48150000Y26350000D01*
D31*
%TO.N,/Power/bst*%
X38150000Y9550000D02*
X38150000Y11350000D01*
X38150000Y11350000D02*
X36600000Y12900000D01*
X39700000Y8000000D02*
X38150000Y9550000D01*
D30*
%TO.N,/d12*%
X41600000Y35900000D02*
X41600000Y37700000D01*
X53800000Y21500000D02*
X48650000Y26650000D01*
X52500000Y13100000D02*
X52500000Y17700000D01*
X53900000Y9900000D02*
X53900000Y11700000D01*
X52500000Y17700000D02*
X53800000Y19000000D01*
X48650000Y28850000D02*
X41600000Y35900000D01*
X48650000Y26650000D02*
X48650000Y28850000D01*
X53900000Y11700000D02*
X52500000Y13100000D01*
X53800000Y19000000D02*
X53800000Y21500000D01*
%TO.N,/d13*%
X31700000Y41900000D02*
X46150000Y27450000D01*
X50850000Y16400000D02*
X50850000Y10750000D01*
X49400000Y22800000D02*
X50300000Y21900000D01*
X48500000Y19500000D02*
X48500000Y18750000D01*
X50300000Y21900000D02*
X50300000Y21300000D01*
X48600000Y22800000D02*
X49400000Y22800000D01*
X50850000Y10750000D02*
X50200000Y10100000D01*
X46150000Y27450000D02*
X46150000Y25250000D01*
X50300000Y21300000D02*
X48500000Y19500000D01*
X48500000Y18750000D02*
X50850000Y16400000D01*
X46150000Y25250000D02*
X48600000Y22800000D01*
%TO.N,/sen_b*%
X17000000Y31200000D02*
X16000000Y30200000D01*
X28700000Y28800000D02*
X28700000Y29800000D01*
X32350000Y23350000D02*
X28700000Y27000000D01*
X28700000Y27000000D02*
X28700000Y28800000D01*
X43100000Y14400000D02*
X34150000Y23350000D01*
X48500000Y14400000D02*
X43100000Y14400000D01*
X27300000Y31200000D02*
X17000000Y31200000D01*
X34150000Y23350000D02*
X32350000Y23350000D01*
X28700000Y29800000D02*
X27300000Y31200000D01*
%TO.N,/fault_n_a*%
X34100000Y25100000D02*
X34100000Y29300000D01*
X24050000Y37650000D02*
X24050000Y39850000D01*
X48700000Y12400000D02*
X49400000Y13100000D01*
X49400000Y13100000D02*
X49400000Y15700000D01*
X42000000Y17200000D02*
X34100000Y25100000D01*
X49400000Y15700000D02*
X47900000Y17200000D01*
X24050000Y39850000D02*
X26500000Y42300000D01*
X55900000Y8300000D02*
X49600000Y8300000D01*
X30700000Y32700000D02*
X29000000Y32700000D01*
X47900000Y17200000D02*
X42000000Y17200000D01*
X29000000Y32700000D02*
X24050000Y37650000D01*
X34100000Y29300000D02*
X30700000Y32700000D01*
X49600000Y8300000D02*
X48700000Y9200000D01*
X48700000Y9200000D02*
X48700000Y12400000D01*
%TO.N,/fault_n_b*%
X37800000Y15500000D02*
X44800000Y8500000D01*
X27200000Y24500000D02*
X36200000Y15500000D01*
X47600000Y8500000D02*
X49300000Y6800000D01*
X44800000Y8500000D02*
X47600000Y8500000D01*
X36200000Y15500000D02*
X37800000Y15500000D01*
X61200000Y6800000D02*
X62500000Y8100000D01*
X49300000Y6800000D02*
X61200000Y6800000D01*
X27200000Y30300000D02*
X27200000Y24500000D01*
X62500000Y8100000D02*
X62500000Y8600000D01*
%TO.N,/en{slash}in1a*%
X25500000Y39000000D02*
X25500000Y38000000D01*
X37350000Y34250000D02*
X45200000Y26400000D01*
X25500000Y38000000D02*
X29250000Y34250000D01*
X29250000Y34250000D02*
X37350000Y34250000D01*
%TO.N,/en{slash}in1b*%
X32200000Y21300000D02*
X32900000Y21300000D01*
X27850000Y25650000D02*
X32200000Y21300000D01*
X32900000Y21300000D02*
X44900000Y9300000D01*
X44900000Y9300000D02*
X45500000Y9300000D01*
%TO.N,/ph{slash}in2b*%
X32950000Y22650000D02*
X32050000Y22650000D01*
X45000000Y10600000D02*
X32950000Y22650000D01*
X45500000Y10600000D02*
X45000000Y10600000D01*
X32050000Y22650000D02*
X28050000Y26650000D01*
%TO.N,/nSleepa*%
X29450000Y35050000D02*
X37550000Y35050000D01*
X27100000Y38000000D02*
X27100000Y37400000D01*
X27100000Y37400000D02*
X29450000Y35050000D01*
X37550000Y35050000D02*
X45300000Y27300000D01*
%TO.N,/nSleepb*%
X47800000Y21600000D02*
X49700000Y21600000D01*
X47800000Y21600000D02*
X46600000Y22800000D01*
X46600000Y22800000D02*
X40100000Y22800000D01*
D29*
%TO.N,+3V3*%
X35445000Y4755000D02*
X35445000Y2370000D01*
X36340000Y46750000D02*
X36340000Y43110000D01*
X30000000Y40400000D02*
X31400000Y39000000D01*
X30200000Y40600000D02*
X30200000Y42600000D01*
X27100000Y11500000D02*
X28700000Y11500000D01*
X4240000Y11500000D02*
X1100000Y14640000D01*
X14150000Y45700000D02*
X15000000Y45700000D01*
X29800000Y43000000D02*
X30200000Y42600000D01*
X46900000Y42800000D02*
X50680000Y46580000D01*
X30000000Y42100000D02*
X30700000Y42800000D01*
X30000000Y42100000D02*
X30000000Y40800000D01*
D32*
X46100000Y35500000D02*
X46100000Y42700000D01*
D29*
X16000000Y44700000D02*
X16800000Y44700000D01*
X28400000Y44400000D02*
X29800000Y43000000D01*
X31200000Y42800000D02*
X36650000Y42800000D01*
X1100000Y44450000D02*
X2350000Y45700000D01*
X15000000Y45700000D02*
X16000000Y44700000D01*
X18300000Y44400000D02*
X17100000Y44400000D01*
X31300000Y39500000D02*
X31150000Y39650000D01*
X18300000Y44400000D02*
X18800000Y44400000D01*
X31300000Y39500000D02*
X31300000Y36200000D01*
X31400000Y37000000D02*
X31400000Y39400000D01*
D33*
X31400000Y36100000D02*
X31400000Y37000000D01*
D29*
X30000000Y42100000D02*
X30000000Y42800000D01*
X63600000Y34200000D02*
X63600000Y24500000D01*
X27100000Y11500000D02*
X4240000Y11500000D01*
X18800000Y44400000D02*
X19600000Y44400000D01*
X62000000Y46600000D02*
X62000000Y35800000D01*
X30200000Y42600000D02*
X30400000Y42800000D01*
X31150000Y39650000D02*
X31150000Y36350000D01*
X63600000Y24500000D02*
X64500000Y23600000D01*
X59500000Y49100000D02*
X62000000Y46600000D01*
X27100000Y7050000D02*
X27100000Y11500000D01*
X30000000Y42800000D02*
X29800000Y43000000D01*
X30700000Y42800000D02*
X31200000Y42800000D01*
D32*
X53400000Y40300000D02*
X52800000Y40900000D01*
D29*
X30000000Y40800000D02*
X30000000Y40400000D01*
X53200000Y49100000D02*
X59500000Y49100000D01*
X31150000Y39650000D02*
X30200000Y40600000D01*
X17100000Y44400000D02*
X16800000Y44700000D01*
X31400000Y39400000D02*
X31300000Y39500000D01*
X49820000Y47430000D02*
X49830000Y47430000D01*
X64500000Y23600000D02*
X64500000Y22000000D01*
X49830000Y47430000D02*
X50680000Y46580000D01*
X31150000Y36350000D02*
X31400000Y36100000D01*
X46200000Y42800000D02*
X46900000Y42800000D01*
X46100000Y42700000D02*
X46200000Y42800000D01*
X62000000Y35800000D02*
X63600000Y34200000D01*
X36650000Y42800000D02*
X46200000Y42800000D01*
X2350000Y45700000D02*
X14150000Y45700000D01*
X30400000Y42800000D02*
X30700000Y42800000D01*
X31200000Y42800000D02*
X30000000Y42800000D01*
X30000000Y40800000D02*
X30200000Y40600000D01*
X42200000Y26300000D02*
X43800000Y26300000D01*
X35800000Y32700000D02*
X42200000Y26300000D01*
X31300000Y36200000D02*
X31400000Y36100000D01*
X28700000Y11500000D02*
X35445000Y4755000D01*
X1100000Y14640000D02*
X1100000Y44450000D01*
X62000000Y35800000D02*
X62000000Y35600000D01*
X19600000Y44400000D02*
X28400000Y44400000D01*
X36340000Y43110000D02*
X36650000Y42800000D01*
D32*
X52800000Y40900000D02*
X52800000Y41600000D01*
D29*
X50680000Y46580000D02*
X53200000Y49100000D01*
D30*
%TO.N,/reset_n*%
X34400000Y700000D02*
X32905000Y2195000D01*
X65000000Y10300000D02*
X65000000Y20000000D01*
X61600000Y24700000D02*
X63200000Y23100000D01*
X61300000Y30800000D02*
X60000000Y30800000D01*
X63200000Y23100000D02*
X63200000Y21800000D01*
X65000000Y4200000D02*
X65000000Y1600000D01*
X64300000Y4900000D02*
X65000000Y4200000D01*
X65000000Y20000000D02*
X63200000Y21800000D01*
X61600000Y24700000D02*
X61600000Y30500000D01*
X61600000Y30500000D02*
X61300000Y30800000D01*
X64100000Y700000D02*
X34400000Y700000D01*
X65000000Y1600000D02*
X64100000Y700000D01*
X64300000Y9600000D02*
X64300000Y4900000D01*
X65000000Y10300000D02*
X64300000Y9600000D01*
%TO.N,VBUS*%
X54600000Y38600000D02*
X54400000Y38400000D01*
D32*
X50100000Y34200000D02*
X51500000Y35600000D01*
X51500000Y35600000D02*
X51500000Y37500000D01*
D30*
X54400000Y38400000D02*
X54300000Y38300000D01*
D32*
X54500000Y43400000D02*
X53400000Y42300000D01*
X56800000Y43400000D02*
X54500000Y43400000D01*
X54400000Y41300000D02*
X53400000Y42300000D01*
X54400000Y41300000D02*
X54400000Y38400000D01*
X57500000Y38600000D02*
X54600000Y38600000D01*
X58000000Y44000000D02*
X56800000Y43400000D01*
X52300000Y38300000D02*
X54300000Y38300000D01*
X48400000Y34200000D02*
X50100000Y34200000D01*
X51500000Y37500000D02*
X52300000Y38300000D01*
D30*
%TO.N,/usb_d-*%
X60700000Y41100000D02*
X59100000Y42100000D01*
X59100000Y42100000D02*
X58000000Y42100000D01*
%TO.N,/USB_RX*%
X59300000Y23800000D02*
X60100000Y24600000D01*
X60100000Y29300000D02*
X55900000Y33500000D01*
X55900000Y33500000D02*
X55900000Y36600000D01*
X62500000Y17900000D02*
X59300000Y21100000D01*
X62500000Y11200000D02*
X62500000Y17900000D01*
X60100000Y24600000D02*
X60100000Y29300000D01*
X59300000Y21100000D02*
X59300000Y23800000D01*
%TO.N,/USB_TX*%
X54900000Y33400000D02*
X54900000Y36500000D01*
X61500000Y17900000D02*
X58700000Y20700000D01*
X58700000Y24200000D02*
X59500000Y25000000D01*
X58700000Y20700000D02*
X58700000Y24200000D01*
X59500000Y28800000D02*
X54900000Y33400000D01*
X59500000Y25000000D02*
X59500000Y28800000D01*
X61500000Y11200000D02*
X61500000Y17900000D01*
%TO.N,/DTR*%
X48600000Y39700000D02*
X48700000Y39800000D01*
X48600000Y37000000D02*
X48600000Y39700000D01*
%TO.N,/brake_d*%
X43250000Y41000000D02*
X36400000Y41000000D01*
X46900000Y27600000D02*
X46900000Y25400000D01*
X35600000Y40200000D02*
X35600000Y38900000D01*
X43325000Y40925000D02*
X43250000Y41000000D01*
X36400000Y41000000D02*
X35600000Y40200000D01*
X35600000Y38900000D02*
X46900000Y27600000D01*
%TO.N,/brake_c*%
X39400000Y39400000D02*
X39400000Y36200000D01*
X51300000Y20100000D02*
X50200000Y19000000D01*
X51300000Y22000000D02*
X51300000Y20100000D01*
X47600000Y28000000D02*
X47600000Y25700000D01*
X50200000Y19000000D02*
X49465686Y19000000D01*
X47600000Y25700000D02*
X51300000Y22000000D01*
X39400000Y36200000D02*
X47600000Y28000000D01*
%TO.N,/IO0_boot_option*%
X34700000Y29900000D02*
X31300000Y33300000D01*
X54700000Y21500000D02*
X49300000Y26900000D01*
X42600000Y18100000D02*
X34700000Y26000000D01*
X24625000Y39425000D02*
X25200000Y40000000D01*
X24625000Y37925000D02*
X24625000Y39425000D01*
X34700000Y26000000D02*
X34700000Y29900000D01*
X50100000Y16000000D02*
X48000000Y18100000D01*
X25200000Y40000000D02*
X26000000Y40000000D01*
X49400000Y9800000D02*
X49400000Y11800000D01*
X49300000Y26900000D02*
X49300000Y31700000D01*
X53200000Y13500000D02*
X54900000Y11800000D01*
X54400000Y8900000D02*
X50300000Y8900000D01*
X54900000Y11800000D02*
X54900000Y9400000D01*
X53200000Y14500000D02*
X53200000Y13500000D01*
X49400000Y11800000D02*
X50100000Y12500000D01*
X50100000Y12500000D02*
X50100000Y16000000D01*
X53200000Y14500000D02*
X53200000Y17400000D01*
X53200000Y17400000D02*
X54700000Y18900000D01*
X48000000Y18100000D02*
X42600000Y18100000D01*
X29250000Y33300000D02*
X24625000Y37925000D01*
X50300000Y8900000D02*
X49400000Y9800000D01*
X54700000Y18900000D02*
X54700000Y21500000D01*
X31300000Y33300000D02*
X29250000Y33300000D01*
X54900000Y9400000D02*
X54400000Y8900000D01*
%TO.N,/opto_anode*%
X23500000Y37400000D02*
X23500000Y41700000D01*
X32100000Y25400000D02*
X32100000Y27600000D01*
X23500000Y41700000D02*
X21600000Y43600000D01*
X14300000Y44600000D02*
X13800000Y44600000D01*
X31300000Y28400000D02*
X32100000Y27600000D01*
X15300000Y43600000D02*
X21600000Y43600000D01*
X15300000Y43600000D02*
X14300000Y44600000D01*
X23500000Y37400000D02*
X31300000Y29600000D01*
X31300000Y28400000D02*
X31300000Y29600000D01*
%TO.N,/Booster-C*%
X29600000Y27200000D02*
X30400000Y28000000D01*
X8300000Y39750000D02*
X7500000Y39750000D01*
X30400000Y29500000D02*
X23000000Y36900000D01*
X21300000Y43200000D02*
X11750000Y43200000D01*
X23000000Y41500000D02*
X21300000Y43200000D01*
X23000000Y36900000D02*
X23000000Y41500000D01*
X11750000Y43200000D02*
X8300000Y39750000D01*
X30400000Y28000000D02*
X30400000Y29500000D01*
%TO.N,/io_ref*%
X27100000Y5635000D02*
X27100000Y5750000D01*
D29*
X30365000Y2370000D02*
X27100000Y5635000D01*
D30*
%TO.N,/vin_pin*%
X46000000Y2765000D02*
X45605000Y2370000D01*
D29*
X45950000Y6770000D02*
X45950000Y2715000D01*
D30*
X45950000Y2715000D02*
X45605000Y2370000D01*
%TD*%
%TA.AperFunction,Conductor*%
%TO.N,GND*%
G36*
X16117680Y30981694D02*
G01*
X16135986Y30937500D01*
X16117680Y30893306D01*
X16115382Y30891122D01*
X16092349Y30870315D01*
X16086123Y30865372D01*
X16075102Y30857712D01*
X16063717Y30851444D01*
X16010232Y30828890D01*
X16002107Y30826105D01*
X15969953Y30817497D01*
X15965747Y30816329D01*
X15964253Y30815913D01*
X15963918Y30815817D01*
X15958091Y30814073D01*
X15873362Y30787800D01*
X15871028Y30787126D01*
X15768218Y30759578D01*
X15768216Y30759578D01*
X15671964Y30704007D01*
X15631284Y30680520D01*
X15631283Y30680519D01*
X15631279Y30680516D01*
X15519484Y30568721D01*
X15519481Y30568717D01*
X15519480Y30568716D01*
X15495993Y30528036D01*
X15440422Y30431784D01*
X15440421Y30431781D01*
X15399501Y30279064D01*
X15399500Y30279056D01*
X15399500Y30120945D01*
X15399501Y30120937D01*
X15440421Y29968220D01*
X15440422Y29968217D01*
X15440423Y29968216D01*
X15519480Y29831284D01*
X15631284Y29719480D01*
X15744549Y29654087D01*
X15768216Y29640423D01*
X15768219Y29640422D01*
X15861681Y29615379D01*
X15920943Y29599500D01*
X15920944Y29599500D01*
X16079056Y29599500D01*
X16079057Y29599500D01*
X16231784Y29640423D01*
X16368716Y29719480D01*
X16480520Y29831284D01*
X16559577Y29968216D01*
X16587165Y30071177D01*
X16587795Y30073358D01*
X16614067Y30158085D01*
X16615423Y30162582D01*
X16615528Y30162940D01*
X16616908Y30167794D01*
X16631244Y30219845D01*
X16633450Y30226407D01*
X16641607Y30246841D01*
X16646601Y30256708D01*
X16659425Y30277294D01*
X16665562Y30285545D01*
X16712949Y30339374D01*
X16712950Y30339375D01*
X16719834Y30350825D01*
X16729197Y30362806D01*
X17147586Y30781194D01*
X17191780Y30799500D01*
X25874612Y30799500D01*
X25918806Y30781194D01*
X26646403Y30053597D01*
X26656336Y30040653D01*
X26693682Y29975968D01*
X26694851Y29973847D01*
X26736153Y29895421D01*
X26738483Y29891081D01*
X26738662Y29890754D01*
X26741013Y29886540D01*
X26754717Y29862418D01*
X26767663Y29839629D01*
X26770751Y29833413D01*
X26779434Y29813188D01*
X26782881Y29802677D01*
X26788365Y29779075D01*
X26789861Y29768903D01*
X26794420Y29697309D01*
X26794421Y29697306D01*
X26797648Y29684346D01*
X26799500Y29669244D01*
X26799500Y24447275D01*
X26799501Y24447267D01*
X26826791Y24345416D01*
X26826795Y24345407D01*
X26879517Y24254091D01*
X26879524Y24254082D01*
X32881694Y18251913D01*
X32900000Y18207719D01*
X32900000Y17525888D01*
X32881694Y17481694D01*
X31718306Y16318306D01*
X31674112Y16300000D01*
X23525888Y16300000D01*
X23481694Y16318306D01*
X17718806Y22081194D01*
X17700500Y22125388D01*
X17700500Y23829056D01*
X17700498Y23829064D01*
X17659578Y23981781D01*
X17659577Y23981784D01*
X17580520Y24118716D01*
X17468716Y24230520D01*
X17331786Y24309576D01*
X17331783Y24309578D01*
X17331780Y24309579D01*
X17179063Y24350499D01*
X17179058Y24350500D01*
X17179057Y24350500D01*
X17020943Y24350500D01*
X17020942Y24350500D01*
X17020936Y24350499D01*
X16868219Y24309579D01*
X16868213Y24309576D01*
X16731247Y24230500D01*
X16683821Y24224257D01*
X16668748Y24230500D01*
X16668717Y24230518D01*
X16668716Y24230519D01*
X16531784Y24309576D01*
X16531783Y24309577D01*
X16531782Y24309577D01*
X16379062Y24350500D01*
X16379057Y24350500D01*
X16220942Y24350500D01*
X16220936Y24350500D01*
X16068217Y24309577D01*
X16068215Y24309577D01*
X15931282Y24230518D01*
X15931278Y24230515D01*
X14700764Y23000000D01*
X14500000Y23000000D01*
X13925888Y23000000D01*
X13881694Y23018306D01*
X13618306Y23281694D01*
X13600000Y23325888D01*
X13600000Y29174112D01*
X13618306Y29218306D01*
X15381694Y30981694D01*
X15425888Y31000000D01*
X16073486Y31000000D01*
X16117680Y30981694D01*
G37*
%TD.AperFunction*%
%TD*%
%TA.AperFunction,Conductor*%
%TO.N,VM*%
G36*
X15320684Y34199500D02*
G01*
X15320943Y34199500D01*
X15479316Y34199500D01*
X15486953Y34200000D01*
X17027286Y34200000D01*
X17038768Y34198937D01*
X17062500Y34194500D01*
X19079612Y34194500D01*
X19123806Y34176194D01*
X19676194Y33623806D01*
X19694500Y33579612D01*
X19694500Y32325909D01*
X19694582Y32318826D01*
X19717753Y32208983D01*
X19728492Y32183056D01*
X19728491Y32135221D01*
X19714943Y32114945D01*
X19218806Y31618806D01*
X19174612Y31600500D01*
X17056568Y31600500D01*
X17056552Y31600501D01*
X17052727Y31600501D01*
X16947273Y31600501D01*
X16947267Y31600501D01*
X16845415Y31573208D01*
X16845413Y31573208D01*
X16754085Y31520479D01*
X16754082Y31520476D01*
X16679520Y31445913D01*
X16679518Y31445911D01*
X16425665Y31192059D01*
X16381471Y31173753D01*
X16337277Y31192059D01*
X16330738Y31199751D01*
X16328656Y31202644D01*
X16328654Y31202647D01*
X16234588Y31263941D01*
X16190458Y31282221D01*
X16183843Y31284871D01*
X16073488Y31305500D01*
X16073486Y31305500D01*
X15425888Y31305500D01*
X15420241Y31305435D01*
X15418825Y31305418D01*
X15308982Y31282247D01*
X15264727Y31263917D01*
X15258297Y31261166D01*
X15165671Y31197714D01*
X13402318Y29434361D01*
X13397351Y29429279D01*
X13336059Y29335215D01*
X13317779Y29291085D01*
X13315129Y29284470D01*
X13294500Y29174115D01*
X13294500Y23325909D01*
X13294582Y23318826D01*
X13317753Y23208983D01*
X13336083Y23164728D01*
X13338834Y23158298D01*
X13402286Y23065672D01*
X13481694Y22986264D01*
X13500000Y22942070D01*
X13500000Y22600000D01*
X14181194Y21918806D01*
X14199500Y21874612D01*
X14199500Y21420945D01*
X14199501Y21420937D01*
X14240421Y21268220D01*
X14240422Y21268217D01*
X14240423Y21268216D01*
X14319480Y21131284D01*
X14431284Y21019480D01*
X14568216Y20940423D01*
X14568219Y20940422D01*
X14661681Y20915379D01*
X14720943Y20899500D01*
X14720944Y20899500D01*
X14879056Y20899500D01*
X14879057Y20899500D01*
X15031784Y20940423D01*
X15168716Y21019480D01*
X15280520Y21131284D01*
X15359577Y21268216D01*
X15400500Y21420943D01*
X15400500Y21737500D01*
X15418806Y21781694D01*
X15463000Y21800000D01*
X17542070Y21800000D01*
X17586264Y21781694D01*
X22081694Y17286264D01*
X22100000Y17242070D01*
X22100000Y14825888D01*
X22081694Y14781694D01*
X21518306Y14218306D01*
X21474112Y14200000D01*
X19825888Y14200000D01*
X19781694Y14218306D01*
X17943601Y16056399D01*
X17925295Y16100593D01*
X17943601Y16144787D01*
X17956537Y16154715D01*
X18068716Y16219480D01*
X18180520Y16331284D01*
X18259577Y16468216D01*
X18300500Y16620943D01*
X18300500Y16779057D01*
X18284621Y16838319D01*
X18259578Y16931781D01*
X18259577Y16931784D01*
X18180520Y17068716D01*
X18068716Y17180520D01*
X17962107Y17242070D01*
X17931783Y17259578D01*
X17931780Y17259579D01*
X17779063Y17300499D01*
X17779058Y17300500D01*
X17779057Y17300500D01*
X17620943Y17300500D01*
X17620942Y17300500D01*
X17620936Y17300499D01*
X17468219Y17259579D01*
X17468216Y17259578D01*
X17371964Y17204007D01*
X17331284Y17180520D01*
X17331283Y17180519D01*
X17331279Y17180516D01*
X17219484Y17068721D01*
X17219481Y17068717D01*
X17140115Y16931250D01*
X17102164Y16902130D01*
X17085988Y16900000D01*
X14425888Y16900000D01*
X14381694Y16918306D01*
X11820944Y19479056D01*
X15199500Y19479056D01*
X15199500Y19320945D01*
X15199501Y19320937D01*
X15240421Y19168220D01*
X15240422Y19168217D01*
X15240423Y19168216D01*
X15319480Y19031284D01*
X15431284Y18919480D01*
X15568216Y18840423D01*
X15568219Y18840422D01*
X15661681Y18815379D01*
X15720943Y18799500D01*
X15720944Y18799500D01*
X15879056Y18799500D01*
X15879057Y18799500D01*
X16031784Y18840423D01*
X16168716Y18919480D01*
X16280520Y19031284D01*
X16359577Y19168216D01*
X16400500Y19320943D01*
X16400500Y19479057D01*
X16359577Y19631784D01*
X16280520Y19768716D01*
X16168716Y19880520D01*
X16072464Y19936091D01*
X16031783Y19959578D01*
X16031780Y19959579D01*
X15879063Y20000499D01*
X15879058Y20000500D01*
X15879057Y20000500D01*
X15720943Y20000500D01*
X15720942Y20000500D01*
X15720936Y20000499D01*
X15568219Y19959579D01*
X15568216Y19959578D01*
X15471964Y19904007D01*
X15431284Y19880520D01*
X15431283Y19880519D01*
X15431279Y19880516D01*
X15319484Y19768721D01*
X15319481Y19768717D01*
X15240422Y19631784D01*
X15240421Y19631781D01*
X15199501Y19479064D01*
X15199500Y19479056D01*
X11820944Y19479056D01*
X10318306Y20981694D01*
X10300000Y21025888D01*
X10300000Y32974113D01*
X10318305Y33018306D01*
X11333155Y34033156D01*
X11343718Y34041638D01*
X11576689Y34190200D01*
X11610290Y34200000D01*
X15313047Y34200000D01*
X15320684Y34199500D01*
G37*
%TD.AperFunction*%
%TD*%
%TA.AperFunction,Conductor*%
%TO.N,/Power/v_conn*%
G36*
X11873402Y8526598D02*
G01*
X15500000Y4900000D01*
X21674112Y4900000D01*
X21718306Y4881694D01*
X23381694Y3218306D01*
X23400000Y3174112D01*
X23400000Y1925888D01*
X23381694Y1881694D01*
X23318306Y1818306D01*
X23274112Y1800000D01*
X17625888Y1800000D01*
X17581694Y1818306D01*
X16000000Y3400000D01*
X15832873Y3400000D01*
X15796137Y3411936D01*
X15732270Y3458338D01*
X15575123Y3538408D01*
X15575121Y3538409D01*
X15407387Y3592909D01*
X15407384Y3592910D01*
X15407378Y3592911D01*
X15233198Y3620499D01*
X15233186Y3620500D01*
X15233185Y3620500D01*
X15056815Y3620500D01*
X15056813Y3620500D01*
X15056801Y3620499D01*
X14882621Y3592911D01*
X14882612Y3592909D01*
X14714878Y3538409D01*
X14714870Y3538405D01*
X14562841Y3460943D01*
X14557730Y3458338D01*
X14493862Y3411936D01*
X14457127Y3400000D01*
X13725201Y3400000D01*
X13681848Y3417480D01*
X11027687Y5973339D01*
X11008551Y6017180D01*
X11011304Y6036739D01*
X11769472Y8500784D01*
X11799965Y8537641D01*
X11847588Y8542140D01*
X11873402Y8526598D01*
G37*
%TD.AperFunction*%
%TD*%
%TA.AperFunction,Conductor*%
%TO.N,/out2a*%
G36*
X15043039Y37080315D02*
G01*
X15088794Y37027511D01*
X15100000Y36976000D01*
X15100000Y36151362D01*
X15080315Y36084323D01*
X15063681Y36063681D01*
X14034900Y35034901D01*
X13973577Y35001416D01*
X13950662Y34998630D01*
X12200002Y34950001D01*
X5299999Y30550000D01*
X5299999Y30549999D01*
X5349999Y28050001D01*
X5350000Y28050000D01*
X6450000Y26900000D01*
X7531163Y26854952D01*
X7597324Y26832493D01*
X7640841Y26777830D01*
X7650000Y26731059D01*
X7650000Y25176456D01*
X7630315Y25109417D01*
X7577511Y25063662D01*
X7523569Y25052480D01*
X5154798Y25098926D01*
X5088157Y25119921D01*
X5063909Y25141247D01*
X3730680Y26664938D01*
X3701349Y26728353D01*
X3700000Y26746593D01*
X3700000Y29500021D01*
X3651664Y31578438D01*
X3669784Y31645917D01*
X3711136Y31687229D01*
X12570291Y37081909D01*
X12634783Y37100000D01*
X14976000Y37100000D01*
X15043039Y37080315D01*
G37*
%TD.AperFunction*%
%TD*%
%TA.AperFunction,Conductor*%
%TO.N,+3V3*%
G36*
X65381194Y49381694D02*
G01*
X65399500Y49337500D01*
X65399500Y31973577D01*
X65381194Y31929383D01*
X65337000Y31911077D01*
X65313084Y31915834D01*
X65289742Y31925502D01*
X65164070Y31950500D01*
X65164069Y31950500D01*
X65035931Y31950500D01*
X65035929Y31950500D01*
X64910257Y31925502D01*
X64791872Y31876465D01*
X64791870Y31876464D01*
X64685331Y31805277D01*
X64594723Y31714669D01*
X64523536Y31608130D01*
X64523535Y31608128D01*
X64474498Y31489743D01*
X64449500Y31364071D01*
X64449500Y31235930D01*
X64474498Y31110258D01*
X64523535Y30991873D01*
X64523536Y30991871D01*
X64594723Y30885332D01*
X64594724Y30885331D01*
X64685331Y30794724D01*
X64791873Y30723535D01*
X64910256Y30674499D01*
X65035931Y30649500D01*
X65164069Y30649500D01*
X65289744Y30674499D01*
X65313084Y30684168D01*
X65360916Y30684168D01*
X65394742Y30650345D01*
X65399500Y30626425D01*
X65399500Y27673577D01*
X65381194Y27629383D01*
X65337000Y27611077D01*
X65313084Y27615834D01*
X65289742Y27625502D01*
X65164070Y27650500D01*
X65164069Y27650500D01*
X65035931Y27650500D01*
X65035929Y27650500D01*
X64910257Y27625502D01*
X64791872Y27576465D01*
X64791870Y27576464D01*
X64685331Y27505277D01*
X64594723Y27414669D01*
X64523536Y27308130D01*
X64523535Y27308128D01*
X64474498Y27189743D01*
X64449500Y27064071D01*
X64449500Y26935930D01*
X64474498Y26810258D01*
X64523535Y26691873D01*
X64523536Y26691871D01*
X64569197Y26623535D01*
X64594724Y26585331D01*
X64685331Y26494724D01*
X64791873Y26423535D01*
X64910256Y26374499D01*
X65035931Y26349500D01*
X65164069Y26349500D01*
X65289744Y26374499D01*
X65313084Y26384168D01*
X65360916Y26384168D01*
X65394742Y26350345D01*
X65399500Y26326425D01*
X65399500Y23262500D01*
X65381194Y23218306D01*
X65337000Y23200000D01*
X63687554Y23200000D01*
X63672480Y23206244D01*
X63656303Y23208374D01*
X63651161Y23215075D01*
X63643360Y23218306D01*
X63627184Y23246322D01*
X63619799Y23273886D01*
X63619799Y23273887D01*
X63560490Y23376614D01*
X62068806Y24868298D01*
X62050500Y24912492D01*
X62050500Y30559308D01*
X62050499Y30559314D01*
X62021929Y30665936D01*
X62021928Y30665940D01*
X62019799Y30673886D01*
X62019799Y30673887D01*
X62019446Y30674498D01*
X61960491Y30776611D01*
X61960484Y30776620D01*
X61576619Y31160485D01*
X61576610Y31160492D01*
X61473892Y31219797D01*
X61473888Y31219799D01*
X61467400Y31221538D01*
X61449673Y31226287D01*
X61431600Y31231130D01*
X61359313Y31250500D01*
X61359309Y31250500D01*
X60631194Y31250500D01*
X60624724Y31250836D01*
X60621226Y31251201D01*
X60601147Y31255607D01*
X60557697Y31257813D01*
X60556030Y31257986D01*
X60536356Y31268643D01*
X60516122Y31278253D01*
X60515466Y31279958D01*
X60513968Y31280769D01*
X60509938Y31294324D01*
X60500000Y31320150D01*
X60500000Y36327432D01*
X60518306Y36371626D01*
X60538577Y36385172D01*
X60637863Y36426297D01*
X60777162Y36519374D01*
X60895626Y36637838D01*
X60988703Y36777137D01*
X61052816Y36931918D01*
X61085500Y37096233D01*
X61085500Y37263767D01*
X61085500Y37263768D01*
X62614500Y37263768D01*
X62614500Y37096233D01*
X62647183Y36931920D01*
X62711295Y36777140D01*
X62711296Y36777138D01*
X62711297Y36777137D01*
X62804374Y36637838D01*
X62922838Y36519374D01*
X63062137Y36426297D01*
X63062138Y36426297D01*
X63062139Y36426296D01*
X63100863Y36410256D01*
X63216918Y36362184D01*
X63381233Y36329500D01*
X64348767Y36329500D01*
X64513082Y36362184D01*
X64667863Y36426297D01*
X64807162Y36519374D01*
X64925626Y36637838D01*
X65018703Y36777137D01*
X65082816Y36931918D01*
X65115500Y37096233D01*
X65115500Y37263767D01*
X65082816Y37428082D01*
X65027411Y37561841D01*
X65018704Y37582861D01*
X65018703Y37582862D01*
X65018703Y37582863D01*
X64925626Y37722162D01*
X64807162Y37840626D01*
X64667863Y37933703D01*
X64667862Y37933704D01*
X64667860Y37933705D01*
X64513080Y37997817D01*
X64348767Y38030500D01*
X63381233Y38030500D01*
X63216919Y37997817D01*
X63062139Y37933705D01*
X63062135Y37933702D01*
X62922838Y37840627D01*
X62804373Y37722162D01*
X62711298Y37582865D01*
X62711295Y37582861D01*
X62647183Y37428081D01*
X62614500Y37263768D01*
X61085500Y37263768D01*
X61052816Y37428082D01*
X60997411Y37561841D01*
X60988704Y37582861D01*
X60988703Y37582862D01*
X60988703Y37582863D01*
X60895626Y37722162D01*
X60777162Y37840626D01*
X60637863Y37933703D01*
X60637862Y37933704D01*
X60637860Y37933705D01*
X60538582Y37974828D01*
X60504757Y38008653D01*
X60500000Y38032570D01*
X60500000Y38170085D01*
X60518306Y38214279D01*
X60597497Y38293471D01*
X60597502Y38293476D01*
X60665369Y38411025D01*
X60700500Y38542133D01*
X60700500Y38677867D01*
X60700499Y38677873D01*
X60678575Y38759692D01*
X60665369Y38808975D01*
X60597502Y38926524D01*
X60597500Y38926526D01*
X60597497Y38926530D01*
X60518306Y39005721D01*
X60500000Y39049915D01*
X60500000Y40400383D01*
X60518306Y40444577D01*
X60562500Y40462883D01*
X60574685Y40461683D01*
X60635931Y40449500D01*
X60635932Y40449500D01*
X60764069Y40449500D01*
X60889744Y40474499D01*
X61008127Y40523535D01*
X61114669Y40594724D01*
X61205276Y40685331D01*
X61276465Y40791873D01*
X61325501Y40910256D01*
X61350500Y41035931D01*
X61350500Y41164069D01*
X61325501Y41289744D01*
X61276465Y41408127D01*
X61205276Y41514669D01*
X61114669Y41605276D01*
X61114668Y41605277D01*
X61039248Y41655671D01*
X61012672Y41695445D01*
X61022004Y41742361D01*
X61061776Y41768936D01*
X61089744Y41774499D01*
X61208127Y41823535D01*
X61314669Y41894724D01*
X61405276Y41985331D01*
X61476465Y42091873D01*
X61525501Y42210256D01*
X61550500Y42335931D01*
X61550500Y42464069D01*
X61525501Y42589744D01*
X61476465Y42708127D01*
X61405276Y42814669D01*
X61314669Y42905276D01*
X61314668Y42905277D01*
X61208129Y42976464D01*
X61208127Y42976465D01*
X61089742Y43025502D01*
X60964070Y43050500D01*
X60964069Y43050500D01*
X60835931Y43050500D01*
X60835929Y43050500D01*
X60710257Y43025502D01*
X60591872Y42976465D01*
X60591870Y42976464D01*
X60485331Y42905277D01*
X60394723Y42814669D01*
X60323536Y42708130D01*
X60323535Y42708128D01*
X60274498Y42589743D01*
X60249500Y42464071D01*
X60249500Y42335930D01*
X60274498Y42210258D01*
X60323535Y42091873D01*
X60323536Y42091871D01*
X60394723Y41985332D01*
X60442093Y41937962D01*
X60460399Y41893768D01*
X60442093Y41849574D01*
X60397899Y41831268D01*
X60364774Y41840768D01*
X59388304Y42451062D01*
X59382266Y42454836D01*
X59376613Y42460489D01*
X59332107Y42486185D01*
X59331187Y42486760D01*
X59288474Y42513456D01*
X59288471Y42513457D01*
X59287619Y42513718D01*
X59280815Y42515799D01*
X59273886Y42519799D01*
X59224227Y42533106D01*
X59223184Y42533425D01*
X59223170Y42533429D01*
X59217923Y42535033D01*
X59214982Y42535933D01*
X59186885Y42553806D01*
X59059196Y42695176D01*
X58413687Y43409847D01*
X58397650Y43454911D01*
X58415874Y43495930D01*
X58505276Y43585331D01*
X58576465Y43691873D01*
X58625501Y43810256D01*
X58650500Y43935931D01*
X58650500Y44064069D01*
X58625501Y44189744D01*
X58576465Y44308127D01*
X58505276Y44414669D01*
X58414669Y44505276D01*
X58412532Y44506704D01*
X58308129Y44576464D01*
X58308127Y44576465D01*
X58189742Y44625502D01*
X58064070Y44650500D01*
X58064069Y44650500D01*
X57935931Y44650500D01*
X57935929Y44650500D01*
X57810257Y44625502D01*
X57691872Y44576465D01*
X57691870Y44576464D01*
X57585331Y44505277D01*
X57585329Y44505275D01*
X57494726Y44414673D01*
X57494722Y44414668D01*
X57490013Y44407621D01*
X57484197Y44400199D01*
X57459494Y44373154D01*
X57453140Y44367110D01*
X57430739Y44348614D01*
X57422218Y44342696D01*
X57399805Y44329744D01*
X57292651Y44267828D01*
X57289527Y44266140D01*
X57228721Y44235473D01*
X57209858Y44225233D01*
X57209845Y44225225D01*
X57200767Y44217689D01*
X57188801Y44209879D01*
X56683241Y43957098D01*
X56655290Y43950500D01*
X54427520Y43950500D01*
X54376545Y43936840D01*
X54366350Y43934108D01*
X54287518Y43912986D01*
X54287515Y43912985D01*
X54220858Y43874500D01*
X54161985Y43840510D01*
X54161984Y43840509D01*
X54161980Y43840506D01*
X53454735Y43133262D01*
X53444909Y43125254D01*
X53428831Y43114670D01*
X53428816Y43114657D01*
X53263252Y42961179D01*
X53254988Y42954718D01*
X53238834Y42944146D01*
X53238830Y42944143D01*
X53224582Y42934820D01*
X53216489Y42930342D01*
X53168460Y42908240D01*
X53166251Y42907275D01*
X53091872Y42876465D01*
X53091871Y42876464D01*
X52985331Y42805277D01*
X52894723Y42714669D01*
X52823536Y42608130D01*
X52823535Y42608128D01*
X52774498Y42489743D01*
X52749500Y42364071D01*
X52749500Y42235930D01*
X52774498Y42110258D01*
X52823535Y41991873D01*
X52823536Y41991871D01*
X52894723Y41885332D01*
X52985331Y41794724D01*
X53091871Y41723536D01*
X53091872Y41723536D01*
X53091873Y41723535D01*
X53129072Y41708127D01*
X53168675Y41691723D01*
X53170696Y41690844D01*
X53214501Y41670859D01*
X53222137Y41666711D01*
X53250798Y41648450D01*
X53258846Y41642353D01*
X53296059Y41609110D01*
X53316822Y41566016D01*
X53301031Y41520862D01*
X53257937Y41500099D01*
X53254421Y41500000D01*
X43649096Y41500000D01*
X43625180Y41504757D01*
X43514744Y41550501D01*
X43514741Y41550502D01*
X43514738Y41550503D01*
X43389070Y41575500D01*
X43389069Y41575500D01*
X43260931Y41575500D01*
X43213253Y41566016D01*
X43135255Y41550501D01*
X43125637Y41546517D01*
X43109720Y41539924D01*
X43107064Y41538824D01*
X43102942Y41537284D01*
X43000916Y41503217D01*
X42981121Y41500000D01*
X41800000Y41500000D01*
X41788102Y41480476D01*
X41749475Y41452264D01*
X41734732Y41450500D01*
X36340686Y41450500D01*
X36268411Y41431133D01*
X36253955Y41427259D01*
X36233572Y41421798D01*
X36226112Y41419799D01*
X36123384Y41360489D01*
X36123380Y41360486D01*
X35239515Y40476620D01*
X35239508Y40476611D01*
X35180203Y40373893D01*
X35180202Y40373892D01*
X35180201Y40373887D01*
X35176611Y40360489D01*
X35176611Y40360488D01*
X35149500Y40259314D01*
X35149500Y39238491D01*
X35131194Y39194297D01*
X35087000Y39175991D01*
X35042806Y39194297D01*
X32464873Y41772230D01*
X32460896Y41776601D01*
X32458476Y41779528D01*
X32447239Y41797086D01*
X32408627Y41839827D01*
X32407755Y41840882D01*
X32407662Y41841183D01*
X32404609Y41845029D01*
X32401751Y41849140D01*
X32395479Y41860531D01*
X32385021Y41885331D01*
X32376291Y41906034D01*
X32373511Y41914143D01*
X32365801Y41942951D01*
X32363947Y41949617D01*
X32363843Y41949980D01*
X32363820Y41950057D01*
X32361814Y41956759D01*
X32335272Y42042354D01*
X32333674Y42048653D01*
X32325501Y42089744D01*
X32276465Y42208127D01*
X32205276Y42314669D01*
X32114669Y42405276D01*
X32114668Y42405277D01*
X32008129Y42476464D01*
X32008127Y42476465D01*
X31889742Y42525502D01*
X31764070Y42550500D01*
X31764069Y42550500D01*
X31635931Y42550500D01*
X31635929Y42550500D01*
X31510257Y42525502D01*
X31391872Y42476465D01*
X31391870Y42476464D01*
X31285331Y42405277D01*
X31194723Y42314669D01*
X31123536Y42208130D01*
X31123535Y42208128D01*
X31074498Y42089743D01*
X31049500Y41964071D01*
X31049500Y41835931D01*
X31064412Y41760964D01*
X31055080Y41714048D01*
X31027032Y41691029D01*
X30991872Y41676465D01*
X30991871Y41676464D01*
X30885331Y41605277D01*
X30794723Y41514669D01*
X30723536Y41408130D01*
X30723535Y41408128D01*
X30674498Y41289743D01*
X30649500Y41164071D01*
X30649500Y41035930D01*
X30674498Y40910258D01*
X30723535Y40791873D01*
X30723536Y40791871D01*
X30791775Y40689744D01*
X30794724Y40685331D01*
X30885331Y40594724D01*
X30991873Y40523535D01*
X31110256Y40474499D01*
X31235931Y40449500D01*
X31364069Y40449500D01*
X31489744Y40474499D01*
X31608127Y40523535D01*
X31714669Y40594724D01*
X31805276Y40685331D01*
X31876465Y40791873D01*
X31925501Y40910256D01*
X31925501Y40910257D01*
X31926676Y40913093D01*
X31928404Y40912377D01*
X31955151Y40944988D01*
X32002754Y40949693D01*
X32028825Y40934072D01*
X37355703Y35607194D01*
X37374009Y35563000D01*
X37355703Y35518806D01*
X37311509Y35500500D01*
X29662491Y35500500D01*
X29618297Y35518806D01*
X27625782Y37511321D01*
X27619976Y37525337D01*
X27610280Y37537004D01*
X27611166Y37546607D01*
X27607476Y37555515D01*
X27614676Y37584637D01*
X27649857Y37651442D01*
X27653187Y37657038D01*
X27676465Y37691873D01*
X27725501Y37810256D01*
X27750500Y37935931D01*
X27750500Y38064069D01*
X27725501Y38189744D01*
X27694714Y38264071D01*
X28449500Y38264071D01*
X28449500Y38135930D01*
X28474498Y38010258D01*
X28523535Y37891873D01*
X28523536Y37891871D01*
X28593598Y37787016D01*
X28594724Y37785331D01*
X28685331Y37694724D01*
X28791873Y37623535D01*
X28910256Y37574499D01*
X29035931Y37549500D01*
X29164069Y37549500D01*
X29289744Y37574499D01*
X29408127Y37623535D01*
X29514669Y37694724D01*
X29605276Y37785331D01*
X29676465Y37891873D01*
X29725501Y38010256D01*
X29750500Y38135931D01*
X29750500Y38264069D01*
X29725501Y38389744D01*
X29676465Y38508127D01*
X29605276Y38614669D01*
X29514669Y38705276D01*
X29461938Y38740510D01*
X29408129Y38776464D01*
X29408127Y38776465D01*
X29289742Y38825502D01*
X29164070Y38850500D01*
X29164069Y38850500D01*
X29035931Y38850500D01*
X29035929Y38850500D01*
X28910257Y38825502D01*
X28791872Y38776465D01*
X28791870Y38776464D01*
X28685331Y38705277D01*
X28594723Y38614669D01*
X28523536Y38508130D01*
X28523535Y38508128D01*
X28474498Y38389743D01*
X28449500Y38264071D01*
X27694714Y38264071D01*
X27676465Y38308127D01*
X27605276Y38414669D01*
X27514669Y38505276D01*
X27514668Y38505277D01*
X27408129Y38576464D01*
X27408127Y38576465D01*
X27289742Y38625502D01*
X27164070Y38650500D01*
X27164069Y38650500D01*
X27035931Y38650500D01*
X27035929Y38650500D01*
X26910257Y38625502D01*
X26791872Y38576465D01*
X26791870Y38576464D01*
X26685331Y38505277D01*
X26594723Y38414669D01*
X26523536Y38308130D01*
X26523535Y38308128D01*
X26474498Y38189743D01*
X26449500Y38064071D01*
X26449500Y37935930D01*
X26470965Y37828018D01*
X26461633Y37781102D01*
X26421859Y37754526D01*
X26374943Y37763858D01*
X26365472Y37771631D01*
X26286604Y37850499D01*
X26018306Y38118798D01*
X26000000Y38162992D01*
X26000000Y38541352D01*
X26007205Y38570484D01*
X26007350Y38570760D01*
X26008110Y38572168D01*
X26049862Y38651454D01*
X26053187Y38657038D01*
X26076465Y38691873D01*
X26125501Y38810256D01*
X26150500Y38935931D01*
X26150500Y39064069D01*
X26125501Y39189744D01*
X26088831Y39278271D01*
X26088831Y39326106D01*
X26122656Y39359930D01*
X26134374Y39363486D01*
X26189744Y39374499D01*
X26308127Y39423535D01*
X26414669Y39494724D01*
X26505276Y39585331D01*
X26576465Y39691873D01*
X26625501Y39810256D01*
X26650500Y39935931D01*
X26650500Y40064069D01*
X26625501Y40189744D01*
X26576465Y40308127D01*
X26505276Y40414669D01*
X26414669Y40505276D01*
X26414668Y40505277D01*
X26308129Y40576464D01*
X26308127Y40576465D01*
X26189742Y40625502D01*
X26064070Y40650500D01*
X26064069Y40650500D01*
X26062500Y40650500D01*
X26062010Y40650703D01*
X26061013Y40650801D01*
X26061042Y40651104D01*
X26018306Y40668806D01*
X26000000Y40713000D01*
X26000000Y41137010D01*
X26018306Y41181204D01*
X26342806Y41505704D01*
X26387000Y41524010D01*
X26431194Y41505704D01*
X26449500Y41461510D01*
X26449500Y41335930D01*
X26474498Y41210258D01*
X26523535Y41091873D01*
X26523536Y41091871D01*
X26594723Y40985332D01*
X26594724Y40985331D01*
X26685331Y40894724D01*
X26791873Y40823535D01*
X26910256Y40774499D01*
X27035931Y40749500D01*
X27164069Y40749500D01*
X27289744Y40774499D01*
X27408127Y40823535D01*
X27514669Y40894724D01*
X27605276Y40985331D01*
X27676465Y41091873D01*
X27725501Y41210256D01*
X27750500Y41335931D01*
X27750500Y41464069D01*
X27725501Y41589744D01*
X27676465Y41708127D01*
X27605276Y41814669D01*
X27514669Y41905276D01*
X27514668Y41905277D01*
X27408129Y41976464D01*
X27408127Y41976465D01*
X27289742Y42025502D01*
X27176834Y42047961D01*
X27137060Y42074537D01*
X27127728Y42121453D01*
X27127728Y42121454D01*
X27140463Y42185472D01*
X27150500Y42235931D01*
X27150500Y42364069D01*
X27125501Y42489744D01*
X27076465Y42608127D01*
X27005276Y42714669D01*
X26914669Y42805276D01*
X26914668Y42805277D01*
X26808129Y42876464D01*
X26808127Y42876465D01*
X26689742Y42925502D01*
X26564070Y42950500D01*
X26564069Y42950500D01*
X26435931Y42950500D01*
X26435929Y42950500D01*
X26310257Y42925502D01*
X26191872Y42876465D01*
X26191870Y42876464D01*
X26085331Y42805277D01*
X25994725Y42714671D01*
X25994722Y42714667D01*
X25993212Y42712407D01*
X25953434Y42685837D01*
X25906519Y42695176D01*
X25897056Y42702944D01*
X24306694Y44293306D01*
X24288388Y44337500D01*
X24306694Y44381694D01*
X24350888Y44400000D01*
X32441331Y44400000D01*
X32485525Y44381694D01*
X32489019Y44377899D01*
X33402166Y43300001D01*
X33402168Y43300000D01*
X41100000Y43300000D01*
X41729534Y45558920D01*
X41759032Y45596575D01*
X41770423Y45601579D01*
X41880832Y45637453D01*
X42049199Y45723240D01*
X42202073Y45834310D01*
X42335690Y45967927D01*
X42446760Y46120801D01*
X42532547Y46289168D01*
X42590940Y46468882D01*
X42617674Y46637679D01*
X53899500Y46637679D01*
X53899500Y46362322D01*
X53935440Y46089331D01*
X53935440Y46089330D01*
X54003771Y45834317D01*
X54006705Y45823368D01*
X54042798Y45736233D01*
X54112074Y45568985D01*
X54112076Y45568982D01*
X54112077Y45568979D01*
X54249751Y45330521D01*
X54417372Y45112072D01*
X54612072Y44917372D01*
X54612075Y44917370D01*
X54612077Y44917368D01*
X54625589Y44907000D01*
X54830521Y44749751D01*
X55068979Y44612077D01*
X55323368Y44506705D01*
X55589334Y44435440D01*
X55862326Y44399500D01*
X55862332Y44399500D01*
X56137668Y44399500D01*
X56137674Y44399500D01*
X56410666Y44435440D01*
X56676632Y44506705D01*
X56931021Y44612077D01*
X57169479Y44749751D01*
X57387928Y44917372D01*
X57582628Y45112072D01*
X57750249Y45330521D01*
X57887923Y45568979D01*
X57993295Y45823368D01*
X58014838Y45903768D01*
X58284500Y45903768D01*
X58284500Y45736233D01*
X58317183Y45571920D01*
X58381295Y45417140D01*
X58381296Y45417138D01*
X58381297Y45417137D01*
X58474374Y45277838D01*
X58592838Y45159374D01*
X58732137Y45066297D01*
X58886918Y45002184D01*
X59051233Y44969500D01*
X59924472Y44969500D01*
X59968666Y44951194D01*
X59986972Y44907000D01*
X59968666Y44862806D01*
X59955724Y44852876D01*
X59887872Y44813701D01*
X59868474Y44802501D01*
X59868470Y44802498D01*
X59772502Y44706530D01*
X59772499Y44706526D01*
X59704630Y44588975D01*
X59704630Y44588973D01*
X59669500Y44457873D01*
X59669500Y44322128D01*
X59704630Y44191028D01*
X59704630Y44191026D01*
X59772499Y44073475D01*
X59772502Y44073471D01*
X59868470Y43977503D01*
X59868474Y43977500D01*
X59868476Y43977498D01*
X59986025Y43909631D01*
X60026142Y43898882D01*
X60117127Y43874501D01*
X60117133Y43874500D01*
X60252867Y43874500D01*
X60252872Y43874501D01*
X60291821Y43884939D01*
X60383975Y43909631D01*
X60501524Y43977498D01*
X60597502Y44073476D01*
X60665369Y44191025D01*
X60696747Y44308127D01*
X60700499Y44322128D01*
X60700500Y44322134D01*
X60700500Y44457867D01*
X60700499Y44457873D01*
X60668721Y44576465D01*
X60665369Y44588975D01*
X60597502Y44706524D01*
X60597500Y44706526D01*
X60597497Y44706530D01*
X60501529Y44802498D01*
X60501525Y44802501D01*
X60501524Y44802502D01*
X60383975Y44870369D01*
X60383973Y44870370D01*
X60383373Y44870716D01*
X60354253Y44908667D01*
X60360496Y44956093D01*
X60398447Y44985213D01*
X60402414Y44986139D01*
X60483082Y45002184D01*
X60637863Y45066297D01*
X60777162Y45159374D01*
X60895626Y45277838D01*
X60988703Y45417137D01*
X61052816Y45571918D01*
X61085500Y45736233D01*
X61085500Y45903767D01*
X61085500Y45903768D01*
X62614500Y45903768D01*
X62614500Y45736233D01*
X62647183Y45571920D01*
X62711295Y45417140D01*
X62711296Y45417138D01*
X62711297Y45417137D01*
X62804374Y45277838D01*
X62922838Y45159374D01*
X63062137Y45066297D01*
X63216918Y45002184D01*
X63381233Y44969500D01*
X64348767Y44969500D01*
X64513082Y45002184D01*
X64667863Y45066297D01*
X64807162Y45159374D01*
X64925626Y45277838D01*
X65018703Y45417137D01*
X65082816Y45571918D01*
X65115500Y45736233D01*
X65115500Y45903767D01*
X65082816Y46068082D01*
X65018703Y46222863D01*
X64925626Y46362162D01*
X64807162Y46480626D01*
X64805448Y46481771D01*
X64719051Y46539500D01*
X64667863Y46573703D01*
X64667862Y46573704D01*
X64667860Y46573705D01*
X64513080Y46637817D01*
X64348767Y46670500D01*
X63381233Y46670500D01*
X63216919Y46637817D01*
X63062139Y46573705D01*
X63062135Y46573702D01*
X62922838Y46480627D01*
X62804373Y46362162D01*
X62711298Y46222865D01*
X62711295Y46222861D01*
X62647183Y46068081D01*
X62614500Y45903768D01*
X61085500Y45903768D01*
X61052816Y46068082D01*
X60988703Y46222863D01*
X60895626Y46362162D01*
X60777162Y46480626D01*
X60775448Y46481771D01*
X60689051Y46539500D01*
X60637863Y46573703D01*
X60637862Y46573704D01*
X60637860Y46573705D01*
X60483080Y46637817D01*
X60318767Y46670500D01*
X59051233Y46670500D01*
X58886919Y46637817D01*
X58732139Y46573705D01*
X58732135Y46573702D01*
X58592838Y46480627D01*
X58474373Y46362162D01*
X58381298Y46222865D01*
X58381295Y46222861D01*
X58317183Y46068081D01*
X58284500Y45903768D01*
X58014838Y45903768D01*
X58032028Y45967920D01*
X58064559Y46089330D01*
X58064559Y46089331D01*
X58064560Y46089334D01*
X58100500Y46362326D01*
X58100500Y46637674D01*
X58064560Y46910666D01*
X58032286Y47031113D01*
X58006880Y47125931D01*
X57993295Y47176632D01*
X57887923Y47431021D01*
X57750249Y47669479D01*
X57609019Y47853535D01*
X57582632Y47887923D01*
X57582623Y47887933D01*
X57387932Y48082624D01*
X57387922Y48082633D01*
X57169476Y48250251D01*
X56969112Y48365931D01*
X56931021Y48387923D01*
X56931018Y48387924D01*
X56931015Y48387926D01*
X56800080Y48442161D01*
X56676632Y48493295D01*
X56676628Y48493296D01*
X56676626Y48493297D01*
X56676627Y48493297D01*
X56410669Y48564560D01*
X56137678Y48600500D01*
X56137674Y48600500D01*
X55862326Y48600500D01*
X55862321Y48600500D01*
X55589330Y48564560D01*
X55589329Y48564560D01*
X55323373Y48493297D01*
X55068984Y48387926D01*
X55068973Y48387920D01*
X54830523Y48250251D01*
X54612077Y48082633D01*
X54612067Y48082624D01*
X54417376Y47887933D01*
X54417367Y47887923D01*
X54249749Y47669477D01*
X54112080Y47431027D01*
X54112074Y47431016D01*
X54006703Y47176627D01*
X53935440Y46910671D01*
X53935440Y46910670D01*
X53899500Y46637679D01*
X42617674Y46637679D01*
X42620500Y46655519D01*
X42620500Y46844481D01*
X42590940Y47031118D01*
X42532547Y47210832D01*
X42446760Y47379199D01*
X42335690Y47532073D01*
X42323692Y47544071D01*
X44799500Y47544071D01*
X44799500Y47415930D01*
X44824498Y47290258D01*
X44824499Y47290256D01*
X44873535Y47171873D01*
X44944724Y47065331D01*
X45035331Y46974724D01*
X45141873Y46903535D01*
X45260256Y46854499D01*
X45385931Y46829500D01*
X45514069Y46829500D01*
X45639744Y46854499D01*
X45758127Y46903535D01*
X45864669Y46974724D01*
X45955276Y47065331D01*
X46026465Y47171873D01*
X46075501Y47290256D01*
X46100500Y47415931D01*
X46100500Y47544069D01*
X46075501Y47669744D01*
X46026465Y47788127D01*
X45955276Y47894669D01*
X45864669Y47985276D01*
X45864668Y47985277D01*
X45758129Y48056464D01*
X45758127Y48056465D01*
X45639742Y48105502D01*
X45514070Y48130500D01*
X45514069Y48130500D01*
X45385931Y48130500D01*
X45385929Y48130500D01*
X45260257Y48105502D01*
X45141872Y48056465D01*
X45141870Y48056464D01*
X45035331Y47985277D01*
X44944723Y47894669D01*
X44873536Y47788130D01*
X44873535Y47788128D01*
X44824498Y47669743D01*
X44799500Y47544071D01*
X42323692Y47544071D01*
X42315741Y47552022D01*
X42314116Y47553930D01*
X42307465Y47574493D01*
X42299196Y47594456D01*
X42299734Y47598395D01*
X42299395Y47599444D01*
X42300054Y47600734D01*
X42301488Y47611223D01*
X42787258Y49354280D01*
X42816756Y49391936D01*
X42847464Y49400000D01*
X65337000Y49400000D01*
X65381194Y49381694D01*
G37*
%TD.AperFunction*%
%TD*%
%TA.AperFunction,Conductor*%
%TO.N,GND*%
G36*
X13343570Y45081194D02*
G01*
X13361876Y45037000D01*
X13343570Y44992806D01*
X13319484Y44968721D01*
X13319481Y44968717D01*
X13319480Y44968716D01*
X13314204Y44959577D01*
X13240422Y44831784D01*
X13240421Y44831781D01*
X13199501Y44679064D01*
X13199500Y44679056D01*
X13199500Y44520945D01*
X13199501Y44520937D01*
X13240421Y44368220D01*
X13240422Y44368217D01*
X13240423Y44368216D01*
X13319480Y44231284D01*
X13431284Y44119480D01*
X13540150Y44056627D01*
X13568216Y44040423D01*
X13568219Y44040422D01*
X13637188Y44021942D01*
X13720943Y43999500D01*
X13720944Y43999500D01*
X13879056Y43999500D01*
X13879057Y43999500D01*
X14031784Y44040423D01*
X14155973Y44112124D01*
X14203398Y44118367D01*
X14231416Y44102191D01*
X14443184Y43890423D01*
X14626414Y43707194D01*
X14644720Y43663000D01*
X14626414Y43618806D01*
X14582220Y43600500D01*
X11802727Y43600500D01*
X11697273Y43600500D01*
X11697272Y43600500D01*
X11697266Y43600499D01*
X11595412Y43573208D01*
X11595409Y43573207D01*
X11550495Y43547274D01*
X11550494Y43547274D01*
X11504090Y43520483D01*
X11504082Y43520476D01*
X11429520Y43445913D01*
X11429518Y43445911D01*
X9162747Y41179141D01*
X9147281Y41167829D01*
X9144296Y41166285D01*
X9144292Y41166282D01*
X9057790Y41098834D01*
X9047078Y41092105D01*
X8929109Y41033731D01*
X8919583Y41029954D01*
X8738567Y40974878D01*
X8729949Y40972910D01*
X8619826Y40955839D01*
X8590151Y40951238D01*
X8580579Y40950500D01*
X8038364Y40950500D01*
X8012983Y40953102D01*
X7951556Y40953192D01*
X7946906Y40952729D01*
X7936512Y40950500D01*
X6369869Y40950500D01*
X6219948Y40935735D01*
X6027580Y40877381D01*
X5850302Y40782625D01*
X5850296Y40782621D01*
X5694906Y40655094D01*
X5567379Y40499704D01*
X5567375Y40499698D01*
X5472619Y40322420D01*
X5414265Y40130052D01*
X5409133Y40077939D01*
X5400227Y39987510D01*
X5399500Y39980132D01*
X5399500Y39519870D01*
X5414265Y39369949D01*
X5472619Y39177581D01*
X5567375Y39000303D01*
X5567379Y39000297D01*
X5694906Y38844906D01*
X5850297Y38717379D01*
X5850299Y38717378D01*
X5850302Y38717376D01*
X6027580Y38622620D01*
X6027582Y38622619D01*
X6219947Y38564266D01*
X6369865Y38549500D01*
X8630134Y38549501D01*
X8780053Y38564266D01*
X8972418Y38622619D01*
X9149703Y38717379D01*
X9305094Y38844906D01*
X9432621Y39000297D01*
X9527381Y39177582D01*
X9585734Y39369947D01*
X9600500Y39519865D01*
X9600499Y39980134D01*
X9585734Y40130053D01*
X9543482Y40269335D01*
X9543375Y40305255D01*
X9553840Y40340520D01*
X9558274Y40351507D01*
X9614695Y40460238D01*
X9620289Y40469105D01*
X9718336Y40598913D01*
X9721672Y40603781D01*
X9729025Y40612634D01*
X11897586Y42781194D01*
X11941780Y42799500D01*
X21108219Y42799500D01*
X21152413Y42781194D01*
X22581194Y41352413D01*
X22599500Y41308219D01*
X22599500Y36847275D01*
X22599501Y36847267D01*
X22626791Y36745416D01*
X22626795Y36745407D01*
X22679517Y36654091D01*
X22679524Y36654082D01*
X25781694Y33551913D01*
X25800000Y33507719D01*
X25800000Y32325888D01*
X25781694Y32281694D01*
X25118806Y31618806D01*
X25074612Y31600500D01*
X20725388Y31600500D01*
X20681194Y31618806D01*
X20018306Y32281694D01*
X20000000Y32325888D01*
X20000000Y33800000D01*
X19300000Y34500000D01*
X17062500Y34500000D01*
X17018306Y34518306D01*
X17000000Y34562500D01*
X17000000Y36024878D01*
X17018305Y36069071D01*
X17463569Y36514336D01*
X17463574Y36514339D01*
X17468714Y36519480D01*
X17468716Y36519480D01*
X17580520Y36631284D01*
X17645438Y36743726D01*
X17659577Y36768215D01*
X17700501Y36920943D01*
X17700501Y37079057D01*
X17700501Y37082881D01*
X17700500Y37082899D01*
X17700500Y38129056D01*
X17700498Y38129064D01*
X17659578Y38281781D01*
X17659577Y38281784D01*
X17626120Y38339733D01*
X17580520Y38418716D01*
X17468716Y38530520D01*
X17356303Y38595421D01*
X17331783Y38609578D01*
X17331780Y38609579D01*
X17179063Y38650499D01*
X17179058Y38650500D01*
X17179057Y38650500D01*
X17020943Y38650500D01*
X17020942Y38650500D01*
X17020936Y38650499D01*
X16868219Y38609579D01*
X16868216Y38609578D01*
X16789734Y38564266D01*
X16731284Y38530520D01*
X16731283Y38530520D01*
X16731250Y38530500D01*
X16683824Y38524257D01*
X16668750Y38530500D01*
X16668716Y38530520D01*
X16564387Y38590754D01*
X16531783Y38609578D01*
X16531780Y38609579D01*
X16379063Y38650499D01*
X16379058Y38650500D01*
X16379057Y38650500D01*
X16220943Y38650500D01*
X16220942Y38650500D01*
X16220936Y38650499D01*
X16068219Y38609579D01*
X16068216Y38609578D01*
X15989734Y38564266D01*
X15931284Y38530520D01*
X15931283Y38530519D01*
X15931279Y38530516D01*
X15819484Y38418722D01*
X15819479Y38418716D01*
X15755290Y38307538D01*
X15745358Y38294595D01*
X15181284Y37730519D01*
X14874571Y37423806D01*
X14830377Y37405500D01*
X12634783Y37405500D01*
X12552270Y37394146D01*
X12552267Y37394146D01*
X12552265Y37394145D01*
X12487781Y37376057D01*
X12487774Y37376055D01*
X12411405Y37342842D01*
X12063927Y37131249D01*
X11906881Y37035617D01*
X11863364Y37009118D01*
X11830858Y37000000D01*
X11000000Y37000000D01*
X4414478Y33208336D01*
X4383293Y33200000D01*
X2212500Y33200000D01*
X2168306Y33218306D01*
X2150000Y33262500D01*
X2150000Y34250000D01*
X2150001Y34250289D01*
X2151242Y34518306D01*
X2192732Y43480132D01*
X5399500Y43480132D01*
X5399500Y43019870D01*
X5414265Y42869949D01*
X5472619Y42677581D01*
X5567375Y42500303D01*
X5567379Y42500297D01*
X5694906Y42344906D01*
X5850297Y42217379D01*
X5850299Y42217378D01*
X5850302Y42217376D01*
X5990185Y42142608D01*
X6027582Y42122619D01*
X6219947Y42064266D01*
X6369865Y42049500D01*
X8630134Y42049501D01*
X8780053Y42064266D01*
X8972418Y42122619D01*
X9149703Y42217379D01*
X9305094Y42344906D01*
X9432621Y42500297D01*
X9527381Y42677582D01*
X9585734Y42869947D01*
X9600500Y43019865D01*
X9600499Y43480134D01*
X9585734Y43630053D01*
X9527381Y43822418D01*
X9479404Y43912178D01*
X9432624Y43999698D01*
X9432620Y43999704D01*
X9416943Y44018806D01*
X9305094Y44155094D01*
X9149703Y44282621D01*
X9149697Y44282625D01*
X8972419Y44377381D01*
X8780051Y44435735D01*
X8687121Y44444888D01*
X8630135Y44450500D01*
X8630130Y44450500D01*
X6369869Y44450500D01*
X6219948Y44435735D01*
X6027580Y44377381D01*
X5850302Y44282625D01*
X5850296Y44282621D01*
X5694906Y44155094D01*
X5567379Y43999704D01*
X5567375Y43999698D01*
X5472619Y43822420D01*
X5414265Y43630052D01*
X5399500Y43480132D01*
X2192732Y43480132D01*
X2198256Y44673426D01*
X2216558Y44717324D01*
X2528172Y45028938D01*
X2572362Y45047242D01*
X8553066Y45002941D01*
X8949985Y45000000D01*
X8949986Y45000001D01*
X8950000Y45000000D01*
X10971642Y45099425D01*
X10974712Y45099500D01*
X13299376Y45099500D01*
X13343570Y45081194D01*
G37*
%TD.AperFunction*%
%TD*%
%TA.AperFunction,Conductor*%
%TO.N,GND*%
G36*
X14669004Y22925813D02*
G01*
X14614487Y22898036D01*
X14554055Y22907607D01*
X14510790Y22950872D01*
X14500000Y22995817D01*
X14500000Y22999999D01*
X14500000Y23000000D01*
X14743191Y23000000D01*
X14669004Y22925813D01*
G37*
%TD.AperFunction*%
%TD*%
%TA.AperFunction,Conductor*%
%TO.N,GND*%
G36*
X57651914Y19981694D02*
G01*
X58881194Y18752414D01*
X58899500Y18708220D01*
X58899500Y11347275D01*
X58899501Y11347267D01*
X58926791Y11245416D01*
X58926794Y11245409D01*
X58946231Y11211743D01*
X58952474Y11164317D01*
X58936299Y11136300D01*
X58906694Y11106694D01*
X58818305Y11018306D01*
X58774113Y11000000D01*
X57892281Y11000000D01*
X57848087Y11018306D01*
X54618806Y14247587D01*
X54600500Y14291781D01*
X54600500Y17008219D01*
X54618806Y17052413D01*
X55770475Y18204082D01*
X55770480Y18204087D01*
X55823207Y18295412D01*
X55850500Y18397273D01*
X55850500Y18502727D01*
X55850500Y19937500D01*
X55868806Y19981694D01*
X55913000Y20000000D01*
X57607720Y20000000D01*
X57651914Y19981694D01*
G37*
%TD.AperFunction*%
%TD*%
%TA.AperFunction,Conductor*%
%TO.N,/a0*%
G36*
X51817401Y3643847D02*
G01*
X51943817Y3517431D01*
X51947244Y3509158D01*
X51944570Y3501713D01*
X51838812Y3373498D01*
X51705291Y3148036D01*
X51705291Y3148035D01*
X51605617Y2908501D01*
X51605616Y2908499D01*
X51549812Y2689726D01*
X51535734Y2514053D01*
X51531657Y2506080D01*
X51525913Y2503434D01*
X50699996Y2371796D01*
X50691286Y2373878D01*
X50686600Y2381508D01*
X50686575Y2385029D01*
X50730764Y2689726D01*
X50806305Y3210607D01*
X50810884Y3218301D01*
X50817141Y3220602D01*
X50905384Y3226206D01*
X50918406Y3227032D01*
X50918411Y3227032D01*
X50918414Y3227033D01*
X50918421Y3227033D01*
X51039036Y3248334D01*
X51161202Y3281862D01*
X51296215Y3331195D01*
X51426320Y3390324D01*
X51657668Y3526699D01*
X51801720Y3644629D01*
X51810289Y3647216D01*
X51817401Y3643847D01*
G37*
%TD.AperFunction*%
%TD*%
%TA.AperFunction,Conductor*%
%TO.N,/a0*%
G36*
X61204685Y22298952D02*
G01*
X61458472Y22188003D01*
X61464679Y22181549D01*
X61464505Y22172596D01*
X61464137Y22171831D01*
X61393562Y22037818D01*
X61393341Y22037418D01*
X61364021Y21986661D01*
X61364019Y21986657D01*
X61351549Y21956003D01*
X61318099Y21873775D01*
X61304763Y21799613D01*
X61300564Y21716871D01*
X61296722Y21708782D01*
X61288879Y21705764D01*
X61110979Y21705764D01*
X61102706Y21709191D01*
X61099303Y21716721D01*
X61092816Y21818612D01*
X61092815Y21818621D01*
X61073055Y21903664D01*
X61073054Y21903669D01*
X61043403Y21972732D01*
X61043401Y21972737D01*
X61043399Y21972741D01*
X61006640Y22037445D01*
X61006461Y22037772D01*
X60935862Y22171831D01*
X60935039Y22180748D01*
X60940762Y22187635D01*
X60941511Y22187996D01*
X61195313Y22298952D01*
X61204266Y22299125D01*
X61204685Y22298952D01*
G37*
%TD.AperFunction*%
%TD*%
%TA.AperFunction,Conductor*%
%TO.N,/a1*%
G36*
X54079699Y3805038D02*
G01*
X54205287Y3679450D01*
X54208714Y3671177D01*
X54205768Y3663414D01*
X54111620Y3557251D01*
X54040393Y3448963D01*
X53995215Y3345281D01*
X53971914Y3244724D01*
X53971913Y3244713D01*
X53966309Y3145771D01*
X53974226Y3046916D01*
X54009995Y2863604D01*
X54013903Y2843575D01*
X54030158Y2764117D01*
X54052166Y2656542D01*
X54052348Y2655329D01*
X54072513Y2447928D01*
X54072541Y2446006D01*
X54059526Y2253573D01*
X54055549Y2245550D01*
X54047063Y2242690D01*
X54046073Y2242799D01*
X53229683Y2368464D01*
X53222028Y2373110D01*
X53221462Y2373957D01*
X52792648Y3080345D01*
X52791284Y3089195D01*
X52796578Y3096417D01*
X52796867Y3096588D01*
X52939024Y3176738D01*
X52939693Y3177086D01*
X53075962Y3242268D01*
X53076700Y3242588D01*
X53316774Y3336436D01*
X53316905Y3336485D01*
X53431462Y3379026D01*
X53635524Y3472111D01*
X53732774Y3530271D01*
X53836018Y3603587D01*
X53948579Y3696804D01*
X54063392Y3805271D01*
X54071758Y3808460D01*
X54079699Y3805038D01*
G37*
%TD.AperFunction*%
%TD*%
%TA.AperFunction,Conductor*%
%TO.N,/a1*%
G36*
X60197294Y22590809D02*
G01*
X60200697Y22583279D01*
X60207183Y22481389D01*
X60207184Y22481380D01*
X60226943Y22396336D01*
X60226946Y22396327D01*
X60256597Y22327266D01*
X60256598Y22327263D01*
X60293359Y22262555D01*
X60293538Y22262228D01*
X60364137Y22128171D01*
X60364960Y22119254D01*
X60359237Y22112367D01*
X60358472Y22111999D01*
X60104687Y22001050D01*
X60095734Y22000876D01*
X60095313Y22001050D01*
X59841527Y22111999D01*
X59835320Y22118453D01*
X59835494Y22127406D01*
X59835852Y22128151D01*
X59906461Y22262228D01*
X59906658Y22262584D01*
X59908506Y22265785D01*
X59935981Y22313344D01*
X59981900Y22426225D01*
X59995237Y22500388D01*
X59999436Y22583130D01*
X60003278Y22591218D01*
X60011121Y22594236D01*
X60189021Y22594236D01*
X60197294Y22590809D01*
G37*
%TD.AperFunction*%
%TD*%
%TA.AperFunction,Conductor*%
%TO.N,/sda*%
G36*
X40307033Y48008963D02*
G01*
X40566245Y47922756D01*
X41576040Y47586922D01*
X41582808Y47581061D01*
X41583824Y47573550D01*
X41422227Y46756979D01*
X41417260Y46749528D01*
X41413021Y46747773D01*
X40596450Y46586176D01*
X40587669Y46587931D01*
X40583078Y46593960D01*
X40161037Y47862967D01*
X40161678Y47871899D01*
X40163863Y47874929D01*
X40295069Y48006135D01*
X40303341Y48009561D01*
X40307033Y48008963D01*
G37*
%TD.AperFunction*%
%TD*%
%TA.AperFunction,Conductor*%
%TO.N,/sda*%
G36*
X12471282Y49289611D02*
G01*
X12986525Y49102796D01*
X12993134Y49096756D01*
X12994236Y49091798D01*
X12994236Y48908203D01*
X12990809Y48899930D01*
X12986524Y48897204D01*
X12471290Y48710392D01*
X12462344Y48710793D01*
X12456303Y48717403D01*
X12455837Y48719061D01*
X12399469Y48997682D01*
X12399469Y49002320D01*
X12455835Y49280933D01*
X12460834Y49288359D01*
X12469622Y49290078D01*
X12471282Y49289611D01*
G37*
%TD.AperFunction*%
%TD*%
%TA.AperFunction,Conductor*%
%TO.N,/sda*%
G36*
X20403418Y50793436D02*
G01*
X21144164Y50646845D01*
X21218021Y50632228D01*
X21225472Y50627261D01*
X21227227Y50623022D01*
X21388452Y49808332D01*
X21386697Y49799551D01*
X21379246Y49794584D01*
X21378735Y49794494D01*
X21154841Y49760424D01*
X21154059Y49760332D01*
X20953888Y49743539D01*
X20953789Y49743531D01*
X20848602Y49735609D01*
X20651792Y49707305D01*
X20651791Y49707305D01*
X20651786Y49707304D01*
X20651785Y49707304D01*
X20485898Y49651642D01*
X20485893Y49651640D01*
X20401312Y49607511D01*
X20312987Y49549430D01*
X20212968Y49469620D01*
X20113442Y49376490D01*
X20105060Y49373339D01*
X20097175Y49376760D01*
X19971722Y49502213D01*
X19968295Y49510486D01*
X19971414Y49518438D01*
X20076343Y49631624D01*
X20162387Y49743418D01*
X20225769Y49848190D01*
X20270369Y49948572D01*
X20300066Y50047195D01*
X20318740Y50146691D01*
X20338532Y50358825D01*
X20350484Y50511070D01*
X20350560Y50511757D01*
X20389580Y50783620D01*
X20394147Y50791321D01*
X20402823Y50793537D01*
X20403418Y50793436D01*
G37*
%TD.AperFunction*%
%TD*%
%TA.AperFunction,Conductor*%
%TO.N,/sda*%
G36*
X30317340Y48913035D02*
G01*
X30443134Y48787241D01*
X30446561Y48778968D01*
X30443643Y48771237D01*
X30376181Y48694603D01*
X30330010Y48620484D01*
X30330008Y48620480D01*
X30302146Y48550692D01*
X30302141Y48550676D01*
X30282377Y48478920D01*
X30282272Y48478562D01*
X30237403Y48333857D01*
X30231680Y48326970D01*
X30222763Y48326147D01*
X30221962Y48326428D01*
X29964055Y48427428D01*
X29957601Y48433635D01*
X29957440Y48434024D01*
X29856425Y48691965D01*
X29856599Y48700916D01*
X29863053Y48707123D01*
X29863829Y48707396D01*
X30008558Y48752275D01*
X30008943Y48752386D01*
X30065589Y48767548D01*
X30177877Y48814897D01*
X30239749Y48857906D01*
X30301227Y48913446D01*
X30309660Y48916447D01*
X30317340Y48913035D01*
G37*
%TD.AperFunction*%
%TD*%
%TA.AperFunction,Conductor*%
%TO.N,/sda*%
G36*
X43104685Y39698952D02*
G01*
X43358472Y39588003D01*
X43364679Y39581549D01*
X43364505Y39572596D01*
X43364137Y39571831D01*
X43293562Y39437818D01*
X43293341Y39437418D01*
X43264021Y39386661D01*
X43264019Y39386657D01*
X43251549Y39356003D01*
X43218099Y39273775D01*
X43204763Y39199613D01*
X43200564Y39116871D01*
X43196722Y39108782D01*
X43188879Y39105764D01*
X43010979Y39105764D01*
X43002706Y39109191D01*
X42999303Y39116721D01*
X42992816Y39218612D01*
X42992815Y39218621D01*
X42973055Y39303664D01*
X42973054Y39303669D01*
X42943403Y39372732D01*
X42943401Y39372737D01*
X42943399Y39372741D01*
X42906640Y39437445D01*
X42906461Y39437772D01*
X42835862Y39571831D01*
X42835039Y39580748D01*
X42840762Y39587635D01*
X42841511Y39587996D01*
X43095313Y39698952D01*
X43104266Y39699125D01*
X43104685Y39698952D01*
G37*
%TD.AperFunction*%
%TD*%
%TA.AperFunction,Conductor*%
%TO.N,/sda*%
G36*
X58497294Y8890809D02*
G01*
X58500697Y8883279D01*
X58507183Y8781389D01*
X58507184Y8781380D01*
X58526943Y8696336D01*
X58526946Y8696327D01*
X58556597Y8627266D01*
X58556598Y8627263D01*
X58593359Y8562555D01*
X58593538Y8562228D01*
X58664137Y8428171D01*
X58664960Y8419254D01*
X58659237Y8412367D01*
X58658472Y8411999D01*
X58404687Y8301050D01*
X58395734Y8300876D01*
X58395313Y8301050D01*
X58141527Y8411999D01*
X58135320Y8418453D01*
X58135494Y8427406D01*
X58135852Y8428151D01*
X58206461Y8562228D01*
X58206658Y8562584D01*
X58208506Y8565785D01*
X58235981Y8613344D01*
X58281900Y8726225D01*
X58295237Y8800388D01*
X58299436Y8883130D01*
X58303278Y8891218D01*
X58311121Y8894236D01*
X58489021Y8894236D01*
X58497294Y8890809D01*
G37*
%TD.AperFunction*%
%TD*%
%TA.AperFunction,Conductor*%
%TO.N,/scl*%
G36*
X61597294Y9190809D02*
G01*
X61600697Y9183279D01*
X61607183Y9081389D01*
X61607184Y9081380D01*
X61626943Y8996336D01*
X61626946Y8996327D01*
X61656597Y8927266D01*
X61656598Y8927263D01*
X61693359Y8862555D01*
X61693538Y8862228D01*
X61764137Y8728171D01*
X61764960Y8719254D01*
X61759237Y8712367D01*
X61758472Y8711999D01*
X61504687Y8601050D01*
X61495734Y8600876D01*
X61495313Y8601050D01*
X61241527Y8711999D01*
X61235320Y8718453D01*
X61235494Y8727406D01*
X61235852Y8728151D01*
X61306461Y8862228D01*
X61306658Y8862584D01*
X61308506Y8865785D01*
X61335981Y8913344D01*
X61381900Y9026225D01*
X61395237Y9100388D01*
X61399436Y9183130D01*
X61403278Y9191218D01*
X61411121Y9194236D01*
X61589021Y9194236D01*
X61597294Y9190809D01*
G37*
%TD.AperFunction*%
%TD*%
%TA.AperFunction,Conductor*%
%TO.N,/scl*%
G36*
X17849444Y51131344D02*
G01*
X18160326Y50945034D01*
X18669253Y50640036D01*
X18674588Y50632844D01*
X18673275Y50623986D01*
X18669253Y50619964D01*
X17850846Y50129497D01*
X17841988Y50128184D01*
X17834796Y50133519D01*
X17833203Y50138253D01*
X17828782Y50178502D01*
X17811906Y50231392D01*
X17780071Y50289096D01*
X17780067Y50289101D01*
X17737614Y50341229D01*
X17737612Y50341231D01*
X17675491Y50396439D01*
X17675489Y50396441D01*
X17605426Y50442731D01*
X17605424Y50442732D01*
X17525121Y50482412D01*
X17525111Y50482417D01*
X17525109Y50482418D01*
X17489062Y50495154D01*
X17445652Y50510491D01*
X17334832Y50528411D01*
X17327212Y50533115D01*
X17325000Y50539961D01*
X17325000Y50719267D01*
X17328427Y50727540D01*
X17335692Y50730924D01*
X17380032Y50734752D01*
X17530622Y50779927D01*
X17665164Y50855876D01*
X17760761Y50945033D01*
X17816413Y51039794D01*
X17831928Y51123443D01*
X17836806Y51130950D01*
X17845566Y51132811D01*
X17849444Y51131344D01*
G37*
%TD.AperFunction*%
%TD*%
%TA.AperFunction,Conductor*%
%TO.N,/scl*%
G36*
X37767033Y48008963D02*
G01*
X38026245Y47922756D01*
X39036040Y47586922D01*
X39042808Y47581061D01*
X39043824Y47573550D01*
X38882227Y46756979D01*
X38877260Y46749528D01*
X38873021Y46747773D01*
X38056450Y46586176D01*
X38047669Y46587931D01*
X38043078Y46593960D01*
X37621037Y47862967D01*
X37621678Y47871899D01*
X37623863Y47874929D01*
X37755069Y48006135D01*
X37763341Y48009561D01*
X37767033Y48008963D01*
G37*
%TD.AperFunction*%
%TD*%
%TA.AperFunction,Conductor*%
%TO.N,/scl*%
G36*
X11755277Y49485098D02*
G01*
X11885097Y49355278D01*
X11888524Y49347005D01*
X11887422Y49342047D01*
X11655193Y48845627D01*
X11648583Y48839586D01*
X11639637Y48839987D01*
X11638127Y48840836D01*
X11401265Y48997985D01*
X11397984Y49001266D01*
X11240835Y49238128D01*
X11239116Y49246916D01*
X11244116Y49254345D01*
X11245621Y49255192D01*
X11742048Y49487424D01*
X11750992Y49487824D01*
X11755277Y49485098D01*
G37*
%TD.AperFunction*%
%TD*%
%TA.AperFunction,Conductor*%
%TO.N,/scl*%
G36*
X27747405Y47454506D02*
G01*
X27748160Y47454143D01*
X27864367Y47392945D01*
X27882182Y47383563D01*
X27882582Y47383342D01*
X27907466Y47368968D01*
X27933343Y47354019D01*
X28046225Y47308100D01*
X28120388Y47294763D01*
X28203129Y47290564D01*
X28211218Y47286722D01*
X28214236Y47278879D01*
X28214236Y47100979D01*
X28210809Y47092706D01*
X28203279Y47089303D01*
X28101387Y47082817D01*
X28101378Y47082816D01*
X28016334Y47063056D01*
X28016325Y47063053D01*
X27947264Y47033402D01*
X27947261Y47033401D01*
X27882552Y46996640D01*
X27882225Y46996461D01*
X27748170Y46925863D01*
X27739253Y46925040D01*
X27732366Y46930763D01*
X27731998Y46931528D01*
X27687461Y47033401D01*
X27621048Y47185314D01*
X27620875Y47194266D01*
X27621049Y47194687D01*
X27657856Y47278879D01*
X27731999Y47448475D01*
X27738452Y47454680D01*
X27747405Y47454506D01*
G37*
%TD.AperFunction*%
%TD*%
%TA.AperFunction,Conductor*%
%TO.N,/scl*%
G36*
X44004685Y37698952D02*
G01*
X44258472Y37588003D01*
X44264679Y37581549D01*
X44264505Y37572596D01*
X44264137Y37571831D01*
X44193562Y37437818D01*
X44193341Y37437418D01*
X44164021Y37386661D01*
X44164019Y37386657D01*
X44151549Y37356003D01*
X44118099Y37273775D01*
X44104763Y37199613D01*
X44100564Y37116871D01*
X44096722Y37108782D01*
X44088879Y37105764D01*
X43910979Y37105764D01*
X43902706Y37109191D01*
X43899303Y37116721D01*
X43892816Y37218612D01*
X43892815Y37218621D01*
X43873055Y37303664D01*
X43873054Y37303669D01*
X43843403Y37372732D01*
X43843401Y37372737D01*
X43843399Y37372741D01*
X43806640Y37437445D01*
X43806461Y37437772D01*
X43735862Y37571831D01*
X43735039Y37580748D01*
X43740762Y37587635D01*
X43741511Y37587996D01*
X43995313Y37698952D01*
X44004266Y37699125D01*
X44004685Y37698952D01*
G37*
%TD.AperFunction*%
%TD*%
%TA.AperFunction,Conductor*%
%TO.N,/d3*%
G36*
X51857340Y28183035D02*
G01*
X51983134Y28057241D01*
X51986561Y28048968D01*
X51983643Y28041237D01*
X51916181Y27964603D01*
X51870010Y27890484D01*
X51870008Y27890480D01*
X51842146Y27820692D01*
X51842141Y27820676D01*
X51822377Y27748920D01*
X51822272Y27748562D01*
X51777403Y27603857D01*
X51771680Y27596970D01*
X51762763Y27596147D01*
X51761962Y27596428D01*
X51504055Y27697428D01*
X51497601Y27703635D01*
X51497440Y27704024D01*
X51396425Y27961965D01*
X51396599Y27970916D01*
X51403053Y27977123D01*
X51403829Y27977396D01*
X51548558Y28022275D01*
X51548943Y28022386D01*
X51605589Y28037548D01*
X51717877Y28084897D01*
X51779749Y28127906D01*
X51841227Y28183446D01*
X51849660Y28186447D01*
X51857340Y28183035D01*
G37*
%TD.AperFunction*%
%TD*%
%TA.AperFunction,Conductor*%
%TO.N,/d3*%
G36*
X53104685Y34998952D02*
G01*
X53358472Y34888003D01*
X53364679Y34881549D01*
X53364505Y34872596D01*
X53364137Y34871831D01*
X53293562Y34737818D01*
X53293341Y34737418D01*
X53264021Y34686661D01*
X53264019Y34686657D01*
X53251549Y34656003D01*
X53218099Y34573775D01*
X53204763Y34499613D01*
X53200564Y34416871D01*
X53196722Y34408782D01*
X53188879Y34405764D01*
X53010979Y34405764D01*
X53002706Y34409191D01*
X52999303Y34416721D01*
X52992816Y34518612D01*
X52992815Y34518621D01*
X52973055Y34603664D01*
X52973054Y34603669D01*
X52943403Y34672732D01*
X52943401Y34672737D01*
X52943399Y34672741D01*
X52906640Y34737445D01*
X52906461Y34737772D01*
X52835862Y34871831D01*
X52835039Y34880748D01*
X52840762Y34887635D01*
X52841511Y34887996D01*
X53095313Y34998952D01*
X53104266Y34999125D01*
X53104685Y34998952D01*
G37*
%TD.AperFunction*%
%TD*%
%TA.AperFunction,Conductor*%
%TO.N,/d7*%
G36*
X44970914Y40903401D02*
G01*
X44977121Y40896947D01*
X44977402Y40896146D01*
X45022263Y40751471D01*
X45022390Y40751031D01*
X45037544Y40694416D01*
X45084895Y40582124D01*
X45084896Y40582123D01*
X45127906Y40520251D01*
X45183443Y40458775D01*
X45186446Y40450340D01*
X45183034Y40442660D01*
X45057240Y40316866D01*
X45048967Y40313439D01*
X45041236Y40316357D01*
X44964602Y40383818D01*
X44890483Y40429990D01*
X44890479Y40429992D01*
X44820691Y40457853D01*
X44820684Y40457856D01*
X44820682Y40457856D01*
X44817342Y40458776D01*
X44748920Y40477622D01*
X44748562Y40477727D01*
X44603854Y40522598D01*
X44596967Y40528321D01*
X44596144Y40537238D01*
X44596417Y40538018D01*
X44697428Y40795947D01*
X44703634Y40802399D01*
X44704004Y40802553D01*
X44961963Y40903575D01*
X44970914Y40903401D01*
G37*
%TD.AperFunction*%
%TD*%
%TA.AperFunction,Conductor*%
%TO.N,/d7*%
G36*
X51997294Y30490809D02*
G01*
X52000697Y30483279D01*
X52007183Y30381389D01*
X52007184Y30381380D01*
X52026943Y30296336D01*
X52026946Y30296327D01*
X52056597Y30227266D01*
X52056598Y30227263D01*
X52093359Y30162555D01*
X52093538Y30162228D01*
X52164137Y30028171D01*
X52164960Y30019254D01*
X52159237Y30012367D01*
X52158472Y30011999D01*
X51904687Y29901050D01*
X51895734Y29900876D01*
X51895313Y29901050D01*
X51641527Y30011999D01*
X51635320Y30018453D01*
X51635494Y30027406D01*
X51635852Y30028151D01*
X51706461Y30162228D01*
X51706658Y30162584D01*
X51708506Y30165785D01*
X51735981Y30213344D01*
X51781900Y30326225D01*
X51795237Y30400388D01*
X51799436Y30483130D01*
X51803278Y30491218D01*
X51811121Y30494236D01*
X51989021Y30494236D01*
X51997294Y30490809D01*
G37*
%TD.AperFunction*%
%TD*%
%TA.AperFunction,Conductor*%
%TO.N,/d11*%
G36*
X37227405Y40464506D02*
G01*
X37228160Y40464143D01*
X37344367Y40402945D01*
X37362182Y40393563D01*
X37362582Y40393342D01*
X37387466Y40378968D01*
X37413343Y40364019D01*
X37526225Y40318100D01*
X37600388Y40304763D01*
X37683129Y40300564D01*
X37691218Y40296722D01*
X37694236Y40288879D01*
X37694236Y40110979D01*
X37690809Y40102706D01*
X37683279Y40099303D01*
X37581387Y40092817D01*
X37581378Y40092816D01*
X37496334Y40073056D01*
X37496325Y40073053D01*
X37427264Y40043402D01*
X37427261Y40043401D01*
X37362552Y40006640D01*
X37362225Y40006461D01*
X37228170Y39935863D01*
X37219253Y39935040D01*
X37212366Y39940763D01*
X37211998Y39941528D01*
X37167461Y40043401D01*
X37101048Y40195314D01*
X37100875Y40204266D01*
X37101049Y40204687D01*
X37137856Y40288879D01*
X37211999Y40458475D01*
X37218452Y40464680D01*
X37227405Y40464506D01*
G37*
%TD.AperFunction*%
%TD*%
%TA.AperFunction,Conductor*%
%TO.N,/d11*%
G36*
X51797294Y10590809D02*
G01*
X51800697Y10583279D01*
X51807183Y10481389D01*
X51807184Y10481380D01*
X51826943Y10396336D01*
X51826946Y10396327D01*
X51856597Y10327266D01*
X51856598Y10327263D01*
X51893359Y10262555D01*
X51893538Y10262228D01*
X51964137Y10128171D01*
X51964960Y10119254D01*
X51959237Y10112367D01*
X51958472Y10111999D01*
X51704687Y10001050D01*
X51695734Y10000876D01*
X51695313Y10001050D01*
X51441527Y10111999D01*
X51435320Y10118453D01*
X51435494Y10127406D01*
X51435852Y10128151D01*
X51506461Y10262228D01*
X51506658Y10262584D01*
X51508506Y10265785D01*
X51535981Y10313344D01*
X51581900Y10426225D01*
X51595237Y10500388D01*
X51599436Y10583130D01*
X51603278Y10591218D01*
X51611121Y10594236D01*
X51789021Y10594236D01*
X51797294Y10590809D01*
G37*
%TD.AperFunction*%
%TD*%
%TA.AperFunction,Conductor*%
%TO.N,/Power/bst*%
G36*
X36871663Y13003694D02*
G01*
X36877870Y12997240D01*
X36877898Y12997170D01*
X36901234Y12936430D01*
X36901242Y12936409D01*
X36919283Y12889181D01*
X36919288Y12889170D01*
X36984324Y12755268D01*
X36984325Y12755266D01*
X36984327Y12755263D01*
X37011614Y12718156D01*
X37041265Y12677834D01*
X37041272Y12677826D01*
X37118619Y12594139D01*
X37121718Y12585738D01*
X37118300Y12577925D01*
X36922044Y12381669D01*
X36913771Y12378242D01*
X36905864Y12381318D01*
X36897307Y12389164D01*
X36814865Y12464757D01*
X36814862Y12464759D01*
X36814859Y12464762D01*
X36731794Y12523625D01*
X36652256Y12563805D01*
X36563573Y12598765D01*
X36502830Y12622101D01*
X36496336Y12628267D01*
X36496104Y12637218D01*
X36597428Y12895947D01*
X36603634Y12902399D01*
X36604004Y12902553D01*
X36862711Y13003868D01*
X36871663Y13003694D01*
G37*
%TD.AperFunction*%
%TD*%
%TA.AperFunction,Conductor*%
%TO.N,/Power/bst*%
G36*
X39394134Y8518684D02*
G01*
X39485135Y8435243D01*
X39485137Y8435242D01*
X39485140Y8435239D01*
X39568205Y8376376D01*
X39647742Y8336198D01*
X39647745Y8336197D01*
X39647751Y8336194D01*
X39736433Y8301234D01*
X39797169Y8277900D01*
X39803662Y8271735D01*
X39803894Y8262783D01*
X39803866Y8262713D01*
X39702572Y8004056D01*
X39696365Y7997602D01*
X39695944Y7997428D01*
X39437287Y7896134D01*
X39428334Y7896308D01*
X39422127Y7902762D01*
X39422114Y7902793D01*
X39398766Y7963567D01*
X39385831Y7997428D01*
X39380716Y8010818D01*
X39380711Y8010829D01*
X39315676Y8144732D01*
X39315675Y8144733D01*
X39315674Y8144736D01*
X39258735Y8222165D01*
X39258734Y8222167D01*
X39258727Y8222175D01*
X39181380Y8305862D01*
X39178281Y8314263D01*
X39181698Y8322075D01*
X39377956Y8518333D01*
X39386228Y8521759D01*
X39394134Y8518684D01*
G37*
%TD.AperFunction*%
%TD*%
%TA.AperFunction,Conductor*%
%TO.N,/d12*%
G36*
X41604685Y37698952D02*
G01*
X41858472Y37588003D01*
X41864679Y37581549D01*
X41864505Y37572596D01*
X41864137Y37571831D01*
X41793562Y37437818D01*
X41793341Y37437418D01*
X41764021Y37386661D01*
X41764019Y37386657D01*
X41751549Y37356003D01*
X41718099Y37273775D01*
X41704763Y37199613D01*
X41700564Y37116871D01*
X41696722Y37108782D01*
X41688879Y37105764D01*
X41510979Y37105764D01*
X41502706Y37109191D01*
X41499303Y37116721D01*
X41492816Y37218612D01*
X41492815Y37218621D01*
X41473055Y37303664D01*
X41473054Y37303669D01*
X41443403Y37372732D01*
X41443401Y37372737D01*
X41443399Y37372741D01*
X41406640Y37437445D01*
X41406461Y37437772D01*
X41335862Y37571831D01*
X41335039Y37580748D01*
X41340762Y37587635D01*
X41341511Y37587996D01*
X41595313Y37698952D01*
X41604266Y37699125D01*
X41604685Y37698952D01*
G37*
%TD.AperFunction*%
%TD*%
%TA.AperFunction,Conductor*%
%TO.N,/d12*%
G36*
X53997294Y10490809D02*
G01*
X54000697Y10483279D01*
X54007183Y10381389D01*
X54007184Y10381380D01*
X54026943Y10296336D01*
X54026946Y10296327D01*
X54056597Y10227266D01*
X54056598Y10227263D01*
X54093359Y10162555D01*
X54093538Y10162228D01*
X54164137Y10028171D01*
X54164960Y10019254D01*
X54159237Y10012367D01*
X54158472Y10011999D01*
X53904687Y9901050D01*
X53895734Y9900876D01*
X53895313Y9901050D01*
X53641527Y10011999D01*
X53635320Y10018453D01*
X53635494Y10027406D01*
X53635852Y10028151D01*
X53706461Y10162228D01*
X53706658Y10162584D01*
X53708506Y10165785D01*
X53735981Y10213344D01*
X53781900Y10326225D01*
X53795237Y10400388D01*
X53799436Y10483130D01*
X53803278Y10491218D01*
X53811121Y10494236D01*
X53989021Y10494236D01*
X53997294Y10490809D01*
G37*
%TD.AperFunction*%
%TD*%
%TA.AperFunction,Conductor*%
%TO.N,/d13*%
G36*
X31970914Y42003401D02*
G01*
X31977121Y41996947D01*
X31977402Y41996146D01*
X32022263Y41851471D01*
X32022390Y41851031D01*
X32037544Y41794416D01*
X32084895Y41682124D01*
X32084896Y41682123D01*
X32127906Y41620251D01*
X32183443Y41558775D01*
X32186446Y41550340D01*
X32183034Y41542660D01*
X32057240Y41416866D01*
X32048967Y41413439D01*
X32041236Y41416357D01*
X31964602Y41483818D01*
X31890483Y41529990D01*
X31890479Y41529992D01*
X31820691Y41557853D01*
X31820684Y41557856D01*
X31820682Y41557856D01*
X31817342Y41558776D01*
X31748920Y41577622D01*
X31748562Y41577727D01*
X31603854Y41622598D01*
X31596967Y41628321D01*
X31596144Y41637238D01*
X31596417Y41638018D01*
X31697428Y41895947D01*
X31703634Y41902399D01*
X31704004Y41902553D01*
X31961963Y42003575D01*
X31970914Y42003401D01*
G37*
%TD.AperFunction*%
%TD*%
%TA.AperFunction,Conductor*%
%TO.N,/d13*%
G36*
X50557340Y10583035D02*
G01*
X50683134Y10457241D01*
X50686561Y10448968D01*
X50683643Y10441237D01*
X50616181Y10364603D01*
X50570010Y10290484D01*
X50570008Y10290480D01*
X50542146Y10220692D01*
X50542141Y10220676D01*
X50522377Y10148920D01*
X50522272Y10148562D01*
X50477403Y10003857D01*
X50471680Y9996970D01*
X50462763Y9996147D01*
X50461962Y9996428D01*
X50204055Y10097428D01*
X50197601Y10103635D01*
X50197440Y10104024D01*
X50096425Y10361965D01*
X50096599Y10370916D01*
X50103053Y10377123D01*
X50103829Y10377396D01*
X50248558Y10422275D01*
X50248943Y10422386D01*
X50305589Y10437548D01*
X50417877Y10484897D01*
X50479749Y10527906D01*
X50541227Y10583446D01*
X50549660Y10586447D01*
X50557340Y10583035D01*
G37*
%TD.AperFunction*%
%TD*%
%TA.AperFunction,Conductor*%
%TO.N,/sen_b*%
G36*
X16357340Y30683035D02*
G01*
X16483134Y30557241D01*
X16486561Y30548968D01*
X16483643Y30541237D01*
X16416181Y30464603D01*
X16370010Y30390484D01*
X16370008Y30390480D01*
X16342146Y30320692D01*
X16342141Y30320676D01*
X16322377Y30248920D01*
X16322272Y30248562D01*
X16277403Y30103857D01*
X16271680Y30096970D01*
X16262763Y30096147D01*
X16261962Y30096428D01*
X16004055Y30197428D01*
X15997601Y30203635D01*
X15997440Y30204024D01*
X15896425Y30461965D01*
X15896599Y30470916D01*
X15903053Y30477123D01*
X15903829Y30477396D01*
X16048558Y30522275D01*
X16048943Y30522386D01*
X16105589Y30537548D01*
X16217877Y30584897D01*
X16279749Y30627906D01*
X16341227Y30683446D01*
X16349660Y30686447D01*
X16357340Y30683035D01*
G37*
%TD.AperFunction*%
%TD*%
%TA.AperFunction,Conductor*%
%TO.N,/sen_b*%
G36*
X28797294Y29390809D02*
G01*
X28800697Y29383279D01*
X28807183Y29281389D01*
X28807184Y29281380D01*
X28826943Y29196336D01*
X28826946Y29196327D01*
X28856597Y29127266D01*
X28856598Y29127263D01*
X28893359Y29062555D01*
X28893538Y29062228D01*
X28964137Y28928171D01*
X28964960Y28919254D01*
X28959237Y28912367D01*
X28958472Y28911999D01*
X28704687Y28801050D01*
X28695734Y28800876D01*
X28695313Y28801050D01*
X28441527Y28911999D01*
X28435320Y28918453D01*
X28435494Y28927406D01*
X28435852Y28928151D01*
X28506461Y29062228D01*
X28506658Y29062584D01*
X28508506Y29065785D01*
X28535981Y29113344D01*
X28581900Y29226225D01*
X28595237Y29300388D01*
X28599436Y29383130D01*
X28603278Y29391218D01*
X28611121Y29394236D01*
X28789021Y29394236D01*
X28797294Y29390809D01*
G37*
%TD.AperFunction*%
%TD*%
%TA.AperFunction,Conductor*%
%TO.N,/sen_b*%
G36*
X28704685Y28798952D02*
G01*
X28958472Y28688003D01*
X28964679Y28681549D01*
X28964505Y28672596D01*
X28964137Y28671831D01*
X28893562Y28537818D01*
X28893341Y28537418D01*
X28864021Y28486661D01*
X28864019Y28486657D01*
X28851549Y28456003D01*
X28818099Y28373775D01*
X28804763Y28299613D01*
X28800564Y28216871D01*
X28796722Y28208782D01*
X28788879Y28205764D01*
X28610979Y28205764D01*
X28602706Y28209191D01*
X28599303Y28216721D01*
X28592816Y28318612D01*
X28592815Y28318621D01*
X28573055Y28403664D01*
X28573054Y28403669D01*
X28543403Y28472732D01*
X28543401Y28472737D01*
X28543399Y28472741D01*
X28506640Y28537445D01*
X28506461Y28537772D01*
X28435862Y28671831D01*
X28435039Y28680748D01*
X28440762Y28687635D01*
X28441511Y28687996D01*
X28695313Y28798952D01*
X28704266Y28799125D01*
X28704685Y28798952D01*
G37*
%TD.AperFunction*%
%TD*%
%TA.AperFunction,Conductor*%
%TO.N,/sen_b*%
G36*
X48387633Y14659238D02*
G01*
X48388001Y14658473D01*
X48498950Y14404687D01*
X48499124Y14395734D01*
X48498950Y14395313D01*
X48388001Y14141528D01*
X48381547Y14135321D01*
X48372594Y14135495D01*
X48371829Y14135863D01*
X48237806Y14206444D01*
X48237406Y14206665D01*
X48186660Y14235978D01*
X48186661Y14235978D01*
X48186657Y14235980D01*
X48112483Y14266154D01*
X48073777Y14281900D01*
X47999612Y14295237D01*
X47916871Y14299437D01*
X47908782Y14303279D01*
X47905764Y14311122D01*
X47905764Y14489022D01*
X47909191Y14497295D01*
X47916719Y14500698D01*
X48018615Y14507184D01*
X48018618Y14507185D01*
X48018620Y14507185D01*
X48043362Y14512934D01*
X48103669Y14526945D01*
X48172732Y14556597D01*
X48237452Y14593365D01*
X48237771Y14593539D01*
X48371831Y14664139D01*
X48380746Y14664961D01*
X48387633Y14659238D01*
G37*
%TD.AperFunction*%
%TD*%
%TA.AperFunction,Conductor*%
%TO.N,/fault_n_a*%
G36*
X26238025Y42403580D02*
G01*
X26495945Y42302572D01*
X26502398Y42296366D01*
X26502569Y42295951D01*
X26539036Y42202832D01*
X26603572Y42038038D01*
X26603398Y42029085D01*
X26596944Y42022878D01*
X26596143Y42022597D01*
X26451471Y41977738D01*
X26451031Y41977611D01*
X26394414Y41962456D01*
X26282123Y41915106D01*
X26220251Y41872095D01*
X26158775Y41816557D01*
X26150339Y41813554D01*
X26142659Y41816966D01*
X26016865Y41942760D01*
X26013438Y41951033D01*
X26016355Y41958763D01*
X26083819Y42035400D01*
X26129987Y42109515D01*
X26157855Y42179317D01*
X26177624Y42251098D01*
X26177724Y42251436D01*
X26222597Y42396148D01*
X26228319Y42403033D01*
X26237236Y42403856D01*
X26238025Y42403580D01*
G37*
%TD.AperFunction*%
%TD*%
%TA.AperFunction,Conductor*%
%TO.N,/fault_n_a*%
G36*
X55787633Y8559238D02*
G01*
X55788001Y8558473D01*
X55898950Y8304687D01*
X55899124Y8295734D01*
X55898950Y8295313D01*
X55788001Y8041528D01*
X55781547Y8035321D01*
X55772594Y8035495D01*
X55771829Y8035863D01*
X55637806Y8106444D01*
X55637406Y8106665D01*
X55586660Y8135978D01*
X55586661Y8135978D01*
X55586657Y8135980D01*
X55512483Y8166154D01*
X55473777Y8181900D01*
X55399612Y8195237D01*
X55316871Y8199437D01*
X55308782Y8203279D01*
X55305764Y8211122D01*
X55305764Y8389022D01*
X55309191Y8397295D01*
X55316719Y8400698D01*
X55418615Y8407184D01*
X55418618Y8407185D01*
X55418620Y8407185D01*
X55443362Y8412934D01*
X55503669Y8426945D01*
X55572732Y8456597D01*
X55637452Y8493365D01*
X55637771Y8493539D01*
X55771831Y8564139D01*
X55780746Y8564961D01*
X55787633Y8559238D01*
G37*
%TD.AperFunction*%
%TD*%
%TA.AperFunction,Conductor*%
%TO.N,/fault_n_b*%
G36*
X27204685Y30298952D02*
G01*
X27458472Y30188003D01*
X27464679Y30181549D01*
X27464505Y30172596D01*
X27464137Y30171831D01*
X27393562Y30037818D01*
X27393341Y30037418D01*
X27364021Y29986661D01*
X27364019Y29986657D01*
X27351549Y29956003D01*
X27318099Y29873775D01*
X27304763Y29799613D01*
X27300564Y29716871D01*
X27296722Y29708782D01*
X27288879Y29705764D01*
X27110979Y29705764D01*
X27102706Y29709191D01*
X27099303Y29716721D01*
X27092816Y29818612D01*
X27092815Y29818621D01*
X27073055Y29903664D01*
X27073054Y29903669D01*
X27043403Y29972732D01*
X27043401Y29972737D01*
X27043399Y29972741D01*
X27006640Y30037445D01*
X27006461Y30037772D01*
X26935862Y30171831D01*
X26935039Y30180748D01*
X26940762Y30187635D01*
X26941511Y30187996D01*
X27195313Y30298952D01*
X27204266Y30299125D01*
X27204685Y30298952D01*
G37*
%TD.AperFunction*%
%TD*%
%TA.AperFunction,Conductor*%
%TO.N,/fault_n_b*%
G36*
X62504249Y8598234D02*
G01*
X62505378Y8597564D01*
X62638480Y8507997D01*
X62740672Y8439230D01*
X62745623Y8431768D01*
X62744459Y8424008D01*
X62691781Y8325448D01*
X62691778Y8325441D01*
X62660320Y8231724D01*
X62649684Y8196629D01*
X62649229Y8195385D01*
X62601852Y8085650D01*
X62600744Y8083648D01*
X62561890Y8027275D01*
X62560967Y8026104D01*
X62512322Y7971854D01*
X62504247Y7967982D01*
X62495800Y7970954D01*
X62495338Y7971392D01*
X62370206Y8096524D01*
X62366779Y8104797D01*
X62369486Y8112281D01*
X62391677Y8138937D01*
X62407683Y8171638D01*
X62412387Y8202650D01*
X62407502Y8232445D01*
X62375816Y8290278D01*
X62326330Y8348919D01*
X62263040Y8425424D01*
X62261666Y8427501D01*
X62224605Y8499074D01*
X62223844Y8507997D01*
X62229615Y8514844D01*
X62231456Y8515606D01*
X62495330Y8599008D01*
X62504249Y8598234D01*
G37*
%TD.AperFunction*%
%TD*%
%TA.AperFunction,Conductor*%
%TO.N,/en{slash}in1a*%
G36*
X25504685Y38998952D02*
G01*
X25758472Y38888003D01*
X25764679Y38881549D01*
X25764505Y38872596D01*
X25764137Y38871831D01*
X25693562Y38737818D01*
X25693341Y38737418D01*
X25664021Y38686661D01*
X25664019Y38686657D01*
X25651549Y38656003D01*
X25618099Y38573775D01*
X25604763Y38499613D01*
X25600564Y38416871D01*
X25596722Y38408782D01*
X25588879Y38405764D01*
X25410979Y38405764D01*
X25402706Y38409191D01*
X25399303Y38416721D01*
X25392816Y38518612D01*
X25392815Y38518621D01*
X25373055Y38603664D01*
X25373054Y38603669D01*
X25343403Y38672732D01*
X25343401Y38672737D01*
X25343399Y38672741D01*
X25306640Y38737445D01*
X25306461Y38737772D01*
X25235862Y38871831D01*
X25235039Y38880748D01*
X25240762Y38887635D01*
X25241511Y38887996D01*
X25495313Y38998952D01*
X25504266Y38999125D01*
X25504685Y38998952D01*
G37*
%TD.AperFunction*%
%TD*%
%TA.AperFunction,Conductor*%
%TO.N,/en{slash}in1a*%
G36*
X44858763Y26883644D02*
G01*
X44935397Y26816183D01*
X45009515Y26770013D01*
X45009519Y26770011D01*
X45060491Y26749661D01*
X45079317Y26742145D01*
X45151077Y26722380D01*
X45151431Y26722276D01*
X45296145Y26677403D01*
X45303031Y26671681D01*
X45303854Y26662764D01*
X45303573Y26661963D01*
X45202572Y26404056D01*
X45196365Y26397602D01*
X45195944Y26397428D01*
X44938037Y26296427D01*
X44929084Y26296601D01*
X44922877Y26303055D01*
X44922602Y26303838D01*
X44877731Y26448546D01*
X44877608Y26448972D01*
X44862454Y26505586D01*
X44815104Y26617878D01*
X44772094Y26679750D01*
X44716555Y26741227D01*
X44713553Y26749661D01*
X44716964Y26757340D01*
X44842760Y26883136D01*
X44851032Y26886562D01*
X44858763Y26883644D01*
G37*
%TD.AperFunction*%
%TD*%
%TA.AperFunction,Conductor*%
%TO.N,/en{slash}in1b*%
G36*
X28120914Y25753401D02*
G01*
X28127121Y25746947D01*
X28127402Y25746146D01*
X28172263Y25601471D01*
X28172390Y25601031D01*
X28187544Y25544416D01*
X28234895Y25432124D01*
X28234896Y25432123D01*
X28277906Y25370251D01*
X28333443Y25308775D01*
X28336446Y25300340D01*
X28333034Y25292660D01*
X28207240Y25166866D01*
X28198967Y25163439D01*
X28191236Y25166357D01*
X28114602Y25233818D01*
X28040483Y25279990D01*
X28040479Y25279992D01*
X27970691Y25307853D01*
X27970684Y25307856D01*
X27970682Y25307856D01*
X27967342Y25308776D01*
X27898920Y25327622D01*
X27898562Y25327727D01*
X27753854Y25372598D01*
X27746967Y25378321D01*
X27746144Y25387238D01*
X27746417Y25388018D01*
X27847428Y25645947D01*
X27853634Y25652399D01*
X27854004Y25652553D01*
X28111963Y25753575D01*
X28120914Y25753401D01*
G37*
%TD.AperFunction*%
%TD*%
%TA.AperFunction,Conductor*%
%TO.N,/en{slash}in1b*%
G36*
X45387633Y9559238D02*
G01*
X45388001Y9558473D01*
X45498950Y9304687D01*
X45499124Y9295734D01*
X45498950Y9295313D01*
X45388001Y9041528D01*
X45381547Y9035321D01*
X45372594Y9035495D01*
X45371829Y9035863D01*
X45237806Y9106444D01*
X45237406Y9106665D01*
X45186660Y9135978D01*
X45186661Y9135978D01*
X45186657Y9135980D01*
X45112483Y9166154D01*
X45073777Y9181900D01*
X44999612Y9195237D01*
X44916871Y9199437D01*
X44908782Y9203279D01*
X44905764Y9211122D01*
X44905764Y9389022D01*
X44909191Y9397295D01*
X44916719Y9400698D01*
X45018615Y9407184D01*
X45018618Y9407185D01*
X45018620Y9407185D01*
X45043362Y9412934D01*
X45103669Y9426945D01*
X45172732Y9456597D01*
X45237452Y9493365D01*
X45237771Y9493539D01*
X45371831Y9564139D01*
X45380746Y9564961D01*
X45387633Y9559238D01*
G37*
%TD.AperFunction*%
%TD*%
%TA.AperFunction,Conductor*%
%TO.N,/ph{slash}in2b*%
G36*
X45414842Y10870385D02*
G01*
X45415607Y10868533D01*
X45425334Y10837758D01*
X45499007Y10604672D01*
X45498233Y10595751D01*
X45497558Y10594614D01*
X45339229Y10359328D01*
X45331767Y10354377D01*
X45324007Y10355541D01*
X45225442Y10408221D01*
X45131725Y10439679D01*
X45131724Y10439680D01*
X45131713Y10439683D01*
X45096631Y10450315D01*
X45095386Y10450770D01*
X45042165Y10473747D01*
X44985641Y10498151D01*
X44983645Y10499257D01*
X44927279Y10538106D01*
X44926108Y10539028D01*
X44871853Y10587678D01*
X44867981Y10595753D01*
X44870953Y10604200D01*
X44871372Y10604643D01*
X44996524Y10729795D01*
X45004796Y10733221D01*
X45012282Y10730513D01*
X45038937Y10708324D01*
X45071637Y10692317D01*
X45102648Y10687613D01*
X45132443Y10692498D01*
X45190276Y10724184D01*
X45248917Y10773669D01*
X45325425Y10836963D01*
X45327492Y10838331D01*
X45399073Y10875396D01*
X45407995Y10876156D01*
X45414842Y10870385D01*
G37*
%TD.AperFunction*%
%TD*%
%TA.AperFunction,Conductor*%
%TO.N,/ph{slash}in2b*%
G36*
X28320914Y26753401D02*
G01*
X28327121Y26746947D01*
X28327402Y26746146D01*
X28372263Y26601471D01*
X28372390Y26601031D01*
X28387544Y26544416D01*
X28434895Y26432124D01*
X28434896Y26432123D01*
X28477906Y26370251D01*
X28533443Y26308775D01*
X28536446Y26300340D01*
X28533034Y26292660D01*
X28407240Y26166866D01*
X28398967Y26163439D01*
X28391236Y26166357D01*
X28314602Y26233818D01*
X28240483Y26279990D01*
X28240479Y26279992D01*
X28170691Y26307853D01*
X28170684Y26307856D01*
X28170682Y26307856D01*
X28167342Y26308776D01*
X28098920Y26327622D01*
X28098562Y26327727D01*
X27953854Y26372598D01*
X27946967Y26378321D01*
X27946144Y26387238D01*
X27946417Y26388018D01*
X28047428Y26645947D01*
X28053634Y26652399D01*
X28054004Y26652553D01*
X28311963Y26753575D01*
X28320914Y26753401D01*
G37*
%TD.AperFunction*%
%TD*%
%TA.AperFunction,Conductor*%
%TO.N,/nSleepa*%
G36*
X27104685Y37998952D02*
G01*
X27358472Y37888003D01*
X27364679Y37881549D01*
X27364505Y37872596D01*
X27364137Y37871831D01*
X27293562Y37737818D01*
X27293341Y37737418D01*
X27264021Y37686661D01*
X27264019Y37686657D01*
X27251549Y37656003D01*
X27218099Y37573775D01*
X27204763Y37499613D01*
X27200564Y37416871D01*
X27196722Y37408782D01*
X27188879Y37405764D01*
X27010979Y37405764D01*
X27002706Y37409191D01*
X26999303Y37416721D01*
X26992816Y37518612D01*
X26992815Y37518621D01*
X26973055Y37603664D01*
X26973054Y37603669D01*
X26943403Y37672732D01*
X26943401Y37672737D01*
X26943399Y37672741D01*
X26906640Y37737445D01*
X26906461Y37737772D01*
X26835862Y37871831D01*
X26835039Y37880748D01*
X26840762Y37887635D01*
X26841511Y37887996D01*
X27095313Y37998952D01*
X27104266Y37999125D01*
X27104685Y37998952D01*
G37*
%TD.AperFunction*%
%TD*%
%TA.AperFunction,Conductor*%
%TO.N,/nSleepa*%
G36*
X44958763Y27783644D02*
G01*
X45035397Y27716183D01*
X45109515Y27670013D01*
X45109519Y27670011D01*
X45160491Y27649661D01*
X45179317Y27642145D01*
X45251077Y27622380D01*
X45251431Y27622276D01*
X45396145Y27577403D01*
X45403031Y27571681D01*
X45403854Y27562764D01*
X45403573Y27561963D01*
X45302572Y27304056D01*
X45296365Y27297602D01*
X45295944Y27297428D01*
X45038037Y27196427D01*
X45029084Y27196601D01*
X45022877Y27203055D01*
X45022602Y27203838D01*
X44977731Y27348546D01*
X44977608Y27348972D01*
X44962454Y27405586D01*
X44915104Y27517878D01*
X44872094Y27579750D01*
X44816555Y27641227D01*
X44813553Y27649661D01*
X44816964Y27657340D01*
X44942760Y27783136D01*
X44951032Y27786562D01*
X44958763Y27783644D01*
G37*
%TD.AperFunction*%
%TD*%
%TA.AperFunction,Conductor*%
%TO.N,/nSleepb*%
G36*
X49587633Y21859238D02*
G01*
X49588001Y21858473D01*
X49698950Y21604687D01*
X49699124Y21595734D01*
X49698950Y21595313D01*
X49588001Y21341528D01*
X49581547Y21335321D01*
X49572594Y21335495D01*
X49571829Y21335863D01*
X49437806Y21406444D01*
X49437406Y21406665D01*
X49386660Y21435978D01*
X49386661Y21435978D01*
X49386657Y21435980D01*
X49312483Y21466154D01*
X49273777Y21481900D01*
X49199612Y21495237D01*
X49116871Y21499437D01*
X49108782Y21503279D01*
X49105764Y21511122D01*
X49105764Y21689022D01*
X49109191Y21697295D01*
X49116719Y21700698D01*
X49218615Y21707184D01*
X49218618Y21707185D01*
X49218620Y21707185D01*
X49243362Y21712934D01*
X49303669Y21726945D01*
X49372732Y21756597D01*
X49437452Y21793365D01*
X49437771Y21793539D01*
X49571831Y21864139D01*
X49580746Y21864961D01*
X49587633Y21859238D01*
G37*
%TD.AperFunction*%
%TD*%
%TA.AperFunction,Conductor*%
%TO.N,/nSleepb*%
G36*
X40227405Y23064506D02*
G01*
X40228160Y23064143D01*
X40344367Y23002945D01*
X40362182Y22993563D01*
X40362582Y22993342D01*
X40387466Y22978968D01*
X40413343Y22964019D01*
X40526225Y22918100D01*
X40600388Y22904763D01*
X40683129Y22900564D01*
X40691218Y22896722D01*
X40694236Y22888879D01*
X40694236Y22710979D01*
X40690809Y22702706D01*
X40683279Y22699303D01*
X40581387Y22692817D01*
X40581378Y22692816D01*
X40496334Y22673056D01*
X40496325Y22673053D01*
X40427264Y22643402D01*
X40427261Y22643401D01*
X40362552Y22606640D01*
X40362225Y22606461D01*
X40228170Y22535863D01*
X40219253Y22535040D01*
X40212366Y22540763D01*
X40211998Y22541528D01*
X40167461Y22643401D01*
X40101048Y22795314D01*
X40100875Y22804266D01*
X40101049Y22804687D01*
X40137856Y22888879D01*
X40211999Y23058475D01*
X40218452Y23064680D01*
X40227405Y23064506D01*
G37*
%TD.AperFunction*%
%TD*%
%TA.AperFunction,Conductor*%
%TO.N,+3V3*%
G36*
X35741911Y4050240D02*
G01*
X35745333Y4042310D01*
X35750106Y3879711D01*
X35764832Y3729951D01*
X35788286Y3600102D01*
X35814394Y3504785D01*
X35819573Y3485876D01*
X35902078Y3287050D01*
X36005207Y3099068D01*
X36005222Y3099042D01*
X36005236Y3099017D01*
X36073502Y2978096D01*
X36073806Y2977523D01*
X36204564Y2712618D01*
X36205152Y2703682D01*
X36199251Y2696947D01*
X36198737Y2696709D01*
X35449665Y2371029D01*
X35440712Y2370873D01*
X35440335Y2371029D01*
X34691151Y2696757D01*
X34684930Y2703199D01*
X34685086Y2712152D01*
X34685274Y2712562D01*
X34685301Y2712618D01*
X34784977Y2919685D01*
X34785261Y2920232D01*
X34884793Y3099069D01*
X34997441Y3306335D01*
X35076385Y3504785D01*
X35104733Y3613731D01*
X35126104Y3736828D01*
X35140138Y3883681D01*
X35144675Y4042301D01*
X35148337Y4050473D01*
X35156370Y4053667D01*
X35733638Y4053667D01*
X35741911Y4050240D01*
G37*
%TD.AperFunction*%
%TD*%
%TA.AperFunction,Conductor*%
%TO.N,+3V3*%
G36*
X46296612Y36090809D02*
G01*
X46300038Y36082577D01*
X46300245Y36019723D01*
X46300257Y36016296D01*
X46300257Y36016285D01*
X46311807Y35811385D01*
X46332798Y35716661D01*
X46332799Y35716657D01*
X46366125Y35627415D01*
X46365809Y35618466D01*
X46359851Y35612602D01*
X46104687Y35501050D01*
X46095734Y35500876D01*
X46095313Y35501050D01*
X45913692Y35580450D01*
X45840113Y35612617D01*
X45833907Y35619070D01*
X45833827Y35627391D01*
X45868721Y35721782D01*
X45889696Y35822178D01*
X45897145Y36018856D01*
X45899574Y36082979D01*
X45903312Y36091116D01*
X45911266Y36094236D01*
X46288339Y36094236D01*
X46296612Y36090809D01*
G37*
%TD.AperFunction*%
%TD*%
%TA.AperFunction,Conductor*%
%TO.N,+3V3*%
G36*
X53129505Y40853392D02*
G01*
X53129534Y40853364D01*
X53176497Y40806708D01*
X53176506Y40806700D01*
X53176513Y40806693D01*
X53329591Y40669951D01*
X53329593Y40669950D01*
X53329595Y40669948D01*
X53370503Y40643882D01*
X53411416Y40617813D01*
X53498083Y40578275D01*
X53504188Y40571723D01*
X53504121Y40563364D01*
X53402572Y40304056D01*
X53396365Y40297602D01*
X53395944Y40297428D01*
X53136601Y40195865D01*
X53127648Y40196039D01*
X53121708Y40201866D01*
X53079637Y40293284D01*
X53079634Y40293289D01*
X53079629Y40293298D01*
X53023483Y40379100D01*
X53023476Y40379110D01*
X52846049Y40570505D01*
X52842937Y40578902D01*
X52846355Y40586731D01*
X53112989Y40853365D01*
X53121261Y40856791D01*
X53129505Y40853392D01*
G37*
%TD.AperFunction*%
%TD*%
%TA.AperFunction,Conductor*%
%TO.N,/reset_n*%
G36*
X33735474Y2531703D02*
G01*
X33740441Y2524252D01*
X33740527Y2523765D01*
X33761999Y2384563D01*
X33762106Y2383614D01*
X33771921Y2246492D01*
X33771950Y2245540D01*
X33769503Y2001676D01*
X33769501Y2001545D01*
X33766188Y1845402D01*
X33766188Y1845399D01*
X33780914Y1668984D01*
X33780916Y1668974D01*
X33824677Y1521084D01*
X33827309Y1512190D01*
X33866451Y1432383D01*
X33918770Y1349580D01*
X33989542Y1258781D01*
X33989547Y1258775D01*
X34026876Y1218558D01*
X34071074Y1170940D01*
X34074191Y1162546D01*
X34070772Y1154708D01*
X33945300Y1029236D01*
X33937027Y1025809D01*
X33929060Y1028941D01*
X33857887Y1095141D01*
X33818696Y1131595D01*
X33708074Y1218547D01*
X33708069Y1218551D01*
X33708061Y1218557D01*
X33603787Y1285574D01*
X33504235Y1336080D01*
X33464585Y1349582D01*
X33312758Y1401284D01*
X33312737Y1401290D01*
X33120532Y1441635D01*
X33024704Y1460129D01*
X33024037Y1460278D01*
X32784936Y1521084D01*
X32783482Y1521557D01*
X32555825Y1612452D01*
X32549412Y1618702D01*
X32549297Y1627656D01*
X32549599Y1628348D01*
X32901764Y2365416D01*
X32908422Y2371401D01*
X32910037Y2371844D01*
X33726694Y2533458D01*
X33735474Y2531703D01*
G37*
%TD.AperFunction*%
%TD*%
%TA.AperFunction,Conductor*%
%TO.N,/reset_n*%
G36*
X60127405Y31064506D02*
G01*
X60128160Y31064143D01*
X60244367Y31002945D01*
X60262182Y30993563D01*
X60262582Y30993342D01*
X60287466Y30978968D01*
X60313343Y30964019D01*
X60426225Y30918100D01*
X60500388Y30904763D01*
X60583129Y30900564D01*
X60591218Y30896722D01*
X60594236Y30888879D01*
X60594236Y30710979D01*
X60590809Y30702706D01*
X60583279Y30699303D01*
X60481387Y30692817D01*
X60481378Y30692816D01*
X60396334Y30673056D01*
X60396325Y30673053D01*
X60327264Y30643402D01*
X60327261Y30643401D01*
X60262552Y30606640D01*
X60262225Y30606461D01*
X60128170Y30535863D01*
X60119253Y30535040D01*
X60112366Y30540763D01*
X60111998Y30541528D01*
X60067461Y30643401D01*
X60001048Y30795314D01*
X60000875Y30804266D01*
X60001049Y30804687D01*
X60037856Y30888879D01*
X60111999Y31058475D01*
X60118452Y31064680D01*
X60127405Y31064506D01*
G37*
%TD.AperFunction*%
%TD*%
%TA.AperFunction,Conductor*%
%TO.N,/reset_n*%
G36*
X63297294Y22390809D02*
G01*
X63300697Y22383279D01*
X63307183Y22281389D01*
X63307184Y22281380D01*
X63326943Y22196336D01*
X63326946Y22196327D01*
X63356597Y22127266D01*
X63356598Y22127263D01*
X63393359Y22062555D01*
X63393538Y22062228D01*
X63464137Y21928171D01*
X63464960Y21919254D01*
X63459237Y21912367D01*
X63458472Y21911999D01*
X63204687Y21801050D01*
X63195734Y21800876D01*
X63195313Y21801050D01*
X62941527Y21911999D01*
X62935320Y21918453D01*
X62935494Y21927406D01*
X62935852Y21928151D01*
X63006461Y22062228D01*
X63006658Y22062584D01*
X63008506Y22065785D01*
X63035981Y22113344D01*
X63081900Y22226225D01*
X63095237Y22300388D01*
X63099436Y22383130D01*
X63103278Y22391218D01*
X63111121Y22394236D01*
X63289021Y22394236D01*
X63297294Y22390809D01*
G37*
%TD.AperFunction*%
%TD*%
%TA.AperFunction,Conductor*%
%TO.N,/reset_n*%
G36*
X63470914Y21903401D02*
G01*
X63477121Y21896947D01*
X63477402Y21896146D01*
X63522263Y21751471D01*
X63522390Y21751031D01*
X63537544Y21694416D01*
X63584895Y21582124D01*
X63584896Y21582123D01*
X63627906Y21520251D01*
X63683443Y21458775D01*
X63686446Y21450340D01*
X63683034Y21442660D01*
X63557240Y21316866D01*
X63548967Y21313439D01*
X63541236Y21316357D01*
X63464602Y21383818D01*
X63390483Y21429990D01*
X63390479Y21429992D01*
X63320691Y21457853D01*
X63320684Y21457856D01*
X63320682Y21457856D01*
X63317342Y21458776D01*
X63248920Y21477622D01*
X63248562Y21477727D01*
X63103854Y21522598D01*
X63096967Y21528321D01*
X63096144Y21537238D01*
X63096417Y21538018D01*
X63197428Y21795947D01*
X63203634Y21802399D01*
X63204004Y21802553D01*
X63461963Y21903575D01*
X63470914Y21903401D01*
G37*
%TD.AperFunction*%
%TD*%
%TA.AperFunction,Conductor*%
%TO.N,VBUS*%
G36*
X53686731Y42853644D02*
G01*
X53953363Y42587012D01*
X53956790Y42578739D01*
X53953390Y42570493D01*
X53906700Y42523496D01*
X53906691Y42523486D01*
X53769944Y42370402D01*
X53717813Y42288587D01*
X53717811Y42288583D01*
X53696986Y42242935D01*
X53678274Y42201918D01*
X53671722Y42195813D01*
X53663363Y42195880D01*
X53426641Y42288583D01*
X53404054Y42297429D01*
X53397601Y42303635D01*
X53397440Y42304024D01*
X53295863Y42563400D01*
X53296037Y42572352D01*
X53301862Y42578291D01*
X53393283Y42620363D01*
X53393290Y42620369D01*
X53393296Y42620371D01*
X53433281Y42646537D01*
X53479105Y42676521D01*
X53670505Y42853952D01*
X53678901Y42857063D01*
X53686731Y42853644D01*
G37*
%TD.AperFunction*%
%TD*%
%TA.AperFunction,Conductor*%
%TO.N,VBUS*%
G36*
X53672350Y42403963D02*
G01*
X53678291Y42398134D01*
X53720358Y42306725D01*
X53720369Y42306705D01*
X53776515Y42220903D01*
X53776522Y42220893D01*
X53953950Y42029496D01*
X53957062Y42021099D01*
X53953643Y42013269D01*
X53687011Y41746637D01*
X53678738Y41743210D01*
X53670492Y41746610D01*
X53653393Y41763597D01*
X53623504Y41793290D01*
X53623494Y41793299D01*
X53623489Y41793304D01*
X53470409Y41930049D01*
X53470407Y41930051D01*
X53470404Y41930053D01*
X53388586Y41982186D01*
X53388583Y41982188D01*
X53320454Y42013269D01*
X53301915Y42021727D01*
X53295810Y42028279D01*
X53295877Y42036638D01*
X53397428Y42295947D01*
X53403634Y42302399D01*
X53404004Y42302553D01*
X53663398Y42404137D01*
X53672350Y42403963D01*
G37*
%TD.AperFunction*%
%TD*%
%TA.AperFunction,Conductor*%
%TO.N,VBUS*%
G36*
X57381534Y38865810D02*
G01*
X57387398Y38859852D01*
X57498950Y38604687D01*
X57499124Y38595734D01*
X57498950Y38595313D01*
X57387384Y38340115D01*
X57380930Y38333908D01*
X57372607Y38333828D01*
X57372390Y38333908D01*
X57355600Y38340115D01*
X57278218Y38368721D01*
X57278216Y38368722D01*
X57278215Y38368722D01*
X57247219Y38375198D01*
X57177822Y38389696D01*
X57152403Y38390659D01*
X56917021Y38399574D01*
X56908884Y38403312D01*
X56905764Y38411266D01*
X56905764Y38788339D01*
X56909191Y38796612D01*
X56917423Y38800039D01*
X56983685Y38800257D01*
X56983703Y38800258D01*
X56983705Y38800258D01*
X57188611Y38811807D01*
X57188614Y38811808D01*
X57188618Y38811808D01*
X57283344Y38832800D01*
X57372587Y38866126D01*
X57381534Y38865810D01*
G37*
%TD.AperFunction*%
%TD*%
%TA.AperFunction,Conductor*%
%TO.N,VBUS*%
G36*
X57780084Y44180632D02*
G01*
X57864576Y44111685D01*
X57996858Y44003740D01*
X58001101Y43995854D01*
X58001147Y43995245D01*
X58014728Y43716780D01*
X58011708Y43708350D01*
X58004300Y43704578D01*
X57904202Y43693752D01*
X57805067Y43667609D01*
X57567542Y43559696D01*
X57558592Y43559394D01*
X57552237Y43565116D01*
X57482506Y43704578D01*
X57383608Y43902375D01*
X57382973Y43911307D01*
X57388802Y43918053D01*
X57460220Y43954072D01*
X57630228Y44052307D01*
X57702152Y44111692D01*
X57764051Y44179458D01*
X57772160Y44183254D01*
X57780084Y44180632D01*
G37*
%TD.AperFunction*%
%TD*%
%TA.AperFunction,Conductor*%
%TO.N,VBUS*%
G36*
X48621782Y34431279D02*
G01*
X48722177Y34410304D01*
X48982980Y34400427D01*
X48991116Y34396689D01*
X48994236Y34388735D01*
X48994236Y34011662D01*
X48990809Y34003389D01*
X48982575Y33999962D01*
X48916294Y33999743D01*
X48916283Y33999743D01*
X48711382Y33988193D01*
X48616660Y33967202D01*
X48616656Y33967201D01*
X48527414Y33933875D01*
X48518465Y33934191D01*
X48512601Y33940149D01*
X48500774Y33967201D01*
X48401048Y34195314D01*
X48400875Y34204266D01*
X48401049Y34204687D01*
X48512617Y34459889D01*
X48519069Y34466093D01*
X48527390Y34466173D01*
X48621782Y34431279D01*
G37*
%TD.AperFunction*%
%TD*%
%TA.AperFunction,Conductor*%
%TO.N,/usb_d-*%
G36*
X60255280Y41496685D02*
G01*
X60346345Y41447395D01*
X60346350Y41447394D01*
X60346359Y41447389D01*
X60429548Y41418768D01*
X60429547Y41418768D01*
X60454538Y41414957D01*
X60504517Y41407334D01*
X60580433Y41404398D01*
X60580623Y41404388D01*
X60726218Y41395036D01*
X60734253Y41391086D01*
X60737143Y41382610D01*
X60737072Y41381871D01*
X60701545Y41104914D01*
X60697093Y41097144D01*
X60696214Y41096528D01*
X60458691Y40945613D01*
X60449871Y40944068D01*
X60442542Y40949214D01*
X60442194Y40949798D01*
X60373575Y41073096D01*
X60373416Y41073392D01*
X60345212Y41127676D01*
X60345211Y41127677D01*
X60274987Y41226070D01*
X60274986Y41226072D01*
X60218477Y41277374D01*
X60218476Y41277376D01*
X60148748Y41325953D01*
X60143919Y41333494D01*
X60145513Y41341751D01*
X60239792Y41492597D01*
X60247082Y41497795D01*
X60255280Y41496685D01*
G37*
%TD.AperFunction*%
%TD*%
%TA.AperFunction,Conductor*%
%TO.N,/usb_d-*%
G36*
X58127405Y42364506D02*
G01*
X58128160Y42364143D01*
X58244367Y42302945D01*
X58262182Y42293563D01*
X58262582Y42293342D01*
X58287466Y42278968D01*
X58313343Y42264019D01*
X58426225Y42218100D01*
X58500388Y42204763D01*
X58583129Y42200564D01*
X58591218Y42196722D01*
X58594236Y42188879D01*
X58594236Y42010979D01*
X58590809Y42002706D01*
X58583279Y41999303D01*
X58481387Y41992817D01*
X58481378Y41992816D01*
X58396334Y41973056D01*
X58396325Y41973053D01*
X58327264Y41943402D01*
X58327261Y41943401D01*
X58262552Y41906640D01*
X58262225Y41906461D01*
X58128170Y41835863D01*
X58119253Y41835040D01*
X58112366Y41840763D01*
X58111998Y41841528D01*
X58067461Y41943401D01*
X58001048Y42095314D01*
X58000875Y42104266D01*
X58001049Y42104687D01*
X58037856Y42188879D01*
X58111999Y42358475D01*
X58118452Y42364680D01*
X58127405Y42364506D01*
G37*
%TD.AperFunction*%
%TD*%
%TA.AperFunction,Conductor*%
%TO.N,/USB_RX*%
G36*
X55904685Y36598952D02*
G01*
X56158472Y36488003D01*
X56164679Y36481549D01*
X56164505Y36472596D01*
X56164137Y36471831D01*
X56093562Y36337818D01*
X56093341Y36337418D01*
X56064021Y36286661D01*
X56064019Y36286657D01*
X56051549Y36256003D01*
X56018099Y36173775D01*
X56004763Y36099613D01*
X56000564Y36016871D01*
X55996722Y36008782D01*
X55988879Y36005764D01*
X55810979Y36005764D01*
X55802706Y36009191D01*
X55799303Y36016721D01*
X55792816Y36118612D01*
X55792815Y36118621D01*
X55773055Y36203664D01*
X55773054Y36203669D01*
X55743403Y36272732D01*
X55743401Y36272737D01*
X55743399Y36272741D01*
X55706640Y36337445D01*
X55706461Y36337772D01*
X55635862Y36471831D01*
X55635039Y36480748D01*
X55640762Y36487635D01*
X55641511Y36487996D01*
X55895313Y36598952D01*
X55904266Y36599125D01*
X55904685Y36598952D01*
G37*
%TD.AperFunction*%
%TD*%
%TA.AperFunction,Conductor*%
%TO.N,/USB_RX*%
G36*
X62597294Y11790809D02*
G01*
X62600697Y11783279D01*
X62607183Y11681389D01*
X62607184Y11681380D01*
X62626943Y11596336D01*
X62626946Y11596327D01*
X62656597Y11527266D01*
X62656598Y11527263D01*
X62693359Y11462555D01*
X62693538Y11462228D01*
X62764137Y11328171D01*
X62764960Y11319254D01*
X62759237Y11312367D01*
X62758472Y11311999D01*
X62504687Y11201050D01*
X62495734Y11200876D01*
X62495313Y11201050D01*
X62241527Y11311999D01*
X62235320Y11318453D01*
X62235494Y11327406D01*
X62235852Y11328151D01*
X62306461Y11462228D01*
X62306658Y11462584D01*
X62308506Y11465785D01*
X62335981Y11513344D01*
X62381900Y11626225D01*
X62395237Y11700388D01*
X62399436Y11783130D01*
X62403278Y11791218D01*
X62411121Y11794236D01*
X62589021Y11794236D01*
X62597294Y11790809D01*
G37*
%TD.AperFunction*%
%TD*%
%TA.AperFunction,Conductor*%
%TO.N,/USB_TX*%
G36*
X54904685Y36498952D02*
G01*
X55158472Y36388003D01*
X55164679Y36381549D01*
X55164505Y36372596D01*
X55164137Y36371831D01*
X55093562Y36237818D01*
X55093341Y36237418D01*
X55064021Y36186661D01*
X55064019Y36186657D01*
X55051549Y36156003D01*
X55018099Y36073775D01*
X55004763Y35999613D01*
X55000564Y35916871D01*
X54996722Y35908782D01*
X54988879Y35905764D01*
X54810979Y35905764D01*
X54802706Y35909191D01*
X54799303Y35916721D01*
X54792816Y36018612D01*
X54792815Y36018621D01*
X54773055Y36103664D01*
X54773054Y36103669D01*
X54743403Y36172732D01*
X54743401Y36172737D01*
X54743399Y36172741D01*
X54706640Y36237445D01*
X54706461Y36237772D01*
X54635862Y36371831D01*
X54635039Y36380748D01*
X54640762Y36387635D01*
X54641511Y36387996D01*
X54895313Y36498952D01*
X54904266Y36499125D01*
X54904685Y36498952D01*
G37*
%TD.AperFunction*%
%TD*%
%TA.AperFunction,Conductor*%
%TO.N,/USB_TX*%
G36*
X61597294Y11790809D02*
G01*
X61600697Y11783279D01*
X61607183Y11681389D01*
X61607184Y11681380D01*
X61626943Y11596336D01*
X61626946Y11596327D01*
X61656597Y11527266D01*
X61656598Y11527263D01*
X61693359Y11462555D01*
X61693538Y11462228D01*
X61764137Y11328171D01*
X61764960Y11319254D01*
X61759237Y11312367D01*
X61758472Y11311999D01*
X61504687Y11201050D01*
X61495734Y11200876D01*
X61495313Y11201050D01*
X61241527Y11311999D01*
X61235320Y11318453D01*
X61235494Y11327406D01*
X61235852Y11328151D01*
X61306461Y11462228D01*
X61306658Y11462584D01*
X61308506Y11465785D01*
X61335981Y11513344D01*
X61381900Y11626225D01*
X61395237Y11700388D01*
X61399436Y11783130D01*
X61403278Y11791218D01*
X61411121Y11794236D01*
X61589021Y11794236D01*
X61597294Y11790809D01*
G37*
%TD.AperFunction*%
%TD*%
%TA.AperFunction,Conductor*%
%TO.N,/DTR*%
G36*
X48697294Y37590809D02*
G01*
X48700697Y37583279D01*
X48707183Y37481389D01*
X48707184Y37481380D01*
X48726943Y37396336D01*
X48726946Y37396327D01*
X48756597Y37327266D01*
X48756598Y37327263D01*
X48793359Y37262555D01*
X48793538Y37262228D01*
X48864137Y37128171D01*
X48864960Y37119254D01*
X48859237Y37112367D01*
X48858472Y37111999D01*
X48604687Y37001050D01*
X48595734Y37000876D01*
X48595313Y37001050D01*
X48341527Y37111999D01*
X48335320Y37118453D01*
X48335494Y37127406D01*
X48335852Y37128151D01*
X48406461Y37262228D01*
X48406658Y37262584D01*
X48408506Y37265785D01*
X48435981Y37313344D01*
X48481900Y37426225D01*
X48495237Y37500388D01*
X48499436Y37583130D01*
X48503278Y37591218D01*
X48511121Y37594236D01*
X48689021Y37594236D01*
X48697294Y37590809D01*
G37*
%TD.AperFunction*%
%TD*%
%TA.AperFunction,Conductor*%
%TO.N,/DTR*%
G36*
X48703575Y39798405D02*
G01*
X48704467Y39797834D01*
X48870356Y39680227D01*
X48933813Y39635239D01*
X48938580Y39627658D01*
X48936591Y39618927D01*
X48936076Y39618255D01*
X48887418Y39559189D01*
X48886552Y39558247D01*
X48831503Y39504630D01*
X48764766Y39436464D01*
X48764763Y39436460D01*
X48718323Y39352971D01*
X48704789Y39295219D01*
X48704789Y39295214D01*
X48700724Y39233869D01*
X48696758Y39225841D01*
X48689050Y39222943D01*
X48510974Y39222943D01*
X48502701Y39226370D01*
X48499298Y39233894D01*
X48491663Y39352972D01*
X48485759Y39445063D01*
X48445682Y39607168D01*
X48415967Y39713152D01*
X48417034Y39722041D01*
X48424073Y39727575D01*
X48694700Y39799590D01*
X48703575Y39798405D01*
G37*
%TD.AperFunction*%
%TD*%
%TA.AperFunction,Conductor*%
%TO.N,/brake_d*%
G36*
X43237304Y41203740D02*
G01*
X43243175Y41196979D01*
X43243270Y41196681D01*
X43324380Y40930320D01*
X43323511Y40921408D01*
X43322897Y40920385D01*
X43165505Y40686235D01*
X43158046Y40681281D01*
X43149268Y40683052D01*
X43148379Y40683713D01*
X43035506Y40776212D01*
X43035267Y40776413D01*
X42967352Y40835173D01*
X42967348Y40835177D01*
X42877574Y40881617D01*
X42877571Y40881618D01*
X42815556Y40895202D01*
X42815559Y40895202D01*
X42748568Y40899325D01*
X42740521Y40903254D01*
X42737587Y40911003D01*
X42737587Y41088726D01*
X42741014Y41096999D01*
X42748852Y41100418D01*
X42860182Y41104543D01*
X42952719Y41117405D01*
X43105952Y41163494D01*
X43228373Y41204371D01*
X43237304Y41203740D01*
G37*
%TD.AperFunction*%
%TD*%
%TA.AperFunction,Conductor*%
%TO.N,/brake_d*%
G36*
X46997294Y25990809D02*
G01*
X47000697Y25983279D01*
X47007183Y25881389D01*
X47007184Y25881380D01*
X47026943Y25796336D01*
X47026946Y25796327D01*
X47056597Y25727266D01*
X47056598Y25727263D01*
X47093359Y25662555D01*
X47093538Y25662228D01*
X47164137Y25528171D01*
X47164960Y25519254D01*
X47159237Y25512367D01*
X47158472Y25511999D01*
X46904687Y25401050D01*
X46895734Y25400876D01*
X46895313Y25401050D01*
X46641527Y25511999D01*
X46635320Y25518453D01*
X46635494Y25527406D01*
X46635852Y25528151D01*
X46706461Y25662228D01*
X46706658Y25662584D01*
X46708506Y25665785D01*
X46735981Y25713344D01*
X46781900Y25826225D01*
X46795237Y25900388D01*
X46799436Y25983130D01*
X46803278Y25991218D01*
X46811121Y25994236D01*
X46989021Y25994236D01*
X46997294Y25990809D01*
G37*
%TD.AperFunction*%
%TD*%
%TA.AperFunction,Conductor*%
%TO.N,/brake_c*%
G36*
X39404685Y39398952D02*
G01*
X39658472Y39288003D01*
X39664679Y39281549D01*
X39664505Y39272596D01*
X39664137Y39271831D01*
X39593562Y39137818D01*
X39593341Y39137418D01*
X39564021Y39086661D01*
X39564019Y39086657D01*
X39551549Y39056003D01*
X39518099Y38973775D01*
X39504763Y38899613D01*
X39500564Y38816871D01*
X39496722Y38808782D01*
X39488879Y38805764D01*
X39310979Y38805764D01*
X39302706Y38809191D01*
X39299303Y38816721D01*
X39292816Y38918612D01*
X39292815Y38918621D01*
X39273055Y39003664D01*
X39273054Y39003669D01*
X39243403Y39072732D01*
X39243401Y39072737D01*
X39243399Y39072741D01*
X39206640Y39137445D01*
X39206461Y39137772D01*
X39135862Y39271831D01*
X39135039Y39280748D01*
X39140762Y39287635D01*
X39141511Y39287996D01*
X39395313Y39398952D01*
X39404266Y39399125D01*
X39404685Y39398952D01*
G37*
%TD.AperFunction*%
%TD*%
%TA.AperFunction,Conductor*%
%TO.N,/brake_c*%
G36*
X49593091Y19264506D02*
G01*
X49593846Y19264143D01*
X49710053Y19202945D01*
X49727868Y19193563D01*
X49728268Y19193342D01*
X49753152Y19178968D01*
X49779029Y19164019D01*
X49891911Y19118100D01*
X49966074Y19104763D01*
X50048815Y19100564D01*
X50056904Y19096722D01*
X50059922Y19088879D01*
X50059922Y18910979D01*
X50056495Y18902706D01*
X50048965Y18899303D01*
X49947073Y18892817D01*
X49947064Y18892816D01*
X49862020Y18873056D01*
X49862011Y18873053D01*
X49792950Y18843402D01*
X49792947Y18843401D01*
X49728238Y18806640D01*
X49727911Y18806461D01*
X49593856Y18735863D01*
X49584939Y18735040D01*
X49578052Y18740763D01*
X49577684Y18741528D01*
X49533147Y18843401D01*
X49466734Y18995314D01*
X49466561Y19004266D01*
X49466735Y19004687D01*
X49503542Y19088879D01*
X49577685Y19258475D01*
X49584138Y19264680D01*
X49593091Y19264506D01*
G37*
%TD.AperFunction*%
%TD*%
%TA.AperFunction,Conductor*%
%TO.N,/IO0_boot_option*%
G36*
X25887633Y40259238D02*
G01*
X25888001Y40258473D01*
X25998950Y40004687D01*
X25999124Y39995734D01*
X25998950Y39995313D01*
X25888001Y39741528D01*
X25881547Y39735321D01*
X25872594Y39735495D01*
X25871829Y39735863D01*
X25737806Y39806444D01*
X25737406Y39806665D01*
X25686660Y39835978D01*
X25686661Y39835978D01*
X25686657Y39835980D01*
X25612483Y39866154D01*
X25573777Y39881900D01*
X25499612Y39895237D01*
X25416871Y39899437D01*
X25408782Y39903279D01*
X25405764Y39911122D01*
X25405764Y40089022D01*
X25409191Y40097295D01*
X25416719Y40100698D01*
X25518615Y40107184D01*
X25518618Y40107185D01*
X25518620Y40107185D01*
X25543362Y40112934D01*
X25603669Y40126945D01*
X25672732Y40156597D01*
X25737452Y40193365D01*
X25737771Y40193539D01*
X25871831Y40264139D01*
X25880746Y40264961D01*
X25887633Y40259238D01*
G37*
%TD.AperFunction*%
%TD*%
%TA.AperFunction,Conductor*%
%TO.N,/IO0_boot_option*%
G36*
X49304685Y31698952D02*
G01*
X49558472Y31588003D01*
X49564679Y31581549D01*
X49564505Y31572596D01*
X49564137Y31571831D01*
X49493562Y31437818D01*
X49493341Y31437418D01*
X49464021Y31386661D01*
X49464019Y31386657D01*
X49451549Y31356003D01*
X49418099Y31273775D01*
X49404763Y31199613D01*
X49400564Y31116871D01*
X49396722Y31108782D01*
X49388879Y31105764D01*
X49210979Y31105764D01*
X49202706Y31109191D01*
X49199303Y31116721D01*
X49192816Y31218612D01*
X49192815Y31218621D01*
X49173055Y31303664D01*
X49173054Y31303669D01*
X49143403Y31372732D01*
X49143401Y31372737D01*
X49143399Y31372741D01*
X49106640Y31437445D01*
X49106461Y31437772D01*
X49035862Y31571831D01*
X49035039Y31580748D01*
X49040762Y31587635D01*
X49041511Y31587996D01*
X49295313Y31698952D01*
X49304266Y31699125D01*
X49304685Y31698952D01*
G37*
%TD.AperFunction*%
%TD*%
%TA.AperFunction,Conductor*%
%TO.N,/IO0_boot_option*%
G36*
X53204685Y14498952D02*
G01*
X53458472Y14388003D01*
X53464679Y14381549D01*
X53464505Y14372596D01*
X53464137Y14371831D01*
X53393562Y14237818D01*
X53393341Y14237418D01*
X53364021Y14186661D01*
X53364019Y14186657D01*
X53351549Y14156003D01*
X53318099Y14073775D01*
X53304763Y13999613D01*
X53300564Y13916871D01*
X53296722Y13908782D01*
X53288879Y13905764D01*
X53110979Y13905764D01*
X53102706Y13909191D01*
X53099303Y13916721D01*
X53092816Y14018612D01*
X53092815Y14018621D01*
X53073055Y14103664D01*
X53073054Y14103669D01*
X53043403Y14172732D01*
X53043401Y14172737D01*
X53043399Y14172741D01*
X53006640Y14237445D01*
X53006461Y14237772D01*
X52935862Y14371831D01*
X52935039Y14380748D01*
X52940762Y14387635D01*
X52941511Y14387996D01*
X53195313Y14498952D01*
X53204266Y14499125D01*
X53204685Y14498952D01*
G37*
%TD.AperFunction*%
%TD*%
%TA.AperFunction,Conductor*%
%TO.N,/IO0_boot_option*%
G36*
X53297294Y15090809D02*
G01*
X53300697Y15083279D01*
X53307183Y14981389D01*
X53307184Y14981380D01*
X53326943Y14896336D01*
X53326946Y14896327D01*
X53356597Y14827266D01*
X53356598Y14827263D01*
X53393359Y14762555D01*
X53393538Y14762228D01*
X53464137Y14628171D01*
X53464960Y14619254D01*
X53459237Y14612367D01*
X53458472Y14611999D01*
X53204687Y14501050D01*
X53195734Y14500876D01*
X53195313Y14501050D01*
X52941527Y14611999D01*
X52935320Y14618453D01*
X52935494Y14627406D01*
X52935852Y14628151D01*
X53006461Y14762228D01*
X53006658Y14762584D01*
X53008506Y14765785D01*
X53035981Y14813344D01*
X53081900Y14926225D01*
X53095237Y15000388D01*
X53099436Y15083130D01*
X53103278Y15091218D01*
X53111121Y15094236D01*
X53289021Y15094236D01*
X53297294Y15090809D01*
G37*
%TD.AperFunction*%
%TD*%
%TA.AperFunction,Conductor*%
%TO.N,/opto_anode*%
G36*
X32197294Y25990809D02*
G01*
X32200697Y25983279D01*
X32207183Y25881389D01*
X32207184Y25881380D01*
X32226943Y25796336D01*
X32226946Y25796327D01*
X32256597Y25727266D01*
X32256598Y25727263D01*
X32293359Y25662555D01*
X32293538Y25662228D01*
X32364137Y25528171D01*
X32364960Y25519254D01*
X32359237Y25512367D01*
X32358472Y25511999D01*
X32104687Y25401050D01*
X32095734Y25400876D01*
X32095313Y25401050D01*
X31841527Y25511999D01*
X31835320Y25518453D01*
X31835494Y25527406D01*
X31835852Y25528151D01*
X31906461Y25662228D01*
X31906658Y25662584D01*
X31908506Y25665785D01*
X31935981Y25713344D01*
X31981900Y25826225D01*
X31995237Y25900388D01*
X31999436Y25983130D01*
X32003278Y25991218D01*
X32011121Y25994236D01*
X32189021Y25994236D01*
X32197294Y25990809D01*
G37*
%TD.AperFunction*%
%TD*%
%TA.AperFunction,Conductor*%
%TO.N,/opto_anode*%
G36*
X13975990Y44844461D02*
G01*
X14074557Y44791780D01*
X14168273Y44760322D01*
X14203375Y44749685D01*
X14204607Y44749234D01*
X14314350Y44701854D01*
X14316352Y44700746D01*
X14372725Y44661892D01*
X14373896Y44660969D01*
X14428146Y44612323D01*
X14432018Y44604248D01*
X14429046Y44595801D01*
X14428608Y44595339D01*
X14303476Y44470207D01*
X14295203Y44466780D01*
X14287717Y44469488D01*
X14261063Y44491677D01*
X14228360Y44507685D01*
X14202893Y44511548D01*
X14197350Y44512388D01*
X14197349Y44512388D01*
X14167553Y44507503D01*
X14109721Y44475818D01*
X14051091Y44426342D01*
X14051003Y44426269D01*
X13974577Y44363043D01*
X13972499Y44361668D01*
X13900926Y44324607D01*
X13892003Y44323846D01*
X13885156Y44329617D01*
X13884393Y44331463D01*
X13800992Y44595332D01*
X13801766Y44604250D01*
X13802431Y44605372D01*
X13960771Y44840675D01*
X13968232Y44845624D01*
X13975990Y44844461D01*
G37*
%TD.AperFunction*%
%TD*%
%TA.AperFunction,Conductor*%
%TO.N,/Booster-C*%
G36*
X29957340Y27683035D02*
G01*
X30083134Y27557241D01*
X30086561Y27548968D01*
X30083643Y27541237D01*
X30016181Y27464603D01*
X29970010Y27390484D01*
X29970008Y27390480D01*
X29942146Y27320692D01*
X29942141Y27320676D01*
X29922377Y27248920D01*
X29922272Y27248562D01*
X29877403Y27103857D01*
X29871680Y27096970D01*
X29862763Y27096147D01*
X29861962Y27096428D01*
X29604055Y27197428D01*
X29597601Y27203635D01*
X29597440Y27204024D01*
X29496425Y27461965D01*
X29496599Y27470916D01*
X29503053Y27477123D01*
X29503829Y27477396D01*
X29648558Y27522275D01*
X29648943Y27522386D01*
X29705589Y27537548D01*
X29817877Y27584897D01*
X29879749Y27627906D01*
X29941227Y27683446D01*
X29949660Y27686447D01*
X29957340Y27683035D01*
G37*
%TD.AperFunction*%
%TD*%
%TA.AperFunction,Conductor*%
%TO.N,/Booster-C*%
G36*
X9347609Y40924407D02*
G01*
X9473567Y40798449D01*
X9476994Y40790176D01*
X9474398Y40783161D01*
X9474558Y40783040D01*
X9357817Y40628479D01*
X9270949Y40461074D01*
X9230262Y40323966D01*
X9228155Y40221629D01*
X9252050Y40159338D01*
X9251813Y40150387D01*
X9245316Y40144224D01*
X9243706Y40143736D01*
X7524064Y39754895D01*
X7515239Y39756413D01*
X7510072Y39763727D01*
X7511132Y39771759D01*
X7970287Y40643013D01*
X7977175Y40648732D01*
X7981825Y40649195D01*
X8183904Y40628477D01*
X8217232Y40625060D01*
X8370216Y40623189D01*
X8370218Y40623189D01*
X8370221Y40623190D01*
X8370236Y40623189D01*
X8521252Y40631407D01*
X8802541Y40675013D01*
X8948331Y40719372D01*
X9037464Y40746491D01*
X9037466Y40746493D01*
X9037469Y40746493D01*
X9216125Y40834898D01*
X9332143Y40925362D01*
X9340773Y40927745D01*
X9347609Y40924407D01*
G37*
%TD.AperFunction*%
%TD*%
%TA.AperFunction,Conductor*%
%TO.N,/Booster-C*%
G36*
X8621419Y40435326D02*
G01*
X8624679Y40432918D01*
X8656094Y40399882D01*
X8730773Y40321350D01*
X8730773Y40321352D01*
X8731242Y40321377D01*
X8739697Y40318428D01*
X8740182Y40317969D01*
X8868280Y40189871D01*
X8871707Y40181641D01*
X8871711Y40180400D01*
X8984600Y40073006D01*
X8985236Y40071573D01*
X8986506Y40070652D01*
X8986988Y40067624D01*
X8988232Y40064821D01*
X8987668Y40063358D01*
X8987915Y40061809D01*
X8986115Y40059327D01*
X8985013Y40056465D01*
X8982659Y40054559D01*
X8966690Y40044752D01*
X8962540Y40043190D01*
X8933680Y40038253D01*
X8929993Y40038211D01*
X8887515Y40044501D01*
X8884752Y40045265D01*
X8840035Y40063786D01*
X8837279Y40065400D01*
X8755346Y40129846D01*
X8752638Y40132873D01*
X8730072Y40169235D01*
X8729725Y40169522D01*
X8728316Y40170269D01*
X8686065Y40199590D01*
X8684300Y40201095D01*
X8647054Y40239857D01*
X8645284Y40242243D01*
X8632127Y40265714D01*
X8598484Y40325728D01*
X8597074Y40330058D01*
X8589533Y40393278D01*
X8590679Y40399880D01*
X8605730Y40430076D01*
X8612486Y40435950D01*
X8621419Y40435326D01*
G37*
%TD.AperFunction*%
%TD*%
%TA.AperFunction,Conductor*%
%TO.N,/io_ref*%
G36*
X29394865Y3764871D02*
G01*
X29513223Y3653263D01*
X29629528Y3557784D01*
X29737924Y3482556D01*
X29840820Y3423906D01*
X30039751Y3341654D01*
X30245598Y3281655D01*
X30379475Y3244395D01*
X30380062Y3244213D01*
X30659827Y3149360D01*
X30666560Y3143460D01*
X30667149Y3134524D01*
X30666955Y3133993D01*
X30367571Y2374027D01*
X30361350Y2367585D01*
X30360973Y2367429D01*
X29600896Y2068001D01*
X29591943Y2068157D01*
X29585722Y2074599D01*
X29585565Y2075021D01*
X29509620Y2291946D01*
X29509411Y2292606D01*
X29488094Y2367429D01*
X29453345Y2489402D01*
X29386440Y2715616D01*
X29350224Y2799679D01*
X29301940Y2911755D01*
X29301936Y2911764D01*
X29244945Y3008845D01*
X29244934Y3008861D01*
X29221819Y3041687D01*
X29173014Y3110999D01*
X29079097Y3224763D01*
X28970141Y3340135D01*
X28966953Y3348502D01*
X28970374Y3356439D01*
X29378567Y3764632D01*
X29386839Y3768058D01*
X29394865Y3764871D01*
G37*
%TD.AperFunction*%
%TD*%
%TA.AperFunction,Conductor*%
%TO.N,/vin_pin*%
G36*
X46246781Y3976024D02*
G01*
X46250206Y3967961D01*
X46257350Y3569107D01*
X46257351Y3569084D01*
X46281804Y3269937D01*
X46281806Y3269920D01*
X46326963Y3005129D01*
X46396417Y2697882D01*
X46425747Y2572005D01*
X46424287Y2563170D01*
X46417007Y2557955D01*
X46417004Y2557954D01*
X45610313Y2370237D01*
X45601478Y2371700D01*
X45600636Y2372277D01*
X44940814Y2867700D01*
X44936256Y2875408D01*
X44938483Y2884081D01*
X44938747Y2884420D01*
X45013762Y2975865D01*
X45014351Y2976526D01*
X45097561Y3062816D01*
X45098203Y3063431D01*
X45261910Y3209007D01*
X45261962Y3209053D01*
X45331230Y3269920D01*
X45386839Y3318784D01*
X45501716Y3445775D01*
X45580459Y3582177D01*
X45609341Y3661606D01*
X45631002Y3751638D01*
X45645125Y3858025D01*
X45649549Y3968221D01*
X45653305Y3976349D01*
X45661240Y3979451D01*
X46238508Y3979451D01*
X46246781Y3976024D01*
G37*
%TD.AperFunction*%
%TD*%
M02*
